<svg width="137" height="172" viewBox="0 0 137 172" fill="none" xmlns="http://www.w3.org/2000/svg">
<path d="M5.23 138.213C12.59 134.853 19.79 130.933 26.83 126.453C34.03 121.973 40.83 117.173 47.23 112.053C53.63 106.773 59.23 101.493 64.03 96.2125C68.99 90.7725 72.83 85.4925 75.55 80.3725C78.43 75.0925 79.87 70.2125 79.87 65.7325C79.87 63.4925 79.39 61.4925 78.43 59.7325C77.47 57.9725 75.87 56.6125 73.63 55.6525C71.55 54.5325 68.67 53.9725 64.99 53.9725C61.31 53.9725 57.39 54.4525 53.23 55.4125C49.23 56.2125 45.15 57.4125 40.99 59.0125C36.83 60.6125 32.59 62.3725 28.27 64.2925L20.59 18.2125C26.35 14.8525 32.83 11.8925 40.03 9.33252C47.23 6.61251 54.67 4.53251 62.35 3.09251C70.19 1.65251 77.79 0.93251 85.15 0.93251C92.35 0.93251 99.07 1.89251 105.31 3.81252C111.55 5.73251 116.99 8.61251 121.63 12.4525C126.27 16.1325 129.87 20.7725 132.43 26.3725C135.15 31.8125 136.51 38.1325 136.51 45.3325C136.51 52.5325 135.47 59.3325 133.39 65.7325C131.47 72.1325 128.75 78.2125 125.23 83.9725C121.71 89.7325 117.55 95.2525 112.75 100.533C108.11 105.813 103.07 110.933 97.63 115.893C92.19 120.853 86.67 125.733 81.07 130.533H132.67L125.71 171.333H0.19L5.23 138.213Z" fill="#F6F9FF"/>
</svg>
