<svg width="149" height="174" viewBox="0 0 149 174" fill="none" xmlns="http://www.w3.org/2000/svg">
<path d="M0.35 161.4L18.83 124.68C22.51 126.12 26.59 127.32 31.07 128.28C35.71 129.24 40.51 130.04 45.47 130.68C50.59 131.16 55.71 131.4 60.83 131.4C67.23 131.4 72.51 130.92 76.67 129.96C80.99 128.84 84.19 127.16 86.27 124.92C88.51 122.68 89.63 119.8 89.63 116.28C89.63 112.92 88.27 110.2 85.55 108.12C82.83 106.04 77.79 105 70.43 105H39.47L45.47 68.52H70.19C75.31 68.52 79.55 68.28 82.91 67.8C86.27 67.16 88.91 66.28 90.83 65.16C92.75 64.04 94.11 62.68 94.91 61.08C95.71 59.48 96.11 57.64 96.11 55.56C96.11 51.4 93.71 48.44 88.91 46.68C84.27 44.76 78.11 43.8 70.43 43.8C65.79 43.8 61.07 44.04 56.27 44.52C51.63 45 46.99 45.64 42.35 46.44C37.87 47.24 33.55 48.2 29.39 49.32L25.55 13.08C30.03 10.52 35.55 8.35999 42.11 6.59999C48.67 4.67999 55.95 3.24 63.95 2.28C71.95 1.15999 80.27 0.599991 88.91 0.599991C109.39 0.599991 124.51 3.87999 134.27 10.44C144.03 16.84 148.91 26.12 148.91 38.28C148.91 45.16 147.63 51.32 145.07 56.76C142.51 62.04 138.91 66.76 134.27 70.92C129.63 74.92 124.27 78.44 118.19 81.48C122.51 83.24 126.27 85.56 129.47 88.44C132.67 91.32 135.15 95 136.91 99.48C138.83 103.8 139.79 109.16 139.79 115.56C139.79 124.36 138.11 131.96 134.75 138.36C131.39 144.76 126.83 150.2 121.07 154.68C115.31 159.16 108.91 162.84 101.87 165.72C94.83 168.44 87.55 170.36 80.03 171.48C72.51 172.76 65.39 173.4 58.67 173.4C47.15 173.4 36.59 172.44 26.99 170.52C17.39 168.44 8.51 165.4 0.35 161.4Z" fill="#F6F9FF"/>
</svg>
