<svg width="203" height="60" viewBox="0 0 203 60" fill="none" xmlns="http://www.w3.org/2000/svg">
<g clip-path="url(#clip0_227_11755)">
<path d="M201.654 52.9172C201.654 56.0908 199.075 58.6637 195.891 58.6637C195.891 58.6637 195.887 58.6637 195.884 58.6637H7.11551C3.92966 58.6681 1.34378 56.0952 1.33936 52.9172V7.08903C1.34378 3.91103 3.92744 1.33594 7.11551 1.33594H195.884C199.07 1.33594 201.652 3.91103 201.652 7.08903V52.9172H201.654Z" fill="white"/>
<path d="M195.887 60H7.11558C3.19028 60 0.00885573 56.8308 0 52.9174V7.09143C0.0066418 3.1758 3.18806 0.00220848 7.11558 0H195.884C199.81 0.00441696 202.991 3.1758 203 7.09143V52.9174C203.002 56.8242 199.805 60 195.887 60Z" fill="#A6A5A5"/>
<path d="M201.654 52.9172C201.654 56.0908 199.075 58.6637 195.891 58.6637C195.891 58.6637 195.887 58.6637 195.884 58.6637H7.11551C3.92966 58.6681 1.34378 56.0952 1.33936 52.9172V7.08903C1.34378 3.91103 3.92744 1.33594 7.11551 1.33594H195.884C199.07 1.33594 201.652 3.91103 201.652 7.08903V52.9172H201.654Z" fill="#010101"/>
<path opacity="0.1" d="M195.886 0H94.7739L134.377 60H195.884C199.81 59.9978 202.991 56.8264 203 52.913V7.09143C202.993 3.1758 199.812 0.00441696 195.884 0H195.886Z" fill="white"/>
<path d="M46.776 30.5388C46.734 25.8083 50.6593 23.5093 50.8386 23.401C48.6158 20.1678 45.1687 19.7261 43.9577 19.6908C41.0641 19.386 38.2568 21.4178 36.7823 21.4178C35.3079 21.4178 33.0076 19.7195 30.5612 19.7703C27.413 19.8189 24.4662 21.6365 22.8501 24.4611C19.5159 30.2186 22.0021 38.6771 25.1968 43.3304C26.7953 45.6117 28.6616 48.1537 31.1058 48.0653C33.4969 47.9682 34.3891 46.5459 37.2761 46.5459C40.163 46.5459 40.9733 48.0653 43.4662 48.0079C46.0322 47.9682 47.6483 45.7177 49.1892 43.4187C51.0357 40.8083 51.7773 38.2332 51.8061 38.1029C51.7463 38.083 46.8248 36.208 46.7738 30.5388H46.776ZM42.067 16.6298C43.3533 15.0265 44.2322 12.8445 43.9887 10.6294C42.1268 10.7111 39.7999 11.9125 38.4583 13.4828C37.2716 14.8653 36.2134 17.1312 36.4857 19.2623C38.5756 19.4169 40.7231 18.2111 42.0648 16.632L42.067 16.6298Z" fill="white"/>
<path d="M81.4087 46.0426H78.0678L76.2369 40.3071H69.8741L68.1295 46.0426H64.875L71.1803 26.513H75.0746L81.4087 46.0426ZM75.6856 37.8999L74.0296 32.8005C73.8547 32.2793 73.5248 31.0536 73.0422 29.1212H72.9824C72.7876 29.9516 72.4777 31.1795 72.0526 32.8005L70.4253 37.8999H75.6834H75.6856ZM97.5925 38.8275C97.5925 41.2214 96.9416 43.1163 95.6354 44.5055C94.4664 45.7422 93.0141 46.3606 91.2828 46.3606C89.412 46.3606 88.0682 45.6958 87.2512 44.3641V51.7537H84.1141V36.5903C84.1141 35.0863 84.0742 33.5448 83.9967 31.9613H86.7553L86.9302 34.1941H86.99C88.0372 32.5134 89.6246 31.672 91.7544 31.672C93.4192 31.672 94.8096 32.3279 95.9232 33.6419C97.0346 34.9582 97.5925 36.6874 97.5925 38.8319V38.8275ZM94.3956 38.9423C94.3956 37.5708 94.0856 36.4423 93.4657 35.5501C92.7883 34.6247 91.8761 34.1609 90.7337 34.1609C89.9589 34.1609 89.2571 34.4193 88.6283 34.9295C87.9995 35.4441 87.5855 36.1132 87.3929 36.9436C87.3066 37.255 87.2579 37.573 87.2468 37.8955V40.2453C87.2468 41.2678 87.5612 42.1313 88.1922 42.8403C88.8209 43.5448 89.6401 43.8981 90.6474 43.8981C91.8296 43.8981 92.7484 43.441 93.406 42.5355C94.0657 41.6278 94.3956 40.4308 94.3956 38.9423ZM113.832 38.8275C113.832 41.2214 113.181 43.1163 111.875 44.5055C110.706 45.7422 109.253 46.3606 107.52 46.3606C105.649 46.3606 104.305 45.6958 103.488 44.3641V51.7537H100.351V36.5903C100.351 35.0863 100.311 33.5448 100.234 31.9613H102.992L103.167 34.1941H103.227C104.272 32.5134 105.859 31.672 107.991 31.672C109.656 31.672 111.047 32.3279 112.162 33.6419C113.272 34.9582 113.832 36.6874 113.832 38.8319V38.8275ZM110.635 38.9423C110.635 37.5708 110.325 36.4423 109.703 35.5501C109.025 34.6247 108.118 34.1609 106.975 34.1609C106.2 34.1609 105.498 34.4193 104.868 34.9295C104.239 35.4441 103.827 36.1132 103.634 36.9436C103.539 37.3301 103.488 37.6459 103.488 37.8955V40.2453C103.488 41.2678 103.805 42.1313 104.431 42.8403C105.06 43.5426 105.879 43.8981 106.889 43.8981C108.071 43.8981 108.992 43.441 109.647 42.5355C110.307 41.6278 110.637 40.4308 110.637 38.9423H110.635ZM131.99 40.5633C131.99 42.2263 131.408 43.5779 130.25 44.6203C128.975 45.7599 127.197 46.3297 124.917 46.3297C122.809 46.3297 121.12 45.9255 119.847 45.1128L120.573 42.5046C121.948 43.3173 123.46 43.7214 125.105 43.7214C126.287 43.7214 127.208 43.4542 127.864 42.9242C128.521 42.3919 128.853 41.683 128.853 40.7974C128.853 40.0046 128.579 39.3398 128.039 38.7965C127.496 38.2555 126.597 37.7541 125.338 37.2904C121.908 36.0161 120.192 34.1499 120.192 31.6963C120.192 30.0929 120.799 28.7811 122.008 27.7563C123.217 26.7316 124.822 26.2192 126.816 26.2192C128.599 26.2192 130.082 26.5284 131.262 27.1468L130.474 29.6976C129.365 29.0991 128.112 28.7987 126.712 28.7987C125.605 28.7987 124.738 29.0704 124.118 29.6093C123.595 30.0929 123.329 30.6804 123.329 31.3782C123.329 32.149 123.631 32.7895 124.231 33.2908C124.751 33.7524 125.703 34.2559 127.075 34.797C128.762 35.475 130 36.2634 130.795 37.1711C131.594 38.0788 131.99 39.2095 131.99 40.5589V40.5633ZM142.389 34.3089H138.931V41.1464C138.931 42.8844 139.54 43.7524 140.762 43.7524C141.322 43.7524 141.787 43.706 142.155 43.6066L142.241 45.9829C141.623 46.2126 140.809 46.3297 139.801 46.3297C138.561 46.3297 137.594 45.952 136.894 45.1989C136.199 44.4436 135.847 43.1804 135.847 41.4025V34.3045H133.788V31.9569H135.847V29.3796L138.929 28.452V31.9569H142.387V34.3111L142.389 34.3089ZM157.96 38.8849C157.96 41.0492 157.34 42.827 156.1 44.2161C154.803 45.6472 153.08 46.3606 150.928 46.3606C148.776 46.3606 147.205 45.676 145.974 44.3067C144.743 42.9352 144.129 41.206 144.129 39.1212C144.129 37.0364 144.765 35.1525 146.031 33.7612C147.302 32.3699 149.011 31.6742 151.161 31.6742C153.311 31.6742 154.898 32.361 156.155 33.7325C157.36 35.062 157.958 36.778 157.958 38.8871L157.96 38.8849ZM154.708 38.9578C154.708 37.668 154.429 36.5616 153.866 35.6362C153.209 34.5187 152.268 33.96 151.048 33.96C149.828 33.96 148.827 34.5187 148.172 35.6362C147.61 36.5616 147.331 37.6879 147.331 39.0174C147.331 40.3469 147.61 41.418 148.172 42.3411C148.85 43.4586 149.797 44.0174 151.021 44.0174C152.246 44.0174 153.16 43.4476 153.84 42.3124C154.418 41.365 154.705 40.2497 154.705 38.9578H154.708ZM168.162 34.7108C167.836 34.6512 167.504 34.6225 167.172 34.6247C166.069 34.6247 165.215 35.0377 164.615 35.8725C164.095 36.6057 163.831 37.5333 163.831 38.653V46.0426H160.694V36.3959C160.696 34.9184 160.667 33.4388 160.603 31.9635H163.335L163.45 34.6578H163.537C163.869 33.7325 164.389 32.986 165.104 32.4251C165.76 31.937 166.554 31.672 167.371 31.6698C167.661 31.6698 167.923 31.6896 168.155 31.7272V34.7131H168.157L168.162 34.7108ZM182.191 38.335C182.2 38.8098 182.16 39.2868 182.076 39.755H172.665C172.7 41.1464 173.156 42.2108 174.031 42.9463C174.823 43.6 175.848 43.929 177.108 43.929C178.501 43.929 179.774 43.7082 180.916 43.2643L181.408 45.4352C180.073 46.0161 178.494 46.3054 176.674 46.3054C174.485 46.3054 172.767 45.6627 171.516 44.3796C170.267 43.0964 169.643 41.3694 169.643 39.2073C169.643 37.0452 170.225 35.3182 171.387 33.907C172.605 32.4008 174.252 31.6477 176.324 31.6477C178.397 31.6477 179.9 32.4008 180.947 33.907C181.775 35.0995 182.191 36.5792 182.191 38.335ZM179.2 37.5245C179.222 36.5947 179.017 35.7952 178.591 35.1194C178.049 34.2471 177.212 33.8142 176.092 33.8142C175.067 33.8142 174.23 34.2382 173.595 35.0885C173.072 35.7643 172.762 36.577 172.667 37.5222H179.2V37.5245Z" fill="white"/>
<path d="M68.9684 21.3051C68.0961 21.3051 67.3412 21.2632 66.7124 21.1903V11.749C67.5913 11.6143 68.4791 11.5458 69.3691 11.5503C72.9668 11.5503 74.6228 13.3148 74.6228 16.1925C74.6228 19.5118 72.6657 21.3051 68.9684 21.3051ZM69.4953 12.7605C69.0105 12.7605 68.5965 12.7892 68.2533 12.8599V20.0375C68.4393 20.0662 68.7957 20.0794 69.2961 20.0794C71.6539 20.0794 72.9955 18.7411 72.9955 16.2344C72.9955 13.9995 71.7823 12.7605 69.4975 12.7605H69.4953ZM79.7879 21.3758C77.7599 21.3758 76.4471 19.8652 76.4471 17.8157C76.4471 15.7662 77.7887 14.1563 79.903 14.1563C81.9022 14.1563 83.2438 15.594 83.2438 17.7031C83.2438 19.8122 81.8601 21.3758 79.7879 21.3758ZM79.8455 15.2804C78.7318 15.2804 78.019 16.3184 78.019 17.7716C78.019 19.2247 78.7473 20.2362 79.8322 20.2362C80.917 20.2362 81.6454 19.1253 81.6454 17.7428C81.6454 16.3603 80.9325 15.2804 79.8477 15.2804H79.8455ZM94.8072 14.2998L92.6376 21.2212H91.2229L90.324 18.2155C90.1004 17.48 89.9144 16.7336 89.7661 15.9805H89.7373C89.6244 16.7358 89.4097 17.4911 89.1816 18.2155L88.2252 21.2212H86.7972L84.7538 14.2998H86.3389L87.1249 17.5905C87.3108 18.3745 87.4658 19.1143 87.5964 19.8122H87.6252C87.7381 19.2291 87.9241 18.5026 88.1964 17.6059L89.1816 14.302H90.4391L91.3823 17.5352C91.6103 18.3193 91.7963 19.0878 91.9402 19.8144H91.9822C92.0819 19.1033 92.2391 18.348 92.4538 17.5352L93.2973 14.302H94.8117L94.8072 14.2998ZM102.797 21.219H101.254V17.2459C101.254 16.0224 100.783 15.4085 99.855 15.4085C98.9274 15.4085 98.3119 16.1925 98.3119 17.1024V21.219H96.7688V16.2764C96.7688 15.6647 96.7533 15.0087 96.7112 14.2976H98.0683L98.1414 15.3665H98.1835C98.5975 14.6267 99.441 14.1563 100.384 14.1563C101.841 14.1563 102.797 15.2671 102.797 17.0759V21.219ZM107.048 21.219H105.505V11.124H107.048V21.219ZM112.671 21.3758C110.646 21.3758 109.331 19.8652 109.331 17.8157C109.331 15.7662 110.672 14.1563 112.787 14.1563C114.786 14.1563 116.127 15.594 116.127 17.7031C116.127 19.8652 114.744 21.3758 112.671 21.3758ZM112.729 15.2804C111.615 15.2804 110.903 16.3184 110.903 17.7716C110.903 19.2247 111.633 20.2362 112.714 20.2362C113.794 20.2362 114.527 19.1253 114.527 17.7428C114.527 16.3338 113.816 15.2804 112.729 15.2804ZM122.207 21.219L122.094 20.4217H122.052C121.58 21.0622 120.894 21.3758 120.022 21.3758C118.777 21.3758 117.896 20.5079 117.896 19.3396C117.896 17.6324 119.382 16.749 121.952 16.749V16.6209C121.952 15.7088 121.467 15.2539 120.511 15.2539C119.827 15.2539 119.227 15.4261 118.698 15.7685L118.383 14.757C119.025 14.3572 119.825 14.1585 120.766 14.1585C122.579 14.1585 123.493 15.1125 123.493 17.0207V19.5693C123.493 20.2671 123.524 20.8082 123.593 21.2212H122.202L122.207 21.219ZM121.994 17.7716C120.281 17.7716 119.422 18.1845 119.422 19.1673C119.422 19.8939 119.865 20.2495 120.48 20.2495C121.264 20.2495 121.994 19.6532 121.994 18.8405V17.7716ZM130.985 21.219L130.912 20.1081H130.87C130.427 20.9473 129.683 21.3758 128.643 21.3758C126.969 21.3758 125.731 19.9094 125.731 17.8444C125.731 15.7795 127.016 14.1563 128.769 14.1563C129.697 14.1563 130.354 14.4699 130.726 15.0971H130.757V11.124H132.3V19.355C132.3 20.0242 132.316 20.6514 132.358 21.2212H130.985V21.219ZM130.757 17.1466C130.757 16.177 130.115 15.3511 129.132 15.3511C127.99 15.3511 127.29 16.3625 127.29 17.7848C127.29 19.2071 128.016 20.1346 129.101 20.1346C130.071 20.1346 130.757 19.2932 130.757 18.2972V17.1443V17.1466ZM142.088 21.3758C140.062 21.3758 138.747 19.8652 138.747 17.8157C138.747 15.7662 140.089 14.1563 142.203 14.1563C144.202 14.1563 145.544 15.594 145.544 17.7031C145.544 19.8652 144.16 21.3758 142.088 21.3758ZM142.146 15.2804C141.034 15.2804 140.319 16.3184 140.319 17.7716C140.319 19.2247 141.047 20.2362 142.13 20.2362C143.213 20.2362 143.943 19.1253 143.943 17.7428C143.945 16.3338 143.233 15.2804 142.146 15.2804ZM153.837 21.219H152.294V17.2459C152.294 16.0224 151.823 15.4085 150.895 15.4085C149.967 15.4085 149.354 16.1925 149.354 17.1024V21.219H147.811V16.2764C147.811 15.6647 147.796 15.0087 147.753 14.2976H149.111L149.184 15.3665H149.226C149.64 14.6267 150.483 14.1563 151.424 14.1563C152.881 14.1563 153.84 15.2671 153.84 17.0759V21.2212L153.837 21.219ZM164.212 15.4526H162.516V18.814C162.516 19.6686 162.813 20.0971 163.413 20.0971C163.685 20.0971 163.913 20.0684 164.097 20.0242L164.139 21.1925C163.84 21.3073 163.439 21.3647 162.943 21.3647C161.728 21.3647 161.002 20.6956 161.002 18.9443V15.4549H159.99V14.302H161.002V13.0344L162.516 12.5772V14.2998H164.212V15.4549V15.4526ZM172.377 21.219H170.836V17.2746C170.836 16.0357 170.367 15.4085 169.437 15.4085C168.637 15.4085 167.894 15.9496 167.894 17.0472V21.219H166.353V11.124H167.894V15.2804H167.925C168.409 14.5251 169.113 14.1541 170.01 14.1541C171.478 14.1541 172.377 15.2936 172.377 17.1024V21.219ZM180.739 18.1293H176.112C176.14 19.439 177.011 20.1788 178.299 20.1788C178.983 20.1788 179.614 20.064 180.17 19.8519L180.409 20.9208C179.754 21.2057 178.981 21.3471 178.082 21.3471C175.912 21.3471 174.626 19.98 174.626 17.8599C174.626 15.7397 175.941 14.143 177.907 14.143C179.681 14.143 180.792 15.4526 180.792 17.4337C180.803 17.6678 180.783 17.9019 180.739 18.1315V18.1293ZM179.326 17.0317C179.326 15.9628 178.786 15.2097 177.801 15.2097C176.915 15.2097 176.216 15.9783 176.114 17.0317H179.326Z" fill="white"/>
</g>
<defs>
<clipPath id="clip0_227_11755">
<rect width="203" height="60" fill="white"/>
</clipPath>
</defs>
</svg>
