<svg width="203" height="60" viewBox="0 0 203 60" fill="none" xmlns="http://www.w3.org/2000/svg">
<g clip-path="url(#clip0_348_8679)">
<path d="M201.654 52.9175C201.654 56.091 199.075 58.6639 195.891 58.6639C195.891 58.6639 195.887 58.6639 195.885 58.6639H7.116C3.93015 58.6683 1.34427 56.0955 1.33984 52.9175V7.08927C1.34427 3.91127 3.92793 1.33618 7.116 1.33618H195.885C199.071 1.33618 201.652 3.91127 201.652 7.08927V52.9175H201.654Z" fill="white"/>
<path d="M195.887 60H7.11558C3.19028 60 0.00885573 56.8308 0 52.9174V7.09143C0.0066418 3.1758 3.18806 0.00220848 7.11558 0H195.884C199.81 0.00441696 202.991 3.1758 203 7.09143V52.9174C203.002 56.8242 199.805 60 195.887 60Z" fill="#A6A5A5"/>
<path d="M201.654 52.9175C201.654 56.091 199.075 58.6639 195.891 58.6639C195.891 58.6639 195.887 58.6639 195.885 58.6639H7.116C3.93015 58.6683 1.34427 56.0955 1.33984 52.9175V7.08927C1.34427 3.91127 3.92793 1.33618 7.116 1.33618H195.885C199.071 1.33618 201.652 3.91127 201.652 7.08927V52.9175H201.654Z" fill="#010101"/>
<path opacity="0.1" d="M195.887 0H94.7744L134.377 60H195.885C199.81 59.9978 202.991 56.8264 203 52.913V7.09143C202.994 3.1758 199.812 0.00441696 195.885 0H195.887Z" fill="white"/>
<path d="M67.2026 19.8632C66.3954 19.8632 65.6665 19.8168 65 19.7385V9.4542C65.6985 9.31514 66.5649 9.23682 67.6054 9.23682C70.1661 9.23682 71.4992 10.2294 71.4992 11.8582C71.4992 12.8509 70.8646 13.7348 69.7617 14.1232V14.1712C71.0181 14.4669 71.8716 15.4739 71.8716 16.7766C71.8716 18.6068 70.505 19.8632 67.2026 19.8632ZM67.7589 10.4948C67.2778 10.4948 66.9229 10.5251 66.6592 10.5875V13.6581H67.6981C68.9993 13.6581 69.8065 13.0059 69.8065 12.0293C69.8081 11.0063 69.1255 10.4948 67.7589 10.4948ZM67.6518 14.8841H66.6592V18.5301C66.8606 18.5764 67.2026 18.5924 67.6838 18.5924C69.2342 18.5924 70.1182 17.8939 70.1182 16.7302C70.1182 15.5506 69.1879 14.8841 67.6518 14.8841Z" fill="white"/>
<path d="M78.5506 19.7704L78.4275 18.9024H78.3811C77.8696 19.6009 77.1248 19.9414 76.1785 19.9414C74.8278 19.9414 73.8672 18.9951 73.8672 17.7228C73.8672 15.8622 75.48 14.9 78.2724 14.9V14.7609C78.2724 13.7683 77.745 13.2712 76.7076 13.2712C75.9611 13.2712 75.3106 13.4582 74.7367 13.8306L74.3963 12.7293C75.0948 12.2945 75.9611 12.0771 76.9857 12.0771C78.955 12.0771 79.9492 13.1161 79.9492 15.1957V17.9721C79.9492 18.733 79.9812 19.3228 80.0579 19.772L78.5506 19.7704ZM78.3188 16.0157C76.4566 16.0157 75.5264 16.4664 75.5264 17.5358C75.5264 18.327 76.0075 18.7138 76.6756 18.7138C77.5276 18.7138 78.3188 18.0633 78.3188 17.1793V16.0157Z" fill="white"/>
<path d="M83.6811 10.9902C83.1233 10.9902 82.6885 10.5555 82.6885 9.98164C82.6885 9.4078 83.1392 8.98901 83.7131 8.98901C84.2869 8.98901 84.752 9.4078 84.7377 9.98164C84.7361 10.5874 84.3029 10.9902 83.6811 10.9902ZM84.5506 19.7704H82.8755V12.2322H84.5506V19.7704Z" fill="white"/>
<path d="M93.6694 19.7706H91.7769L90.8003 18.1882C90.5813 17.8317 90.3495 17.4129 90.0858 16.9318H90.0554C89.8988 17.2259 89.667 17.6447 89.3409 18.1882L88.4106 19.7706H86.582L89.1555 15.9232L86.6731 12.2308H88.5353L89.4816 13.735C89.667 14.0291 89.9004 14.4175 90.1801 14.929H90.2264C90.4598 14.4798 90.6916 14.0754 90.909 13.703L91.7945 12.2292H93.6247L91.128 15.8593L93.6694 19.7706Z" fill="white"/>
<path d="M99.8855 19.7704L99.7625 18.9024H99.7161C99.2046 19.6009 98.4597 19.9414 97.5135 19.9414C96.1628 19.9414 95.2021 18.9951 95.2021 17.7228C95.2021 15.8622 96.815 14.9 99.6074 14.9V14.7609C99.6074 13.7683 99.0799 13.2712 98.0409 13.2712C97.2977 13.2712 96.6455 13.4582 96.0717 13.8306L95.7312 12.7293C96.4297 12.2945 97.2977 12.0771 98.3207 12.0771C100.29 12.0771 101.284 13.1161 101.284 15.1957V17.9721C101.284 18.733 101.316 19.3228 101.393 19.772L99.8855 19.7704ZM99.6522 16.0157C97.7916 16.0157 96.8597 16.4664 96.8597 17.5358C96.8597 18.327 97.3408 18.7138 98.009 18.7138C98.8609 18.7138 99.6522 18.0633 99.6522 17.1793V16.0157Z" fill="white"/>
<path d="M108.196 13.7059C108.027 13.674 107.854 13.6596 107.669 13.6596C106.58 13.6596 105.887 14.5131 105.887 15.8159V19.772H104.211V14.6075C104.211 13.7395 104.211 12.9467 104.165 12.2338H105.623V13.6756H105.732C106.056 12.7133 106.865 12.0771 107.779 12.0771C107.936 12.0771 108.073 12.0931 108.198 12.1091L108.196 13.7059Z" fill="white"/>
<path d="M121.407 19.7703H119.731V15.4417C119.731 14.1086 119.219 13.4405 118.21 13.4405C117.218 13.4405 116.537 14.2941 116.537 15.2867V19.7703H114.86V14.3868C114.86 13.7202 114.844 13.0057 114.798 12.2305H116.272L116.35 13.3941H116.396C116.845 12.5885 117.761 12.0754 118.784 12.0754C120.367 12.0754 121.407 13.2854 121.407 15.2547V19.7703Z" fill="white"/>
<path d="M128.489 19.7704L128.369 18.9024H128.323C127.813 19.6009 127.065 19.9414 126.119 19.9414C124.768 19.9414 123.811 18.9951 123.811 17.7228C123.811 15.8622 125.422 14.9 128.216 14.9V14.7609C128.216 13.7683 127.688 13.2712 126.649 13.2712C125.906 13.2712 125.254 13.4582 124.68 13.8306L124.34 12.7293C125.037 12.2945 125.906 12.0771 126.927 12.0771C128.897 12.0771 129.891 13.1161 129.891 15.1957V17.9721C129.891 18.733 129.925 19.3228 130 19.772L128.489 19.7704ZM128.259 16.0157C126.398 16.0157 125.465 16.4664 125.465 17.5358C125.465 18.327 125.946 18.7138 126.614 18.7138C127.466 18.7138 128.259 18.0633 128.259 17.1793V16.0157Z" fill="white"/>
<path d="M46.776 30.5388C46.734 25.8083 50.6593 23.5093 50.8386 23.401C48.6158 20.1678 45.1687 19.7261 43.9577 19.6908C41.0641 19.386 38.2568 21.4178 36.7823 21.4178C35.3079 21.4178 33.0076 19.7195 30.5612 19.7703C27.413 19.8189 24.4662 21.6365 22.8501 24.4611C19.5159 30.2186 22.0021 38.6771 25.1968 43.3304C26.7953 45.6117 28.6616 48.1537 31.1058 48.0653C33.4969 47.9682 34.3891 46.5459 37.2761 46.5459C40.163 46.5459 40.9733 48.0653 43.4662 48.0079C46.0322 47.9682 47.6483 45.7177 49.1892 43.4187C51.0357 40.8083 51.7773 38.2332 51.8061 38.1029C51.7463 38.083 46.8248 36.208 46.7738 30.5388H46.776ZM42.067 16.6298C43.3533 15.0265 44.2322 12.8445 43.9887 10.6294C42.1268 10.7111 39.7999 11.9125 38.4583 13.4828C37.2716 14.8653 36.2134 17.1312 36.4857 19.2623C38.5756 19.4169 40.7231 18.2111 42.0648 16.632L42.067 16.6298Z" fill="white"/>
<path d="M81.4087 46.0423H78.0678L76.2369 40.3069H69.8741L68.1295 46.0423H64.875L71.1803 26.5127H75.0746L81.4087 46.0423ZM75.6856 37.8996L74.0296 32.8003C73.8547 32.2791 73.5248 31.0534 73.0422 29.1209H72.9824C72.7876 29.9513 72.4777 31.1792 72.0526 32.8003L70.4253 37.8996H75.6834H75.6856ZM97.5925 38.8272C97.5925 41.2212 96.9416 43.1161 95.6354 44.5052C94.4664 45.742 93.0141 46.3603 91.2828 46.3603C89.412 46.3603 88.0682 45.6956 87.2512 44.3639V51.7534H84.1141V36.59C84.1141 35.086 84.0742 33.5445 83.9967 31.961H86.7553L86.9302 34.1938H86.99C88.0372 32.5132 89.6246 31.6717 91.7544 31.6717C93.4192 31.6717 94.8096 32.3277 95.9232 33.6417C97.0346 34.958 97.5925 36.6872 97.5925 38.8316V38.8272ZM94.3956 38.9421C94.3956 37.5706 94.0856 36.4421 93.4657 35.5498C92.7883 34.6245 91.8761 34.1607 90.7337 34.1607C89.9589 34.1607 89.2571 34.4191 88.6283 34.9292C87.9995 35.4438 87.5855 36.113 87.3929 36.9434C87.3066 37.2548 87.2579 37.5728 87.2468 37.8952V40.2451C87.2468 41.2676 87.5612 42.1311 88.1922 42.84C88.8209 43.5445 89.6401 43.8979 90.6474 43.8979C91.8296 43.8979 92.7484 43.4407 93.406 42.5352C94.0657 41.6276 94.3956 40.4306 94.3956 38.9421ZM113.832 38.8272C113.832 41.2212 113.181 43.1161 111.875 44.5052C110.706 45.742 109.253 46.3603 107.52 46.3603C105.649 46.3603 104.305 45.6956 103.488 44.3639V51.7534H100.351V36.59C100.351 35.086 100.311 33.5445 100.234 31.961H102.992L103.167 34.1938H103.227C104.272 32.5132 105.859 31.6717 107.991 31.6717C109.656 31.6717 111.047 32.3277 112.162 33.6417C113.272 34.958 113.832 36.6872 113.832 38.8316V38.8272ZM110.635 38.9421C110.635 37.5706 110.325 36.4421 109.703 35.5498C109.025 34.6245 108.118 34.1607 106.975 34.1607C106.2 34.1607 105.498 34.4191 104.868 34.9292C104.239 35.4438 103.827 36.113 103.634 36.9434C103.539 37.3299 103.488 37.6457 103.488 37.8952V40.2451C103.488 41.2676 103.805 42.1311 104.431 42.84C105.06 43.5423 105.879 43.8979 106.889 43.8979C108.071 43.8979 108.992 43.4407 109.647 42.5352C110.307 41.6276 110.637 40.4306 110.637 38.9421H110.635ZM131.99 40.5631C131.99 42.2261 131.408 43.5777 130.25 44.6201C128.975 45.7596 127.197 46.3294 124.917 46.3294C122.809 46.3294 121.12 45.9253 119.847 45.1125L120.573 42.5043C121.948 43.3171 123.46 43.7212 125.105 43.7212C126.287 43.7212 127.208 43.454 127.864 42.9239C128.521 42.3917 128.853 41.6828 128.853 40.7972C128.853 40.0043 128.579 39.3396 128.039 38.7963C127.496 38.2552 126.597 37.7539 125.338 37.2901C121.908 36.0158 120.192 34.1496 120.192 31.696C120.192 30.0927 120.799 28.7808 122.008 27.7561C123.217 26.7314 124.822 26.219 126.816 26.219C128.599 26.219 130.082 26.5282 131.262 27.1466L130.474 29.6974C129.365 29.0989 128.112 28.7985 126.712 28.7985C125.605 28.7985 124.738 29.0701 124.118 29.609C123.595 30.0927 123.329 30.6801 123.329 31.378C123.329 32.1488 123.631 32.7892 124.231 33.2906C124.751 33.7521 125.703 34.2557 127.075 34.7967C128.762 35.4747 130 36.2632 130.795 37.1708C131.594 38.0785 131.99 39.2093 131.99 40.5587V40.5631ZM142.389 34.3087H138.931V41.1461C138.931 42.8842 139.54 43.7521 140.762 43.7521C141.322 43.7521 141.787 43.7057 142.155 43.6064L142.241 45.9827C141.623 46.2124 140.809 46.3294 139.801 46.3294C138.561 46.3294 137.594 45.9518 136.894 45.1987C136.199 44.4434 135.847 43.1801 135.847 41.4023V34.3042H133.788V31.9566H135.847V29.3793L138.929 28.4518V31.9566H142.387V34.3109L142.389 34.3087ZM157.96 38.8846C157.96 41.0489 157.34 42.8268 156.1 44.2159C154.803 45.647 153.08 46.3603 150.928 46.3603C148.776 46.3603 147.205 45.6757 145.974 44.3064C144.743 42.935 144.129 41.2057 144.129 39.1209C144.129 37.0361 144.765 35.1523 146.031 33.761C147.302 32.3696 149.011 31.6739 151.161 31.6739C153.311 31.6739 154.898 32.3608 156.155 33.7322C157.36 35.0618 157.958 36.7777 157.958 38.8868L157.96 38.8846ZM154.708 38.9575C154.708 37.6678 154.429 36.5613 153.866 35.636C153.209 34.5185 152.268 33.9597 151.048 33.9597C149.828 33.9597 148.827 34.5185 148.172 35.636C147.61 36.5613 147.331 37.6876 147.331 39.0171C147.331 40.3466 147.61 41.4178 148.172 42.3409C148.85 43.4584 149.797 44.0171 151.021 44.0171C152.246 44.0171 153.16 43.4474 153.84 42.3122C154.418 41.3648 154.705 40.2495 154.705 38.9575H154.708ZM168.162 34.7106C167.836 34.651 167.504 34.6223 167.172 34.6245C166.069 34.6245 165.215 35.0375 164.615 35.8723C164.095 36.6055 163.831 37.533 163.831 38.6527V46.0423H160.694V36.3957C160.696 34.9182 160.667 33.4385 160.603 31.9633H163.335L163.45 34.6576H163.537C163.869 33.7322 164.389 32.9858 165.104 32.4248C165.76 31.9368 166.554 31.6717 167.371 31.6695C167.661 31.6695 167.923 31.6894 168.155 31.7269V34.7128H168.157L168.162 34.7106ZM182.191 38.3347C182.2 38.8095 182.16 39.2866 182.076 39.7548H172.665C172.7 41.1461 173.156 42.2106 174.031 42.946C174.823 43.5997 175.848 43.9288 177.108 43.9288C178.501 43.9288 179.774 43.708 180.916 43.264L181.408 45.435C180.073 46.0158 178.494 46.3051 176.674 46.3051C174.485 46.3051 172.767 45.6625 171.516 44.3793C170.267 43.0962 169.643 41.3692 169.643 39.2071C169.643 37.045 170.225 35.3179 171.387 33.9067C172.605 32.4005 174.252 31.6474 176.324 31.6474C178.397 31.6474 179.9 32.4005 180.947 33.9067C181.775 35.0993 182.191 36.579 182.191 38.3347ZM179.2 37.5242C179.222 36.5944 179.017 35.795 178.591 35.1192C178.049 34.2468 177.212 33.814 176.092 33.814C175.067 33.814 174.23 34.238 173.595 35.0883C173.072 35.764 172.762 36.5768 172.667 37.522H179.2V37.5242Z" fill="white"/>
</g>
<defs>
<clipPath id="clip0_348_8679">
<rect width="203" height="60" fill="white"/>
</clipPath>
</defs>
</svg>
