<svg width="124" height="77" viewBox="0 0 124 77" fill="none" xmlns="http://www.w3.org/2000/svg">
<path d="M96.4291 31.8039L96.4244 31.8084C94.9576 33.2113 92.7754 33.6543 90.8325 33.1023C89.1554 32.6259 88.0128 31.1203 86.8289 29.5251L68.2885 4.54363L68.2678 4.51573L67.8663 4.81369L68.2678 4.51572L68.2231 4.45547C67.1863 3.05802 65.9669 1.41446 64.1017 0.823482C62.8075 0.413425 61.3951 0.393539 60.0816 0.762006C58.0266 1.33845 56.6884 3.14695 55.5576 4.67519L55.5158 4.73167L37.056 29.6741L37.0372 29.6995C35.9363 31.1871 34.8849 32.5786 33.3418 33.0617C31.3873 33.6736 29.1193 33.247 27.5709 31.804L11.7719 17.0802C9.46607 14.9313 7.23916 13.8359 5.33118 13.879C3.35826 13.9235 1.87771 15.1758 1.11231 17.3357C0.157956 20.0288 0.858894 22.9447 1.51874 25.5177L8.329 52.0734C12.0154 66.448 24.9705 76.5 39.8103 76.5H83.5872C98.2058 76.5 111.026 66.7397 114.915 52.6481L122.328 25.7946C123.085 23.0528 123.918 19.8912 122.776 17.0383C122.373 16.0327 121.803 15.2364 121.076 14.6922C120.345 14.145 119.482 13.8724 118.533 13.8779C116.656 13.8886 114.481 14.981 112.228 17.0802L96.4291 31.8039Z" fill="url(#paint0_linear_227_11544)" stroke="url(#paint1_linear_227_11544)" stroke-linecap="round" stroke-linejoin="round"/>
<defs>
<linearGradient id="paint0_linear_227_11544" x1="62" y1="-14.1351" x2="62" y2="76" gradientUnits="userSpaceOnUse">
<stop stop-color="#008CFF"/>
<stop offset="1" stop-color="#008CFF" stop-opacity="0"/>
</linearGradient>
<linearGradient id="paint1_linear_227_11544" x1="62" y1="10.0984" x2="62" y2="76.0002" gradientUnits="userSpaceOnUse">
<stop stop-color="#202FFF"/>
<stop offset="1" stop-color="white" stop-opacity="0"/>
</linearGradient>
</defs>
</svg>
