<svg width="38" height="42" viewBox="0 0 38 42" fill="none" xmlns="http://www.w3.org/2000/svg">
<path d="M14.8855 9.75293H8.7901C7.85057 9.75293 7.08887 10.5146 7.08887 11.4542C7.08887 12.3937 7.85057 13.1554 8.7901 13.1554H14.8855C15.825 13.1554 16.5867 12.3937 16.5867 11.4542C16.5867 10.5146 15.825 9.75293 14.8855 9.75293Z" fill="#008CFF"/>
<path d="M14.8855 16.8228H8.7901C7.85057 16.8228 7.08887 17.5845 7.08887 18.524C7.08887 19.4635 7.85057 20.2252 8.7901 20.2252H14.8855C15.825 20.2252 16.5867 19.4635 16.5867 18.524C16.5867 17.5845 15.825 16.8228 14.8855 16.8228Z" fill="#008CFF"/>
<path d="M22.0381 28.7345V30.3913H22.9133C23.9748 30.3913 23.9748 29.7562 23.9748 29.5476C23.9748 29.3463 23.9748 28.7344 22.9133 28.7344H22.0381V28.7345Z" fill="#008CFF"/>
<path d="M34.9598 25.6038H32.1914V8.35906C32.1914 7.91288 32.0144 7.48519 31.6987 7.17001L25.0213 0.49211C24.7055 0.177041 24.2784 0 23.8322 0H3.7367C1.91604 0 0.435059 1.48109 0.435059 3.30175V38.6981C0.435059 40.5189 1.91615 42 3.7367 42H28.8896C30.7102 42 32.1913 40.5188 32.1913 38.6981V35.2902H34.9597C36.3986 35.2902 37.5652 34.1238 37.5652 32.6847V28.2091C37.5653 26.7703 36.3988 25.6038 34.9598 25.6038ZM28.6059 38.3238H4.02046V3.67625H21.4964V8.61844C21.4964 9.81554 22.4666 10.7855 23.6632 10.7855H28.6059V25.6038H20.1929C18.7539 25.6038 17.5874 26.7703 17.5874 28.2093V32.6849C17.5874 34.1239 18.7539 35.2903 20.1929 35.2903H28.6059V38.3238ZM25.0509 29.5473C25.0509 30.7315 24.2315 31.4672 22.913 31.4672H22.0377V32.4854C22.0377 32.748 21.8249 32.9614 21.562 32.9614H21.4376C21.1745 32.9614 20.9615 32.748 20.9615 32.4854V28.1341C20.9615 27.8714 21.1745 27.6581 21.4376 27.6581H22.913C24.2317 27.6579 25.0509 28.3818 25.0509 29.5473ZM27.7496 32.9614H26.0376C25.7746 32.9614 25.5616 32.748 25.5616 32.4854V28.1341C25.5616 27.8714 25.7744 27.6581 26.0376 27.6581H27.7496C29.2408 27.6581 30.454 28.8489 30.454 30.313C30.454 31.7733 29.2409 32.9614 27.7496 32.9614ZM34.5715 28.2581C34.5715 28.5213 34.3585 28.7341 34.0955 28.7341H32.1623V29.8743H33.8092C34.072 29.8743 34.2853 30.087 34.2853 30.3501V30.4747C34.2853 30.7374 34.072 30.9507 33.8092 30.9507H32.1623V32.4852C32.1623 32.7479 31.9495 32.9612 31.6865 32.9612H31.5621C31.299 32.9612 31.0861 32.7479 31.0861 32.4852V28.1339C31.0861 27.8713 31.299 27.6579 31.5621 27.6579H34.0955C34.3585 27.6579 34.5715 27.8713 34.5715 28.1339V28.2581Z" fill="#008CFF"/>
<path d="M27.7495 28.7344H26.6377V31.8853H27.7495C28.6472 31.8853 29.3776 31.1796 29.3776 30.3131C29.3777 29.4425 28.6473 28.7344 27.7495 28.7344Z" fill="#008CFF"/>
</svg>
