<svg width="203" height="60" viewBox="0 0 203 60" fill="none" xmlns="http://www.w3.org/2000/svg">
<g clip-path="url(#clip0_227_11742)">
<path d="M201.654 52.9172C201.654 56.0908 199.075 58.6637 195.891 58.6637C195.891 58.6637 195.887 58.6637 195.884 58.6637H7.11551C3.92966 58.6681 1.34378 56.0952 1.33936 52.9172V7.08903C1.34378 3.91103 3.92744 1.33594 7.11551 1.33594H195.884C199.07 1.33594 201.652 3.91103 201.652 7.08903V52.9172H201.654Z" fill="white"/>
<path d="M195.887 60H7.11558C3.19028 60 0.00885573 56.8308 0 52.9174V7.09143C0.0066418 3.1758 3.18806 0.00220848 7.11558 0H195.884C199.81 0.00441696 202.991 3.1758 203 7.09143V52.9174C203.002 56.8242 199.805 60 195.887 60Z" fill="#A6A5A5"/>
<path d="M201.654 52.9172C201.654 56.0908 199.075 58.6637 195.891 58.6637C195.891 58.6637 195.887 58.6637 195.884 58.6637H7.11551C3.92966 58.6681 1.34378 56.0952 1.33936 52.9172V7.08903C1.34378 3.91103 3.92744 1.33594 7.11551 1.33594H195.884C199.07 1.33594 201.652 3.91103 201.652 7.08903V52.9172H201.654Z" fill="#010101"/>
<path opacity="0.1" d="M195.887 0H94.7742L134.377 60H195.885C199.81 59.9978 202.991 56.8264 203 52.913V7.09143C202.993 3.1758 199.812 0.00441696 195.885 0H195.887Z" fill="white"/>
<path d="M71.7315 18.1384C71.7315 19.3111 71.437 20.338 70.702 21.0712C69.8208 21.9502 68.7914 22.3919 67.4674 22.3919C66.1435 22.3919 65.114 21.9524 64.2329 21.0712C63.3517 20.1922 62.9089 19.1653 62.9089 17.8446C62.9089 16.524 63.3495 15.497 64.2329 14.618C65.114 13.7391 66.1435 13.2974 67.4674 13.2974C68.0563 13.2974 68.643 13.4431 69.2319 13.7369C69.8208 14.0306 70.2614 14.3243 70.5559 14.7638L69.8208 15.497C69.2319 14.7638 68.4969 14.4701 67.4674 14.4701C66.5863 14.4701 65.7029 14.7638 65.114 15.497C64.379 16.0845 64.0845 16.9634 64.0845 17.9904C64.0845 19.0173 64.379 19.8963 65.114 20.4838C65.849 21.0712 66.5841 21.5107 67.4674 21.5107C68.4969 21.5107 69.2319 21.217 69.967 20.4838C70.4075 20.0443 70.702 19.4568 70.702 18.7236H67.4674V17.5509H71.7315V18.1384ZM78.4928 14.4723H74.5232V17.2594H78.1984V18.2863H74.5232V21.0734H78.4928V22.2461H73.3476V13.4453H78.4928V14.4723ZM83.3458 22.2439H82.1702V14.4701H79.6706V13.4431H85.8453V14.4701H83.3458V22.2439ZM90.1093 22.2439V13.4431H91.2849V22.2439H90.1093ZM96.284 22.2439H95.1084V14.4701H92.6089V13.4431H98.6374V14.4701H96.1379V22.2439H96.284ZM110.252 21.0712C109.371 21.9502 108.341 22.3919 107.017 22.3919C105.693 22.3919 104.664 21.9524 103.783 21.0712C102.901 20.1922 102.459 19.1653 102.459 17.8446C102.459 16.524 102.899 15.497 103.783 14.618C104.664 13.7391 105.693 13.2974 107.017 13.2974C108.341 13.2974 109.371 13.7369 110.252 14.618C111.133 15.497 111.576 16.524 111.576 17.8446C111.576 19.1653 111.135 20.1922 110.252 21.0712ZM104.664 20.338C105.253 20.9255 106.134 21.3649 107.017 21.3649C107.901 21.3649 108.782 21.0712 109.371 20.338C109.959 19.7505 110.4 18.8716 110.4 17.8446C110.4 16.8177 110.106 15.9387 109.371 15.3513C108.782 14.7638 107.901 14.3243 107.017 14.3243C106.134 14.3243 105.253 14.618 104.664 15.3513C104.075 15.9387 103.634 16.8177 103.634 17.8446C103.634 18.8716 103.929 19.7505 104.664 20.338ZM113.192 22.2439V13.4431H114.516L118.78 20.3358V13.4431H119.955V22.2439H118.78L114.221 15.0575V22.2439H113.192Z" fill="white"/>
<path d="M102.164 33.2443C98.6353 33.2443 95.8413 35.8834 95.8413 39.5517C95.8413 43.22 98.6353 45.8591 102.164 45.8591C105.693 45.8591 108.487 43.22 108.487 39.5517C108.487 35.8834 105.693 33.2443 102.164 33.2443ZM102.164 43.2178C100.254 43.2178 98.6353 41.6034 98.6353 39.4037C98.6353 37.2041 100.254 35.5897 102.164 35.5897C104.075 35.5897 105.693 37.0561 105.693 39.4037C105.693 41.6034 104.075 43.2178 102.164 43.2178ZM88.4911 33.2443C84.9621 33.2443 82.1681 35.8834 82.1681 39.5517C82.1681 43.22 84.9621 45.8591 88.4911 45.8591C92.0201 45.8591 94.8141 43.22 94.8141 39.5517C94.8141 35.8834 92.0201 33.2443 88.4911 33.2443ZM88.4911 43.2178C86.5804 43.2178 84.9621 41.6034 84.9621 39.4037C84.9621 37.2041 86.5804 35.5897 88.4911 35.5897C90.4017 35.5897 92.0201 37.0561 92.0201 39.4037C92.0201 41.6034 90.4017 43.2178 88.4911 43.2178ZM72.1722 35.1502V37.7893H78.4951C78.349 39.2557 77.7601 40.4284 77.0251 41.1617C76.144 42.0406 74.6717 43.0676 72.1722 43.0676C68.2026 43.0676 65.2625 39.9867 65.2625 36.0269C65.2625 32.0671 68.3509 28.9863 72.1722 28.9863C74.2311 28.9863 75.8473 29.8653 77.0251 30.8922L78.9357 28.9863C77.3173 27.5199 75.2606 26.3472 72.3205 26.3472C67.027 26.3472 62.4707 30.7465 62.4707 36.0269C62.4707 41.3074 67.0292 45.7067 72.3205 45.7067C75.2606 45.7067 77.3196 44.8277 79.0841 42.9196C80.8486 41.1594 81.4375 38.6661 81.4375 36.7602C81.4375 36.1727 81.4375 35.5875 81.2913 35.1458H72.1766L72.1722 35.1502ZM138.922 37.2041C138.333 35.7376 136.863 33.2443 133.629 33.2443C130.394 33.2443 127.749 35.7376 127.749 39.5517C127.749 43.072 130.394 45.8591 133.923 45.8591C136.717 45.8591 138.482 44.0989 139.068 43.072L137.009 41.6056C136.274 42.6325 135.391 43.3657 133.921 43.3657C132.451 43.3657 131.568 42.7783 130.833 41.4598L139.212 37.9395L138.918 37.2063L138.922 37.2041ZM130.394 39.2557C130.394 36.9081 132.305 35.5897 133.629 35.5897C134.658 35.5897 135.688 36.1771 135.982 36.9103L130.394 39.2579V39.2557ZM123.484 45.2694H126.278V26.9368H123.484V45.2694ZM119.072 34.5627C118.337 33.8295 117.162 33.0963 115.691 33.0963C112.603 33.0963 109.663 35.8834 109.663 39.4037C109.663 42.924 112.457 45.5632 115.691 45.5632C117.162 45.5632 118.337 44.8299 118.926 44.0967H119.072V44.9757C119.072 47.3233 117.748 48.6418 115.691 48.6418C114.073 48.6418 112.897 47.4691 112.603 46.4421L110.25 47.4691C110.985 49.0835 112.749 51.1352 115.838 51.1352C118.926 51.1352 121.718 49.2292 121.718 44.682V33.5358H119.072V34.5627ZM115.838 43.2178C113.927 43.2178 112.309 41.6034 112.309 39.4037C112.309 37.2041 113.927 35.5897 115.838 35.5897C117.748 35.5897 119.218 37.2041 119.218 39.4037C119.218 41.6034 117.748 43.2178 115.838 43.2178ZM151.712 26.9368H145.097V45.2694H147.891V38.3768H151.714C154.803 38.3768 157.743 36.1771 157.743 32.6568C157.743 29.1365 154.803 26.9368 151.714 26.9368H151.712ZM151.86 35.7376H147.891V29.4302H151.86C153.919 29.4302 155.095 31.1904 155.095 32.511C154.949 34.1254 153.771 35.7376 151.86 35.7376ZM168.768 33.0963C166.709 33.0963 164.653 33.9753 163.915 35.8834L166.415 36.9103C167.004 35.8834 167.885 35.5897 168.914 35.5897C170.384 35.5897 171.708 36.4686 171.855 37.9373V38.083C171.414 37.7893 170.236 37.3498 169.061 37.3498C166.415 37.3498 163.767 38.8163 163.767 41.4554C163.767 43.9488 165.972 45.5609 168.326 45.5609C170.236 45.5609 171.119 44.682 171.855 43.8008H172.001V45.2672H174.646V38.2266C174.352 35 171.852 33.0941 168.766 33.0941L168.768 33.0963ZM168.474 43.2178C167.593 43.2178 166.269 42.7783 166.269 41.6034C166.269 40.1369 167.887 39.6974 169.209 39.6974C170.384 39.6974 170.973 39.9912 171.708 40.2849C171.414 42.045 169.944 43.2178 168.474 43.2178ZM183.912 33.5358L180.823 41.4554H180.677L177.442 33.5358H174.502L179.355 44.682L176.561 50.8414H179.355L186.854 33.5358H183.914H183.912ZM159.211 45.2694H162.005V26.9368H159.211V45.2694Z" fill="white"/>
<path d="M21.8472 12.1753C21.4066 12.6148 21.2583 13.348 21.2583 14.2292V46.6431C21.2583 47.522 21.5528 48.2575 21.9933 48.6969L22.1394 48.8427L40.3712 30.6559V30.3621L21.8472 12.1753Z" fill="url(#paint0_linear_227_11742)"/>
<path d="M46.2536 36.8155L40.2251 30.8018V30.3623L46.2536 24.3486L46.3998 24.4944L53.6039 28.6C55.6629 29.7727 55.6629 31.6808 53.6039 32.8535L46.2536 36.8133V36.8155Z" fill="url(#paint1_linear_227_11742)"/>
<path d="M46.4019 36.6673L40.2272 30.5078L21.8494 48.8404C22.5844 49.5736 23.6139 49.5736 24.9378 48.9862L46.4041 36.6673" fill="url(#paint2_linear_227_11742)"/>
<path d="M46.4019 24.3484L24.9356 12.1753C23.6117 11.4421 22.5822 11.5878 21.8472 12.3211L40.225 30.5079L46.3997 24.3484H46.4019Z" fill="url(#paint3_linear_227_11742)"/>
</g>
<defs>
<linearGradient id="paint0_linear_227_11742" x1="30.8159" y1="12.0693" x2="30.8159" y2="48.5688" gradientUnits="userSpaceOnUse">
<stop stop-color="#267CAF"/>
<stop offset="0.29" stop-color="#4A92B4"/>
<stop offset="0.77" stop-color="#79BCBA"/>
<stop offset="1" stop-color="#88CEBC"/>
</linearGradient>
<linearGradient id="paint1_linear_227_11742" x1="49.7406" y1="26.1022" x2="45.2957" y2="36.1787" gradientUnits="userSpaceOnUse">
<stop stop-color="#F48879"/>
<stop offset="0.12" stop-color="#F5907A"/>
<stop offset="0.71" stop-color="#FBB777"/>
<stop offset="1" stop-color="#FDC874"/>
</linearGradient>
<linearGradient id="paint2_linear_227_11742" x1="43.1031" y1="33.7587" x2="23.0641" y2="50.004" gradientUnits="userSpaceOnUse">
<stop stop-color="#EB413D"/>
<stop offset="0.17" stop-color="#D94452"/>
<stop offset="0.57" stop-color="#AF487A"/>
<stop offset="0.86" stop-color="#954B92"/>
<stop offset="1" stop-color="#894A9C"/>
</linearGradient>
<linearGradient id="paint3_linear_227_11742" x1="24.4508" y1="13.0587" x2="43.6195" y2="27.7355" gradientUnits="userSpaceOnUse">
<stop stop-color="#54C0AC"/>
<stop offset="1" stop-color="#DDE79A"/>
</linearGradient>
<clipPath id="clip0_227_11742">
<rect width="203" height="60" fill="white"/>
</clipPath>
</defs>
</svg>
