<svg width="203" height="60" viewBox="0 0 203 60" fill="none" xmlns="http://www.w3.org/2000/svg">
<g clip-path="url(#clip0_348_8666)">
<path d="M201.654 52.9175C201.654 56.091 199.075 58.6639 195.891 58.6639C195.891 58.6639 195.887 58.6639 195.885 58.6639H7.116C3.93015 58.6683 1.34427 56.0955 1.33984 52.9175V7.08927C1.34427 3.91127 3.92793 1.33618 7.116 1.33618H195.885C199.071 1.33618 201.652 3.91127 201.652 7.08927V52.9175H201.654Z" fill="white"/>
<path d="M195.887 60H7.11558C3.19028 60 0.00885573 56.8308 0 52.9174V7.09143C0.0066418 3.1758 3.18806 0.00220848 7.11558 0H195.884C199.81 0.00441696 202.991 3.1758 203 7.09143V52.9174C203.002 56.8242 199.805 60 195.887 60Z" fill="#A6A5A5"/>
<path d="M201.654 52.9174C201.654 56.091 199.075 58.6639 195.891 58.6639C195.891 58.6639 195.887 58.6639 195.885 58.6639H7.116C3.93015 58.6683 1.34427 56.0955 1.33984 52.9174V7.08927C1.34427 3.91127 3.92793 1.33618 7.116 1.33618H195.885C199.071 1.33618 201.652 3.91127 201.652 7.08927V52.9174H201.654Z" fill="#010101"/>
<path opacity="0.1" d="M195.887 0H94.7744L134.377 60H195.885C199.81 59.9978 202.991 56.8264 203 52.913V7.09143C202.994 3.1758 199.812 0.00441696 195.885 0H195.887Z" fill="white"/>
<path d="M102.164 33.2443C98.6353 33.2443 95.8413 35.8834 95.8413 39.5517C95.8413 43.22 98.6353 45.8591 102.164 45.8591C105.693 45.8591 108.487 43.22 108.487 39.5517C108.487 35.8834 105.693 33.2443 102.164 33.2443ZM102.164 43.2178C100.254 43.2178 98.6353 41.6034 98.6353 39.4037C98.6353 37.2041 100.254 35.5897 102.164 35.5897C104.075 35.5897 105.693 37.0561 105.693 39.4037C105.693 41.6034 104.075 43.2178 102.164 43.2178ZM88.4911 33.2443C84.9621 33.2443 82.1681 35.8834 82.1681 39.5517C82.1681 43.22 84.9621 45.8591 88.4911 45.8591C92.0201 45.8591 94.8141 43.22 94.8141 39.5517C94.8141 35.8834 92.0201 33.2443 88.4911 33.2443ZM88.4911 43.2178C86.5804 43.2178 84.9621 41.6034 84.9621 39.4037C84.9621 37.2041 86.5804 35.5897 88.4911 35.5897C90.4017 35.5897 92.0201 37.0561 92.0201 39.4037C92.0201 41.6034 90.4017 43.2178 88.4911 43.2178ZM72.1722 35.1502V37.7893H78.4951C78.349 39.2557 77.7601 40.4284 77.0251 41.1617C76.144 42.0406 74.6717 43.0676 72.1722 43.0676C68.2026 43.0676 65.2625 39.9867 65.2625 36.0269C65.2625 32.0671 68.3509 28.9863 72.1722 28.9863C74.2311 28.9863 75.8473 29.8653 77.0251 30.8922L78.9357 28.9863C77.3173 27.5199 75.2606 26.3472 72.3205 26.3472C67.027 26.3472 62.4707 30.7465 62.4707 36.0269C62.4707 41.3074 67.0292 45.7067 72.3205 45.7067C75.2606 45.7067 77.3196 44.8277 79.0841 42.9196C80.8486 41.1594 81.4375 38.6661 81.4375 36.7602C81.4375 36.1727 81.4375 35.5875 81.2913 35.1458H72.1766L72.1722 35.1502ZM138.922 37.2041C138.333 35.7376 136.863 33.2443 133.629 33.2443C130.394 33.2443 127.749 35.7376 127.749 39.5517C127.749 43.072 130.394 45.8591 133.923 45.8591C136.717 45.8591 138.482 44.0989 139.068 43.072L137.009 41.6056C136.274 42.6325 135.391 43.3657 133.921 43.3657C132.451 43.3657 131.568 42.7783 130.833 41.4598L139.212 37.9395L138.918 37.2063L138.922 37.2041ZM130.394 39.2557C130.394 36.9081 132.305 35.5897 133.629 35.5897C134.658 35.5897 135.688 36.1771 135.982 36.9103L130.394 39.2579V39.2557ZM123.484 45.2694H126.278V26.9368H123.484V45.2694ZM119.072 34.5627C118.337 33.8295 117.162 33.0963 115.691 33.0963C112.603 33.0963 109.663 35.8834 109.663 39.4037C109.663 42.924 112.457 45.5632 115.691 45.5632C117.162 45.5632 118.337 44.8299 118.926 44.0967H119.072V44.9757C119.072 47.3233 117.748 48.6418 115.691 48.6418C114.073 48.6418 112.897 47.4691 112.603 46.4421L110.25 47.4691C110.985 49.0835 112.749 51.1352 115.838 51.1352C118.926 51.1352 121.718 49.2292 121.718 44.682V33.5358H119.072V34.5627ZM115.838 43.2178C113.927 43.2178 112.309 41.6034 112.309 39.4037C112.309 37.2041 113.927 35.5897 115.838 35.5897C117.748 35.5897 119.218 37.2041 119.218 39.4037C119.218 41.6034 117.748 43.2178 115.838 43.2178ZM151.712 26.9368H145.097V45.2694H147.891V38.3768H151.714C154.803 38.3768 157.743 36.1771 157.743 32.6568C157.743 29.1365 154.803 26.9368 151.714 26.9368H151.712ZM151.86 35.7376H147.891V29.4302H151.86C153.919 29.4302 155.095 31.1904 155.095 32.511C154.949 34.1254 153.771 35.7376 151.86 35.7376ZM168.768 33.0963C166.709 33.0963 164.653 33.9753 163.915 35.8834L166.415 36.9103C167.004 35.8834 167.885 35.5897 168.914 35.5897C170.384 35.5897 171.708 36.4686 171.855 37.9373V38.083C171.414 37.7893 170.236 37.3498 169.061 37.3498C166.415 37.3498 163.767 38.8163 163.767 41.4554C163.767 43.9488 165.972 45.5609 168.326 45.5609C170.236 45.5609 171.119 44.682 171.855 43.8008H172.001V45.2672H174.646V38.2266C174.352 35 171.852 33.0941 168.766 33.0941L168.768 33.0963ZM168.474 43.2178C167.593 43.2178 166.269 42.7783 166.269 41.6034C166.269 40.1369 167.887 39.6974 169.209 39.6974C170.384 39.6974 170.973 39.9912 171.708 40.2849C171.414 42.045 169.944 43.2178 168.474 43.2178ZM183.912 33.5358L180.823 41.4554H180.677L177.442 33.5358H174.502L179.355 44.682L176.561 50.8414H179.355L186.854 33.5358H183.914H183.912ZM159.211 45.2694H162.005V26.9368H159.211V45.2694Z" fill="white"/>
<path d="M21.8467 12.1753C21.4061 12.6148 21.2578 13.348 21.2578 14.2292V46.6431C21.2578 47.522 21.5523 48.2575 21.9928 48.6969L22.139 48.8427L40.3707 30.6559V30.3621L21.8467 12.1753Z" fill="url(#paint0_linear_348_8666)"/>
<path d="M46.2531 36.8153L40.2246 30.8016V30.3621L46.2531 24.3484L46.3993 24.4941L53.6034 28.5997C55.6624 29.7724 55.6624 31.6805 53.6034 32.8532L46.2531 36.8131V36.8153Z" fill="url(#paint1_linear_348_8666)"/>
<path d="M46.4012 36.6673L40.2265 30.5078L21.8486 48.8404C22.5837 49.5736 23.6131 49.5736 24.9371 48.9862L46.4034 36.6673" fill="url(#paint2_linear_348_8666)"/>
<path d="M46.4014 24.3484L24.9351 12.1753C23.6112 11.4421 22.5817 11.5878 21.8467 12.3211L40.2245 30.5079L46.3992 24.3484H46.4014Z" fill="url(#paint3_linear_348_8666)"/>
<path d="M65.9459 20.0169H67.2552C68.1068 20.0169 68.7809 19.7523 69.2802 19.2232C69.7795 18.6941 70.0291 17.9545 70.0291 17.0015C70.0291 16.0545 69.7795 15.3179 69.2802 14.7828C68.7809 14.2507 68.1068 13.9831 67.2552 13.9831H65.9459V20.0169ZM65 21V13H67.258C68.3925 13 69.2996 13.3698 69.9792 14.1124C70.6588 14.8519 71 15.814 71 16.9985C71 18.183 70.6616 19.1451 69.9792 19.8846C69.2996 20.6272 68.3925 20.997 67.258 20.997H65V21Z" fill="white"/>
<path d="M72 21V13H73V21H72Z" fill="white"/>
<path d="M77.5564 21C77.0253 21 76.5052 20.8186 75.9961 20.4559C75.4871 20.0932 75.1541 19.5837 75 18.9244L75.8586 18.5617C75.9604 18.982 76.1695 19.339 76.486 19.6268C76.8052 19.9147 77.1602 20.0615 77.5564 20.0615C77.9637 20.0615 78.3159 19.9493 78.6048 19.7247C78.8938 19.5002 79.0369 19.195 79.0369 18.8093C79.0369 18.3832 78.8938 18.0522 78.6048 17.819C78.3159 17.5858 77.8564 17.3728 77.229 17.1713C76.5823 16.9583 76.0897 16.6819 75.7567 16.3422C75.4238 16.0025 75.2559 15.5707 75.2559 15.0439C75.2559 14.4941 75.465 14.0162 75.8806 13.6103C76.2961 13.2044 76.8382 13 77.5069 13C78.1288 13 78.6324 13.1641 79.0204 13.4865C79.4084 13.8118 79.6615 14.1659 79.7771 14.5516L78.9185 14.9259C78.858 14.6841 78.7067 14.4595 78.4645 14.2522C78.2223 14.045 77.9114 13.9413 77.5289 13.9413C77.1684 13.9413 76.8602 14.045 76.6043 14.258C76.3484 14.4682 76.219 14.7301 76.219 15.0439C76.219 15.3289 76.3374 15.5707 76.5713 15.7665C76.8079 15.9622 77.1519 16.1407 77.6087 16.2961C77.9692 16.4171 78.2719 16.5351 78.514 16.6502C78.7562 16.7625 79.0011 16.9151 79.2488 17.1051C79.4992 17.2922 79.6835 17.5283 79.8101 17.8104C79.9367 18.0925 80 18.4178 80 18.7891C80 19.1605 79.9285 19.4915 79.7799 19.7852C79.634 20.0788 79.4386 20.3091 79.1965 20.4818C78.9543 20.6517 78.6957 20.7841 78.415 20.8733C78.1343 20.9539 77.8481 21 77.5564 21Z" fill="white"/>
<path d="M81.9833 16.776H83.6279C84.042 16.776 84.3726 16.6317 84.6228 16.3401C84.8729 16.0485 84.9966 15.7298 84.9966 15.3781C84.9966 15.0293 84.8729 14.7076 84.6228 14.416C84.3726 14.1244 84.042 13.9801 83.6279 13.9801H81.9833V16.776ZM81.9833 21H81V13H83.6078C84.2547 13 84.8154 13.2255 85.2898 13.6764C85.7642 14.1274 86 14.6956 86 15.3811C86 16.0665 85.7642 16.6347 85.2898 17.0827C84.8154 17.5336 84.2547 17.7591 83.6078 17.7591H81.9833V21Z" fill="white"/>
<path d="M88.8837 19.2001C89.46 19.7732 90.1649 20.0612 90.9985 20.0612C91.8322 20.0612 92.5371 19.7732 93.1133 19.2001C93.6896 18.6271 93.9792 17.8927 93.9792 17C93.9792 16.1073 93.6896 15.3758 93.1133 14.7999C92.5371 14.2268 91.8322 13.9388 90.9985 13.9388C90.1649 13.9388 89.46 14.2268 88.8837 14.7999C88.3075 15.3729 88.0208 16.1073 88.0208 17C88.0208 17.8899 88.3104 18.6242 88.8837 19.2001ZM93.8534 19.8395C93.087 20.6141 92.1364 21 90.9985 21C89.8607 21 88.9101 20.6141 88.1466 19.8395C87.3803 19.0648 87 18.1174 87 17C87 15.8798 87.3803 14.9323 88.1466 14.1605C88.9101 13.3859 89.8607 13 90.9985 13C92.1305 13 93.0783 13.3888 93.8475 14.1663C94.6139 14.9438 95 15.8884 95 17.0029C95 18.1202 94.6168 19.0677 93.8534 19.8395Z" fill="white"/>
<path d="M97 21V13H98.217L102 19.2232H102.043L102 17.6809V13H103V21H101.956L97.9976 14.4761H97.9537L97.9976 16.0184V21H97Z" fill="white"/>
<path d="M105.089 12.423H104.072L104.73 11H106L105.089 12.423ZM104 21V13.0448H105.167V21H104Z" fill="white"/>
<path d="M108.9 21L106 13H107.174L109.43 19.4908H109.477L111.826 13H113L110.007 21H108.9Z" fill="white"/>
<path d="M119 13.9801H115.101V16.5175H118.62V17.4795H115.101V20.0169H119V21H114V13H119V13.9801Z" fill="white"/>
<path d="M120 21V13H121.145V20.0169H125V21H120Z" fill="white"/>
<path d="M129 21V13H130.217L134 19.2232H134.043L134 17.6809V13H135V21H133.956L129.998 14.4761H129.954L129.998 16.0184V21H129Z" fill="white"/>
<path d="M137.887 19.2001C138.463 19.7732 139.168 20.0612 140.001 20.0612C140.835 20.0612 141.54 19.7732 142.116 19.2001C142.693 18.6271 142.982 17.8927 142.982 17C142.982 16.1073 142.693 15.3758 142.116 14.7999C141.54 14.2268 140.835 13.9388 140.001 13.9388C139.168 13.9388 138.463 14.2268 137.887 14.7999C137.313 15.3729 137.024 16.1073 137.024 17C137.021 17.8899 137.31 18.6242 137.887 19.2001ZM142.853 19.8395C142.087 20.6141 141.136 21 139.999 21C138.861 21 137.91 20.6141 137.147 19.8395C136.38 19.0648 136 18.1174 136 17C136 15.8798 136.38 14.9323 137.147 14.1605C137.91 13.3859 138.861 13 139.999 13C141.131 13 142.078 13.3888 142.848 14.1663C143.614 14.9438 144 15.8884 144 17.0029C144 18.1202 143.617 19.0677 142.853 19.8395Z" fill="white"/>
</g>
<defs>
<linearGradient id="paint0_linear_348_8666" x1="30.8154" y1="12.0693" x2="30.8154" y2="48.5688" gradientUnits="userSpaceOnUse">
<stop stop-color="#267CAF"/>
<stop offset="0.29" stop-color="#4A92B4"/>
<stop offset="0.77" stop-color="#79BCBA"/>
<stop offset="1" stop-color="#88CEBC"/>
</linearGradient>
<linearGradient id="paint1_linear_348_8666" x1="49.7401" y1="26.1019" x2="45.2952" y2="36.1785" gradientUnits="userSpaceOnUse">
<stop stop-color="#F48879"/>
<stop offset="0.12" stop-color="#F5907A"/>
<stop offset="0.71" stop-color="#FBB777"/>
<stop offset="1" stop-color="#FDC874"/>
</linearGradient>
<linearGradient id="paint2_linear_348_8666" x1="43.1024" y1="33.7587" x2="23.0634" y2="50.004" gradientUnits="userSpaceOnUse">
<stop stop-color="#EB413D"/>
<stop offset="0.17" stop-color="#D94452"/>
<stop offset="0.57" stop-color="#AF487A"/>
<stop offset="0.86" stop-color="#954B92"/>
<stop offset="1" stop-color="#894A9C"/>
</linearGradient>
<linearGradient id="paint3_linear_348_8666" x1="24.4503" y1="13.0587" x2="43.619" y2="27.7355" gradientUnits="userSpaceOnUse">
<stop stop-color="#54C0AC"/>
<stop offset="1" stop-color="#DDE79A"/>
</linearGradient>
<clipPath id="clip0_348_8666">
<rect width="203" height="60" fill="white"/>
</clipPath>
</defs>
</svg>
