<svg width="42" height="42" viewBox="0 0 42 42" fill="none" xmlns="http://www.w3.org/2000/svg">
<path d="M28.076 12.4C31.708 16.045 31.708 21.9549 28.076 25.6M14.9239 25.5999C11.292 21.9549 11.292 16.045 14.9239 12.3999M10.5398 30C4.48672 23.9248 4.48672 14.0751 10.5398 8M32.4602 8.00006C38.5133 14.0752 38.5133 23.9249 32.4602 30M24.6 19C24.6 20.7183 23.2121 22.1112 21.5 22.1112C19.7879 22.1112 18.4 20.7183 18.4 19C18.4 17.2818 19.7879 15.8887 21.5 15.8887C23.2121 15.8887 24.6 17.2818 24.6 19Z" stroke="#008CFF" stroke-width="2" stroke-linecap="round" stroke-linejoin="round"/>
</svg>
