<svg width="45" height="44" viewBox="0 0 45 44" fill="none" xmlns="http://www.w3.org/2000/svg">
<path d="M19.4276 15.0788C20.7575 12.6929 21.4226 11.5 22.4168 11.5C23.4109 11.5 24.076 12.6929 25.4059 15.0788L25.7501 15.6961C26.1279 16.374 26.3169 16.713 26.6115 16.9367C26.9061 17.1604 27.2732 17.2434 28.0072 17.4094L28.6752 17.5606C31.258 18.145 32.5492 18.4371 32.8565 19.4252C33.1637 20.413 32.2834 21.4425 30.5227 23.5015L30.067 24.0341C29.5668 24.6191 29.3167 24.9117 29.2042 25.2737C29.0916 25.6355 29.1294 26.0259 29.205 26.8065L29.2739 27.5171C29.5402 30.2641 29.6731 31.6377 28.8688 32.2482C28.0645 32.8589 26.8555 32.3022 24.4374 31.1888L23.8118 30.9006C23.1245 30.5844 22.7809 30.426 22.4168 30.426C22.0526 30.426 21.7091 30.5844 21.0217 30.9006L20.3961 31.1888C17.9781 32.3022 16.769 32.8589 15.9646 32.2482C15.1603 31.6377 15.2934 30.2641 15.5596 27.5171L15.6285 26.8065C15.7041 26.0259 15.7419 25.6355 15.6294 25.2737C15.5169 24.9117 15.2667 24.6191 14.7664 24.0341L14.3109 23.5015C12.5502 21.4425 11.6698 20.413 11.977 19.4252C12.2843 18.4371 13.5756 18.145 16.1583 17.5606L16.8264 17.4094C17.5604 17.2434 17.9273 17.1604 18.222 16.9367C18.5166 16.713 18.7056 16.374 19.0834 15.6961L19.4276 15.0788Z" stroke="#008CFF" stroke-width="2"/>
<path d="M22.4167 1V5.2" stroke="#008CFF" stroke-width="2" stroke-linecap="round"/>
<path d="M22.4167 38.8003V43.0003" stroke="#008CFF" stroke-width="2" stroke-linecap="round"/>
<path d="M1.41675 22H5.61675" stroke="#008CFF" stroke-width="2" stroke-linecap="round"/>
<path d="M39.2167 22H43.4167" stroke="#008CFF" stroke-width="2" stroke-linecap="round"/>
<path d="M9.81686 34.5997L10.5373 33.8794" stroke="#008CFF" stroke-width="2" stroke-linecap="round"/>
<path d="M34.2956 10.1207L35.0166 9.3999" stroke="#008CFF" stroke-width="2" stroke-linecap="round"/>
<path d="M35.0167 34.5997L34.2964 33.8794" stroke="#008CFF" stroke-width="2" stroke-linecap="round"/>
<path d="M10.5377 10.1207L9.81686 9.3999" stroke="#008CFF" stroke-width="2" stroke-linecap="round"/>
</svg>
