<svg width="34" height="24" viewBox="0 0 34 24" fill="none" xmlns="http://www.w3.org/2000/svg">
<path fill-rule="evenodd" clip-rule="evenodd" d="M24.6932 7.97023C24.9882 7.97023 25.2272 8.20931 25.2272 8.50423V12.5492C25.2272 12.8441 25.4663 13.0832 25.7612 13.0832H27.5505C27.8454 13.0832 28.0845 12.8441 28.0845 12.5492V8.50423C28.0845 8.20931 28.3236 7.97023 28.6185 7.97023H32.6635C32.9584 7.97023 33.1975 7.73114 33.1975 7.43622V5.64698C33.1975 5.35206 32.9584 5.11297 32.6635 5.11297H28.6185C28.3236 5.11297 28.0845 4.87389 28.0845 4.57897V0.534009C28.0845 0.239084 27.8454 9.11015e-08 27.5505 7.821e-08L25.7612 0C25.4663 -1.28916e-08 25.2272 0.239084 25.2272 0.534008V4.57897C25.2272 4.87389 24.9882 5.11297 24.6932 5.11297H20.6483C20.3533 5.11297 20.1143 5.35206 20.1143 5.64698V7.43622C20.1143 7.73114 20.3533 7.97023 20.6483 7.97023H24.6932Z" fill="#008CFF"/>
<path fill-rule="evenodd" clip-rule="evenodd" d="M23.7337 9.43207V20.8856C23.7337 21.6725 23.4211 22.4271 22.8648 22.9834C22.3084 23.5398 21.5538 23.8524 20.767 23.8524H2.96671C2.17989 23.8524 1.4253 23.5398 0.86893 22.9834C0.312563 22.4271 0 21.6725 0 20.8856V3.08537C0 2.29854 0.312563 1.54395 0.86893 0.987583C1.4253 0.431216 2.17989 0.118652 2.96671 0.118652H20.767C21.5538 0.118652 22.3084 0.431216 22.8648 0.987583C23.4211 1.54395 23.7337 2.29854 23.7337 3.08537V3.56207H20.2478C19.4614 3.56207 18.8238 4.19962 18.8238 4.98609V8.00804C18.8238 8.79451 19.4614 9.43207 20.2478 9.43207H23.7337ZM14.4891 4.91321C13.7936 4.21775 12.8504 3.82704 11.8669 3.82704C10.8833 3.82704 9.94008 4.21775 9.24463 4.91321C8.54917 5.60867 8.15846 6.55191 8.15846 7.53544C8.15846 8.51896 8.54917 9.46221 9.24463 10.1577C9.94008 10.8531 10.8833 11.2438 11.8669 11.2438C12.8504 11.2438 13.7936 10.8531 14.4891 10.1577C15.1845 9.46221 15.5752 8.51896 15.5752 7.53544C15.5752 6.55191 15.1845 5.60867 14.4891 4.91321ZM4.45007 19.4023H19.2836V19.0315C19.2836 16.2887 15.9402 13.4689 11.8669 13.4689C7.79356 13.4689 4.45007 16.2887 4.45007 19.0315V19.4023Z" fill="#008CFF"/>
</svg>
