<svg width="40" height="40" viewBox="0 0 40 40" fill="none" xmlns="http://www.w3.org/2000/svg">
<path d="M2 14H38M10 2V6M30 2V6M8.4 38H31.6C33.8402 38 34.9604 38 35.816 37.564C36.5686 37.1806 37.1806 36.5686 37.564 35.816C38 34.9604 38 33.8402 38 31.6V12.4C38 10.1598 38 9.03968 37.564 8.18404C37.1806 7.43138 36.5686 6.81946 35.816 6.43598C34.9604 6 33.8402 6 31.6 6H8.4C6.1598 6 5.03968 6 4.18404 6.43598C3.43138 6.81946 2.81946 7.43138 2.43598 8.18404C2 9.03968 2 10.1598 2 12.4V31.6C2 33.8402 2 34.9604 2.43598 35.816C2.81946 36.5686 3.43138 37.1806 4.18404 37.564C5.03968 38 6.15978 38 8.4 38Z" stroke="white" stroke-width="3" stroke-linecap="round" stroke-linejoin="round"/>
<path d="M20.9299 20L16.3999 25.88H23.6299L18.9199 31.73" stroke="white" stroke-width="3" stroke-linecap="round" stroke-linejoin="round"/>
</svg>
