<svg width="46" height="36" viewBox="0 0 46 36" fill="none" xmlns="http://www.w3.org/2000/svg">
<path fill-rule="evenodd" clip-rule="evenodd" d="M8.86056 0.952938C9.4808 0.343112 10.3226 0 11.201 0H34.799C35.6774 0 36.5192 0.343109 37.1394 0.952938C37.7596 1.56268 38.1075 2.38905 38.1075 3.25011V4.22609H42.6558C43.5533 4.22609 44.4074 4.58263 45.0319 5.20668C45.6554 5.82964 46 6.6679 46 7.5354V10.554C46 12.6224 45.178 14.6124 43.7047 16.0845C42.2303 17.5577 40.2236 18.3913 38.1242 18.3913H37.2291C37.1417 18.632 37.048 18.8706 36.9479 19.1071C36.1824 20.9154 35.0604 22.5572 33.6466 23.9377C32.2327 25.3182 30.5549 26.4102 28.7096 27.1507C27.5777 27.6049 26.3965 27.9213 25.1924 28.095V32.4H29.0988C30.1115 32.4 30.9324 33.2059 30.9324 34.2C30.9324 35.1941 30.1115 36 29.0988 36H16.9012C15.8885 36 15.0676 35.1941 15.0676 34.2C15.0676 33.2059 15.8885 32.4 16.9012 32.4H21.5251V28.1807C15.6262 27.6091 10.7665 23.6668 8.81436 18.3913H7.83271C5.74043 18.3913 3.74335 17.5544 2.27814 16.0799C0.814441 14.6069 0 12.6184 0 10.554V7.5354C0 6.67195 0.340407 5.83513 0.96032 5.21127C1.58174 4.5859 2.43441 4.22609 3.33339 4.22609H7.89255V3.25011C7.89255 2.38904 8.24042 1.56267 8.86056 0.952938ZM7.89255 7.82609H3.66724V10.554C3.66724 11.6921 4.11689 12.7747 4.90329 13.5661C5.68818 14.356 6.74287 14.7913 7.83271 14.7913H7.97353C7.91998 14.28 7.89255 13.7617 7.89255 13.2377V7.82609ZM22.9217 24.6519C24.4299 24.6621 25.9254 24.3788 27.322 23.8184C28.719 23.2578 29.9895 22.431 31.0604 21.3853C32.1313 20.3397 32.9813 19.0959 33.5614 17.7255C34.1416 16.3552 34.4402 14.8854 34.4402 13.4009V3.6H11.5598V13.2377C11.5598 19.4752 16.6411 24.6046 22.9217 24.6519C22.9221 24.6519 22.9213 24.6519 22.9217 24.6519ZM38.0411 14.7913H38.1242C39.2298 14.7913 40.2968 14.3528 41.0887 13.5615C41.8816 12.7693 42.3328 11.688 42.3328 10.554V7.82609H38.1075V13.4009C38.1075 13.8659 38.0853 14.3299 38.0411 14.7913Z" fill="#008CFF"/>
</svg>
