<svg width="36" height="36" viewBox="0 0 36 36" fill="none" xmlns="http://www.w3.org/2000/svg">
<path d="M35.9939 1.51909C35.9921 1.49324 35.9903 1.46738 35.9873 1.44185C35.9841 1.41578 35.9797 1.38993 35.9754 1.36407C35.9708 1.33658 35.9663 1.30909 35.9603 1.28204C35.955 1.25804 35.9483 1.23447 35.9419 1.21069C35.9346 1.18309 35.9273 1.15538 35.9184 1.12844C35.9108 1.10465 35.9015 1.08131 35.8927 1.05785C35.8829 1.03211 35.8735 1.00625 35.8625 0.981164C35.8518 0.956618 35.8396 0.932727 35.8276 0.908618C35.8161 0.8856 35.805 0.862364 35.7925 0.84C35.779 0.815673 35.7639 0.792218 35.7491 0.768436C35.7357 0.747055 35.7226 0.725564 35.7081 0.704836C35.6927 0.682582 35.6759 0.6612 35.6593 0.6396C35.643 0.618218 35.6265 0.596945 35.6092 0.576545C35.5929 0.557345 35.5754 0.538909 35.5581 0.520364C35.5378 0.498764 35.5175 0.477491 35.4962 0.456873C35.489 0.45 35.4827 0.442364 35.4754 0.4356C35.4646 0.425673 35.4531 0.417382 35.4422 0.407891C35.4198 0.388146 35.3971 0.369055 35.3736 0.350509C35.3537 0.3348 35.3335 0.319745 35.3129 0.305127C35.2904 0.288982 35.2674 0.273382 35.244 0.258436C35.2216 0.244036 35.199 0.230291 35.176 0.217091C35.1531 0.203891 35.1297 0.191455 35.1062 0.179345C35.0821 0.167018 35.0579 0.155236 35.0334 0.144327C35.0093 0.133527 34.9851 0.123491 34.9605 0.113891C34.9355 0.104073 34.9104 0.0948 34.8851 0.0862909C34.8601 0.0778909 34.8346 0.0701455 34.8091 0.0629455C34.7832 0.0556364 34.7572 0.0488727 34.731 0.0428727C34.7056 0.0369818 34.6799 0.0318545 34.6541 0.0271636C34.6265 0.0221455 34.5988 0.018 34.5709 0.0144C34.5461 0.0112364 34.5213 0.00861818 34.4962 0.00654545C34.4663 0.00414545 34.4363 0.00272727 34.4065 0.00196364C34.3921 0.00185455 34.378 0 34.3635 0H27.8181C26.9144 0 26.1817 0.732655 26.1817 1.63636C26.1817 2.54007 26.9144 3.27273 27.8181 3.27273H30.6183L20.6819 14.0041L16.4298 9.75196C16.1154 9.43745 15.6875 9.26673 15.2415 9.27295C14.7969 9.28145 14.3748 9.47051 14.0724 9.79669L0.436195 24.5096C-0.17809 25.1724 -0.138818 26.2077 0.524012 26.8221C0.839064 27.114 1.23801 27.2583 1.63597 27.2583C2.0756 27.2583 2.51414 27.0821 2.83661 26.7344L15.3175 13.2681L19.5701 17.5208C19.8847 17.8354 20.3171 18.0098 20.7587 17.9998C21.2034 17.9913 21.6257 17.8019 21.9279 17.4755L32.7271 5.81215V8.18182C32.7271 9.08553 33.4598 9.81818 34.3635 9.81818C35.2672 9.81818 35.9998 9.08553 35.9998 8.18182V1.63636C35.9998 1.62611 35.9985 1.61629 35.9983 1.60615C35.9977 1.57713 35.996 1.54811 35.9939 1.51909Z" fill="#008CFF"/>
<path d="M34.3637 32.7273H1.6367C0.732995 32.7273 0.000348009 33.4599 0.000348009 34.3636C0.000348009 35.2673 0.732995 36 1.6367 36H34.3637C35.2674 36 36 35.2673 36 34.3636C36 33.4599 35.2674 32.7273 34.3637 32.7273Z" fill="#008CFF"/>
</svg>
