<svg width="42" height="42" viewBox="0 0 42 42" fill="none" xmlns="http://www.w3.org/2000/svg">
<path d="M12.75 24V17.1944C12.75 16.6355 12.5687 16.0916 12.2333 15.6444L5 6H25.6667L18.4333 15.6444C18.098 16.0916 17.9167 16.6355 17.9167 17.1944" stroke="#008CFF" stroke-width="2" stroke-linecap="round" stroke-linejoin="round"/>
<circle cx="26" cy="28" r="10" stroke="#008CFF" stroke-width="2"/>
<path d="M25.409 33.2347C25.1146 33.2347 24.8156 33.2163 24.5119 33.1795C24.2175 33.1519 23.9231 33.1104 23.6286 33.0552C23.3342 33 23.0489 32.9356 22.7729 32.862C22.4969 32.7884 22.2392 32.7056 22 32.6136L22.4279 30.8608C22.6947 30.9528 22.9707 31.0356 23.256 31.1092C23.5412 31.1828 23.8264 31.2472 24.1117 31.3024C24.3969 31.3484 24.6729 31.3852 24.9398 31.4128C25.2158 31.4312 25.4781 31.4404 25.7265 31.4404C26.2694 31.4404 26.665 31.3668 26.9134 31.2196C27.1711 31.0724 27.2999 30.8516 27.2999 30.5571C27.2999 30.3823 27.2447 30.2305 27.1343 30.1017C27.0331 29.9636 26.872 29.8394 26.6512 29.729C26.4304 29.6186 26.1543 29.5082 25.8231 29.3978C25.4919 29.2874 25.1054 29.1631 24.6637 29.0251C24.1761 28.8503 23.7528 28.6341 23.394 28.3764C23.0351 28.1188 22.7591 27.806 22.5659 27.4379C22.3726 27.0607 22.276 26.619 22.276 26.1129C22.276 25.4873 22.4279 24.9674 22.7315 24.5533C23.0443 24.1301 23.4814 23.8172 24.0427 23.6148C24.6131 23.4032 25.2894 23.2974 26.0715 23.2974C26.458 23.2974 26.8398 23.3204 27.2171 23.3664C27.5943 23.4032 27.9532 23.4584 28.2936 23.532C28.6433 23.6056 28.9515 23.6884 29.2183 23.7804L28.8181 25.5471C28.5697 25.4551 28.2936 25.3814 27.99 25.3262C27.6863 25.271 27.3735 25.2296 27.0515 25.202C26.7386 25.1652 26.435 25.1468 26.1405 25.1468C25.6161 25.1468 25.2296 25.2158 24.9812 25.3538C24.742 25.4919 24.6223 25.7081 24.6223 26.0025C24.6223 26.1773 24.6637 26.3338 24.7466 26.4718C24.8386 26.6006 24.972 26.7202 25.1468 26.8306C25.3308 26.9318 25.5609 27.0331 25.8369 27.1343C26.1221 27.2263 26.458 27.3275 26.8444 27.4379C27.4333 27.6035 27.9394 27.8106 28.3626 28.059C28.7859 28.3074 29.1079 28.6203 29.3288 28.9975C29.5496 29.3748 29.66 29.8394 29.66 30.3915C29.66 30.916 29.5542 31.3622 29.3426 31.7303C29.1309 32.0983 28.8319 32.3974 28.4454 32.6274C28.0682 32.8482 27.6173 33.0046 27.0929 33.0967C26.5776 33.1979 26.0163 33.2439 25.409 33.2347ZM25.0502 34.5458V33.0138L26.8306 32.9172V34.5458H25.0502ZM25.0502 23.6148V22H26.8306V23.5044L25.0502 23.6148Z" fill="#008CFF"/>
</svg>
