<svg width="36" height="36" viewBox="0 0 36 36" fill="none" xmlns="http://www.w3.org/2000/svg">
<path fill-rule="evenodd" clip-rule="evenodd" d="M18 3.27273C9.86635 3.27273 3.27273 9.86635 3.27273 18C3.27273 26.1336 9.86635 32.7273 18 32.7273C26.1336 32.7273 32.7273 26.1336 32.7273 18C32.7273 9.86635 26.1336 3.27273 18 3.27273ZM0 18C0 8.05887 8.05887 0 18 0C27.9411 0 36 8.05887 36 18C36 27.9411 27.9411 36 18 36C8.05887 36 0 27.9411 0 18ZM18 5.72727C18.9037 5.72727 19.6364 6.4599 19.6364 7.36364V8.18182H19.9091C22.9216 8.18182 25.3636 10.6239 25.3636 13.6364C25.3636 14.5401 24.631 15.2727 23.7273 15.2727C22.8235 15.2727 22.0909 14.5401 22.0909 13.6364C22.0909 12.4314 21.1141 11.4545 19.9091 11.4545H16.3636C15.008 11.4545 13.9091 12.5535 13.9091 13.9091C13.9091 15.2647 15.008 16.3636 16.3636 16.3636H19.6364C22.7994 16.3636 25.3636 18.9278 25.3636 22.0909C25.3636 25.254 22.7994 27.8182 19.6364 27.8182V28.6364C19.6364 29.5401 18.9037 30.2727 18 30.2727C17.0963 30.2727 16.3636 29.5401 16.3636 28.6364V27.8182H16.0909C13.0784 27.8182 10.6364 25.3761 10.6364 22.3636C10.6364 21.4599 11.369 20.7273 12.2727 20.7273C13.1765 20.7273 13.9091 21.4599 13.9091 22.3636C13.9091 23.5686 14.8859 24.5455 16.0909 24.5455H19.6364C20.992 24.5455 22.0909 23.4465 22.0909 22.0909C22.0909 20.7353 20.992 19.6364 19.6364 19.6364H16.3636C13.2006 19.6364 10.6364 17.0722 10.6364 13.9091C10.6364 10.746 13.2006 8.18182 16.3636 8.18182V7.36364C16.3636 6.4599 17.0963 5.72727 18 5.72727Z" fill="#008CFF"/>
</svg>
