<svg width="60" height="60" viewBox="0 0 60 60" fill="none" xmlns="http://www.w3.org/2000/svg">
<path d="M18.6847 28.5184C18.5667 27.7487 18.5054 26.9603 18.5054 26.1574C18.5054 17.6684 25.3523 10.7866 33.7982 10.7866C42.2441 10.7866 49.0909 17.6684 49.0909 26.1574C49.0909 28.0751 48.7417 29.9108 48.1034 31.6035C47.9708 31.9551 47.9044 32.1309 47.8744 32.2681C47.8446 32.4041 47.833 32.4998 47.8297 32.6391C47.8265 32.7795 47.8453 32.9344 47.8831 33.2439L48.6475 39.5271C48.7303 40.2073 48.7717 40.5473 48.6598 40.7946C48.5619 41.0114 48.3879 41.1833 48.1716 41.2775C47.9247 41.3849 47.5895 41.3351 46.9193 41.2358L40.8703 40.3387C40.5543 40.2918 40.3965 40.2684 40.2525 40.2693C40.1103 40.2701 40.0119 40.2807 39.8725 40.3103C39.7318 40.3402 39.5519 40.4084 39.1924 40.5447C37.515 41.1804 35.697 41.5282 33.7982 41.5282C33.004 41.5282 32.2241 41.4673 31.4625 41.3501M21.6041 49.2136C27.2347 49.2136 31.7992 44.4825 31.7992 38.6462C31.7992 32.8099 27.2347 28.0788 21.6041 28.0788C15.9734 28.0788 11.4089 32.8099 11.4089 38.6462C11.4089 39.8193 11.5933 40.9478 11.9338 42.0022C12.0777 42.4479 12.1496 42.6708 12.1733 42.823C12.1979 42.9821 12.2022 43.0712 12.1931 43.2319C12.1843 43.3858 12.1462 43.5596 12.0701 43.9074L10.9091 49.2136L16.5965 48.4278C16.907 48.3849 17.0622 48.3634 17.1977 48.3644C17.3405 48.3653 17.4162 48.3732 17.5562 48.4014C17.6891 48.4281 17.8867 48.4987 18.2819 48.6399C19.3233 49.0117 20.4409 49.2136 21.6041 49.2136Z" stroke="#008CFF" stroke-width="4" stroke-linecap="round" stroke-linejoin="round"/>
</svg>
