<svg width="60" height="61" viewBox="0 0 60 61" fill="none" xmlns="http://www.w3.org/2000/svg">
<path fill-rule="evenodd" clip-rule="evenodd" d="M25.2273 16.4476C26.357 16.4476 27.2728 17.3634 27.2728 18.4931V46.1067C27.2728 49.1192 24.8307 51.5612 21.8182 51.5612H20.8892C18.2703 51.5612 16.0211 49.7 15.531 47.1273L14.1025 39.6273C13.4622 36.2661 16.039 33.1522 19.4607 33.1522H23.1818V18.4931C23.1818 17.3634 24.0976 16.4476 25.2273 16.4476ZM23.1818 37.2431H19.4607C18.6052 37.2431 17.9611 38.0215 18.1211 38.8619L19.5497 46.3619C19.6722 47.005 20.2345 47.4703 20.8892 47.4703H21.8182C22.5713 47.4703 23.1818 46.8598 23.1818 46.1067V37.2431Z" fill="#008CFF"/>
<path fill-rule="evenodd" clip-rule="evenodd" d="M38.2842 14.2157C37.949 14.0811 37.3588 14.0743 36.7347 14.575C33.34 17.2987 28.4549 19.8567 21.4771 19.8567C14.8285 19.8567 12.2727 23.5471 12.2727 26.5044C12.2727 29.4617 14.8286 33.1521 21.4773 33.1521C27.4229 33.1521 32.104 35.4185 36.0501 38.3751C36.6198 38.802 37.3502 38.8494 37.9553 38.5849C38.5374 38.3306 38.8634 37.8641 38.8634 37.2763V15.2595C38.8634 14.5957 38.5646 14.3282 38.2842 14.2157ZM39.8083 10.4193C41.6787 11.1702 42.9543 12.9676 42.9543 15.2595V37.2763C42.9543 39.7143 41.4485 41.5229 39.5934 42.3336C37.7612 43.1342 35.449 43.0365 33.5971 41.649C30.1151 39.0401 26.2759 37.2431 21.4773 37.2431C13.126 37.2431 8.1818 32.2403 8.18176 26.5044C8.18172 20.7686 13.1258 15.7658 21.4771 15.7658C27.3423 15.7658 31.3503 13.6502 34.1745 11.3842C35.8559 10.0352 37.9928 9.69042 39.8083 10.4193Z" fill="#008CFF"/>
<path fill-rule="evenodd" clip-rule="evenodd" d="M46.0934 23.8345C45.4463 23.125 44.447 22.584 42.9545 22.584C41.8248 22.584 40.909 21.6682 40.909 20.5385C40.909 19.4088 41.8248 18.4931 42.9545 18.4931C45.5529 18.4931 47.6644 19.4861 49.116 21.0778C50.5367 22.6355 51.2364 24.6657 51.2639 26.6465C51.2915 28.6282 50.6468 30.6826 49.2188 32.2643C47.7595 33.8807 45.6132 34.8567 42.9545 34.8567C41.8248 34.8567 40.909 33.9409 40.909 32.8112C40.909 31.6816 41.8248 30.7658 42.9545 30.7658C44.5571 30.7658 45.5642 30.2077 46.1823 29.523C46.8318 28.8035 47.1885 27.7897 47.1734 26.7033C47.1583 25.6159 46.7714 24.5779 46.0934 23.8345Z" fill="#008CFF"/>
</svg>
