<svg width="60" height="60" viewBox="0 0 60 60" fill="none" xmlns="http://www.w3.org/2000/svg">
<path d="M30 10.7866C34.8059 16.0479 37.537 22.8758 37.6854 30.0001C37.537 37.1245 34.8059 43.9522 30 49.2136M30 10.7866C25.1942 16.0479 22.463 22.8758 22.3146 30.0001C22.463 37.1245 25.1942 43.9522 30 49.2136M30 10.7866C19.3887 10.7866 10.7865 19.3888 10.7865 30.0001C10.7865 40.6113 19.3887 49.2136 30 49.2136M30 10.7866C40.6112 10.7866 49.2135 19.3888 49.2135 30.0001C49.2135 40.6113 40.6112 49.2136 30 49.2136M11.7472 24.2361H48.2528M11.7472 35.7641H48.2528" stroke="#008CFF" stroke-width="4" stroke-linecap="round" stroke-linejoin="round"/>
</svg>
