<svg width="48" height="49" viewBox="0 0 48 49" fill="none" xmlns="http://www.w3.org/2000/svg">
<path fill-rule="evenodd" clip-rule="evenodd" d="M24 4.86364C13.1551 4.86364 4.36364 13.6551 4.36364 24.5C4.36364 35.3449 13.1551 44.1364 24 44.1364C34.8449 44.1364 43.6364 35.3449 43.6364 24.5C43.6364 13.6551 34.8449 4.86364 24 4.86364ZM0 24.5C0 11.2452 10.7452 0.5 24 0.5C37.2548 0.5 48 11.2452 48 24.5C48 37.7548 37.2548 48.5 24 48.5C10.7452 48.5 0 37.7548 0 24.5ZM31.1845 14.2299C32.0365 13.3779 33.418 13.3779 34.2701 14.2299C35.1221 15.082 35.1221 16.4635 34.2701 17.3155L16.8155 34.7701C15.9635 35.6221 14.582 35.6221 13.7299 34.7701C12.8779 33.918 12.8779 32.5365 13.7299 31.6845L31.1845 14.2299ZM14.1818 17.9545C14.1818 16.1471 15.6471 14.6818 17.4545 14.6818C19.262 14.6818 20.7273 16.1471 20.7273 17.9545C20.7273 19.762 19.262 21.2273 17.4545 21.2273C15.6471 21.2273 14.1818 19.762 14.1818 17.9545ZM27.2727 31.0455C27.2727 29.238 28.738 27.7727 30.5455 27.7727C32.3529 27.7727 33.8182 29.238 33.8182 31.0455C33.8182 32.8529 32.3529 34.3182 30.5455 34.3182C28.738 34.3182 27.2727 32.8529 27.2727 31.0455Z" fill="#008CFF"/>
</svg>
