<svg width="56" height="56" viewBox="0 0 56 56" fill="none" xmlns="http://www.w3.org/2000/svg">
<mask id="mask0_265_5034" style="mask-type:alpha" maskUnits="userSpaceOnUse" x="0" y="0" width="56" height="56">
<rect width="56" height="56" fill="#D9D9D9"/>
</mask>
<g mask="url(#mask0_265_5034)">
<path d="M12.8917 49.0001C11.8417 49.0001 10.9084 48.6792 10.0917 48.0376C9.27508 47.3959 8.71119 46.5695 8.40008 45.5584L2.45008 23.9751C2.25563 23.2362 2.38202 22.5556 2.82924 21.9334C3.27647 21.3112 3.88897 21.0001 4.66674 21.0001H15.7501L26.0167 5.71675C26.2112 5.40564 26.4834 5.15286 26.8334 4.95841C27.1834 4.76397 27.5529 4.66675 27.9417 4.66675C28.3306 4.66675 28.7001 4.76397 29.0501 4.95841C29.4001 5.15286 29.6723 5.40564 29.8667 5.71675L40.1334 21.0001H51.3334C52.1112 21.0001 52.7237 21.3112 53.1709 21.9334C53.6181 22.5556 53.7445 23.2362 53.5501 23.9751L47.6001 45.5584C47.289 46.5695 46.7251 47.3959 45.9084 48.0376C45.0917 48.6792 44.1584 49.0001 43.1084 49.0001H12.8917ZM12.8334 44.3334H43.1667L48.3001 25.6667H7.70008L12.8334 44.3334ZM28.0001 39.6667C29.2834 39.6667 30.382 39.2098 31.2959 38.2959C32.2098 37.382 32.6667 36.2834 32.6667 35.0001C32.6667 33.7167 32.2098 32.6181 31.2959 31.7042C30.382 30.7904 29.2834 30.3334 28.0001 30.3334C26.7167 30.3334 25.6181 30.7904 24.7042 31.7042C23.7904 32.6181 23.3334 33.7167 23.3334 35.0001C23.3334 36.2834 23.7904 37.382 24.7042 38.2959C25.6181 39.2098 26.7167 39.6667 28.0001 39.6667ZM21.4084 21.0001H34.5334L27.9417 11.2001L21.4084 21.0001Z" fill="#008CFF"/>
</g>
</svg>
