<svg width="48" height="48" viewBox="0 0 48 48" fill="none" xmlns="http://www.w3.org/2000/svg">
<path fill-rule="evenodd" clip-rule="evenodd" d="M24 4.36364C13.1551 4.36364 4.36364 13.1551 4.36364 24C4.36364 34.8449 13.1551 43.6364 24 43.6364C34.8449 43.6364 43.6364 34.8449 43.6364 24C43.6364 13.1551 34.8449 4.36364 24 4.36364ZM0 24C0 10.7452 10.7452 0 24 0C37.2548 0 48 10.7452 48 24C48 37.2548 37.2548 48 24 48C10.7452 48 0 37.2548 0 24ZM24 7.63636C25.205 7.63636 26.1818 8.6132 26.1818 9.81818V10.9091H26.5455C30.5621 10.9091 33.8182 14.1652 33.8182 18.1818C33.8182 19.3868 32.8414 20.3636 31.6364 20.3636C30.4314 20.3636 29.4545 19.3868 29.4545 18.1818C29.4545 16.5752 28.1521 15.2727 26.5455 15.2727H21.8182C20.0107 15.2727 18.5455 16.738 18.5455 18.5455C18.5455 20.3529 20.0107 21.8182 21.8182 21.8182H26.1818C30.3993 21.8182 33.8182 25.2371 33.8182 29.4545C33.8182 33.672 30.3993 37.0909 26.1818 37.0909V38.1818C26.1818 39.3868 25.205 40.3636 24 40.3636C22.795 40.3636 21.8182 39.3868 21.8182 38.1818V37.0909H21.4545C17.4379 37.0909 14.1818 33.8348 14.1818 29.8182C14.1818 28.6132 15.1587 27.6364 16.3636 27.6364C17.5686 27.6364 18.5455 28.6132 18.5455 29.8182C18.5455 31.4248 19.8479 32.7273 21.4545 32.7273H26.1818C27.9893 32.7273 29.4545 31.262 29.4545 29.4545C29.4545 27.6471 27.9893 26.1818 26.1818 26.1818H21.8182C17.6007 26.1818 14.1818 22.7629 14.1818 18.5455C14.1818 14.328 17.6007 10.9091 21.8182 10.9091V9.81818C21.8182 8.6132 22.795 7.63636 24 7.63636Z" fill="#008CFF"/>
</svg>
