<svg width="126" height="35" viewBox="0 0 126 35" fill="none" xmlns="http://www.w3.org/2000/svg">
<path d="M8.03996 23.447C7.02481 24.3166 5.71962 24.8216 4.38543 24.8216C2.1231 24.9899 0.150817 23.3348 0.00579611 21.1466V20.7819C-0.0812165 19.2952 0.817912 17.9206 2.26812 17.3876C3.34128 16.9387 4.47244 16.6862 5.66161 16.6021L7.92394 16.4338V15.9569C7.92394 14.5542 6.9668 13.9371 5.34257 13.9371C4.1534 13.9932 2.99323 14.3018 1.94908 14.8628L0.817912 12.843C2.35513 12.0295 4.06638 11.6087 5.80663 11.5806C9.31614 11.5806 10.9694 13.1235 10.9694 16.0971V21.2588C10.8824 22.3529 10.9984 23.475 11.2884 24.541H8.53303L8.03996 23.447ZM5.92265 18.7621C5.25555 18.7341 4.55945 18.9024 3.97937 19.239C3.4863 19.5476 3.16725 20.0806 3.16725 20.6417C3.16725 21.5674 3.95037 22.3529 4.9075 22.3529H5.08153C6.03867 22.3249 6.9378 21.9882 7.6629 21.4272V18.7621H5.92265ZM12.8547 18.4255C12.8547 14.3859 15.9291 11.7209 19.9317 11.7209C20.5118 11.6928 21.1208 11.7489 21.7009 11.8612V5.80176H24.9204V24.0361C23.3832 24.6813 21.7589 24.9899 20.0767 24.9618C16.0741 24.8216 12.8547 22.6615 12.8547 18.4255ZM21.7299 22.0163V14.5262C21.2079 14.3859 20.6568 14.3298 20.1347 14.3859C17.9594 14.3298 16.1611 15.9849 16.1031 18.0889V18.4536C15.9291 20.4453 17.4373 22.1846 19.4966 22.3529C19.6996 22.381 19.9317 22.381 20.1347 22.3529C20.5988 22.1846 21.2369 22.1846 21.7299 22.0163ZM26.0806 12.0575H29.4741L32.6935 20.6417L35.913 12.0856H39.1324L33.8247 24.7093H31.4173L26.0806 12.0575Z" fill="#00364D"/>
<path d="M39.5966 18.4257C39.5096 14.8069 42.468 11.8053 46.2096 11.7211H46.4706C47.6888 11.7492 48.878 12.0017 49.9801 12.5066V15.1436C49.023 14.4984 47.9208 14.1898 46.7607 14.2178C44.3533 14.2178 42.9031 15.929 42.9031 18.2574C42.9031 20.8944 44.3533 22.297 46.6156 22.297C47.6888 22.297 48.7329 22.0446 49.6901 21.5116L50.6472 23.6997C49.284 24.5132 47.7178 24.934 46.1226 24.934C42.5551 24.9901 39.6256 22.2129 39.5676 18.7624C39.5966 18.6782 39.5966 18.566 39.5966 18.4257ZM59.2615 23.4472C58.2463 24.3449 56.9411 24.8498 55.5489 24.8498C53.2866 25.0182 51.3143 23.363 51.1693 21.1749V20.8102C51.0823 19.3234 51.9814 17.9488 53.4316 17.4158C54.5048 16.967 55.6359 16.7145 56.8251 16.6304L59.0874 16.4901V16.0132C59.0874 14.6106 58.1303 13.9934 56.5061 13.9934C55.3169 14.0495 54.1567 14.3581 53.1126 14.9191L52.0394 12.8432C53.5767 12.0297 55.3169 11.6089 57.0572 11.5809C60.5667 11.5809 62.2199 13.1238 62.2199 16.0974V21.2591C62.1329 22.3531 62.2489 23.4753 62.5389 24.5413H59.7545L59.2615 23.4472ZM57.1732 18.7624C56.5061 18.7343 55.81 18.9026 55.2299 19.2393C54.7368 19.5198 54.4178 20.0528 54.4178 20.6139C54.4178 21.5396 55.2009 22.3251 56.158 22.3251H56.332C57.2892 22.297 58.1883 21.9604 58.9134 21.3993V18.7624C58.9424 18.7343 57.1732 18.7624 57.1732 18.7624ZM64.7433 21.231C65.7874 21.9043 67.0056 22.297 68.2528 22.3251C69.529 22.3251 70.5151 22.0165 70.5151 20.9224C70.5151 18.7343 64.3662 19.5198 64.3662 15.4802C64.3662 13.2921 66.3095 11.7492 69.3549 11.7492C70.6601 11.7772 71.9653 11.9736 73.2125 12.3663V15.0033C72.0523 14.4984 70.7761 14.2459 69.5 14.2178C68.3688 14.2178 67.7307 14.5264 67.7307 15.3119C67.7307 17.3317 73.8796 16.5462 73.8796 20.9224C73.8796 23.7277 71.4722 24.8218 68.5718 24.8218C66.8896 24.8218 65.2073 24.401 63.7281 23.5594C63.7571 23.5594 64.7433 21.231 64.7433 21.231ZM75.7068 5.80198H78.9263V13.4604C80.1445 12.4224 81.6817 11.8333 83.3059 11.7492C85.3942 11.7492 87.4825 12.6749 87.4825 16.2657V24.5132H84.2631V17.1634C84.2631 15.6205 83.944 14.3581 82.3198 14.3581C81.1016 14.4422 79.9415 14.9472 79.0713 15.7888V24.5132H75.8519V5.83003L75.7068 5.80198ZM108.424 34.5C118.111 34.5 126 26.8977 126 17.5C126 8.10231 118.14 0.5 108.424 0.5C98.7072 0.5 90.847 8.10231 90.847 17.5C90.847 26.8977 98.7072 34.5 108.424 34.5Z" fill="#019A5F"/>
<path d="M99.0552 26.5331L108.075 7.37305L108.714 14.0777L102.739 26.3928L99.0552 26.5331Z" fill="black"/>
<path d="M99.7222 18.4257H116.806L114.862 20.7541H101.317C101.317 20.7821 99.7222 18.4257 99.7222 18.4257ZM96.8218 14.2178H119.387L117.444 16.5462H98.446C98.417 16.5742 96.8218 14.2178 96.8218 14.2178Z" fill="#00364D"/>
<path d="M117.096 26.5331L108.075 7.37305L107.437 14.0777L113.383 26.3928L117.096 26.5331Z" fill="black"/>
</svg>
