<svg width="62" height="45" viewBox="0 0 62 45" fill="none" xmlns="http://www.w3.org/2000/svg">
<g clip-path="url(#clip0_227_11711)">
<path fill-rule="evenodd" clip-rule="evenodd" d="M8.13423 0.155061C8.97723 0.155061 9.66623 0.284061 10.2012 0.542061C10.7362 0.800061 11.1442 1.14406 11.4242 1.57406C11.7052 2.00406 11.8642 2.49906 11.9002 3.05806C11.9372 3.61806 11.8872 4.19806 11.7502 4.80006L11.5982 5.47106C11.4842 5.97006 11.3502 6.39106 11.1942 6.73606C11.0392 7.08006 10.8542 7.38106 10.6412 7.63906C10.2392 8.12106 9.69823 8.53406 9.01723 8.87806C9.57023 9.17006 9.92923 9.60006 10.0922 10.1681C10.2562 10.7361 10.2262 11.5101 10.0032 12.4911L9.76923 13.5231C9.40224 15.1411 8.72923 16.3791 7.75123 17.2401C6.77323 18.1001 5.42323 18.5301 3.70323 18.5301H0.115234L4.28823 0.155061H8.13423ZM5.84223 10.0131H4.68123L3.34523 15.8981H4.48023C5.01423 15.8981 5.44823 15.8201 5.78523 15.6651C6.12123 15.5111 6.39823 15.2951 6.61523 15.0201C6.83323 14.7451 7.00124 14.4181 7.12223 14.0401C7.24223 13.6601 7.35323 13.2481 7.45523 12.8001C7.56023 12.3361 7.62623 11.9321 7.65323 11.5881C7.67923 11.2431 7.64323 10.9511 7.54323 10.7101C7.42414 10.4675 7.21816 10.2787 6.96623 10.1811C6.69923 10.0691 6.32423 10.0131 5.84223 10.0131ZM6.35923 2.63306H7.44323C8.32023 2.63306 8.88023 2.83906 9.12123 3.25206C9.36323 3.66506 9.39123 4.28406 9.20323 5.11006C9.01123 5.95306 8.71523 6.59406 8.31423 7.03306C7.91423 7.47106 7.27423 7.69106 6.39723 7.69106H5.21023L6.35923 2.63306ZM20.6932 0.282061C20.2082 0.0929088 19.6918 -0.00277385 19.1712 6.12036e-05C18.6372 6.12036e-05 18.0872 0.0950612 17.5192 0.284061C16.9512 0.474061 16.4192 0.748061 15.9252 1.11006C15.3958 1.50251 14.9375 1.98279 14.5702 2.53006C14.1717 3.12505 13.8894 3.79009 13.7382 4.49006L11.5342 14.1951C11.3582 14.9691 11.3372 15.6311 11.4702 16.1821C11.6032 16.7321 11.8432 17.1881 12.1912 17.5501C12.5182 17.9281 12.9232 18.2121 13.4052 18.4011C13.8862 18.5911 14.3942 18.6851 14.9272 18.6851C15.4612 18.6851 16.0112 18.5911 16.5792 18.4011C17.1623 18.204 17.711 17.9169 18.2052 17.5501C18.7175 17.1708 19.1627 16.7084 19.5222 16.1821C19.9052 15.6321 20.1852 14.9691 20.3602 14.1951L22.5642 4.49106C22.7322 3.75106 22.7522 3.09706 22.6222 2.52906C22.4932 1.96106 22.2652 1.48906 21.9382 1.10906C21.5882 0.746803 21.1633 0.46526 20.6932 0.284061V0.282061ZM17.2182 3.08306C17.6098 2.79202 18.0843 2.63398 18.5722 2.63206C19.0542 2.63206 19.4372 2.78206 19.7222 3.08306C20.0062 3.38406 20.0762 3.85306 19.9322 4.49006L17.7272 14.1941C17.5832 14.8301 17.3002 15.2991 16.8792 15.6001C16.4878 15.8915 16.0133 16.0499 15.5252 16.0521C15.0432 16.0521 14.6602 15.9021 14.3752 15.6001C14.0912 15.3001 14.0212 14.8301 14.1652 14.1941L16.3702 4.49006C16.5142 3.85306 16.7972 3.38406 17.2182 3.08306Z" fill="#1E1E1C"/>
<path d="M29.5472 18.5298L30.1452 15.8978H24.9302L28.5072 0.154785H25.8742L21.7012 18.5298H29.5472ZM38.6922 18.5298L39.2902 15.8978H34.0772L35.3022 10.5038H39.8442L40.4072 8.02578H35.8652L37.0892 2.63179H42.3032L42.8652 0.154785H35.0202L30.8472 18.5298H38.6922ZM45.5652 18.5298L49.1752 2.63179H52.2212L52.7832 0.154785H44.0602L43.4972 2.63179H46.5432L42.9332 18.5298H45.5652Z" fill="#1E1E1C"/>
<path fill-rule="evenodd" clip-rule="evenodd" d="M59.4502 0.28405C58.9644 0.093842 58.4469 -0.00252663 57.9252 5.0348e-05C57.3632 0.00503959 56.8056 0.100946 56.2742 0.28405C55.7062 0.47405 55.1742 0.74805 54.6802 1.11005C54.1508 1.5025 53.6925 1.98278 53.3252 2.53005C52.9264 3.12499 52.6438 3.79002 52.4922 4.49005L50.2892 14.1951C50.1132 14.9691 50.0922 15.631 50.2252 16.182C50.3582 16.732 50.5982 17.188 50.9462 17.55C51.2745 17.9291 51.6911 18.2214 52.1592 18.401C52.6412 18.591 53.1492 18.685 53.6822 18.685C54.2162 18.685 54.7662 18.591 55.3342 18.401C55.9173 18.204 56.466 17.9169 56.9602 17.55C57.4725 17.1708 57.9177 16.7084 58.2772 16.182C58.6602 15.632 58.9392 14.9691 59.1152 14.1951L61.3202 4.49005C61.4882 3.75005 61.5072 3.09605 61.3782 2.52805C61.2492 1.96005 61.0212 1.48805 60.6942 1.10805C60.3442 0.745767 59.9193 0.46422 59.4492 0.28305L59.4502 0.28405ZM55.9742 3.08405C56.3658 2.79301 56.8403 2.63497 57.3282 2.63305C57.8102 2.63305 58.1932 2.78305 58.4782 3.08405C58.7622 3.38505 58.8312 3.85405 58.6872 4.49105L56.4832 14.1951C56.3392 14.831 56.0562 15.3001 55.6352 15.6011C55.2437 15.8924 54.7692 16.0508 54.2812 16.053C53.7992 16.053 53.4162 15.9031 53.1312 15.6011C52.8472 15.3011 52.7772 14.831 52.9212 14.1951L55.1252 4.49105C55.2702 3.85405 55.5532 3.38505 55.9742 3.08405Z" fill="#1E1E1C"/>
<path fill-rule="evenodd" clip-rule="evenodd" d="M11.9412 31.5781C12.7582 27.9821 11.6182 26.1841 8.52123 26.1841H4.28823L0.115234 44.5591H2.74823L4.52923 36.7141H6.10423L6.77423 44.5601H9.56024L8.62624 36.1721C9.57524 35.7071 10.3022 35.0961 10.8102 34.3391C11.3172 33.5821 11.6942 32.6621 11.9402 31.5781H11.9412ZM6.35723 28.6621H7.72523C8.63723 28.6621 9.20123 28.9021 9.41923 29.3841C9.51523 29.6421 9.54924 29.9481 9.52024 30.3011C9.48238 30.7139 9.41555 31.1236 9.32023 31.5271C9.22882 31.9428 9.10989 32.3521 8.96423 32.7521C8.83223 33.1051 8.67023 33.4021 8.47723 33.6421C8.26723 33.8841 8.01123 34.0691 7.70723 34.1981C7.40223 34.3271 7.01723 34.3911 6.55323 34.3911H5.05623L6.35623 28.6611L6.35723 28.6621Z" fill="#0F73C1"/>
<path d="M20.1621 25.2039L24.0941 22.2799L22.6821 20.5659L18.9521 23.8929L20.1621 25.2029V25.2039Z" fill="#0F73C1"/>
<path fill-rule="evenodd" clip-rule="evenodd" d="M20.7281 44.5601L20.7981 26.1841H18.6041L10.3271 44.5591H12.9601L14.6301 40.6111H18.2181L18.0961 44.5601H20.7281ZM18.4601 31.4741H18.5111L18.2901 38.1331H15.6571L18.4601 31.4741ZM32.3862 26.4681C31.8782 26.2781 31.2631 26.1841 30.5401 26.1841H26.5921L22.4201 44.5591H25.0521L26.6821 37.3851H28.0241C29.0041 37.3851 29.8341 37.2171 30.5121 36.8821C31.1939 36.544 31.7956 36.0643 32.2771 35.4751C32.6865 34.9989 33.0142 34.4582 33.2472 33.8751C33.4712 33.3071 33.6771 32.6101 33.8641 31.7851C34.1141 30.6831 34.2261 29.8101 34.2001 29.1651C34.1751 28.5201 33.9931 27.9561 33.6551 27.4751C33.3171 26.9931 32.8941 26.6571 32.3862 26.4681ZM28.6601 28.6621H30.0281C30.5451 28.6621 30.9231 28.7391 31.1631 28.8941C31.4031 29.0491 31.5591 29.2731 31.6301 29.5651C31.7011 29.8581 31.7011 30.1971 31.6301 30.5851C31.5601 30.9721 31.4761 31.3801 31.3781 31.8101C31.2721 32.2751 31.1641 32.6971 31.0521 33.0751C30.9574 33.4188 30.8008 33.7424 30.5901 34.0301C30.3901 34.3051 30.1261 34.5201 29.7981 34.6751C29.4711 34.8301 29.0401 34.9071 28.5071 34.9071H27.2421L28.6601 28.6621Z" fill="#0F73C1"/>
<path d="M35.4318 44.5601L39.6048 26.1841H36.9728L32.7998 44.5591H35.4318V44.5601Z" fill="#0F73C1"/>
<path fill-rule="evenodd" clip-rule="evenodd" d="M49.0201 27.4229C48.4251 26.5969 47.3701 26.1839 45.8561 26.1839H41.9601L37.7871 44.5588H41.4521C43.0181 44.5588 44.3101 44.1509 45.3311 43.3339C46.3511 42.5159 47.0561 41.2469 47.4471 39.5269L49.3981 30.9329C49.7421 29.4189 49.6151 28.2489 49.0201 27.4229ZM44.0301 28.6619H45.2421C46.0161 28.6619 46.5051 28.8599 46.7071 29.2549C46.9101 29.6509 46.9291 30.2099 46.7651 30.9329L44.7551 39.7849C44.5751 40.5769 44.2881 41.1569 43.8951 41.5269C43.5011 41.8969 42.9351 42.0819 42.1951 42.0819H40.9801L44.0281 28.6619H44.0301ZM58.3671 26.3129C57.8819 26.1229 57.3652 26.0265 56.8441 26.0289C56.2821 26.0338 55.7245 26.1297 55.1931 26.3129C54.6251 26.5029 54.0931 26.7779 53.5991 27.1389C53.0697 27.5313 52.6114 28.0116 52.2441 28.5589C51.8453 29.1538 51.5626 29.8188 51.4111 30.5189L49.2081 40.2239C49.0321 40.9979 49.0111 41.6599 49.1441 42.2108C49.2771 42.7608 49.5171 43.2178 49.8651 43.5788C50.1921 43.9569 50.5971 44.2409 51.0781 44.4309C51.5601 44.6199 52.0681 44.7139 52.6011 44.7139C53.1634 44.7093 53.7213 44.6137 54.2531 44.4309C54.8363 44.2335 55.3849 43.946 55.8791 43.5788C56.3914 43.1995 56.8365 42.7372 57.1961 42.2108C57.5791 41.6608 57.8581 40.9979 58.0341 40.2239L60.2381 30.5199C60.4061 29.7799 60.4251 29.1259 60.2961 28.5579C60.1671 27.9909 59.9391 27.5179 59.6121 27.1379C59.2621 26.7756 58.8372 26.494 58.3671 26.3129ZM54.8921 29.1129C55.2837 28.8218 55.7582 28.6638 56.2461 28.6619C56.7281 28.6619 57.1111 28.8119 57.3961 29.1129C57.6801 29.4149 57.7491 29.8829 57.6051 30.5199L55.4001 40.2239C55.2561 40.8609 54.9731 41.3289 54.5521 41.6299C54.1606 41.9212 53.6861 42.0796 53.1981 42.0819C52.7161 42.0819 52.3331 41.9319 52.0481 41.6299C51.7641 41.3299 51.6941 40.8598 51.8381 40.2239L54.0421 30.5199C54.1871 29.8829 54.4711 29.4149 54.8921 29.1129Z" fill="#0F73C1"/>
</g>
<defs>
<clipPath id="clip0_227_11711">
<rect width="62" height="45" fill="white"/>
</clipPath>
</defs>
</svg>
