<svg width="86" height="39" viewBox="0 0 86 39" fill="none" xmlns="http://www.w3.org/2000/svg">
<path fill-rule="evenodd" clip-rule="evenodd" d="M2.27638 0.5H0V38.5H2.27638V0.5ZM2.80844 0.5H4.07966V38.5H2.80844V0.5ZM5.91259 0.5H10.0219V17.288H5.91259V0.5ZM82.1273 17.288V0.5H81.1517V17.288H82.1273ZM80.5897 17.288V0.5H79.3185V17.288H80.5897ZM77.1306 17.288V0.5H74.8542V17.288H77.1306ZM73.7604 17.288V0.5H72.4892V17.288H73.7604ZM71.1885 17.288V0.5H67.0792V17.288H71.1885ZM65.9854 17.288V0.5H64.7142V17.288H65.9854ZM64.1821 17.288V0.5H61.9057V17.288H64.1821ZM61.0482 17.288V0.5H60.0726V17.288H61.0482ZM59.511 17.288V0.5H58.2694V17.288H59.511ZM56.5545 17.288V0.5H55.2833V17.288H56.5545ZM54.7809 17.288V0.5H52.5045V17.288H54.7809ZM51.6176 17.288V0.5H50.642V17.288H51.6176ZM50.1097 17.288V0.5H48.8089V17.288H50.1097ZM46.6509 17.288V0.5H44.3745V17.288H46.6509ZM42.7781 17.288V0.5H41.773V17.288H42.7781ZM41.2111 17.288V0.5H39.9694V17.288H41.2111ZM37.7819 17.288V0.5H35.5055V17.288H37.7819ZM34.3824 17.288V0.5H33.1112V17.288H34.3824ZM31.8398 17.288V0.5H27.7305V17.288H31.8398ZM25.8975 17.288V0.5H24.6263V17.288H25.8975ZM24.0939 17.288V0.5H21.8175V17.288H24.0939ZM20.9603 17.288V0.5H19.9847V17.288H20.9603ZM19.4231 17.288V0.5H18.1519V17.288H19.4231ZM15.9643 17.288V0.5H13.6879V17.288H15.9643ZM12.5941 17.288V0.5H11.2933V17.288H12.5941ZM86 0.5H83.7236V38.5H86V0.5Z" fill="black"/>
<path d="M6.11841 37.7666V18.4883H13.4206C14.8987 18.4883 16.0813 18.6934 16.9977 19.0742C17.8846 19.4551 18.5942 20.0704 19.0967 20.8614C19.6289 21.6525 19.8654 22.5022 19.8654 23.4104C19.8654 24.3187 19.6289 25.0218 19.1854 25.7543C18.742 26.4867 18.062 27.0727 17.1455 27.5122C18.3281 27.8638 19.215 28.4204 19.8654 29.2701C20.5158 30.0904 20.8114 31.0573 20.8114 32.1999C20.8114 33.3426 20.6045 33.9285 20.2201 34.7196C19.8358 35.4813 19.3628 36.0966 18.8011 36.5068C18.2394 36.917 17.5299 37.2392 16.6725 37.4736C15.8152 37.6787 14.7509 37.7959 13.5388 37.7959H6.11841V37.7666ZM8.71999 26.6039H12.918C14.071 26.6039 14.8692 26.516 15.3717 26.3695C16.0221 26.1645 16.5247 25.8422 16.8499 25.4027C17.1751 24.9632 17.3525 24.3773 17.3525 23.7034C17.3525 23.0295 17.2047 22.5022 16.8795 22.0041C16.5838 21.506 16.1404 21.1837 15.5491 21.0079C14.9579 20.8322 13.9823 20.7443 12.5928 20.7443H8.69042V26.5746L8.71999 26.6039ZM8.71999 35.5106H13.5684C14.3962 35.5106 14.9874 35.4813 15.3126 35.4227C15.9039 35.3056 16.4065 35.1591 16.7908 34.8954C17.1751 34.6317 17.5003 34.2801 17.7664 33.8113C18.0324 33.3426 18.1507 32.7859 18.1507 32.1706C18.1507 31.5554 17.9733 30.8229 17.589 30.2955C17.2342 29.7682 16.7021 29.3873 16.0517 29.1822C15.4013 28.9771 14.4553 28.8599 13.2136 28.8599H8.71999V35.5106Z" fill="black"/>
<path d="M23.1431 30.7958C23.1431 28.2175 23.8526 26.3131 25.3308 25.0533C26.5429 24.0279 28.021 23.5005 29.7653 23.5005C31.5095 23.5005 33.2833 24.1451 34.525 25.4049C35.7371 26.6647 36.3579 28.3933 36.3579 30.62C36.3579 32.8467 36.0918 33.8135 35.5597 34.8683C34.998 35.8937 34.2293 36.6848 33.165 37.2707C32.1303 37.8567 31.0069 38.1204 29.7653 38.1204C27.7845 38.1204 26.1881 37.5051 24.976 36.2453C23.7639 34.9855 23.1431 33.1983 23.1431 30.8544V30.7958ZM25.5968 30.7958C25.5968 32.583 25.9811 33.9014 26.7794 34.8097C27.5776 35.6886 28.5532 36.1281 29.7653 36.1281C30.9774 36.1281 31.9234 35.6886 32.7216 34.8097C33.5198 33.9307 33.9041 32.5537 33.9041 30.7372C33.9041 28.9207 33.5198 27.7195 32.7216 26.8112C31.9234 25.903 30.9478 25.4928 29.7653 25.4928C28.5827 25.4928 27.5776 25.9323 26.7794 26.8112C25.9811 27.6902 25.5968 29.0379 25.5968 30.7958Z" fill="black"/>
<path d="M39.1079 37.7666V18.4883H41.5025V37.7666H39.1079Z" fill="black"/>
<path d="M54.8118 33.2569L57.2951 33.5791C56.9108 35.0148 56.2013 36.0988 55.137 36.8898C54.0727 37.6809 52.7424 38.0618 51.1164 38.0618C49.4904 38.0618 47.4505 37.4172 46.2384 36.1574C45.0263 34.8976 44.4351 33.1397 44.4351 30.8837C44.4351 28.6277 45.0559 26.7233 46.268 25.4342C47.4801 24.1451 49.0469 23.5005 51.0277 23.5005C53.0084 23.5005 54.457 24.1451 55.6396 25.4049C56.8221 26.6647 57.4134 28.4519 57.4134 30.7665C57.4134 33.0811 57.4134 31.1181 57.4134 31.4111H46.9184C47.0071 32.9346 47.4505 34.1065 48.2192 34.9269C48.9878 35.7472 49.993 36.1574 51.1459 36.1574C52.2989 36.1574 52.7719 35.923 53.3928 35.4835C54.0136 35.0441 54.5162 34.2823 54.8709 33.2861H54.8414L54.8118 33.2569ZM47.0071 29.4481H54.8414C54.7231 28.2761 54.4275 27.3972 53.9545 26.8112C53.1858 25.903 52.2102 25.4635 50.9981 25.4635C49.786 25.4635 48.9878 25.8151 48.2487 26.5475C47.5096 27.28 47.0958 28.2468 47.0071 29.4774V29.4481Z" fill="black"/>
<path d="M65.4813 35.6586L65.8065 37.7388C65.1265 37.8853 64.5352 37.9439 64.0031 37.9439C63.1458 37.9439 62.4658 37.7974 61.9928 37.5337C61.5198 37.27 61.1946 36.8891 60.9876 36.4496C60.7807 36.0102 60.692 35.0726 60.692 33.637V25.5799H58.9182V23.7634H60.692V20.3062L63.0867 18.8706V23.7341H65.4813V25.5506H63.0867V33.7249C63.0867 34.3988 63.1458 34.8382 63.2049 35.014C63.2936 35.2191 63.4118 35.3656 63.6188 35.4828C63.7962 35.6 64.0622 35.6586 64.417 35.6586C64.7718 35.6586 65.0378 35.6293 65.4517 35.5707L65.4813 35.6586Z" fill="black"/>
<path d="M66.9302 30.7958C66.9302 28.2175 67.6397 26.3131 69.1179 25.0533C70.33 24.0279 71.8081 23.5005 73.5524 23.5005C75.2966 23.5005 77.0704 24.1451 78.3121 25.4049C79.5242 26.6647 80.145 28.3933 80.145 30.62C80.145 32.8467 79.8789 33.8135 79.3468 34.8683C78.7851 35.8937 78.0164 36.6848 76.9522 37.2707C75.9174 37.8567 74.794 38.1204 73.5524 38.1204C71.5716 38.1204 69.9752 37.5051 68.7631 36.2453C67.551 34.9855 66.9302 33.1983 66.9302 30.8544V30.7958ZM69.3839 30.7958C69.3839 32.583 69.7683 33.9014 70.5665 34.8097C71.3647 35.6886 72.3403 36.1281 73.5524 36.1281C74.7645 36.1281 75.7105 35.6886 76.5087 34.8097C77.3069 33.9307 77.6912 32.5537 77.6912 30.7372C77.6912 28.9207 77.3069 27.7195 76.5087 26.8112C75.7105 25.903 74.7349 25.4928 73.5524 25.4928C72.3698 25.4928 71.3647 25.9323 70.5665 26.8112C69.7683 27.6902 69.3839 29.0379 69.3839 30.7958Z" fill="black"/>
</svg>
