<svg width="44" height="45" viewBox="0 0 44 45" fill="none" xmlns="http://www.w3.org/2000/svg">
<g clip-path="url(#clip0_227_11689)">
<path d="M30.6049 23.4959H37.1209C40.7849 23.4959 43.6049 26.0579 43.9679 29.6989C44.3309 33.3939 41.5649 36.6079 37.9859 36.9809L37.5059 37.0449C36.5859 37.1409 36.5859 37.1409 36.5439 38.0279C36.3839 41.6049 33.4889 44.4129 29.8679 44.4979C26.4069 44.5839 23.3939 41.8609 23.0519 38.3479C23.0003 37.8512 22.9752 37.3522 22.9769 36.8529V24.3179C22.9769 23.4959 22.9879 23.4849 23.8209 23.4849C26.0859 23.4849 28.3509 23.4959 30.6049 23.4959Z" fill="#111A79"/>
<path d="M30.5941 21.4881H23.7041C23.0091 21.4881 22.9881 21.4671 22.9881 20.7621C22.9881 16.3521 22.9781 11.9421 22.9881 7.52212C22.9981 4.07212 25.2641 1.25412 28.4681 0.635124C32.5701 -0.154877 36.3411 2.82412 36.5551 7.00912C36.5971 7.97012 36.5971 7.97012 37.5481 7.99212C40.7641 8.04512 43.6381 10.7681 43.9581 13.9711C44.3531 17.8681 41.6081 20.6981 38.7981 21.3061C38.2579 21.4258 37.7064 21.4868 37.1531 21.4881C34.9731 21.4781 32.7831 21.4881 30.5941 21.4881ZM20.9801 31.1401C20.9801 33.3501 21.0011 35.5501 20.9801 37.7601C20.9481 41.0701 18.6511 43.7711 15.4141 44.3801C11.3871 45.1381 7.54108 41.9991 7.48808 37.8991C7.47808 37.0981 7.47808 37.0981 6.68708 37.0551C3.24708 36.8421 0.694079 34.6421 0.107079 31.4071C-0.608921 27.4131 2.53108 23.5481 6.59108 23.5171C11.1841 23.4731 15.7781 23.5171 20.3711 23.4951C20.8731 23.4951 21.0111 23.6761 21.0011 24.1571C20.9691 26.4741 20.9801 28.8121 20.9801 31.1401Z" fill="#FF8B21"/>
<path d="M20.9901 13.864C20.9901 16.181 20.9801 18.488 21.0001 20.804C21.0121 21.339 20.8511 21.51 20.3071 21.51C15.7561 21.488 11.1951 21.51 6.64407 21.488C3.16007 21.478 0.192071 18.638 0.010071 15.21C-0.181929 11.537 2.39207 8.43 5.96007 8.013C6.26007 7.981 6.57007 7.97 6.86807 7.992C7.32807 8.024 7.49807 7.842 7.48807 7.372C7.44507 5.963 7.83007 4.672 8.62007 3.497C9.37159 2.38323 10.4362 1.51701 11.6795 1.00765C12.9228 0.498293 14.2891 0.368623 15.6061 0.635002C18.2761 1.18 20.3811 3.325 20.8941 6.027C20.9811 6.53489 21.0206 7.04978 21.0121 7.565C20.9901 9.658 20.9901 11.76 20.9901 13.864Z" fill="#111A79"/>
</g>
<defs>
<clipPath id="clip0_227_11689">
<rect width="44" height="44" fill="white" transform="translate(0 0.5)"/>
</clipPath>
</defs>
</svg>
