<svg width="63" height="49" viewBox="0 0 63 49" fill="none" xmlns="http://www.w3.org/2000/svg">
<g clip-path="url(#clip0_227_11665)">
<path d="M12.0139 47.9178V44.7578C12.0378 44.4939 12.0043 44.2279 11.9157 43.9782C11.8271 43.7284 11.6855 43.5008 11.5006 43.311C11.3158 43.1212 11.092 42.9736 10.8446 42.8785C10.5973 42.7833 10.3323 42.7428 10.0679 42.7598C9.71833 42.7457 9.37088 42.8202 9.0579 42.9765C8.74491 43.1329 8.47658 43.3658 8.27789 43.6538C8.10596 43.3651 7.85813 43.1291 7.56139 42.9715C7.26465 42.8139 6.93036 42.7406 6.59489 42.7598C6.29904 42.7464 6.00449 42.8066 5.73764 42.9351C5.47079 43.0635 5.23998 43.2562 5.06589 43.4958V42.8658H4.06689V47.9158H5.06689V45.0228C5.04611 44.8495 5.06402 44.6738 5.11934 44.5082C5.17467 44.3427 5.26602 44.1915 5.38683 44.0655C5.50764 43.9395 5.65489 43.8419 5.81796 43.7797C5.98104 43.7175 6.15588 43.6923 6.32989 43.7058C7.06589 43.7058 7.48689 44.1798 7.48689 45.0208V47.9158H8.4869V45.0228C8.46613 44.8496 8.48402 44.6739 8.53929 44.5085C8.59456 44.343 8.68583 44.1919 8.80652 44.0659C8.92721 43.94 9.07433 43.8423 9.23728 43.7801C9.40023 43.7178 9.57496 43.6924 9.74889 43.7058C10.4869 43.7058 10.9089 44.1798 10.9089 45.0208V47.9158H12.0139V47.9178ZM28.4359 42.9158H26.5939V41.3908H25.5929V42.9158H24.5399V43.8098H25.5919V46.1798C25.5919 47.3358 26.0119 48.0208 27.2749 48.0208C27.7549 48.0128 28.2249 47.8858 28.6449 47.6528L28.3289 46.7598C28.0449 46.9369 27.7156 47.0279 27.3809 47.0218C27.2705 47.0312 27.1594 47.0154 27.0559 46.9757C26.9524 46.936 26.8593 46.8734 26.7835 46.7926C26.7077 46.7118 26.6511 46.6148 26.6181 46.5091C26.5851 46.4033 26.5765 46.2914 26.5929 46.1818V43.7588H28.4329V42.9178L28.4349 42.9158H28.4359ZM37.8029 42.7578C37.5309 42.7523 37.2622 42.8172 37.0227 42.9462C36.7832 43.0751 36.5811 43.2638 36.4359 43.4938V42.8638H35.4359V47.9158H36.4349V45.0758C36.4349 44.2338 36.8549 43.7058 37.5389 43.7058C37.7706 43.7145 38.0004 43.7501 38.2239 43.8118L38.5399 42.8648C38.2986 42.804 38.0516 42.7688 37.8029 42.7598V42.7578ZM23.6459 43.2838C23.0296 42.907 22.3144 42.7238 21.5929 42.7578C20.3299 42.7578 19.5409 43.3368 19.5409 44.3378C19.5409 45.1778 20.1189 45.6538 21.2239 45.8108L21.7499 45.8638C22.3299 45.9688 22.6979 46.1788 22.6979 46.4418C22.6979 46.8098 22.2769 47.0728 21.4879 47.0728C20.8843 47.0854 20.293 46.9007 19.8039 46.5468L19.2779 47.3368C19.9159 47.7598 20.6679 47.9808 21.4339 47.9688C22.9079 47.9688 23.6979 47.2848 23.6979 46.3388C23.6979 45.3908 23.0679 45.0228 21.9619 44.8648L21.4359 44.8118C20.9619 44.7598 20.5419 44.6018 20.5419 44.2868C20.5419 43.9688 20.9619 43.6538 21.5409 43.6538C22.0907 43.6782 22.6287 43.8215 23.1179 44.0738L23.6439 43.2858L23.6459 43.2838ZM38.9619 45.3908C38.9403 45.7418 38.9935 46.0934 39.118 46.4223C39.2425 46.7512 39.4355 47.0499 39.6842 47.2985C39.9328 47.5472 40.2315 47.7402 40.5604 47.8647C40.8893 47.9892 41.2409 48.0424 41.5919 48.0208C42.2395 48.0559 42.8771 47.85 43.3819 47.4428L42.8559 46.6538C42.4849 46.9568 42.0209 47.1238 41.5419 47.1278C41.1186 47.0936 40.7238 46.9013 40.4359 46.5891C40.148 46.277 39.9881 45.8679 39.9881 45.4433C39.9881 45.0187 40.148 44.6096 40.4359 44.2975C40.7238 43.9853 41.1186 43.793 41.5419 43.7588C42.0199 43.7628 42.4849 43.9288 42.8559 44.2318L43.3819 43.4438C42.8774 43.0374 42.2408 42.8313 41.5939 42.8648C41.2476 42.8232 40.8963 42.859 40.5655 42.9695C40.2347 43.0801 39.9325 43.2626 39.6807 43.5041C39.429 43.7455 39.2339 44.0398 39.1096 44.3657C38.9853 44.6916 38.9349 45.041 38.9619 45.3888V45.3908ZM31.8569 42.7578C30.3829 42.7578 29.3819 43.8098 29.3819 45.3908C29.3595 45.7377 29.4104 46.0855 29.5315 46.4114C29.6525 46.7373 29.8409 47.034 30.0844 47.2822C30.3278 47.5303 30.6209 47.7244 30.9444 47.8517C31.2679 47.9789 31.6146 48.0366 31.9619 48.0208C32.7037 48.0373 33.4282 47.7959 34.0119 47.3378L33.4869 46.6018C33.0643 46.9292 32.5483 47.1135 32.0139 47.1278C31.6405 47.1417 31.2757 47.0139 30.9927 46.77C30.7096 46.5261 30.5293 46.1841 30.4879 45.8128H34.2249V45.3908C34.2249 43.8108 33.2779 42.7578 31.8569 42.7578ZM31.8569 43.7048C32.0274 43.6969 32.1977 43.7239 32.3575 43.784C32.5172 43.8442 32.6631 43.9362 32.786 44.0546C32.909 44.173 33.0066 44.3152 33.0727 44.4726C33.1389 44.6299 33.1723 44.7991 33.1709 44.9698H30.4349C30.4578 44.6147 30.6197 44.283 30.8855 44.0464C31.1513 43.8098 31.4995 43.6874 31.8549 43.7058L31.8569 43.7048ZM18.2249 45.3898V42.8628H17.2259V43.4928C17.033 43.2478 16.7838 43.0529 16.4995 42.9248C16.2152 42.7967 15.9042 42.739 15.5929 42.7568C14.9104 42.7798 14.2635 43.0672 13.7888 43.5582C13.3141 44.0492 13.0488 44.7054 13.0488 45.3883C13.0488 46.0712 13.3141 46.7274 13.7888 47.2184C14.2635 47.7094 14.9104 47.9967 15.5929 48.0198C15.9039 48.0373 16.2145 47.9795 16.4985 47.8514C16.7824 47.7233 17.0312 47.5286 17.2239 47.2838V47.9148H18.2239L18.2249 45.3898ZM14.1189 45.3898C14.1392 45.083 14.2486 44.7888 14.4338 44.5433C14.619 44.2979 14.8719 44.1119 15.1614 44.0082C15.4508 43.9045 15.7643 43.8877 16.0632 43.9597C16.3621 44.0318 16.6335 44.1896 16.8439 44.4138C17.0544 44.6379 17.1948 44.9187 17.2478 45.2216C17.3008 45.5245 17.2643 45.8362 17.1425 46.1186C17.0208 46.4009 16.8192 46.6416 16.5625 46.8109C16.3059 46.9803 16.0054 47.0709 15.6979 47.0718C15.4803 47.0768 15.2641 47.0359 15.0634 46.9518C14.8627 46.8676 14.682 46.7421 14.5331 46.5834C14.3842 46.4246 14.2704 46.2363 14.1992 46.0306C14.128 45.825 14.1 45.6066 14.1189 45.3898ZM53.0139 42.7568C52.7416 42.7509 52.4724 42.8156 52.2325 42.9446C51.9926 43.0735 51.7902 43.2624 51.6449 43.4928V42.8628H50.6469V47.9148H51.6449V45.0748C51.6449 44.2328 52.0659 43.7048 52.7499 43.7048C52.9809 43.7137 53.2101 43.7493 53.4329 43.8108L53.7499 42.8638C53.5089 42.8031 53.2622 42.7679 53.0139 42.7588V42.7568ZM61.1179 47.1788C61.192 47.1711 61.2664 47.1899 61.3279 47.2318C61.3809 47.2318 61.4339 47.2838 61.4859 47.3368C61.5389 47.3898 61.5919 47.4418 61.5919 47.4948C61.5919 47.5468 61.6439 47.5998 61.6439 47.7048C61.6518 47.7787 61.6334 47.8531 61.5919 47.9148C61.5389 47.9678 61.5389 48.0198 61.4859 48.0728C61.4339 48.1258 61.3809 48.1778 61.3289 48.1778C61.2759 48.1778 61.2239 48.2308 61.1189 48.2308C61.0448 48.2384 60.9705 48.2196 60.9089 48.1778C60.8559 48.1258 60.8029 48.1258 60.7499 48.0728C60.6979 48.0198 60.6449 47.9678 60.6449 47.9148C60.6449 47.8628 60.5929 47.8098 60.5929 47.7048C60.5849 47.6309 60.6033 47.5565 60.6449 47.4948C60.6979 47.4418 60.6979 47.3898 60.7499 47.3368C60.8029 47.2838 60.8549 47.2318 60.9079 47.2318C60.9609 47.2318 61.0659 47.1788 61.1179 47.1788ZM61.1179 48.0728C61.1465 48.0763 61.1756 48.0734 61.2029 48.0642C61.2303 48.0551 61.2552 48.0399 61.2759 48.0198C61.303 48.0175 61.3284 48.0057 61.3476 47.9865C61.3668 47.9673 61.3786 47.9419 61.3809 47.9148L61.4859 47.8098C61.4859 47.7568 61.5389 47.7048 61.5389 47.6518C61.5421 47.6233 61.5391 47.5945 61.5299 47.5674C61.5207 47.5402 61.5057 47.5155 61.4859 47.4948C61.4834 47.4678 61.4716 47.4425 61.4524 47.4233C61.4332 47.4041 61.4079 47.3923 61.3809 47.3898L61.2759 47.2838C61.2229 47.2838 61.1709 47.2318 61.1179 47.2318C61.0895 47.2284 61.0607 47.2313 61.0336 47.2403C61.0065 47.2493 60.9817 47.2642 60.9609 47.2838C60.9337 47.2863 60.9083 47.2983 60.8891 47.3177C60.8699 47.3371 60.8581 47.3626 60.8559 47.3898L60.7499 47.4948C60.7499 47.5468 60.6979 47.5998 60.6979 47.6518C60.6944 47.6803 60.6972 47.7093 60.7062 47.7366C60.7152 47.7639 60.7301 47.7889 60.7499 47.8098C60.7522 47.8369 60.764 47.8623 60.7832 47.8815C60.8024 47.9007 60.8278 47.9125 60.8549 47.9148L60.9609 48.0198C60.9815 48.0397 61.0063 48.0547 61.0335 48.0639C61.0606 48.0731 61.0894 48.0761 61.1179 48.0728ZM61.1709 47.4948C61.1994 47.4913 61.2284 47.4941 61.2557 47.5031C61.283 47.5121 61.308 47.527 61.3289 47.5468C61.3809 47.5998 61.3809 47.5998 61.3809 47.6518C61.3809 47.7048 61.3809 47.7048 61.3289 47.7568C61.3006 47.7855 61.2637 47.8041 61.2239 47.8098L61.3809 47.9678H61.2239L61.0659 47.8098H61.0129V47.9678H60.9079V47.4948H61.1709ZM49.1179 45.3898V42.8628H48.1189V43.4928C47.9263 43.2479 47.6775 43.0532 47.3935 42.9251C47.1096 42.7969 46.7989 42.7392 46.4879 42.7568C45.8054 42.7798 45.1585 43.0672 44.6838 43.5582C44.2091 44.0492 43.9438 44.7054 43.9438 45.3883C43.9438 46.0712 44.2091 46.7274 44.6838 47.2184C45.1585 47.7094 45.8054 47.9967 46.4879 48.0198C47.1179 48.0548 47.7279 47.7818 48.1179 47.2838V47.9148H49.1179V45.3898ZM45.0659 45.3898C45.0862 45.083 45.1956 44.7889 45.3807 44.5434C45.5659 44.298 45.8187 44.112 46.1081 44.0083C46.3976 43.9046 46.711 43.8877 47.0099 43.9596C47.3088 44.0316 47.5801 44.1893 47.7906 44.4134C48.0011 44.6375 48.1415 44.9182 48.1947 45.221C48.2479 45.5238 48.2114 45.8355 48.0898 46.1179C47.9682 46.4003 47.7668 46.641 47.5103 46.8104C47.2538 46.9799 46.9533 47.0707 46.6459 47.0718C45.6459 47.1248 45.0679 46.3358 45.0679 45.3898H45.0659ZM59.3289 45.3898V40.8628H58.3299V43.4948C58.1371 43.2499 57.8881 43.0552 57.604 42.9271C57.3199 42.7989 57.0091 42.7412 56.6979 42.7588C56.0201 42.7884 55.3798 43.0784 54.9107 43.5685C54.4415 44.0586 54.1796 44.7108 54.1796 45.3893C54.1796 46.0677 54.4415 46.72 54.9107 47.2101C55.3798 47.7002 56.0201 47.9902 56.6979 48.0198C57.3289 48.0548 57.9389 47.7818 58.3279 47.2838V47.9148H59.3289V45.3898ZM55.2239 45.3898C55.2442 45.0829 55.3536 44.7887 55.5389 44.5432C55.7241 44.2978 55.9771 44.1118 56.2666 44.0081C56.5561 43.9045 56.8696 43.8877 57.1686 43.9598C57.4675 44.0319 57.7389 44.1899 57.9493 44.4141C58.1597 44.6384 58.3 44.9193 58.3529 45.2222C58.4058 45.5251 58.3691 45.8369 58.2472 46.1193C58.1253 46.4016 57.9236 46.6422 57.6668 46.8114C57.41 46.9806 57.1094 47.0711 56.8019 47.0718C56.5843 47.0768 56.3681 47.0359 56.1674 46.9518C55.9667 46.8676 55.786 46.7421 55.6371 46.5834C55.4882 46.4246 55.3744 46.2363 55.3032 46.0306C55.232 45.825 55.205 45.6066 55.2239 45.3898Z" fill="black"/>
<path d="M22.49 4.54787H40.752V34.3379H22.488V4.54688L22.49 4.54787Z" fill="#FF5F00"/>
<path d="M24.3811 19.444C24.3818 16.5784 25.0308 13.7501 26.2794 11.1708C27.528 8.59151 29.3439 6.32808 31.5911 4.54996C29.2158 2.68339 26.4285 1.41192 23.4619 0.841622C20.4952 0.271325 17.4352 0.418741 14.5372 1.27157C11.6391 2.1244 8.98698 3.65792 6.8021 5.74417C4.61722 7.83043 2.96293 10.4089 1.97725 13.2646C0.991565 16.1202 0.703069 19.1701 1.13583 22.1599C1.56859 25.1497 2.71006 27.9927 4.46501 30.4516C6.21996 32.9105 8.53749 34.9141 11.2243 36.2952C13.911 37.6763 16.8891 38.3949 19.9101 38.391C24.1495 38.3943 28.2661 36.9666 31.5931 34.339C29.3457 32.5608 27.5297 30.2972 26.2811 27.7177C25.0325 25.1383 24.3836 22.3097 24.3831 19.444H24.3811Z" fill="#EB001B"/>
<path d="M60.435 31.3212V30.5672H60.698V30.4452H60.067V30.5672H60.33V31.3212H60.435ZM61.697 31.3212V30.4452H61.487L61.276 31.0692L61.066 30.4432H60.856V31.3192H61.013V30.6302L61.223 31.1952H61.381L61.591 30.6302V31.3202L61.697 31.3212ZM62.277 19.4432C62.2743 22.9947 61.2733 26.4738 59.3884 29.4838C57.5035 32.4937 54.8106 34.9133 51.6168 36.4664C48.423 38.0196 44.8569 38.6438 41.3255 38.2679C37.794 37.8919 34.4393 36.531 31.644 34.3402C33.8923 32.5627 35.709 30.2993 36.9579 27.7197C38.2069 25.1401 38.8557 22.3113 38.8557 19.4452C38.8557 16.5792 38.2069 13.7503 36.9579 11.1707C35.709 8.59114 33.8923 6.32774 31.644 4.55022C34.4391 2.3596 37.7937 0.998651 41.325 0.622629C44.8563 0.246607 48.4222 0.870647 51.6159 2.42357C54.8096 3.97648 57.5026 6.39576 59.3876 9.40542C61.2727 12.4151 62.2739 15.894 62.277 19.4452V19.4432Z" fill="#F79E1B"/>
</g>
<defs>
<clipPath id="clip0_227_11665">
<rect width="63" height="48" fill="white" transform="translate(0 0.5)"/>
</clipPath>
</defs>
</svg>
