<svg width="148" height="31" viewBox="0 0 148 31" fill="none" xmlns="http://www.w3.org/2000/svg">
<g clip-path="url(#clip0_227_11704)">
<path d="M81.6851 15.9999C82.1961 15.2869 82.5321 14.5869 82.8681 13.9019C84.2861 10.9879 85.7181 8.07292 87.1341 5.14392C87.4121 4.57592 87.6901 3.99292 87.7771 3.38092C87.8501 2.85592 88.0551 2.72492 88.5671 2.75392C89.5891 2.79792 90.6121 2.76892 91.6341 2.76892C91.8391 2.76892 92.0871 2.69592 92.1161 3.04592C92.1461 3.38092 91.9261 3.38092 91.7071 3.40992L91.0501 3.49692C90.3341 3.61392 89.8961 3.97792 89.8521 4.73592C89.7201 6.67392 89.7791 8.61192 89.8371 10.5499C89.9101 12.5899 89.9831 14.6159 90.0421 16.6559C90.0861 18.2449 90.1731 18.3759 91.7801 18.6379C92.0581 18.6819 92.1751 18.7689 92.1461 19.0459C92.1161 19.2939 91.9851 19.3659 91.7511 19.3519C89.9327 19.2062 88.1055 19.2062 86.2871 19.3519C85.9951 19.3819 85.8931 19.2059 85.8631 18.9729C85.8341 18.7109 86.0241 18.6529 86.2431 18.6379C86.4631 18.6239 86.6821 18.6089 86.9011 18.5799C87.5581 18.4929 87.8941 18.1569 87.8941 17.4719V6.23692C87.4701 6.67392 87.2951 7.05292 87.1201 7.43192C85.3521 11.3659 83.1751 15.0969 81.4511 19.0609C81.3631 19.2649 81.3201 19.4979 81.0421 19.5119C80.8381 19.5269 80.7791 19.3379 80.7211 19.1769C79.3331 15.6799 77.5511 12.3719 76.0311 8.94692C75.6361 8.07292 75.2561 7.19892 74.7311 6.33892C74.6281 8.40892 74.5261 10.4629 74.4381 12.5319C74.3801 13.8579 74.3511 15.1989 74.3211 16.5399C74.3211 16.8749 74.3801 17.2099 74.4091 17.5449C74.4531 18.3029 74.9061 18.6089 75.6071 18.6239C75.7241 18.6239 75.8551 18.6379 75.9721 18.6379C76.2501 18.6379 76.5421 18.6379 76.5121 19.0319C76.4841 19.3819 76.2061 19.3519 75.9581 19.3229C74.9931 19.1769 74.0151 19.2499 73.0361 19.2499C72.4811 19.2499 71.9261 19.2939 71.3561 19.3379C71.1071 19.3519 70.9171 19.3229 70.8731 19.0319C70.8301 18.7399 70.9901 18.6819 71.2391 18.6239C72.8021 18.3029 72.8601 18.3029 73.0211 16.7289C73.4161 12.8239 73.6641 8.88892 73.7221 4.96892C73.7371 3.99292 73.4891 3.71592 72.5541 3.49692C72.3641 3.45392 72.1741 3.42492 71.9841 3.39492C71.7791 3.36592 71.5891 3.32292 71.6191 3.04492C71.6481 2.79792 71.7941 2.73992 72.0281 2.73992C73.1961 2.75392 74.3651 2.75392 75.5341 2.73992C75.7681 2.73992 75.8841 2.81192 75.8841 3.05992C75.9281 4.28392 76.4691 5.36292 76.9951 6.42592C78.5001 9.61792 80.0781 12.7499 81.6851 15.9999ZM147.912 5.23192C147.912 8.05892 145.633 10.3019 142.799 10.2879C139.979 10.2739 137.671 7.94192 137.7 5.18792C137.744 2.37492 140.038 0.116924 142.843 0.130924C145.692 0.130924 147.912 2.39092 147.912 5.23192ZM146.539 3.55592C145.94 3.38092 145.633 3.59892 145.414 4.19592C145.107 4.98392 144.669 5.72692 144.245 6.58592C143.807 5.69792 143.369 4.98392 143.106 4.21092C142.887 3.57092 142.594 3.38092 141.966 3.57092C142.507 4.03692 142.463 6.47092 141.937 7.34492C142.609 7.46092 142.58 7.46092 142.536 6.86392C142.476 6.09749 142.531 5.32644 142.697 4.57592C143.179 5.59592 143.617 6.49892 144.07 7.46092C144.567 6.49892 145.005 5.63992 145.458 4.76492C145.531 5.66892 145.882 6.54292 145.37 7.35892H146.524C145.955 6.68892 145.969 4.09492 146.539 3.55592ZM138.986 5.75592C139.731 5.90192 140.33 5.87292 140.914 5.66892C141.426 5.49392 141.776 5.14392 141.732 4.58992C141.689 3.99292 141.323 3.58492 140.71 3.54092C140.14 3.49692 139.555 3.52692 138.986 3.52692C139.526 3.77392 139.409 4.24092 139.409 4.66292V5.17292C139.424 5.33292 139.366 5.53792 139.614 5.55292C139.935 5.56692 139.877 5.33292 139.877 5.15892C139.877 4.89592 139.862 4.61892 139.877 4.35692C139.891 4.13892 139.731 3.81792 140.081 3.74492C140.403 3.68692 140.71 3.75992 140.929 4.05092C141.323 4.57592 141.119 5.34792 140.476 5.53792C140.067 5.65392 139.599 5.66792 138.986 5.75592ZM140.374 7.41692C139.76 7.22792 139.906 6.73292 139.906 6.30992C139.906 6.13492 139.921 5.95992 139.672 5.94592C139.409 5.93092 139.424 6.11992 139.424 6.29592C139.439 6.71792 139.395 7.12592 138.854 7.40292C139.453 7.41692 139.906 7.41692 140.374 7.41692ZM112.994 14.7179C112.994 15.6359 113.009 16.5679 112.994 17.4869C112.98 18.2009 113.301 18.5799 114.017 18.6239C114.28 18.6379 114.63 18.6089 114.587 19.0029C114.543 19.4249 114.221 19.3379 113.915 19.3089C112.68 19.2068 111.439 19.2068 110.204 19.3089C109.941 19.3229 109.634 19.4249 109.59 19.0319C109.546 18.6239 109.853 18.6519 110.116 18.6239C110.788 18.5509 111.08 18.1569 111.08 17.4869C111.08 15.8549 111.109 14.2369 111.08 12.6049C111.066 11.6869 110.759 10.8569 109.795 10.5069C108.772 10.1429 107.778 10.2149 106.902 10.9149C106.434 11.2939 106.303 11.8329 106.303 12.4149V17.2979C106.303 18.2739 106.42 18.4199 107.369 18.6239C107.618 18.6819 107.778 18.7399 107.764 19.0169C107.735 19.3089 107.559 19.3519 107.311 19.3369C105.98 19.2057 104.639 19.2057 103.308 19.3369C103.03 19.3669 102.884 19.2789 102.855 19.0029C102.826 18.7109 103.001 18.6669 103.249 18.6229C104.243 18.4489 104.36 18.3029 104.374 17.2829C104.389 15.4609 104.36 13.6399 104.389 11.8179C104.389 11.2789 104.243 10.8709 103.79 10.5939C103.308 10.3029 103.308 10.0549 103.863 9.80692C104.531 9.5235 105.184 9.20745 105.821 8.85992C106.259 8.62692 106.303 8.81592 106.317 9.19492C106.376 10.3319 106.376 10.3319 107.442 9.79292C108.1 9.47292 108.772 9.20992 109.502 9.10792C111.46 8.80192 112.921 9.98192 112.98 11.9489C113.009 12.8669 112.98 13.7999 112.98 14.7189L112.994 14.7179ZM0.131104 11.8179H5.4501C6.3561 11.8179 7.2471 11.7159 8.1241 11.4829C10.0671 10.9589 11.1191 9.31192 10.9141 7.12592C10.7241 4.95492 9.6001 3.80292 7.4811 3.59892C5.6411 3.42492 5.6261 3.43892 5.6261 5.23192C5.6261 7.05292 5.6111 8.87492 5.6401 10.6959C5.6401 11.1769 5.5671 11.3809 5.0271 11.3659C3.5951 11.3369 3.5951 11.3659 3.5801 9.92392C3.5661 8.29192 3.5801 6.67392 3.5071 5.04192C3.4631 3.97792 3.2001 3.77392 2.1341 3.65792C2.0321 3.64292 1.9441 3.64292 1.8421 3.62792C1.6081 3.61392 1.3891 3.56992 1.3891 3.27792C1.3741 2.94392 1.6081 2.89992 1.8711 2.88492C3.7411 2.71092 5.6111 2.72492 7.4811 2.76892C8.6791 2.79792 9.8631 2.95892 10.9441 3.51192C12.4931 4.31292 13.2381 5.65392 13.3111 7.34492C13.3691 8.91792 12.7991 10.2009 11.3821 11.0899C9.0441 12.5469 6.4591 12.6199 3.8431 12.4739C2.5731 12.4009 1.3601 12.1679 0.133104 11.8179H0.131104Z" fill="#EF1515"/>
<path d="M92.1022 14.4118C92.1602 11.3078 94.5122 8.97684 97.5372 9.06384C100.459 9.13684 102.606 11.3808 102.548 14.2958C102.49 17.5018 100.254 19.7458 97.1712 19.6578C94.1612 19.5558 92.0592 17.3848 92.1022 14.4118ZM100.356 14.6158C100.342 13.1738 100.079 11.8178 99.0562 10.7108C97.9162 9.47184 96.1492 9.60284 95.1562 10.9588C94.6732 11.6288 94.4392 12.3868 94.3522 13.1888C94.1622 14.9808 94.3522 16.6998 95.6822 18.0688C96.8502 19.2648 98.7352 19.0458 99.6262 17.6188C100.181 16.6998 100.356 15.6798 100.356 14.6158ZM33.5162 14.2518C33.5162 15.2718 33.5012 16.2918 33.5162 17.3118C33.5302 18.3758 33.7062 18.5508 34.7862 18.6518C35.0352 18.6818 35.4442 18.5068 35.4152 19.0018C35.3852 19.5118 34.9912 19.3378 34.6992 19.3228C33.3112 19.2358 31.9382 19.2058 30.5492 19.3228C30.3012 19.3378 30.0392 19.4098 29.9942 19.0458C29.9512 18.7108 30.1702 18.6668 30.4472 18.6238C31.4272 18.4638 31.5872 18.3318 31.6022 17.3848C31.6312 15.2568 31.6162 13.1148 31.6162 10.9878C31.6162 10.6528 31.4702 10.4918 31.1342 10.5068C30.9442 10.5208 30.7392 10.5208 30.5502 10.5068C30.3892 10.5068 30.1842 10.5358 30.1552 10.3028C30.1252 10.1128 30.1992 9.95284 30.3892 9.90884C31.5142 9.63184 31.6162 8.81584 31.6742 7.81084C31.7772 6.07684 32.1712 4.38584 33.3982 3.04584C34.6402 1.67584 36.2042 1.19484 38.0152 1.60284C38.4972 1.71984 38.9352 1.93784 39.2132 2.37484C39.4912 2.82684 39.4622 3.27884 39.0532 3.61384C38.6432 3.94884 38.2052 3.93384 37.7962 3.58384C37.5772 3.39484 37.4022 3.16184 37.1682 2.97284C36.0142 2.05484 34.6552 2.40384 34.1002 3.78884C33.7342 4.72084 33.6032 5.71184 33.5602 6.70284C33.5302 7.43184 33.5602 8.16084 33.5302 8.88884C33.5152 9.31184 33.6902 9.42884 34.0852 9.42884C34.8452 9.41384 35.5902 9.42884 36.3502 9.42884C36.6572 9.42884 36.9492 9.39884 36.9202 9.85084C36.9052 10.2438 36.8032 10.5068 36.3352 10.4918C35.6052 10.4778 34.8752 10.5218 34.1442 10.4778C33.6472 10.4478 33.5012 10.6228 33.5152 11.0898C33.5302 12.1678 33.5162 13.2168 33.5162 14.2518ZM130.015 16.8458C130.982 14.9272 131.831 12.9512 132.557 10.9288C132.718 10.4918 132.557 10.2288 132.075 10.1718C131.856 10.1418 131.651 10.0838 131.432 10.0548C131.228 10.0108 131.125 9.86484 131.155 9.69084C131.184 9.48684 131.286 9.35584 131.549 9.37084C132.762 9.47184 133.974 9.48684 135.187 9.38484C135.406 9.36984 135.581 9.38484 135.625 9.64684C135.654 9.87984 135.538 10.0258 135.318 10.0548C134.296 10.1858 133.872 10.9728 133.478 11.7448C131.666 15.2568 130.015 18.8418 128.349 22.4268C128.013 23.1558 127.692 23.8838 127.312 24.5838C126.918 25.2978 126.333 25.5598 125.617 25.4288C125.018 25.3268 124.697 24.9768 124.712 24.3788C124.726 23.7968 125.062 23.3158 125.647 23.3738C126.772 23.4908 127.137 22.7478 127.619 22.0038C128.744 20.2558 128.992 18.5358 128.057 16.5838C127.283 14.9658 126.757 13.2458 126.173 11.5558C125.895 10.7688 125.471 10.1718 124.58 10.0838C124.317 10.0548 124.156 9.95284 124.186 9.67584C124.215 9.38484 124.39 9.36984 124.653 9.38484C125.968 9.48684 127.283 9.48684 128.583 9.38484C128.817 9.36984 129.036 9.34084 129.065 9.66184C129.095 9.93784 128.934 10.0118 128.685 10.0838C127.736 10.3608 127.721 10.3758 128.043 11.3518C128.656 13.1298 129.211 14.9368 130.015 16.8458ZM119.978 12.8958C119.13 12.8958 118.268 12.9398 117.421 12.8818C116.749 12.8378 116.603 13.1148 116.617 13.7268C116.69 16.1028 118.093 17.8218 120.24 18.1428C121.234 18.2878 122.052 18.0118 122.739 17.2828C122.914 17.1078 123.06 16.7578 123.367 17.0208C123.703 17.2978 123.396 17.5598 123.236 17.7638C122.023 19.3518 120.387 19.8768 118.458 19.4838C116.588 19.1038 115.521 17.8948 115.069 16.0878C114.309 13.0858 115.887 10.0548 118.619 9.23884C120.46 8.68484 122.213 9.25384 123.104 10.7108C123.236 10.9148 123.338 11.1328 123.411 11.3668C123.762 12.5168 123.484 12.8818 122.286 12.8818C121.541 12.9118 120.766 12.8968 119.978 12.8968V12.8958ZM118.896 12.0958V12.1238C119.525 12.0948 120.153 12.0808 120.781 12.0078C121.585 11.9198 121.804 11.4978 121.453 10.7688C121.292 10.4488 121.029 10.2448 120.723 10.0988C119.452 9.47184 117.479 10.3168 117.012 11.6428C116.866 12.0368 117.026 12.0948 117.362 12.0948C117.874 12.0808 118.385 12.0958 118.896 12.0958Z" fill="#EF1515"/>
<path d="M41.8002 12.8972C40.9522 12.8972 40.0902 12.9262 39.2422 12.8822C38.6142 12.8532 38.4392 13.0862 38.4972 13.6982C38.6142 15.2582 39.0522 16.6562 40.4262 17.5752C41.8282 18.5072 43.4652 18.3612 44.6772 17.1952C44.8232 17.0502 44.9552 16.8172 45.2172 17.0062C45.5102 17.2252 45.2912 17.4432 45.1742 17.6332C44.2972 19.1052 42.4562 19.8332 40.4542 19.5132C38.6722 19.2362 37.2842 17.9532 36.9192 16.0882C36.4812 13.9022 36.8612 11.8772 38.5702 10.2882C40.3672 8.62716 43.2022 8.65616 44.6772 10.3182C44.8822 10.5502 45.0572 10.8132 45.1742 11.1182C45.6852 12.4302 45.3642 12.8972 43.9762 12.8972H41.8002ZM42.8662 11.9792C43.2752 11.9492 43.4212 11.7162 43.4062 11.3672C43.3762 10.9152 43.2312 10.5212 42.8222 10.2442C41.5652 9.38416 39.2422 10.2152 38.8042 11.6732C38.7022 12.0232 38.8342 12.0952 39.1402 12.0952C39.6952 12.0812 42.1642 12.0222 42.8662 11.9792ZM17.7812 12.8772C16.9342 12.8772 16.0712 12.9072 15.2242 12.8632C14.5962 12.8332 14.4212 13.0672 14.4792 13.6792C14.5962 15.2382 15.0342 16.6372 16.4082 17.5552C17.8102 18.4882 19.4462 18.3422 20.6592 17.1762C20.8052 17.0302 20.9372 16.7972 21.1992 16.9862C21.4922 17.2062 21.2732 17.4242 21.1562 17.6132C20.2792 19.0852 18.4382 19.8132 16.4362 19.4932C14.6542 19.2162 13.2662 17.9332 12.9012 16.0692C12.4632 13.8832 12.8432 11.8572 14.5522 10.2692C16.3492 8.60816 19.1842 8.63716 20.6592 10.2982C20.8642 10.5312 21.0392 10.7932 21.1562 11.1002C21.6672 12.4112 21.3462 12.8772 19.9582 12.8772H17.7812ZM18.8482 11.9592C19.2572 11.9302 19.4032 11.6972 19.3882 11.3472C19.3582 10.8952 19.2132 10.5022 18.8042 10.2252C17.5472 9.36516 15.2242 10.1962 14.7862 11.6532C14.6842 12.0032 14.8162 12.0762 15.1222 12.0762C15.6772 12.0612 18.1462 12.0032 18.8482 11.9592ZM46.0802 14.6602C46.1392 9.77816 50.9162 8.27716 54.1162 9.42816C54.7292 9.64716 54.9632 10.7252 54.5252 11.2212C54.1592 11.6292 53.8972 11.3522 53.6192 11.0752C52.9182 10.3322 52.0702 9.90916 51.0192 10.0112C49.8062 10.1282 48.9292 10.7692 48.3742 11.8182C47.4682 13.5382 47.8622 15.7532 49.2512 17.1232C50.7552 18.6092 53.0052 18.5512 54.4222 16.9912C54.5692 16.8312 54.6562 16.5842 54.9342 16.7582C55.2702 16.9772 55.0802 17.2102 54.9632 17.4432C54.0282 19.1772 51.6032 20.0522 49.4842 19.4252C47.3072 18.7842 46.0942 17.0942 46.0802 14.6602ZM25.3052 10.5362C26.1812 9.92416 26.8392 9.23916 27.8032 9.09316C28.3292 9.00616 28.7822 9.16616 29.0892 9.60316C29.3372 9.98316 29.2492 10.4052 29.0302 10.7692C28.7962 11.1772 28.4022 11.2942 27.9642 11.2352C27.7592 11.2062 27.5692 11.0752 27.3792 10.9732C26.2542 10.3902 25.4652 10.7982 25.3492 12.0662C25.2902 12.6492 25.3192 13.2322 25.3192 13.8152V17.3122C25.3192 18.3762 25.5242 18.5802 26.5762 18.6522C26.6782 18.6522 26.7662 18.6672 26.8682 18.6672C27.1312 18.6672 27.2772 18.7692 27.2622 19.0612C27.2482 19.3812 27.0292 19.3962 26.8092 19.3812C25.3052 19.2512 23.7992 19.2212 22.2952 19.3812C22.0472 19.4112 21.9302 19.2942 21.8852 19.0752C21.8272 18.7842 22.0032 18.7252 22.2512 18.6672C23.3032 18.4202 23.3612 18.3322 23.3612 17.2542C23.3612 15.4762 23.3472 13.7132 23.3612 11.9342C23.3612 11.3962 23.2882 10.9442 22.7482 10.6532C22.2802 10.3902 22.2512 10.0992 22.8212 9.85116C23.4932 9.56016 24.1512 9.25416 24.7932 8.90416C25.2172 8.67116 25.3192 8.86016 25.3192 9.23916C25.3052 9.60316 25.3052 10.0112 25.3052 10.5362ZM57.1552 14.2812C57.1552 13.2612 57.1402 12.2412 57.1552 11.2212C57.1692 10.7112 57.0082 10.4342 56.4382 10.5072C56.2342 10.5362 55.9122 10.6532 55.8392 10.2882C55.7522 9.90916 56.0732 9.86616 56.3222 9.79316C57.2422 9.51616 57.8412 8.87516 58.3092 8.07316C58.4402 7.85516 58.5422 7.63616 58.8642 7.72316C59.1712 7.81116 59.0682 8.05916 59.0832 8.26316C59.0972 8.40816 59.0972 8.55416 59.0832 8.70016C58.9952 9.28316 59.2432 9.48716 59.8282 9.44316C60.5292 9.39916 61.2312 9.44316 61.9462 9.42816C62.2832 9.41416 62.5162 9.48716 62.5022 9.89516C62.4872 10.2742 62.3992 10.5362 61.9172 10.5212C61.1432 10.4922 60.3542 10.5362 59.5802 10.4922C59.1852 10.4922 59.0242 10.6522 59.0242 11.0022C59.0242 12.9702 58.8642 14.9372 59.1122 16.8902C59.3022 18.3762 60.3982 18.8712 61.7862 18.2162C61.9762 18.1282 62.1662 17.9102 62.3412 18.1862C62.5012 18.4342 62.2822 18.5952 62.1362 18.7402C61.2462 19.6302 59.2872 19.9202 58.1772 19.3092C57.4472 18.9012 57.1692 18.2162 57.1542 17.4142C57.1402 16.3642 57.1552 15.3162 57.1552 14.2812ZM5.6102 15.3602C5.6102 15.8262 5.5952 16.2782 5.6102 16.7442C5.6402 18.1282 5.9902 18.4922 7.3632 18.6382C7.6262 18.6682 8.0212 18.5362 8.0062 19.0032C7.9912 19.5132 7.5822 19.3672 7.2902 19.3532C5.54406 19.2293 3.79134 19.2293 2.0452 19.3532C1.7972 19.3672 1.4612 19.4692 1.4022 19.0752C1.3292 18.6242 1.7092 18.6822 1.9872 18.6382C3.1272 18.4632 3.3752 18.2742 3.4622 17.1232C3.5502 15.9572 3.5502 14.7912 3.5502 13.6252C3.5502 13.2322 3.6232 13.0862 4.0612 13.1152C5.6102 13.1882 5.6102 13.1742 5.6102 14.7042V15.3602Z" fill="#EF1515"/>
<path d="M92.6859 28.766C92.6859 29.189 92.6709 29.596 92.6859 30.005C92.7009 30.398 92.7159 30.66 92.1459 30.66C91.5459 30.66 91.6339 30.354 91.6199 29.976L91.5759 25.386C91.5759 25.21 91.4589 24.948 91.7359 24.904C91.9849 24.875 92.4229 24.759 92.4659 24.963C92.6129 25.633 92.8459 25.108 92.9929 25.035C93.9859 24.467 95.0969 24.846 95.5199 25.895C95.7979 26.58 95.7829 27.265 95.4909 27.95C95.0379 29.058 94.0889 29.32 92.6859 28.766ZM92.6859 26.945C92.6859 27.906 93.1829 28.431 93.8839 28.183C94.4689 27.993 94.7609 27.265 94.5709 26.478C94.4389 25.968 94.1319 25.604 93.5479 25.648C92.9929 25.706 92.6859 26.172 92.6859 26.945ZM79.6829 26.93C79.6829 27.44 79.6979 27.95 79.6829 28.46C79.6829 28.635 79.7999 28.912 79.5809 28.97C79.3469 29.043 78.9669 29.13 78.8359 28.912C78.6459 28.62 78.5439 28.679 78.2959 28.824C77.1119 29.465 76.0889 28.926 75.9859 27.571C75.9279 26.901 75.9719 26.216 75.9719 25.531C75.9719 25.152 75.9139 24.846 76.4979 24.861C77.0239 24.875 77.0679 25.079 77.0529 25.501C77.0287 26.1325 77.0337 26.7649 77.0679 27.396C77.0829 27.862 77.3019 28.212 77.8279 28.169C78.3099 28.139 78.5729 27.819 78.5879 27.352C78.6019 26.668 78.6309 25.997 78.5879 25.312C78.5579 24.788 78.8939 24.89 79.2009 24.875C79.5229 24.861 79.7559 24.875 79.7129 25.327C79.6539 25.867 79.6829 26.405 79.6829 26.93ZM99.3039 27.25C99.0409 27.25 98.7639 27.236 98.5009 27.25C98.3409 27.265 98.1209 27.148 98.0329 27.338C97.9309 27.556 98.0919 27.76 98.2529 27.906C98.7629 28.358 99.3629 28.314 99.9769 28.169C100.166 28.125 100.371 28.037 100.415 28.358C100.444 28.577 100.561 28.81 100.21 28.941C99.4209 29.261 98.0769 29.087 97.5069 28.547C96.9229 27.979 96.7469 26.93 97.0979 26.041C97.2751 25.5969 97.6052 25.2308 98.0287 25.0089C98.4521 24.787 98.941 24.7239 99.4069 24.831C100.269 25.035 100.809 25.924 100.722 26.915C100.692 27.221 100.561 27.265 100.313 27.265C99.9909 27.25 99.6399 27.25 99.3039 27.25ZM98.8519 26.536C99.2549 26.533 99.6549 26.571 99.6549 26.245C99.6989 25.822 99.3479 25.545 98.8949 25.531C98.4279 25.531 98.0329 25.822 98.0479 26.26C98.0479 26.571 98.4479 26.54 98.8519 26.536ZM111.471 27.216C111.209 27.216 110.931 27.202 110.668 27.216C110.507 27.231 110.288 27.115 110.2 27.304C110.098 27.523 110.259 27.727 110.42 27.873C110.931 28.324 111.53 28.281 112.144 28.135C112.333 28.091 112.538 28.004 112.582 28.325C112.611 28.543 112.728 28.776 112.377 28.907C111.588 29.227 110.244 29.053 109.674 28.514C109.09 27.945 108.915 26.896 109.265 26.007C109.442 25.563 109.772 25.1971 110.196 24.9752C110.619 24.7533 111.108 24.6901 111.574 24.797C112.436 25.002 112.976 25.891 112.889 26.882C112.859 27.188 112.728 27.232 112.48 27.232C112.158 27.217 111.808 27.216 111.471 27.216ZM111.019 26.503C111.422 26.499 111.822 26.538 111.822 26.211C111.866 25.789 111.515 25.511 111.062 25.497C110.595 25.497 110.2 25.789 110.215 26.226C110.215 26.538 110.615 26.506 111.019 26.503ZM106.186 27.353V26.187C106.186 25.954 106.229 25.75 105.879 25.662C105.47 25.56 105.601 24.977 105.777 24.962C106.346 24.875 106.2 24.452 106.273 24.147C106.463 23.36 107.135 22.835 107.924 22.937C108.143 22.967 108.494 22.879 108.465 23.331C108.436 23.666 108.421 23.899 107.983 23.811C107.69 23.753 107.457 23.943 107.369 24.22C107.267 24.555 107.106 24.977 107.764 24.904C108.056 24.875 108.202 24.948 108.187 25.284C108.173 25.589 108.1 25.735 107.778 25.691C107.311 25.618 107.281 25.881 107.296 26.245C107.311 26.945 107.281 27.644 107.311 28.358C107.325 28.781 107.34 29.058 106.741 29.058C106.083 29.058 106.2 28.693 106.2 28.314C106.186 27.979 106.186 27.659 106.186 27.353ZM120.124 23.943C120.124 24.044 120.168 24.19 120.138 24.321C120.08 24.744 120.182 24.977 120.679 24.89C120.986 24.831 121.117 24.948 121.117 25.283C121.117 25.618 120.971 25.72 120.679 25.677C120.182 25.589 120.124 25.852 120.153 26.259C120.182 26.668 120.168 27.076 120.153 27.499C120.138 27.921 120.27 28.241 120.767 28.183C121.161 28.139 121.044 28.416 121.059 28.606C121.088 28.839 121.074 28.999 120.767 29.057C119.817 29.262 119.16 28.81 119.116 27.863C119.087 27.411 119.13 26.945 119.101 26.478C119.087 26.143 119.32 25.677 118.648 25.633C118.414 25.618 118.517 25.093 118.531 25.079C119.233 24.919 119.057 23.593 120.124 23.942V23.943ZM85.7899 27.017V26.143C85.8049 25.881 85.7759 25.663 85.4249 25.677C85.0749 25.691 85.1039 25.254 85.1619 25.225C85.7169 24.963 85.6589 24.19 86.2579 23.986C86.6379 23.856 86.8859 23.841 86.8129 24.351C86.7399 24.802 86.9149 24.977 87.3679 24.904C87.6749 24.861 87.7919 24.977 87.8069 25.298C87.8069 25.633 87.6599 25.735 87.3679 25.691C86.9009 25.618 86.7689 25.822 86.8129 26.26C86.8429 26.668 86.8279 27.076 86.8279 27.498C86.8279 27.906 86.9149 28.256 87.4269 28.198C87.7919 28.154 87.7479 28.373 87.7479 28.591C87.7479 28.81 87.7779 28.985 87.4709 29.072C86.5209 29.32 85.8339 28.824 85.7909 27.833C85.7759 27.542 85.7899 27.28 85.7899 27.017ZM82.8679 24.787C83.1309 24.744 83.4079 24.846 83.6869 24.919C84.0069 25.021 83.9059 25.225 83.8329 25.443C83.7739 25.633 83.7449 25.852 83.4529 25.677C83.3939 25.647 83.3069 25.633 83.2479 25.618C82.9119 25.56 82.4879 25.444 82.3569 25.837C82.1969 26.289 82.6929 26.332 82.9709 26.478C83.2039 26.609 83.4669 26.682 83.6709 26.857C84.3289 27.382 84.2559 28.417 83.5109 28.824C82.8539 29.174 82.1529 29.116 81.4509 28.912C81.1009 28.81 81.2319 28.577 81.2609 28.343C81.3199 27.979 81.5099 28.067 81.7289 28.139C81.8019 28.169 81.8599 28.212 81.9329 28.212C82.3279 28.256 82.8389 28.475 83.0139 27.95C83.1749 27.425 82.6049 27.382 82.2839 27.236C81.4799 26.886 81.1879 26.478 81.3049 25.822C81.3929 25.21 81.9919 24.801 82.8679 24.787ZM74.2479 25.677C74.2039 26.332 74.3499 27.105 74.1309 27.863C73.8539 28.839 72.5829 29.422 71.6619 29.013C71.3559 28.868 71.5159 28.649 71.5159 28.46C71.5019 28.227 71.6039 28.125 71.8659 28.125C73.0359 28.067 73.1529 27.935 73.1669 26.77C73.1669 25.779 73.1969 24.788 73.1529 23.797C73.1379 23.331 73.3569 23.316 73.7229 23.301C74.1169 23.287 74.2929 23.389 74.2629 23.811C74.2189 24.394 74.2479 24.977 74.2479 25.677ZM116.369 29.072C115.258 29.072 114.543 28.664 114.265 27.877C113.944 27.003 114.017 26.157 114.689 25.444C115.244 24.846 116.383 24.627 117.129 24.89C117.45 25.006 117.392 25.181 117.333 25.385C117.26 25.618 117.245 25.779 116.866 25.705C115.96 25.516 115.405 25.866 115.229 26.609C115.01 27.542 115.711 28.358 116.646 28.227C116.982 28.183 117.318 28.008 117.377 28.562C117.435 29.102 117.026 28.985 116.749 29.042C116.573 29.072 116.398 29.072 116.369 29.072ZM103.191 25.356C103.41 25.181 103.57 25.036 103.746 24.919C103.95 24.788 104.243 24.686 104.432 24.831C104.622 24.977 104.491 25.283 104.52 25.531C104.549 25.924 104.257 25.764 104.067 25.793C103.527 25.91 103.307 26.274 103.278 26.784C103.264 27.324 103.249 27.848 103.278 28.387C103.307 28.839 103.191 29.014 102.694 29.014C102.197 29.014 102.153 28.824 102.168 28.416C102.197 27.469 102.153 26.522 102.197 25.575C102.212 25.342 101.934 24.948 102.431 24.875C102.781 24.846 103.161 24.846 103.191 25.356Z" fill="#0B0B0B"/>
<path d="M146.539 3.55623C145.969 4.09523 145.969 6.67423 146.539 7.37423H145.385C145.896 6.55823 145.545 5.66923 145.472 4.78023C145.034 5.64023 144.581 6.51423 144.084 7.47623C143.617 6.49923 143.193 5.61023 142.711 4.59023C142.545 5.34083 142.491 6.11179 142.55 6.87823C142.594 7.47623 142.623 7.47623 141.951 7.35923C142.492 6.49923 142.521 4.05123 141.98 3.58523C142.609 3.39523 142.901 3.58523 143.12 4.22623C143.383 4.99823 143.821 5.71223 144.26 6.60123C144.683 5.74123 145.136 4.99823 145.428 4.21123C145.633 3.59923 145.94 3.39523 146.539 3.55623ZM138.985 5.75623C139.614 5.66923 140.081 5.65423 140.505 5.53823C141.133 5.36323 141.352 4.57623 140.958 4.05123C140.739 3.77423 140.432 3.68723 140.11 3.74523C139.76 3.81823 139.92 4.13923 139.906 4.35723C139.877 4.62023 139.906 4.89723 139.906 5.15923C139.906 5.34923 139.95 5.58123 139.643 5.55223C139.38 5.53823 139.438 5.33423 139.438 5.17323C139.424 4.99823 139.438 4.83823 139.438 4.66323C139.438 4.24123 139.541 3.78923 139.015 3.52723C139.584 3.52723 140.169 3.48323 140.739 3.54123C141.352 3.59923 141.717 3.99323 141.761 4.59123C141.805 5.14423 141.454 5.49423 140.943 5.66923C140.309 5.86747 139.634 5.89745 138.985 5.75623ZM140.373 7.41723H138.839C139.395 7.14123 139.424 6.73323 139.409 6.31023C139.409 6.13523 139.395 5.96023 139.658 5.96023C139.906 5.96023 139.891 6.15023 139.891 6.32523C139.906 6.73323 139.76 7.22823 140.373 7.41723Z" fill="white"/>
</g>
<defs>
<clipPath id="clip0_227_11704">
<rect width="148" height="31" fill="white"/>
</clipPath>
</defs>
</svg>
