<svg width="100" height="33" viewBox="0 0 100 33" fill="none" xmlns="http://www.w3.org/2000/svg">
<g clip-path="url(#clip0_227_11681)">
<path fill-rule="evenodd" clip-rule="evenodd" d="M20.5738 0H30.021V9.37718H20.5738V0ZM22.1833 1.60951H28.4115V7.76767H22.1833V1.60951ZM23.7229 3.07907H26.9419V6.29811H23.7229V3.07907ZM4.96851 5.03849H10.077C14.2757 5.03849 17.7047 8.46746 17.7047 12.6662C17.7047 16.8649 14.2757 20.2239 10.077 20.2239H4.96851V26.0322H0V20.2239V8.74738H4.96851V5.03849ZM4.96851 8.81735V16.515H9.16724C11.3366 16.515 13.0861 14.7656 13.0861 12.6662C13.0861 10.4968 11.3366 8.81735 9.16724 8.81735H4.96851ZM20.5738 12.5962H25.5423V26.0322H20.5738V12.5962ZM51.9244 5.03849H57.0329C61.2316 5.03849 64.6606 8.46746 64.6606 12.6662C64.6606 16.8649 61.2316 20.2239 57.0329 20.2239H51.9244V26.0322H46.9559V20.2239V8.74738H51.9244V5.03849ZM51.9244 8.81735V16.515H56.1232C58.2925 16.515 60.042 14.7656 60.042 12.6662C60.042 10.4968 58.2925 8.81735 56.1232 8.81735H51.9244ZM37.0889 9.72708C39.888 9.72708 42.4073 11.0567 43.9468 13.0861L41.2876 15.7453C40.5178 14.3457 39.1183 13.436 37.5087 13.436C35.1295 13.436 33.17 15.4654 33.17 18.0546C33.17 20.5738 35.1295 22.6732 37.5087 22.6732C39.1183 22.6732 40.5178 21.6935 41.2876 20.3639L43.9468 23.0231C42.4073 25.0525 39.888 26.3821 37.0889 26.3821C32.4003 26.3821 28.5514 22.6732 28.5514 18.1246C28.4815 13.436 32.3303 9.72708 37.0889 9.72708ZM86.2841 32.3303H91.1127L100 10.007H95.1714L91.1127 20.2939L87.0539 10.007H82.2253L88.7334 26.3821L86.2841 32.3303ZM80.9657 25.7523H76.4871V24.4926C71.1686 27.9916 66.69 25.6823 66.1302 22.2533C65.5003 18.4745 67.8796 15.6753 76.9069 16.4451C76.9069 13.0161 71.7984 12.5962 68.2995 14.9755L66.69 11.7565C73.0581 8.39748 80.9657 9.44716 80.9657 15.0455V25.7523ZM77.0469 19.0343H73.198C69.3492 19.0343 70.1889 24.0028 73.8978 23.233C75.7873 22.8132 76.9769 21.5535 77.0469 19.0343Z" fill="#21C25E"/>
</g>
<defs>
<clipPath id="clip0_227_11681">
<rect width="100" height="33" fill="white"/>
</clipPath>
</defs>
</svg>
