<svg width="115" height="41" viewBox="0 0 115 41" fill="none" xmlns="http://www.w3.org/2000/svg">
<g clip-path="url(#clip0_227_11683)">
<path d="M71.4517 7.68866C70.4955 7.68866 70.4955 6.24512 71.4517 6.24512H74.4398C76.5913 6.24512 78.3244 7.98939 78.3244 10.1547V27.7178C78.3244 28.6802 76.8901 28.6802 76.8901 27.7178V10.1547C76.8901 8.77131 75.7546 7.68866 74.4398 7.68866H71.4517ZM47.8452 38.2436C47.8452 39.206 46.4109 39.206 46.4109 38.2436V14.7861C46.4109 10.0946 50.2357 6.24512 54.8973 6.24512H61.77C66.4316 6.24512 70.2564 10.0946 70.2564 14.7861V19.7783C70.2564 24.4698 66.4316 28.3193 61.77 28.3193H52.0286C51.0724 28.3193 51.0724 26.8757 52.0286 26.8757H61.77C65.6546 26.8757 68.8221 23.6879 68.8221 19.7783V14.7861C68.8221 10.8765 65.6546 7.68866 61.77 7.68866H54.8973C51.0127 7.68866 47.8452 10.8765 47.8452 14.7861V38.2436ZM83.3446 28.2591C82.3884 28.2591 82.3884 26.8156 83.3446 26.8156H86.3327C87.6475 26.8156 88.9623 26.2743 89.9185 25.3119L96.8511 18.3348C98.0463 17.1318 99.9587 17.1318 101.094 18.3348L108.027 25.3119C110.836 28.1388 114.72 25.7329 114.72 27.5374C114.72 27.9584 114.421 28.2591 114.003 28.2591C112.33 28.2591 110.716 28.4396 109.103 27.7779C108.326 27.4772 107.608 26.996 107.011 26.3946L100.078 19.4174C99.4806 18.816 98.4647 18.816 97.867 19.4174L90.9345 26.3946C89.7392 27.5975 88.0659 28.3193 86.3925 28.3193H83.4043L83.3446 28.2591ZM83.3446 7.68866C82.3884 7.68866 82.3884 6.24512 83.3446 6.24512H86.3327C88.0659 6.24512 89.6795 6.90674 90.8747 8.16984L97.8073 15.147C98.4049 15.7484 99.4209 15.7484 100.018 15.147L106.951 8.16984C108.146 6.96689 109.82 6.24512 111.493 6.24512H113.884C114.84 6.24512 114.84 7.68866 113.884 7.68866C111.613 7.68866 109.7 7.38792 107.907 9.19235L100.975 16.1695C99.7794 17.3724 97.9268 17.3724 96.7315 16.1695L89.799 9.19235C88.8428 8.22999 87.5877 7.68866 86.2132 7.68866H83.225H83.3446Z" fill="black"/>
<path d="M77.0097 4.25993L75.6351 2.87654C75.2766 2.51565 75.2766 1.97432 75.6351 1.67359L77.0097 0.290195C77.3683 -0.0706901 77.9061 -0.0706901 78.205 0.290195L79.5795 1.67359C79.9381 2.03447 79.9381 2.5758 79.5795 2.87654L78.205 4.25993C77.8464 4.62082 77.3085 4.62082 77.0097 4.25993Z" fill="#32BCAD"/>
<path d="M36.1318 17.7934L31.769 13.4027C31.769 13.4027 31.5897 13.4628 31.4702 13.4628H29.498C28.4821 13.4628 27.4661 13.8838 26.7489 14.6056L21.0714 20.3196C20.5336 20.861 19.8164 21.1016 19.159 21.1016C18.5016 21.1016 17.7844 20.861 17.2466 20.3196L11.5691 14.6056C10.8519 13.8838 9.83593 13.4628 8.81996 13.4628H6.36967C6.36967 13.4628 6.19038 13.4628 6.07085 13.4628L1.70813 17.8536C-0.562868 20.1392 -0.562868 23.8082 1.70813 26.0337L6.07085 30.4244C6.07085 30.4244 6.25014 30.4244 6.36967 30.4244H8.81996C9.83593 30.4244 10.8519 30.0034 11.5691 29.2816L17.2466 23.5676C18.2625 22.5451 20.0554 22.5451 21.1312 23.5676L26.8087 29.2816C27.5258 30.0034 28.5418 30.4244 29.5578 30.4244H31.53C31.53 30.4244 31.769 30.4244 31.8288 30.4846L36.1915 26.0938C38.4625 23.8082 38.4625 20.1392 36.1915 17.9137L36.1318 17.7934ZM29.498 31.9883C28.004 31.9883 26.6294 31.3868 25.5537 30.3643L19.8762 24.6503C19.4578 24.2292 18.8004 24.2292 18.3821 24.6503L12.7046 30.3643C11.6288 31.4469 10.2543 31.9883 8.76019 31.9883H7.62469L14.7963 39.206C17.0673 41.4916 20.7128 41.4916 22.9241 39.206L30.1554 31.9281H29.498V31.9883ZM8.70043 11.7787C10.1945 11.7787 11.5691 12.3802 12.6448 13.4027L18.3223 19.1167C18.7407 19.5377 19.398 19.5377 19.8164 19.1167L25.4939 13.4027C26.5696 12.32 27.9442 11.7787 29.4383 11.7787H30.0957L22.8643 4.50083C20.5933 2.21522 16.9478 2.21522 14.7365 4.50083L7.56493 11.7185H8.70043V11.7787Z" fill="#32BCAD"/>
<path d="M51.7299 38.9049V36.078H51.9092V36.1983C52.2678 36.1381 52.6861 36.0178 53.0447 36.0178C53.2838 36.0178 53.5826 36.0178 53.7619 36.2584C54.0009 36.4389 54.0607 36.7998 54.0607 37.1607C54.0607 37.5215 53.9412 37.8824 53.5826 38.0629C53.3435 38.1832 53.0447 38.2433 52.7459 38.2433C52.4471 38.2433 52.208 38.2433 51.9092 38.123V38.9651H51.6702L51.7299 38.9049ZM76.2926 38.9651V38.7245C76.2926 38.7245 76.5317 38.7245 76.5914 38.7245C76.8902 38.7245 77.0695 38.6643 77.2488 38.3035V38.123L76.2328 36.078H76.5317L77.4281 37.8824L78.3246 36.078H78.6234L77.4879 38.4237C77.2488 38.8448 77.0695 38.9651 76.6512 38.9651C76.5317 38.9651 76.4719 38.9651 76.3524 38.9651H76.2926ZM75.5157 38.0027C75.5157 38.0027 74.9778 38.1832 74.679 38.1832C74.3802 38.1832 74.0814 38.1832 73.7826 38.0027V38.123H73.6033V35.1758H73.8423V36.1381C74.1411 36.078 74.6192 35.9577 74.9181 35.9577C75.1571 35.9577 75.4559 35.9577 75.6352 36.1983C75.8743 36.3787 75.934 36.7396 75.934 37.1005C75.934 37.4614 75.8145 37.8223 75.4559 38.0027H75.5157ZM74.9181 36.2584C74.6192 36.2584 74.2009 36.3186 73.8423 36.4389V37.8824C73.8423 37.8824 74.3802 38.0027 74.679 38.0027C75.3962 38.0027 75.7547 37.7621 75.7547 37.1005C75.7547 36.499 75.4559 36.2584 74.9181 36.2584ZM71.2127 38.1832V38.0629C70.8542 38.123 70.4358 38.2433 70.0772 38.2433C69.8382 38.2433 69.5394 38.2433 69.3601 38.0027C69.121 37.8223 69.0613 37.4614 69.0613 37.1005C69.0613 36.7396 69.1808 36.3787 69.5394 36.1983C69.7784 36.078 70.0772 36.0178 70.376 36.0178C70.6749 36.0178 70.9139 36.0179 71.2127 36.1381V35.1758H71.4518V38.123H71.2725L71.2127 38.1832ZM71.153 36.3787C71.153 36.3787 70.6151 36.2584 70.3163 36.2584C69.5991 36.2584 69.2406 36.499 69.2406 37.1607C69.2406 37.7621 69.5394 38.0027 70.0772 38.0027C70.3761 38.0027 70.7944 37.9426 71.153 37.8223V36.3787ZM67.3281 38.1832C66.9098 38.1832 66.6707 38.1832 66.4914 37.9426C66.2524 37.7621 66.1926 37.4012 66.1926 37.1005C66.1926 36.7998 66.3122 36.4389 66.5512 36.1983C66.7903 36.0178 67.0891 36.0178 67.3281 36.0178C67.5672 36.0178 67.9258 36.0178 68.1648 36.1983C68.4636 36.3787 68.5234 36.7396 68.5234 37.1607H66.4317C66.4317 37.5817 66.5512 37.9426 67.3879 37.9426C67.7465 37.9426 68.105 37.8824 68.4636 37.8223V38.0629C68.105 38.123 67.7465 38.1832 67.3879 38.1832H67.3281ZM67.3281 36.2584C66.6707 36.2584 66.4317 36.5592 66.4317 36.9802H68.2843C68.2843 36.499 68.0453 36.2584 67.3879 36.2584H67.3281ZM64.6985 38.1832V36.1381H64.8778V36.2584C65.3559 36.1381 65.5352 36.078 65.8938 36.078V36.3186C65.595 36.3186 65.3559 36.3186 64.9376 36.499V38.2433H64.6985V38.1832ZM62.7861 38.1832C62.3678 38.1832 62.1287 38.1832 61.9494 37.9426C61.7104 37.7621 61.6506 37.4012 61.6506 37.1005C61.6506 36.7998 61.7701 36.4389 62.0092 36.1983C62.2483 36.0178 62.5471 36.0178 62.7861 36.0178C63.0252 36.0178 63.3838 36.0178 63.6228 36.1983C63.9216 36.3787 63.9814 36.7396 63.9814 37.1607H61.8897C61.8897 37.5817 62.0092 37.9426 62.8459 37.9426C63.2045 37.9426 63.563 37.8824 63.9216 37.8223V38.0629C63.563 38.123 63.2045 38.1832 62.8459 38.1832H62.7861ZM62.7861 36.2584C62.1287 36.2584 61.8897 36.5592 61.8897 36.9802H63.7423C63.7423 36.499 63.5033 36.2584 62.8459 36.2584H62.7861ZM60.2163 38.1832L59.4394 36.4389L58.6625 38.1832H58.4234L57.5867 36.1381H57.8258L58.5429 37.8824L59.3199 36.1381H59.5589L60.3358 37.8824L61.053 36.1381H61.292L60.4554 38.1832H60.2163ZM56.8098 38.0027C56.8098 38.0027 56.2719 38.2433 55.9134 38.2433C55.5548 38.2433 55.1962 38.2433 55.0169 38.0027C54.7779 37.8223 54.6583 37.5215 54.6583 37.1607C54.6583 36.7998 54.7779 36.499 55.0169 36.2584C55.256 36.078 55.5548 36.0178 55.9134 36.0178C56.2719 36.0178 56.5707 36.0178 56.8098 36.2584C57.0489 36.4389 57.1684 36.7396 57.1684 37.1005C57.1684 37.4614 57.0489 37.7621 56.8098 38.0027ZM55.9134 36.2584C55.1962 36.2584 54.8974 36.499 54.8974 37.1005C54.8974 37.702 55.1962 38.0027 55.9134 38.0027C56.6305 38.0027 56.9293 37.7621 56.9293 37.1607C56.9293 36.5592 56.6305 36.2584 55.9134 36.2584ZM53.0447 36.2584C52.7459 36.2584 52.3276 36.3186 51.969 36.4389V37.8824C51.969 37.8824 52.5068 38.0027 52.8057 38.0027C53.5228 38.0027 53.8814 37.7621 53.8814 37.1005C53.8814 36.499 53.5826 36.2584 53.0447 36.2584Z" fill="black"/>
<path d="M82.9861 37.943C82.9861 37.943 82.3287 38.1234 81.6713 38.1234H80.4761V35.2965H81.6713C82.2092 35.2965 82.5678 35.2965 82.8666 35.4769C83.0459 35.5972 83.1654 35.7777 83.1654 36.0182C83.1654 36.319 83.0459 36.4994 82.7471 36.6197C83.1057 36.74 83.3447 36.9205 83.3447 37.2813C83.3447 37.5821 83.2252 37.7024 83.0459 37.8227L82.9861 37.943ZM113.764 35.2363H114.362V38.1836H113.764V35.2363ZM112.569 38.1836V38.0633C112.21 38.1234 111.792 38.2437 111.433 38.2437C111.194 38.2437 110.955 38.2437 110.836 38.0633C110.656 37.943 110.597 37.7625 110.597 37.5821C110.597 37.3415 110.716 37.1611 110.955 37.0408C111.194 36.9205 111.433 36.9205 111.732 36.9205C111.971 36.9205 112.21 36.9205 112.449 36.9205C112.449 36.5596 112.21 36.4393 111.672 36.4393C111.433 36.4393 111.194 36.4393 110.896 36.4393V36.0182C110.896 36.0182 111.493 36.0182 111.792 36.0182C112.151 36.0182 112.509 36.0182 112.748 36.1987C112.987 36.3791 113.047 36.6197 113.047 36.9205V38.1234H112.569V38.1836ZM112.449 37.2813C112.449 37.2813 111.971 37.2813 111.732 37.2813C111.314 37.2813 111.194 37.3415 111.194 37.5821C111.194 37.7625 111.314 37.8828 111.613 37.8828C111.912 37.8828 112.21 37.8227 112.449 37.7625V37.3415V37.2813ZM108.744 38.1836V36.1385H109.222V36.2588C109.641 36.1385 109.88 36.0784 110.238 36.0784C110.238 36.0784 110.238 36.0784 110.298 36.0784V36.5596C110.298 36.5596 110.178 36.5596 110.119 36.5596C109.82 36.5596 109.641 36.5596 109.282 36.6799V38.1836H108.684H108.744ZM107.609 38.1836C107.609 38.1836 107.071 38.1234 106.951 37.8828C106.832 37.7625 106.832 37.5219 106.832 37.2813V36.4994H106.413V36.0784H106.832V35.4769H107.429V36.0784H108.266V36.4994H107.429V37.1611C107.429 37.1611 107.429 37.4618 107.429 37.5821C107.489 37.7024 107.609 37.7625 107.788 37.7625C107.907 37.7625 108.087 37.7625 108.206 37.7625V38.1836C108.206 38.1836 107.788 38.2437 107.609 38.2437V38.1836ZM105.397 38.1836V37.0408C105.397 36.6799 105.218 36.4994 104.859 36.4994C104.62 36.4994 104.262 36.5596 104.023 36.6197V38.1234H103.425V36.0784H103.903V36.1987C104.262 36.0784 104.68 36.0182 105.039 36.0182C105.278 36.0182 105.577 36.0182 105.756 36.2588C105.935 36.3791 105.995 36.6197 105.995 36.9205V38.1836H105.397ZM101.513 38.1836C101.154 38.1836 100.855 38.1836 100.616 37.943C100.377 37.7625 100.258 37.4016 100.258 37.1009C100.258 36.8002 100.377 36.4393 100.616 36.1987C100.855 36.0182 101.214 35.9581 101.513 35.9581C101.812 35.9581 102.17 35.9581 102.409 36.1385C102.768 36.3791 102.768 36.74 102.768 37.1611H100.796C100.796 37.4618 100.975 37.7024 101.572 37.7024C101.931 37.7024 102.349 37.7024 102.648 37.5821V38.0031C102.23 38.0633 101.812 38.1234 101.393 38.1234L101.513 38.1836ZM101.632 36.3791C101.154 36.3791 100.975 36.5596 100.915 36.8603H102.29C102.29 36.4994 102.051 36.3791 101.572 36.3791H101.632ZM98.5843 38.1836C98.2257 38.1836 97.8672 38.1836 97.5684 37.8828C97.2098 37.5821 97.15 37.161 97.15 36.6799C97.15 36.2588 97.2695 35.7777 97.6879 35.4769C98.0465 35.2363 98.4648 35.2363 98.8831 35.2363C99.182 35.2363 99.4808 35.2363 99.8394 35.2363V35.7175C99.8394 35.7175 99.182 35.7175 98.8831 35.7175C98.1062 35.7175 97.7476 36.0182 97.7476 36.6799C97.7476 37.3415 98.0465 37.6422 98.6441 37.6422C99.0027 37.6422 99.4808 37.5821 99.8991 37.4618V37.943C99.4808 38.0031 99.0027 38.1234 98.5843 38.1234V38.1836ZM94.879 38.0031C94.879 38.0031 94.2814 38.2437 93.9228 38.2437C93.5642 38.2437 93.2056 38.2437 92.9068 38.0031C92.608 37.8227 92.5482 37.5219 92.5482 37.1009C92.5482 36.6799 92.6678 36.4393 92.9068 36.1987C93.1459 36.0182 93.5045 35.9581 93.9228 35.9581C94.3411 35.9581 94.64 35.9581 94.879 36.1987C95.1778 36.3791 95.2376 36.6799 95.2376 37.1009C95.2376 37.5219 95.1181 37.7625 94.879 38.0031ZM93.9228 36.4393C93.3849 36.4393 93.1459 36.6197 93.1459 37.1009C93.1459 37.5821 93.3849 37.7625 93.9228 37.7625C94.4607 37.7625 94.6997 37.5821 94.6997 37.1009C94.6997 36.6197 94.4607 36.4393 93.9228 36.4393ZM91.1737 38.1836C91.1737 38.1836 90.6358 38.1836 90.3968 37.943C90.1577 37.7625 90.098 37.4016 90.098 37.0408C90.098 36.74 90.2175 36.3791 90.5163 36.1385C90.7553 35.9581 91.1139 35.9581 91.4127 35.9581C91.6518 35.9581 91.8908 35.9581 92.1299 35.9581V36.3791C92.1299 36.3791 91.6518 36.3791 91.4725 36.3791C90.9346 36.3791 90.6956 36.5596 90.6956 37.0408C90.6956 37.4618 90.8749 37.7024 91.353 37.7024C91.592 37.7024 91.8909 37.7024 92.1897 37.5821V38.0031C91.8909 38.0633 91.5323 38.1234 91.1737 38.1234V38.1836ZM89.0222 38.1836V37.0408C89.0222 36.6799 88.8429 36.4994 88.4843 36.4994C88.2453 36.4994 87.8867 36.5596 87.6477 36.6197V38.1234H87.05V36.0784H87.5281V36.1987C87.8867 36.0784 88.3051 36.0182 88.6636 36.0182C88.9027 36.0182 89.2015 36.0182 89.3808 36.2588C89.5601 36.3791 89.6198 36.6197 89.6198 36.9205V38.1836H89.0222ZM85.8548 38.1836V38.0633C85.4962 38.1234 85.0778 38.2437 84.7193 38.2437C84.4802 38.2437 84.2412 38.2437 84.1216 38.0633C83.9423 37.943 83.8826 37.7625 83.8826 37.5821C83.8826 37.3415 84.0021 37.1611 84.2412 37.0408C84.4802 36.9205 84.7193 36.9205 85.0181 36.9205C85.2571 36.9205 85.4962 36.9205 85.7352 36.9205C85.7352 36.5596 85.4962 36.4393 84.9583 36.4393C84.7193 36.4393 84.4802 36.4393 84.1814 36.4393V36.0182C84.1814 36.0182 84.779 36.0182 85.0778 36.0182C85.4364 36.0182 85.795 36.0182 86.034 36.1987C86.2731 36.3791 86.3329 36.6197 86.3329 36.9205V38.1234H85.8548V38.1836ZM85.7352 37.2813C85.7352 37.2813 85.2571 37.2813 85.0181 37.2813C84.5997 37.2813 84.4802 37.3415 84.4802 37.5821C84.4802 37.7625 84.5997 37.8828 84.8986 37.8828C85.1376 37.8828 85.4962 37.8227 85.7352 37.7625V37.3415V37.2813ZM81.7909 35.7777H81.1335V36.4994H81.7909C82.3287 36.4994 82.5678 36.4393 82.5678 36.1385C82.5678 35.8378 82.269 35.7777 81.7909 35.7777ZM81.9104 36.9806H81.1335V37.7024H81.9104C82.4483 37.7024 82.6873 37.6422 82.6873 37.3415C82.6873 37.0408 82.3885 36.9806 81.9104 36.9806Z" fill="black"/>
</g>
<defs>
<clipPath id="clip0_227_11683">
<rect width="115" height="41" fill="white"/>
</clipPath>
</defs>
</svg>
