<svg width="62" height="53" viewBox="0 0 62 53" fill="none" xmlns="http://www.w3.org/2000/svg">
<g clip-path="url(#clip0_227_11700)">
<path d="M19.7901 33.2959V20.5039H23.9501V17.4019H11.8081V20.5039H15.9661V33.2959H19.7901ZM34.6631 33.2959V30.1949H28.8721V26.7079H33.9921V23.7179H28.8721V20.5039H34.6621V17.4019H25.0501V33.2959H34.6641H34.6631ZM42.2011 33.2959C43.8411 33.2959 45.2831 32.9639 46.5281 32.2999C47.7424 31.6652 48.7449 30.6896 49.4121 29.4929C50.0901 28.2849 50.4291 26.9029 50.4291 25.3489C50.4291 23.7789 50.0901 22.3939 49.4121 21.1939C48.7444 20.0041 47.7466 19.033 46.5391 18.3979C45.3011 17.7339 43.8561 17.4019 42.2011 17.4019H36.3211V33.2959H42.2011ZM41.9551 29.9459H40.1451V20.7079H41.9551C43.4011 20.7079 44.5261 21.1149 45.3311 21.9299C46.1361 22.7449 46.5391 23.8849 46.5391 25.3499C46.5391 26.8129 46.1361 27.9449 45.3311 28.7449C44.5261 29.5449 43.4011 29.9459 41.9551 29.9459Z" fill="#000F7E"/>
<path fill-rule="evenodd" clip-rule="evenodd" d="M61.25 0V49.28H35.604V51.943L30.343 46.615L35.603 41.288V43.952H55.99V5.326H36.923L31.658 0H61.25Z" fill="#FFB900"/>
<path fill-rule="evenodd" clip-rule="evenodd" d="M6.01 47.28L25.077 47.281L30.342 52.608H0.75V3.33002H26.397V0.666016L31.657 5.99302L26.397 11.32V8.65702H6.01V47.28Z" fill="#000F7E"/>
</g>
<defs>
<clipPath id="clip0_227_11700">
<rect width="62" height="53" fill="white"/>
</clipPath>
</defs>
</svg>
