<svg width="49" height="48" viewBox="0 0 49 48" fill="none" xmlns="http://www.w3.org/2000/svg">
<g clip-path="url(#clip0_2001_1202)">
<path d="M48.0809 29.8101C44.8749 42.6691 31.8509 50.4941 18.9909 47.2881C12.8174 45.7464 7.50878 41.8162 4.23221 36.3616C0.955643 30.9069 -0.0206841 24.3744 1.51788 18.2001C4.72288 5.33909 17.7459 -2.48692 30.6029 0.719085C43.4599 3.92509 51.2869 16.9511 48.0809 29.8101Z" fill="#F7931A"/>
<path d="M35.384 20.584C35.862 17.39 33.43 15.673 30.104 14.527L31.183 10.2L28.549 9.54404L27.499 13.757L25.389 13.26L26.447 9.01904L23.815 8.36304L22.736 12.688L21.054 12.293L21.057 12.279L17.425 11.372L16.724 14.185L18.637 14.661C19.704 14.927 19.897 15.633 19.865 16.193L18.636 21.122C18.7292 21.1452 18.8207 21.1746 18.91 21.21L18.632 21.141L16.91 28.046C16.78 28.37 16.449 28.856 15.703 28.672C15.729 28.71 13.789 28.194 13.789 28.194L12.481 31.209L15.909 32.063L17.787 32.547L16.697 36.924L19.328 37.58L20.407 33.25L22.506 33.795L21.43 38.105L24.064 38.761L25.154 34.393C29.645 35.243 33.022 34.9 34.444 30.838C35.589 27.567 34.387 25.681 32.024 24.451C33.745 24.054 35.041 22.922 35.387 20.584H35.386H35.384ZM29.366 29.023C28.552 32.294 23.045 30.526 21.26 30.082L22.706 24.284C24.491 24.73 30.217 25.612 29.366 29.023ZM30.181 20.537C29.439 23.512 24.855 22.001 23.368 21.63L24.679 16.371C26.166 16.742 30.954 17.433 30.181 20.537Z" fill="white"/>
</g>
<defs>
<clipPath id="clip0_2001_1202">
<path d="M0.799805 24C0.799805 10.7452 11.545 0 24.7998 0C38.0546 0 48.7998 10.7452 48.7998 24C48.7998 37.2548 38.0546 48 24.7998 48C11.545 48 0.799805 37.2548 0.799805 24Z" fill="white"/>
</clipPath>
</defs>
</svg>
