<svg width="49" height="48" viewBox="0 0 49 48" fill="none" xmlns="http://www.w3.org/2000/svg">
<mask id="mask0_2001_33" style="mask-type:luminance" maskUnits="userSpaceOnUse" x="0" y="0" width="49" height="48">
<path d="M0.799805 0H48.7998V48H0.799805V0Z" fill="white"/>
</mask>
<g mask="url(#mask0_2001_33)">
<path d="M48.7998 24C48.7998 10.7452 38.0546 0 24.7998 0C11.545 0 0.799805 10.7452 0.799805 24C0.799805 37.2548 11.545 48 24.7998 48C38.0546 48 48.7998 37.2548 48.7998 24Z" fill="#FFAD00"/>
<path d="M20.2998 25.5C21.5424 25.5 22.5498 24.4926 22.5498 23.25C22.5498 22.0074 21.5424 21 20.2998 21C19.0572 21 18.0498 22.0074 18.0498 23.25C18.0498 24.4926 19.0572 25.5 20.2998 25.5Z" fill="white"/>
<path d="M16.5498 30C17.7924 30 18.7998 28.9926 18.7998 27.75C18.7998 26.5074 17.7924 25.5 16.5498 25.5C15.3072 25.5 14.2998 26.5074 14.2998 27.75C14.2998 28.9926 15.3072 30 16.5498 30Z" fill="white"/>
<path d="M26.2998 25.5C27.5424 25.5 28.5498 24.4926 28.5498 23.25C28.5498 22.0074 27.5424 21 26.2998 21C25.0572 21 24.0498 22.0074 24.0498 23.25C24.0498 24.4926 25.0572 25.5 26.2998 25.5Z" fill="white"/>
<path d="M23.2998 20.25C24.5424 20.25 25.5498 19.2426 25.5498 18C25.5498 16.7574 24.5424 15.75 23.2998 15.75C22.0572 15.75 21.0498 16.7574 21.0498 18C21.0498 19.2426 22.0572 20.25 23.2998 20.25Z" fill="white"/>
<path d="M32.2998 25.5C33.5424 25.5 34.5498 24.4926 34.5498 23.25C34.5498 22.0074 33.5424 21 32.2998 21C31.0572 21 30.0498 22.0074 30.0498 23.25C30.0498 24.4926 31.0572 25.5 32.2998 25.5Z" fill="white"/>
<path d="M29.2998 20.25C30.5424 20.25 31.5498 19.2426 31.5498 18C31.5498 16.7574 30.5424 15.75 29.2998 15.75C28.0572 15.75 27.0498 16.7574 27.0498 18C27.0498 19.2426 28.0572 20.25 29.2998 20.25Z" fill="white"/>
<path d="M27.0498 14.25C28.2924 14.25 29.2998 13.2426 29.2998 12C29.2998 10.7574 28.2924 9.75 27.0498 9.75C25.8072 9.75 24.7998 10.7574 24.7998 12C24.7998 13.2426 25.8072 14.25 27.0498 14.25Z" fill="white"/>
<path d="M33.0498 14.25C34.2924 14.25 35.2998 13.2426 35.2998 12C35.2998 10.7574 34.2924 9.75 33.0498 9.75C31.8072 9.75 30.7998 10.7574 30.7998 12C30.7998 13.2426 31.8072 14.25 33.0498 14.25Z" fill="white"/>
<path d="M35.2998 20.25C36.5424 20.25 37.5498 19.2426 37.5498 18C37.5498 16.7574 36.5424 15.75 35.2998 15.75C34.0572 15.75 33.0498 16.7574 33.0498 18C33.0498 19.2426 34.0572 20.25 35.2998 20.25Z" fill="white"/>
<path d="M22.5498 30.75C23.7924 30.75 24.7998 29.7426 24.7998 28.5C24.7998 27.2574 23.7924 26.25 22.5498 26.25C21.3072 26.25 20.2998 27.2574 20.2998 28.5C20.2998 29.7426 21.3072 30.75 22.5498 30.75Z" fill="white"/>
<path d="M19.5498 36C20.7924 36 21.7998 34.9926 21.7998 33.75C21.7998 32.5074 20.7924 31.5 19.5498 31.5C18.3072 31.5 17.2998 32.5074 17.2998 33.75C17.2998 34.9926 18.3072 36 19.5498 36Z" fill="white"/>
<path d="M28.5498 30.75C29.7924 30.75 30.7998 29.7426 30.7998 28.5C30.7998 27.2574 29.7924 26.25 28.5498 26.25C27.3072 26.25 26.2998 27.2574 26.2998 28.5C26.2998 29.7426 27.3072 30.75 28.5498 30.75Z" fill="white"/>
<path d="M25.5498 36C26.7924 36 27.7998 34.9926 27.7998 33.75C27.7998 32.5074 26.7924 31.5 25.5498 31.5C24.3072 31.5 23.2998 32.5074 23.2998 33.75C23.2998 34.9926 24.3072 36 25.5498 36Z" fill="white"/>
<path d="M15.0167 19.4489C15.0167 19.4489 14.2697 19.1902 14.332 19.7039C14.6252 22.1474 14.317 24.5167 13.1665 27.0449C10.6532 32.5657 13.3045 37.3139 16.3375 39.0652C19.3705 40.8164 21.6775 38.8334 19.7312 31.2749C18.7157 27.3314 18.346 22.6814 15.7367 19.1879C15.1585 18.4139 15.0167 19.4489 15.0167 19.4489Z" fill="white"/>
<path d="M15.0498 20.25C15.464 20.25 15.7998 19.9142 15.7998 19.5C15.7998 19.0858 15.464 18.75 15.0498 18.75C14.6356 18.75 14.2998 19.0858 14.2998 19.5C14.2998 19.9142 14.6356 20.25 15.0498 20.25Z" fill="white"/>
<path d="M34.192 30.5452C34.192 30.5452 34.7898 31.0627 34.3135 31.266C32.0508 32.2335 30.1525 33.6855 28.5393 35.946C25.015 40.8825 19.5775 40.9612 16.5438 39.21C13.51 37.4587 14.074 34.4692 21.5935 32.3752C25.5168 31.2825 29.728 29.2777 34.0585 29.7907C35.0178 29.904 34.192 30.5452 34.192 30.5452Z" fill="white"/>
<path d="M33.4812 30.9169C33.2741 30.5582 33.397 30.0995 33.7558 29.8924C34.1145 29.6853 34.5732 29.8082 34.7803 30.1669C34.9874 30.5256 34.8645 30.9843 34.5058 31.1914C34.147 31.3985 33.6883 31.2756 33.4812 30.9169Z" fill="white"/>
</g>
</svg>
