<svg width="49" height="48" viewBox="0 0 49 48" fill="none" xmlns="http://www.w3.org/2000/svg">
<circle cx="24.2002" cy="24" r="24" fill="#0992F3"/>
<mask id="mask0_2001_1016" style="mask-type:luminance" maskUnits="userSpaceOnUse" x="23" y="13" width="14" height="16">
<path d="M23.9736 13.8696H36.2V28.8058H23.9736V13.8696Z" fill="white"/>
</mask>
<g mask="url(#mask0_2001_1016)">
<path d="M30.3187 13.8696L25.1483 28.0749C25.0844 28.2498 24.9725 28.4032 24.8254 28.5175C24.6784 28.6317 24.5022 28.7023 24.3169 28.7211V28.7279H29.7826C30.2105 28.7279 30.5768 28.4557 30.7131 28.0754L35.8853 13.8696H30.3187Z" fill="white"/>
</g>
<path d="M23.8709 28.5123C24.1878 28.5123 24.4654 28.3547 24.6352 28.1161C24.6529 28.0912 24.7149 28.0042 24.7589 27.8861L26.6553 22.6731L25.5459 19.6287C25.4813 19.4745 25.3766 19.3405 25.2427 19.2404C25.1088 19.1403 24.9506 19.0778 24.7845 19.0594C24.6183 19.041 24.4503 19.0674 24.2978 19.1358C24.1453 19.2042 24.0138 19.3122 23.917 19.4485C23.8989 19.4734 23.8251 19.5843 23.7934 19.6785L21.897 24.8897L23.0114 27.9463C23.0837 28.1143 23.2036 28.2574 23.3564 28.358C23.5091 28.4586 23.688 28.5123 23.8709 28.5123Z" fill="white"/>
<mask id="mask1_2001_1016" style="mask-type:luminance" maskUnits="userSpaceOnUse" x="12" y="18" width="13" height="16">
<path d="M12.2002 18.3906H24.4266V33.6949H12.2002V18.3906Z" fill="white"/>
</mask>
<g mask="url(#mask1_2001_1016)">
<path d="M24.2761 18.8362H18.7503C18.3223 18.8362 17.956 19.107 17.8179 19.4892L12.6475 33.6944H18.2141L23.385 19.4896C23.4521 19.3048 23.5726 19.1442 23.7313 19.0281C23.89 18.9121 24.0797 18.8459 24.2761 18.838V18.8362Z" fill="white"/>
</g>
</svg>
