<svg width="49" height="48" viewBox="0 0 49 48" fill="none" xmlns="http://www.w3.org/2000/svg">
<g clip-path="url(#clip0_2001_960)">
<path d="M48.7998 24C48.7998 10.7452 38.0546 0 24.7998 0C11.545 0 0.799805 10.7452 0.799805 24C0.799805 37.2548 11.545 48 24.7998 48C38.0546 48 48.7998 37.2548 48.7998 24Z" fill="#008CE7"/>
<path d="M29.4287 12.0061H18.5147L17.6117 17.0566L27.4547 17.0716C32.3012 17.0716 33.7397 18.8311 33.6932 21.7516C33.6722 23.2486 33.0197 25.7806 32.7437 26.5966C31.9982 28.7866 30.4622 31.2796 24.7052 31.2721L15.1382 31.2661L14.2352 36.3226H25.1207C28.9592 36.3226 30.5942 35.8741 32.3207 35.0776C36.1517 33.3106 38.4332 29.5261 39.3497 24.5866C40.7087 17.2366 39.0137 12.0061 29.4272 12.0061H29.4287ZM24.5102 23.6971L24.9782 21.6271H13.8092C10.9532 21.6271 10.5452 23.4871 10.2737 24.6121L9.80566 26.6836H20.9762C23.8307 26.6836 24.2387 24.8236 24.5102 23.6971Z" fill="white"/>
</g>
<defs>
<clipPath id="clip0_2001_960">
<path d="M0.799805 24C0.799805 10.7452 11.545 0 24.7998 0C38.0546 0 48.7998 10.7452 48.7998 24C48.7998 37.2548 38.0546 48 24.7998 48C11.545 48 0.799805 37.2548 0.799805 24Z" fill="white"/>
</clipPath>
</defs>
</svg>
