<svg width="49" height="48" viewBox="0 0 49 48" fill="none" xmlns="http://www.w3.org/2000/svg">
<g clip-path="url(#clip0_2001_354)">
<path d="M48.7998 24C48.7998 10.7452 38.0546 0 24.7998 0C11.545 0 0.799805 10.7452 0.799805 24C0.799805 37.2548 11.545 48 24.7998 48C38.0546 48 48.7998 37.2548 48.7998 24Z" fill="#008CFF"/>
<path d="M31.8779 26.7511C31.1399 26.3301 30.3059 26.2051 29.4809 26.1731C28.7939 26.1531 27.7629 25.7001 27.7629 24.4461C27.7629 23.5111 28.5179 22.7561 29.4909 22.7191C30.3169 22.6881 31.1499 22.5621 31.8879 22.1371C33.9729 20.9331 34.6899 18.2671 33.4859 16.1791C32.903 15.1766 31.9464 14.4461 30.8258 14.1478C29.7051 13.8496 28.512 14.0079 27.5079 14.5881C26.8434 14.9694 26.2917 15.5198 25.9088 16.1834C25.5259 16.8469 25.3255 17.6 25.3279 18.3661C25.3279 19.2121 25.6309 19.9881 26.0149 20.7161C26.3389 21.3211 26.4949 22.4531 25.3959 23.0891C24.5699 23.5621 23.5399 23.2671 23.0299 22.4431C22.5979 21.7461 22.0769 21.0961 21.3399 20.6751C20.3389 20.0962 19.149 19.9386 18.0319 20.2369C16.9147 20.5353 15.9619 21.2652 15.3829 22.2661C14.1819 24.3551 14.8969 27.0201 16.9839 28.2241C17.6472 28.6047 18.3986 28.8049 19.1634 28.8049C19.9281 28.8049 20.6795 28.6047 21.3429 28.2241C22.0779 27.8021 22.5989 27.1531 23.0299 26.4561C23.3829 25.8871 24.2779 25.1601 25.3959 25.8091C26.2229 26.2781 26.4779 27.3231 26.0149 28.1861C25.6339 28.9001 25.3279 29.6861 25.3279 30.5321C25.3279 32.9401 27.2809 34.8881 29.6869 34.8911C32.0929 34.8941 34.0429 32.9401 34.0459 30.5321C34.0529 28.9751 33.2269 27.5291 31.8759 26.7501L31.8779 26.7511Z" fill="white"/>
</g>
<defs>
<clipPath id="clip0_2001_354">
<path d="M0.799805 24C0.799805 10.7452 11.545 0 24.7998 0C38.0546 0 48.7998 10.7452 48.7998 24C48.7998 37.2548 38.0546 48 24.7998 48C11.545 48 0.799805 37.2548 0.799805 24Z" fill="white"/>
</clipPath>
</defs>
</svg>
