<svg width="49" height="48" viewBox="0 0 49 48" fill="none" xmlns="http://www.w3.org/2000/svg">
<g clip-path="url(#clip0_2001_183)">
<path d="M48.7998 24C48.7998 10.7452 38.0546 0 24.7998 0C11.545 0 0.799805 10.7452 0.799805 24C0.799805 37.2548 11.545 48 24.7998 48C38.0546 48 48.7998 37.2548 48.7998 24Z" fill="#EBB341"/>
<path d="M23.2442 30.5004H33.6446V35.7012H27.5078V40.1004H22.1714V35.8368H15.7718C15.7718 34.1004 15.5078 32.3736 15.9086 30.7728C16.0454 29.9724 16.9718 29.1732 17.645 28.3728L23.7818 21.1728L26.3186 18.3732H16.319V13.1736H22.1822V8.77441H27.3818V13.0368H33.7814C33.7814 14.7732 34.0454 16.5 33.6446 18.1008C33.5078 18.9012 32.5814 19.7004 31.9082 20.5008L25.7714 27.7008L23.2442 30.5004Z" fill="white"/>
</g>
<defs>
<clipPath id="clip0_2001_183">
<path d="M0.799805 24C0.799805 10.7452 11.545 0 24.7998 0C38.0546 0 48.7998 10.7452 48.7998 24C48.7998 37.2548 38.0546 48 24.7998 48C11.545 48 0.799805 37.2548 0.799805 24Z" fill="white"/>
</clipPath>
</defs>
</svg>
