<svg width="335" height="335" viewBox="0 0 335 335" fill="none" xmlns="http://www.w3.org/2000/svg">
<g clip-path="url(#clip0_20_19)">
<rect width="335" height="335" rx="60" fill="#141414"/>
<path d="M223.719 216.47L164.293 271L96 209.186L108.832 196.365L109.804 196.507L163.827 245.028L195.722 215.347L97.5042 126.956L164.011 65L234.095 127.977L220.301 140.743L219.283 140.702L164.267 90.6522L126.161 126.962L222.588 213.067L224.195 215.358L223.719 216.47Z" fill="url(#paint0_linear_20_19)"/>
<path d="M164.518 228.585L96.1893 167.848L96.4451 166.568L109.113 154.701L178.102 215.601" fill="url(#paint1_linear_20_19)"/>
<path d="M229 166.5L215 179.5L164.508 133.037L163.505 133.027L157.171 138.868C155.534 137.294 143.879 127.749 144.093 126.53L164.707 107.451L229 166.5Z" fill="url(#paint2_linear_20_19)"/>
</g>
<defs>
<linearGradient id="paint0_linear_20_19" x1="165.047" y1="65" x2="165.047" y2="271" gradientUnits="userSpaceOnUse">
<stop stop-color="#202FFF"/>
<stop offset="1" stop-color="#F6F9FF"/>
</linearGradient>
<linearGradient id="paint1_linear_20_19" x1="137.146" y1="154.701" x2="137.146" y2="228.585" gradientUnits="userSpaceOnUse">
<stop stop-color="#202FFF"/>
<stop offset="1" stop-color="#F6F9FF"/>
</linearGradient>
<linearGradient id="paint2_linear_20_19" x1="186.545" y1="107.451" x2="186.545" y2="179.5" gradientUnits="userSpaceOnUse">
<stop stop-color="#202FFF"/>
<stop offset="1" stop-color="#F6F9FF"/>
</linearGradient>
<clipPath id="clip0_20_19">
<rect width="335" height="335" rx="60" fill="white"/>
</clipPath>
</defs>
</svg>
