<svg width="280" height="202" viewBox="0 0 280 202" fill="none" xmlns="http://www.w3.org/2000/svg">
<rect width="280" height="202" fill="white"/>
<path d="M61 35.5C56.3056 35.5 52.5 39.3056 52.5 44V60C52.5 64.6944 56.3056 68.5 61 68.5H220C224.694 68.5 228.5 64.6944 228.5 60V44C228.5 39.3056 224.694 35.5 220 35.5H61Z" fill="#F6F9FF"/>
<path d="M61 35.5C56.3056 35.5 52.5 39.3056 52.5 44V60C52.5 64.6944 56.3056 68.5 61 68.5H220C224.694 68.5 228.5 64.6944 228.5 60V44C228.5 39.3056 224.694 35.5 220 35.5H61Z" stroke="#DFDFD9"/>
<path d="M53 44C53 39.5817 56.5817 36 61 36H103C107.418 36 111 39.5817 111 44V60C111 64.4183 107.418 68 103 68H61C56.5817 68 53 64.4183 53 60V44Z" fill="#008CFF"/>
<path d="M66.098 56.964V44.454C66.782 44.394 67.394 44.352 67.934 44.328C68.486 44.292 68.996 44.268 69.464 44.256C69.932 44.232 70.37 44.22 70.778 44.22C71.906 44.22 72.812 44.328 73.496 44.544C74.18 44.748 74.672 45.078 74.972 45.534C75.284 45.978 75.44 46.566 75.44 47.298C75.44 47.982 75.284 48.57 74.972 49.062C74.66 49.542 74.198 49.908 73.586 50.16V50.196C74.378 50.388 74.996 50.766 75.44 51.33C75.884 51.894 76.106 52.584 76.106 53.4C76.106 54.072 76.01 54.648 75.818 55.128C75.626 55.608 75.326 55.998 74.918 56.298C74.51 56.598 73.97 56.82 73.298 56.964C72.638 57.108 71.816 57.18 70.832 57.18C70.496 57.18 70.19 57.174 69.914 57.162C69.638 57.162 69.38 57.156 69.14 57.144C68.9 57.144 68.636 57.132 68.348 57.108C68.072 57.096 67.754 57.078 67.394 57.054C67.034 57.03 66.602 57 66.098 56.964ZM68.6 49.71H71.426C71.762 49.71 72.056 49.638 72.308 49.494C72.572 49.35 72.77 49.146 72.902 48.882C73.046 48.618 73.118 48.318 73.118 47.982C73.118 47.574 73.034 47.238 72.866 46.974C72.71 46.71 72.452 46.518 72.092 46.398C71.744 46.278 71.27 46.218 70.67 46.218C70.514 46.218 70.37 46.218 70.238 46.218C70.118 46.218 70.004 46.224 69.896 46.236C69.788 46.236 69.674 46.242 69.554 46.254C69.434 46.254 69.296 46.26 69.14 46.272C68.996 46.284 68.816 46.302 68.6 46.326V49.71ZM68.6 55.074C68.852 55.086 69.08 55.104 69.284 55.128C69.488 55.14 69.668 55.152 69.824 55.164C69.992 55.164 70.148 55.17 70.292 55.182C70.436 55.182 70.574 55.182 70.706 55.182C71.426 55.182 71.99 55.122 72.398 55.002C72.818 54.87 73.112 54.666 73.28 54.39C73.46 54.114 73.55 53.748 73.55 53.292C73.55 52.716 73.376 52.284 73.028 51.996C72.68 51.696 72.146 51.546 71.426 51.546H68.6V55.074ZM88.1567 57.18C87.8087 57.18 87.4667 57.126 87.1307 57.018C86.7947 56.91 86.4527 56.742 86.1047 56.514C85.7567 56.274 85.4027 55.974 85.0427 55.614C84.6827 55.242 84.3047 54.804 83.9087 54.3C83.5127 53.784 83.0987 53.202 82.6667 52.554C82.5827 52.566 82.4507 52.572 82.2707 52.572C82.1027 52.572 81.9767 52.572 81.8927 52.572C81.6647 52.572 81.4187 52.572 81.1547 52.572C80.9027 52.572 80.6507 52.566 80.3987 52.554V57H77.9147V44.382C78.5627 44.346 79.1507 44.316 79.6787 44.292C80.2187 44.268 80.7167 44.25 81.1727 44.238C81.6407 44.226 82.0787 44.22 82.4867 44.22C83.4587 44.22 84.2867 44.292 84.9707 44.436C85.6547 44.568 86.2127 44.79 86.6447 45.102C87.0767 45.402 87.3887 45.798 87.5807 46.29C87.7847 46.782 87.8867 47.37 87.8867 48.054C87.8867 48.774 87.7727 49.392 87.5447 49.908C87.3287 50.412 87.0167 50.826 86.6087 51.15C86.2007 51.474 85.7147 51.732 85.1507 51.924C85.5107 52.404 85.8467 52.824 86.1587 53.184C86.4827 53.532 86.7767 53.826 87.0407 54.066C87.3167 54.294 87.5687 54.468 87.7967 54.588C88.0247 54.708 88.2467 54.768 88.4627 54.768C88.4987 54.768 88.5407 54.768 88.5887 54.768C88.6487 54.756 88.7027 54.75 88.7507 54.75V57.126C88.6787 57.138 88.5947 57.15 88.4987 57.162C88.4027 57.174 88.2887 57.18 88.1567 57.18ZM82.4147 50.592C82.9067 50.592 83.3327 50.556 83.6927 50.484C84.0647 50.4 84.3707 50.274 84.6107 50.106C84.8507 49.938 85.0307 49.716 85.1507 49.44C85.2707 49.152 85.3307 48.798 85.3307 48.378C85.3307 47.85 85.2467 47.43 85.0787 47.118C84.9107 46.794 84.6227 46.56 84.2147 46.416C83.8067 46.272 83.2487 46.2 82.5407 46.2C82.3367 46.2 82.1567 46.2 82.0007 46.2C81.8447 46.2 81.6887 46.206 81.5327 46.218C81.3887 46.218 81.2267 46.224 81.0467 46.236C80.8667 46.236 80.6507 46.248 80.3987 46.272V50.538C80.6027 50.55 80.7887 50.562 80.9567 50.574C81.1247 50.574 81.2867 50.58 81.4427 50.592C81.6107 50.592 81.7667 50.592 81.9107 50.592C82.0667 50.592 82.2347 50.592 82.4147 50.592ZM90.3291 57V44.4H92.7951V54.84H98.6271V57H90.3291Z" fill="white"/>
<mask id="path-4-inside-1_508_9442" fill="white">
<path d="M111 44C111 39.5817 114.582 36 119 36H163C167.418 36 171 39.5817 171 44V60C171 64.4183 167.418 68 163 68H119C114.582 68 111 64.4183 111 60V44Z"/>
</mask>
<path d="M111 36H171H111ZM171 68H111H171ZM111 68V36V68ZM163 36C167.971 36 172 40.0294 172 45V59C172 63.9706 167.971 68 163 68C166.866 68 170 64.4183 170 60V44C170 39.5817 166.866 36 163 36Z" fill="#DFDFD9" mask="url(#path-4-inside-1_508_9442)"/>
<path d="M123.936 54.522V45.9H126.366V54.54C126.366 54.876 126.414 55.17 126.51 55.422C126.606 55.662 126.738 55.866 126.906 56.034C127.074 56.19 127.272 56.316 127.5 56.412C127.728 56.508 127.974 56.574 128.238 56.61C128.514 56.646 128.79 56.664 129.066 56.664C129.366 56.664 129.648 56.646 129.912 56.61C130.176 56.562 130.416 56.49 130.632 56.394C130.86 56.298 131.058 56.172 131.226 56.016C131.394 55.848 131.52 55.644 131.604 55.404C131.7 55.164 131.748 54.876 131.748 54.54V45.9H134.196V54.522C134.196 55.146 134.118 55.692 133.962 56.16C133.806 56.616 133.578 57.006 133.278 57.33C132.99 57.654 132.636 57.918 132.216 58.122C131.796 58.314 131.316 58.452 130.776 58.536C130.248 58.632 129.678 58.68 129.066 58.68C128.454 58.68 127.884 58.632 127.356 58.536C126.828 58.452 126.354 58.314 125.934 58.122C125.514 57.918 125.154 57.654 124.854 57.33C124.554 57.006 124.326 56.616 124.17 56.16C124.014 55.692 123.936 55.146 123.936 54.522ZM145.013 46.314L144.545 48.24C144.305 48.156 144.035 48.084 143.735 48.024C143.435 47.952 143.123 47.892 142.799 47.844C142.487 47.796 142.169 47.76 141.845 47.736C141.521 47.712 141.215 47.7 140.927 47.7C140.135 47.7 139.511 47.826 139.055 48.078C138.611 48.318 138.389 48.684 138.389 49.176C138.389 49.416 138.449 49.632 138.569 49.824C138.701 50.004 138.899 50.178 139.163 50.346C139.427 50.514 139.775 50.676 140.207 50.832C140.651 50.988 141.179 51.15 141.791 51.318C142.439 51.498 143.003 51.708 143.483 51.948C143.963 52.176 144.359 52.434 144.671 52.722C144.995 53.01 145.229 53.346 145.373 53.73C145.529 54.102 145.607 54.534 145.607 55.026C145.607 55.806 145.397 56.466 144.977 57.006C144.569 57.546 143.963 57.96 143.159 58.248C142.367 58.536 141.395 58.68 140.243 58.68C139.871 58.68 139.475 58.662 139.055 58.626C138.635 58.59 138.209 58.542 137.777 58.482C137.357 58.41 136.949 58.326 136.553 58.23C136.157 58.134 135.803 58.026 135.491 57.906L135.977 55.998C136.301 56.106 136.649 56.208 137.021 56.304C137.393 56.388 137.771 56.466 138.155 56.538C138.539 56.598 138.923 56.646 139.307 56.682C139.691 56.718 140.051 56.736 140.387 56.736C140.975 56.736 141.467 56.682 141.863 56.574C142.259 56.454 142.553 56.28 142.745 56.052C142.949 55.824 143.051 55.548 143.051 55.224C143.051 54.972 142.973 54.75 142.817 54.558C142.661 54.366 142.427 54.198 142.115 54.054C141.803 53.898 141.401 53.736 140.909 53.568C140.429 53.4 139.865 53.214 139.217 53.01C138.641 52.806 138.137 52.59 137.705 52.362C137.285 52.134 136.937 51.876 136.661 51.588C136.385 51.288 136.175 50.952 136.031 50.58C135.899 50.208 135.833 49.788 135.833 49.32C135.833 48.792 135.935 48.312 136.139 47.88C136.343 47.436 136.649 47.052 137.057 46.728C137.477 46.404 138.005 46.158 138.641 45.99C139.289 45.81 140.045 45.72 140.909 45.72C141.425 45.72 141.935 45.75 142.439 45.81C142.955 45.858 143.435 45.93 143.879 46.026C144.335 46.11 144.713 46.206 145.013 46.314ZM151.918 58.68C151.354 58.68 150.808 58.674 150.28 58.662C149.764 58.65 149.26 58.632 148.768 58.608C148.276 58.584 147.79 58.56 147.31 58.536V45.9C147.85 45.852 148.36 45.816 148.84 45.792C149.332 45.768 149.818 45.75 150.298 45.738C150.778 45.726 151.27 45.72 151.774 45.72C153.202 45.72 154.36 45.948 155.248 46.404C156.136 46.848 156.784 47.55 157.192 48.51C157.612 49.458 157.822 50.694 157.822 52.218C157.822 53.706 157.6 54.93 157.156 55.89C156.724 56.838 156.07 57.54 155.194 57.996C154.33 58.452 153.238 58.68 151.918 58.68ZM152.062 56.718C152.758 56.718 153.34 56.574 153.808 56.286C154.288 55.986 154.648 55.506 154.888 54.846C155.128 54.186 155.248 53.316 155.248 52.236C155.248 51.108 155.128 50.214 154.888 49.554C154.66 48.894 154.306 48.42 153.826 48.132C153.346 47.844 152.728 47.7 151.972 47.7C151.756 47.7 151.516 47.706 151.252 47.718C151 47.718 150.748 47.724 150.496 47.736C150.256 47.748 150.022 47.76 149.794 47.772V56.628C149.974 56.64 150.16 56.652 150.352 56.664C150.544 56.676 150.736 56.688 150.928 56.7C151.12 56.7 151.312 56.706 151.504 56.718C151.696 56.718 151.882 56.718 152.062 56.718Z" fill="#1A1A19"/>
<path d="M184.098 58.464V45.954C184.782 45.894 185.394 45.852 185.934 45.828C186.486 45.792 186.996 45.768 187.464 45.756C187.932 45.732 188.37 45.72 188.778 45.72C189.906 45.72 190.812 45.828 191.496 46.044C192.18 46.248 192.672 46.578 192.972 47.034C193.284 47.478 193.44 48.066 193.44 48.798C193.44 49.482 193.284 50.07 192.972 50.562C192.66 51.042 192.198 51.408 191.586 51.66V51.696C192.378 51.888 192.996 52.266 193.44 52.83C193.884 53.394 194.106 54.084 194.106 54.9C194.106 55.572 194.01 56.148 193.818 56.628C193.626 57.108 193.326 57.498 192.918 57.798C192.51 58.098 191.97 58.32 191.298 58.464C190.638 58.608 189.816 58.68 188.832 58.68C188.496 58.68 188.19 58.674 187.914 58.662C187.638 58.662 187.38 58.656 187.14 58.644C186.9 58.644 186.636 58.632 186.348 58.608C186.072 58.596 185.754 58.578 185.394 58.554C185.034 58.53 184.602 58.5 184.098 58.464ZM186.6 51.21H189.426C189.762 51.21 190.056 51.138 190.308 50.994C190.572 50.85 190.77 50.646 190.902 50.382C191.046 50.118 191.118 49.818 191.118 49.482C191.118 49.074 191.034 48.738 190.866 48.474C190.71 48.21 190.452 48.018 190.092 47.898C189.744 47.778 189.27 47.718 188.67 47.718C188.514 47.718 188.37 47.718 188.238 47.718C188.118 47.718 188.004 47.724 187.896 47.736C187.788 47.736 187.674 47.742 187.554 47.754C187.434 47.754 187.296 47.76 187.14 47.772C186.996 47.784 186.816 47.802 186.6 47.826V51.21ZM186.6 56.574C186.852 56.586 187.08 56.604 187.284 56.628C187.488 56.64 187.668 56.652 187.824 56.664C187.992 56.664 188.148 56.67 188.292 56.682C188.436 56.682 188.574 56.682 188.706 56.682C189.426 56.682 189.99 56.622 190.398 56.502C190.818 56.37 191.112 56.166 191.28 55.89C191.46 55.614 191.55 55.248 191.55 54.792C191.55 54.216 191.376 53.784 191.028 53.496C190.68 53.196 190.146 53.046 189.426 53.046H186.6V56.574ZM204.637 48.078H200.875V58.5H198.409V48.078H194.629V45.9H204.637V48.078ZM205.295 52.398C205.295 50.814 205.517 49.53 205.961 48.546C206.405 47.562 207.065 46.848 207.941 46.404C208.829 45.948 209.927 45.72 211.235 45.72C211.631 45.72 211.991 45.732 212.315 45.756C212.651 45.768 212.963 45.798 213.251 45.846C213.551 45.882 213.839 45.936 214.115 46.008C214.391 46.068 214.673 46.14 214.961 46.224L214.457 48.204C214.109 48.108 213.767 48.036 213.431 47.988C213.095 47.928 212.765 47.886 212.441 47.862C212.129 47.838 211.805 47.826 211.469 47.826C210.845 47.826 210.299 47.904 209.831 48.06C209.375 48.216 208.997 48.474 208.697 48.834C208.397 49.182 208.175 49.65 208.031 50.238C207.887 50.826 207.815 51.54 207.815 52.38C207.815 53.172 207.887 53.838 208.031 54.378C208.175 54.906 208.391 55.338 208.679 55.674C208.979 55.998 209.351 56.232 209.795 56.376C210.239 56.52 210.761 56.592 211.361 56.592C211.913 56.592 212.489 56.556 213.089 56.484C213.701 56.4 214.259 56.286 214.763 56.142L215.195 58.086C214.907 58.182 214.607 58.266 214.295 58.338C213.995 58.41 213.671 58.47 213.323 58.518C212.975 58.566 212.609 58.602 212.225 58.626C211.841 58.662 211.421 58.68 210.965 58.68C210.041 58.68 209.225 58.566 208.517 58.338C207.809 58.11 207.215 57.756 206.735 57.276C206.255 56.784 205.895 56.136 205.655 55.332C205.415 54.528 205.295 53.55 205.295 52.398Z" fill="#1A1A19"/>
<path d="M108.049 96L106.185 90.416L107.385 90.384L108.705 95L109.993 90.384L111.193 90.416L109.337 96H108.049ZM111.066 94.872C111.066 94.6053 111.116 94.3893 111.218 94.224C111.319 94.0533 111.474 93.92 111.682 93.824C111.895 93.7227 112.159 93.6453 112.474 93.592C112.794 93.5333 113.167 93.488 113.594 93.456V93.056C113.594 92.864 113.522 92.7227 113.378 92.632C113.234 92.536 113.026 92.488 112.754 92.488C112.642 92.488 112.516 92.4933 112.378 92.504C112.239 92.5147 112.095 92.5333 111.946 92.56C111.796 92.5867 111.644 92.624 111.49 92.672L111.306 91.824C111.546 91.7547 111.799 91.6987 112.066 91.656C112.338 91.6133 112.591 91.592 112.826 91.592C113.247 91.592 113.594 91.648 113.866 91.76C114.138 91.8667 114.338 92.0293 114.466 92.248C114.599 92.4613 114.666 92.728 114.666 93.048V94.776C114.666 94.9253 114.687 95.0267 114.73 95.08C114.772 95.1333 114.826 95.16 114.89 95.16C114.916 95.16 114.948 95.1573 114.986 95.152C115.023 95.1467 115.058 95.136 115.09 95.12L115.178 95.896C115.087 95.9493 114.983 95.992 114.866 96.024C114.748 96.0613 114.623 96.08 114.49 96.08C114.276 96.08 114.106 96.0373 113.978 95.952C113.85 95.8613 113.756 95.7253 113.698 95.544C113.564 95.6453 113.423 95.7387 113.274 95.824C113.124 95.904 112.964 95.9653 112.794 96.008C112.623 96.056 112.434 96.08 112.226 96.08C112.05 96.08 111.892 96.0533 111.754 96C111.615 95.9467 111.492 95.8693 111.386 95.768C111.284 95.6613 111.204 95.5333 111.146 95.384C111.092 95.2347 111.066 95.064 111.066 94.872ZM112.146 94.8C112.146 94.9867 112.188 95.128 112.274 95.224C112.364 95.3147 112.484 95.36 112.634 95.36C112.746 95.36 112.858 95.3413 112.97 95.304C113.087 95.2667 113.199 95.2187 113.306 95.16C113.418 95.096 113.514 95.0213 113.594 94.936V94.048C113.364 94.0587 113.159 94.08 112.978 94.112C112.802 94.144 112.65 94.1867 112.522 94.24C112.399 94.2933 112.306 94.3653 112.242 94.456C112.178 94.5467 112.146 94.6613 112.146 94.8ZM116.738 90.08V94.6C116.738 94.7547 116.754 94.8747 116.786 94.96C116.824 95.04 116.872 95.0933 116.93 95.12C116.994 95.1467 117.064 95.16 117.138 95.16C117.192 95.16 117.25 95.1547 117.314 95.144C117.378 95.1333 117.448 95.1173 117.522 95.096L117.618 95.912C117.512 95.96 117.392 96 117.258 96.032C117.125 96.064 116.981 96.08 116.826 96.08C116.581 96.08 116.37 96.0373 116.194 95.952C116.024 95.8667 115.893 95.7227 115.802 95.52C115.717 95.3173 115.674 95.0427 115.674 94.696V90.08H116.738ZM117.883 93.832C117.883 93.464 117.915 93.1413 117.979 92.864C118.048 92.5867 118.158 92.3547 118.307 92.168C118.462 91.9813 118.67 91.84 118.931 91.744C119.192 91.6427 119.515 91.592 119.899 91.592C120.288 91.592 120.611 91.6427 120.867 91.744C121.128 91.84 121.336 91.9813 121.491 92.168C121.646 92.3547 121.755 92.5867 121.819 92.864C121.888 93.1413 121.923 93.464 121.923 93.832C121.923 94.2 121.886 94.5253 121.811 94.808C121.742 95.0907 121.627 95.3253 121.467 95.512C121.307 95.6987 121.099 95.84 120.843 95.936C120.587 96.032 120.272 96.08 119.899 96.08C119.531 96.08 119.216 96.032 118.955 95.936C118.699 95.84 118.491 95.6987 118.331 95.512C118.176 95.3253 118.062 95.0907 117.987 94.808C117.918 94.5253 117.883 94.2 117.883 93.832ZM118.971 93.832C118.971 94.1893 119.003 94.4747 119.067 94.688C119.131 94.896 119.232 95.0453 119.371 95.136C119.51 95.2267 119.686 95.272 119.899 95.272C120.123 95.272 120.302 95.2267 120.435 95.136C120.574 95.0453 120.672 94.896 120.731 94.688C120.795 94.4747 120.827 94.1893 120.827 93.832C120.827 93.4747 120.798 93.192 120.739 92.984C120.686 92.776 120.59 92.6267 120.451 92.536C120.318 92.4453 120.134 92.4 119.899 92.4C119.67 92.4 119.486 92.4453 119.347 92.536C119.214 92.6267 119.118 92.776 119.059 92.984C119 93.192 118.971 93.4747 118.971 93.832ZM123.638 91.672V92.184C123.788 92.0453 123.926 91.9333 124.054 91.848C124.188 91.7573 124.321 91.6933 124.454 91.656C124.593 91.6133 124.737 91.592 124.886 91.592C124.982 91.592 125.078 91.6 125.174 91.616C125.276 91.6267 125.374 91.648 125.47 91.68L125.302 92.64C125.206 92.6187 125.108 92.6027 125.006 92.592C124.91 92.576 124.82 92.568 124.734 92.568C124.58 92.568 124.42 92.5973 124.254 92.656C124.089 92.7147 123.916 92.816 123.734 92.96V96H122.67V91.672H123.638ZM130.973 96.008L130.845 95.656C130.621 95.8 130.4 95.9067 130.181 95.976C129.968 96.0453 129.744 96.08 129.509 96.08C129.04 96.08 128.677 95.896 128.421 95.528C128.17 95.1547 128.045 94.6187 128.045 93.92C128.045 93.3867 128.117 92.9493 128.261 92.608C128.405 92.2667 128.626 92.0133 128.925 91.848C129.229 91.6773 129.61 91.592 130.069 91.592C130.192 91.592 130.317 91.5973 130.445 91.608C130.578 91.6187 130.709 91.6373 130.837 91.664V90.08H131.909V96.008H130.973ZM130.837 94.896V92.472C130.704 92.4347 130.581 92.4107 130.469 92.4C130.357 92.384 130.25 92.376 130.149 92.376C129.92 92.376 129.73 92.4213 129.581 92.512C129.437 92.6027 129.328 92.7547 129.253 92.968C129.184 93.1813 129.149 93.4667 129.149 93.824C129.149 94.1387 129.178 94.3973 129.237 94.6C129.301 94.8027 129.389 94.952 129.501 95.048C129.618 95.144 129.76 95.192 129.925 95.192C130.021 95.192 130.117 95.1813 130.213 95.16C130.309 95.1387 130.408 95.1067 130.509 95.064C130.61 95.0213 130.72 94.9653 130.837 94.896ZM132.656 93.832C132.656 93.464 132.688 93.1413 132.752 92.864C132.822 92.5867 132.931 92.3547 133.08 92.168C133.235 91.9813 133.443 91.84 133.704 91.744C133.966 91.6427 134.288 91.592 134.672 91.592C135.062 91.592 135.384 91.6427 135.64 91.744C135.902 91.84 136.11 91.9813 136.264 92.168C136.419 92.3547 136.528 92.5867 136.592 92.864C136.662 93.1413 136.696 93.464 136.696 93.832C136.696 94.2 136.659 94.5253 136.584 94.808C136.515 95.0907 136.4 95.3253 136.24 95.512C136.08 95.6987 135.872 95.84 135.616 95.936C135.36 96.032 135.046 96.08 134.672 96.08C134.304 96.08 133.99 96.032 133.728 95.936C133.472 95.84 133.264 95.6987 133.104 95.512C132.95 95.3253 132.835 95.0907 132.76 94.808C132.691 94.5253 132.656 94.2 132.656 93.832ZM133.744 93.832C133.744 94.1893 133.776 94.4747 133.84 94.688C133.904 94.896 134.006 95.0453 134.144 95.136C134.283 95.2267 134.459 95.272 134.672 95.272C134.896 95.272 135.075 95.2267 135.208 95.136C135.347 95.0453 135.446 94.896 135.504 94.688C135.568 94.4747 135.6 94.1893 135.6 93.832C135.6 93.4747 135.571 93.192 135.512 92.984C135.459 92.776 135.363 92.6267 135.224 92.536C135.091 92.4453 134.907 92.4 134.672 92.4C134.443 92.4 134.259 92.4453 134.12 92.536C133.987 92.6267 133.891 92.776 133.832 92.984C133.774 93.192 133.744 93.4747 133.744 93.832ZM141.776 96.08C141.525 96.08 141.283 96.0773 141.048 96.072C140.819 96.0667 140.595 96.0587 140.376 96.048C140.157 96.0373 139.941 96.0267 139.728 96.016V90.4C139.968 90.3787 140.195 90.3627 140.408 90.352C140.627 90.3413 140.843 90.3333 141.056 90.328C141.269 90.3227 141.488 90.32 141.712 90.32C142.347 90.32 142.861 90.4213 143.256 90.624C143.651 90.8213 143.939 91.1333 144.12 91.56C144.307 91.9813 144.4 92.5307 144.4 93.208C144.4 93.8693 144.301 94.4133 144.104 94.84C143.912 95.2613 143.621 95.5733 143.232 95.776C142.848 95.9787 142.363 96.08 141.776 96.08ZM141.84 95.208C142.149 95.208 142.408 95.144 142.616 95.016C142.829 94.8827 142.989 94.6693 143.096 94.376C143.203 94.0827 143.256 93.696 143.256 93.216C143.256 92.7147 143.203 92.3173 143.096 92.024C142.995 91.7307 142.837 91.52 142.624 91.392C142.411 91.264 142.136 91.2 141.8 91.2C141.704 91.2 141.597 91.2027 141.48 91.208C141.368 91.208 141.256 91.2107 141.144 91.216C141.037 91.2213 140.933 91.2267 140.832 91.232V95.168C140.912 95.1733 140.995 95.1787 141.08 95.184C141.165 95.1893 141.251 95.1947 141.336 95.2C141.421 95.2 141.507 95.2027 141.592 95.208C141.677 95.208 141.76 95.208 141.84 95.208ZM147.006 96.08C146.681 96.08 146.393 96.04 146.142 95.96C145.892 95.8747 145.678 95.7467 145.502 95.576C145.332 95.4 145.201 95.1787 145.11 94.912C145.025 94.64 144.982 94.3173 144.982 93.944C144.982 93.512 145.033 93.1467 145.134 92.848C145.241 92.544 145.39 92.3013 145.582 92.12C145.774 91.9333 145.998 91.8 146.254 91.72C146.51 91.6347 146.79 91.592 147.094 91.592C147.697 91.592 148.14 91.744 148.422 92.048C148.71 92.352 148.854 92.848 148.854 93.536C148.854 93.584 148.854 93.6453 148.854 93.72C148.854 93.7947 148.849 93.8667 148.838 93.936C148.716 93.9467 148.558 93.96 148.366 93.976C148.174 93.992 147.958 94.008 147.718 94.024C147.478 94.04 147.22 94.0533 146.942 94.064C146.665 94.0747 146.38 94.0853 146.086 94.096C146.081 94.112 146.078 94.1307 146.078 94.152C146.078 94.1733 146.078 94.1947 146.078 94.216C146.078 94.4613 146.118 94.6587 146.198 94.808C146.284 94.952 146.409 95.0613 146.574 95.136C146.74 95.2053 146.948 95.24 147.198 95.24C147.358 95.24 147.521 95.232 147.686 95.216C147.857 95.1947 148.025 95.1707 148.19 95.144C148.361 95.112 148.526 95.0773 148.686 95.04L148.814 95.824C148.644 95.8773 148.462 95.9253 148.27 95.968C148.078 96.0053 147.878 96.032 147.67 96.048C147.462 96.0693 147.241 96.08 147.006 96.08ZM146.094 93.408C146.281 93.408 146.46 93.4053 146.63 93.4C146.806 93.3893 146.972 93.3813 147.126 93.376C147.281 93.3653 147.414 93.3573 147.526 93.352C147.638 93.3413 147.726 93.3333 147.79 93.328C147.785 93.0933 147.753 92.904 147.694 92.76C147.641 92.616 147.556 92.512 147.438 92.448C147.326 92.384 147.185 92.352 147.014 92.352C146.908 92.352 146.804 92.368 146.702 92.4C146.601 92.432 146.508 92.488 146.422 92.568C146.337 92.648 146.265 92.7547 146.206 92.888C146.153 93.0213 146.116 93.1947 146.094 93.408ZM149.597 97.68V91.648H150.565L150.597 92.048C150.843 91.888 151.077 91.7733 151.301 91.704C151.531 91.6293 151.763 91.592 151.997 91.592C152.467 91.592 152.827 91.7787 153.077 92.152C153.333 92.52 153.461 93.0507 153.461 93.744C153.461 94.2773 153.387 94.7173 153.237 95.064C153.093 95.4053 152.869 95.6613 152.565 95.832C152.267 95.9973 151.888 96.08 151.429 96.08C151.317 96.08 151.197 96.072 151.069 96.056C150.941 96.0453 150.808 96.0293 150.669 96.008V97.68H149.597ZM151.349 95.304C151.584 95.304 151.773 95.2587 151.917 95.168C152.067 95.072 152.176 94.9173 152.245 94.704C152.32 94.4907 152.357 94.2053 152.357 93.848C152.357 93.528 152.328 93.2667 152.269 93.064C152.211 92.8613 152.123 92.712 152.005 92.616C151.893 92.52 151.752 92.472 151.581 92.472C151.485 92.472 151.389 92.4827 151.293 92.504C151.197 92.52 151.099 92.5493 150.997 92.592C150.896 92.6347 150.784 92.6933 150.661 92.768V95.2C150.795 95.232 150.917 95.2587 151.029 95.28C151.141 95.296 151.248 95.304 151.349 95.304ZM154.041 93.832C154.041 93.464 154.073 93.1413 154.137 92.864C154.206 92.5867 154.315 92.3547 154.465 92.168C154.619 91.9813 154.827 91.84 155.089 91.744C155.35 91.6427 155.673 91.592 156.057 91.592C156.446 91.592 156.769 91.6427 157.025 91.744C157.286 91.84 157.494 91.9813 157.649 92.168C157.803 92.3547 157.913 92.5867 157.977 92.864C158.046 93.1413 158.081 93.464 158.081 93.832C158.081 94.2 158.043 94.5253 157.969 94.808C157.899 95.0907 157.785 95.3253 157.625 95.512C157.465 95.6987 157.257 95.84 157.001 95.936C156.745 96.032 156.43 96.08 156.057 96.08C155.689 96.08 155.374 96.032 155.113 95.936C154.857 95.84 154.649 95.6987 154.489 95.512C154.334 95.3253 154.219 95.0907 154.145 94.808C154.075 94.5253 154.041 94.2 154.041 93.832ZM155.129 93.832C155.129 94.1893 155.161 94.4747 155.225 94.688C155.289 94.896 155.39 95.0453 155.529 95.136C155.667 95.2267 155.843 95.272 156.057 95.272C156.281 95.272 156.459 95.2267 156.593 95.136C156.731 95.0453 156.83 94.896 156.889 94.688C156.953 94.4747 156.985 94.1893 156.985 93.832C156.985 93.4747 156.955 93.192 156.897 92.984C156.843 92.776 156.747 92.6267 156.609 92.536C156.475 92.4453 156.291 92.4 156.057 92.4C155.827 92.4 155.643 92.4453 155.505 92.536C155.371 92.6267 155.275 92.776 155.217 92.984C155.158 93.192 155.129 93.4747 155.129 93.832ZM155.617 91.24L156.425 89.688H157.481L156.441 91.24H155.617ZM158.533 95.832L158.661 95.048C158.757 95.08 158.864 95.112 158.981 95.144C159.098 95.1707 159.221 95.1947 159.349 95.216C159.482 95.2373 159.613 95.2533 159.741 95.264C159.869 95.2747 159.989 95.28 160.101 95.28C160.357 95.28 160.544 95.2427 160.661 95.168C160.778 95.088 160.837 94.9707 160.837 94.816C160.837 94.7307 160.813 94.6587 160.765 94.6C160.722 94.536 160.653 94.4827 160.557 94.44C160.466 94.392 160.352 94.3493 160.213 94.312C160.08 94.2693 159.925 94.2267 159.749 94.184C159.562 94.1413 159.4 94.0853 159.261 94.016C159.122 93.9413 159.002 93.8533 158.901 93.752C158.805 93.6507 158.733 93.5333 158.685 93.4C158.642 93.2667 158.621 93.1147 158.621 92.944C158.621 92.5013 158.765 92.1653 159.053 91.936C159.341 91.7067 159.768 91.592 160.333 91.592C160.509 91.592 160.674 91.6027 160.829 91.624C160.984 91.64 161.13 91.664 161.269 91.696C161.413 91.7227 161.544 91.7573 161.661 91.8L161.525 92.6C161.408 92.5627 161.29 92.5307 161.173 92.504C161.056 92.4773 160.928 92.456 160.789 92.44C160.656 92.424 160.504 92.416 160.333 92.416C160.104 92.416 159.93 92.4533 159.813 92.528C159.696 92.5973 159.637 92.704 159.637 92.848C159.637 92.9333 159.658 93.0053 159.701 93.064C159.744 93.1173 159.805 93.1627 159.885 93.2C159.965 93.2373 160.064 93.272 160.181 93.304C160.298 93.336 160.429 93.368 160.573 93.4C160.77 93.448 160.949 93.5067 161.109 93.576C161.269 93.64 161.405 93.72 161.517 93.816C161.634 93.912 161.725 94.0347 161.789 94.184C161.858 94.328 161.893 94.504 161.893 94.712C161.893 94.9093 161.861 95.0853 161.797 95.24C161.738 95.3893 161.653 95.5173 161.541 95.624C161.429 95.7307 161.298 95.8187 161.149 95.888C161 95.952 160.834 96 160.653 96.032C160.472 96.064 160.282 96.08 160.085 96.08C159.893 96.08 159.709 96.0693 159.533 96.048C159.357 96.032 159.184 96.0053 159.013 95.968C158.848 95.9307 158.688 95.8853 158.533 95.832ZM163.084 91.056C162.86 91.056 162.698 91.0133 162.596 90.928C162.5 90.8373 162.452 90.6987 162.452 90.512C162.452 90.32 162.5 90.1813 162.596 90.096C162.698 90.0107 162.86 89.968 163.084 89.968C163.308 89.968 163.468 90.0107 163.564 90.096C163.666 90.1813 163.716 90.32 163.716 90.512C163.716 90.6987 163.666 90.8373 163.564 90.928C163.468 91.0133 163.308 91.056 163.084 91.056ZM162.548 96V91.672H163.612V96H162.548ZM166.095 96.08C165.817 96.08 165.583 96.0267 165.391 95.92C165.204 95.8133 165.063 95.6507 164.967 95.432C164.876 95.2133 164.831 94.9333 164.831 94.592V92.448H164.167V91.744L164.831 91.672L164.959 90.712H165.895V91.672H167.119V92.456H165.895V94.504C165.895 94.7493 165.94 94.9227 166.031 95.024C166.121 95.1253 166.263 95.176 166.455 95.176C166.561 95.176 166.671 95.168 166.783 95.152C166.895 95.1307 167.012 95.104 167.135 95.072L167.279 95.88C167.065 95.9547 166.857 96.0053 166.655 96.032C166.457 96.064 166.271 96.08 166.095 96.08ZM167.548 93.832C167.548 93.464 167.58 93.1413 167.644 92.864C167.713 92.5867 167.823 92.3547 167.972 92.168C168.127 91.9813 168.335 91.84 168.596 91.744C168.857 91.6427 169.18 91.592 169.564 91.592C169.953 91.592 170.276 91.6427 170.532 91.744C170.793 91.84 171.001 91.9813 171.156 92.168C171.311 92.3547 171.42 92.5867 171.484 92.864C171.553 93.1413 171.588 93.464 171.588 93.832C171.588 94.2 171.551 94.5253 171.476 94.808C171.407 95.0907 171.292 95.3253 171.132 95.512C170.972 95.6987 170.764 95.84 170.508 95.936C170.252 96.032 169.937 96.08 169.564 96.08C169.196 96.08 168.881 96.032 168.62 95.936C168.364 95.84 168.156 95.6987 167.996 95.512C167.841 95.3253 167.727 95.0907 167.652 94.808C167.583 94.5253 167.548 94.2 167.548 93.832ZM168.636 93.832C168.636 94.1893 168.668 94.4747 168.732 94.688C168.796 94.896 168.897 95.0453 169.036 95.136C169.175 95.2267 169.351 95.272 169.564 95.272C169.788 95.272 169.967 95.2267 170.1 95.136C170.239 95.0453 170.337 94.896 170.396 94.688C170.46 94.4747 170.492 94.1893 170.492 93.832C170.492 93.4747 170.463 93.192 170.404 92.984C170.351 92.776 170.255 92.6267 170.116 92.536C169.983 92.4453 169.799 92.4 169.564 92.4C169.335 92.4 169.151 92.4453 169.012 92.536C168.879 92.6267 168.783 92.776 168.724 92.984C168.665 93.192 168.636 93.4747 168.636 93.832Z" fill="#6F6F6A"/>
<path d="M97.68 122V104.72H104.352C104.52 104.72 104.708 104.728 104.916 104.744C105.132 104.752 105.348 104.776 105.564 104.816C106.468 104.952 107.232 105.268 107.856 105.764C108.488 106.252 108.964 106.868 109.284 107.612C109.612 108.356 109.776 109.18 109.776 110.084C109.776 111.388 109.432 112.52 108.744 113.48C108.056 114.44 107.072 115.044 105.792 115.292L105.18 115.436H99.444V122H97.68ZM108.144 122L104.736 114.968L106.428 114.32L110.172 122H108.144ZM99.444 113.756H104.304C104.448 113.756 104.616 113.748 104.808 113.732C105 113.716 105.188 113.688 105.372 113.648C105.964 113.52 106.448 113.276 106.824 112.916C107.208 112.556 107.492 112.128 107.676 111.632C107.868 111.136 107.964 110.62 107.964 110.084C107.964 109.548 107.868 109.032 107.676 108.536C107.492 108.032 107.208 107.6 106.824 107.24C106.448 106.88 105.964 106.636 105.372 106.508C105.188 106.468 105 106.444 104.808 106.436C104.616 106.42 104.448 106.412 104.304 106.412H99.444V113.756ZM117.141 124.364V121.628H118.905V124.364H117.141ZM117.141 105.08V102.332H118.905V105.08H117.141ZM118.233 122.36C117.089 122.36 116.057 122.156 115.137 121.748C114.225 121.34 113.469 120.764 112.869 120.02C112.277 119.276 111.889 118.396 111.705 117.38L113.421 117.08C113.685 118.184 114.253 119.06 115.125 119.708C116.005 120.348 117.065 120.668 118.305 120.668C119.561 120.668 120.577 120.364 121.353 119.756C122.129 119.14 122.517 118.336 122.517 117.344C122.517 116.608 122.301 116.02 121.869 115.58C121.437 115.14 120.705 114.764 119.673 114.452L115.833 113.252C113.513 112.524 112.353 111.148 112.353 109.124C112.353 108.18 112.585 107.352 113.049 106.64C113.521 105.92 114.173 105.36 115.005 104.96C115.845 104.56 116.825 104.364 117.945 104.372C119.041 104.372 120.021 104.58 120.885 104.996C121.757 105.404 122.473 105.984 123.033 106.736C123.593 107.488 123.965 108.38 124.149 109.412L122.385 109.748C122.273 109.012 122.013 108.368 121.605 107.816C121.205 107.264 120.689 106.836 120.057 106.532C119.425 106.22 118.721 106.06 117.945 106.052C117.209 106.052 116.553 106.18 115.977 106.436C115.401 106.692 114.945 107.048 114.609 107.504C114.281 107.952 114.117 108.468 114.117 109.052C114.117 109.692 114.345 110.236 114.801 110.684C115.265 111.124 115.997 111.496 116.997 111.8L120.297 112.796C121.689 113.212 122.693 113.772 123.309 114.476C123.925 115.18 124.233 116.12 124.233 117.296C124.233 118.312 123.985 119.2 123.489 119.96C122.993 120.72 122.293 121.312 121.389 121.736C120.493 122.152 119.441 122.36 118.233 122.36ZM129.473 122V107.876L126.233 109.856V106.664L129.473 104.72H132.425V122H129.473ZM142.973 122.36C141.749 122.36 140.669 122.1 139.733 121.58C138.797 121.052 138.065 120.32 137.537 119.384C137.017 118.448 136.757 117.368 136.757 116.144V110.576C136.757 109.352 137.017 108.272 137.537 107.336C138.065 106.4 138.797 105.672 139.733 105.152C140.669 104.624 141.749 104.36 142.973 104.36C144.197 104.36 145.273 104.624 146.201 105.152C147.137 105.672 147.869 106.4 148.397 107.336C148.925 108.272 149.189 109.352 149.189 110.576V116.144C149.189 117.368 148.925 118.448 148.397 119.384C147.869 120.32 147.137 121.052 146.201 121.58C145.273 122.1 144.197 122.36 142.973 122.36ZM142.973 119.612C143.581 119.612 144.133 119.468 144.629 119.18C145.125 118.884 145.517 118.492 145.805 118.004C146.093 117.508 146.237 116.956 146.237 116.348V110.36C146.237 109.744 146.093 109.192 145.805 108.704C145.517 108.208 145.125 107.816 144.629 107.528C144.133 107.232 143.581 107.084 142.973 107.084C142.365 107.084 141.813 107.232 141.317 107.528C140.821 107.816 140.429 108.208 140.141 108.704C139.853 109.192 139.709 109.744 139.709 110.36V116.348C139.709 116.956 139.853 117.508 140.141 118.004C140.429 118.492 140.821 118.884 141.317 119.18C141.813 119.468 142.365 119.612 142.973 119.612ZM158.53 122.36C157.306 122.36 156.226 122.1 155.29 121.58C154.354 121.052 153.622 120.32 153.094 119.384C152.574 118.448 152.314 117.368 152.314 116.144V110.576C152.314 109.352 152.574 108.272 153.094 107.336C153.622 106.4 154.354 105.672 155.29 105.152C156.226 104.624 157.306 104.36 158.53 104.36C159.754 104.36 160.83 104.624 161.758 105.152C162.694 105.672 163.426 106.4 163.954 107.336C164.482 108.272 164.746 109.352 164.746 110.576V116.144C164.746 117.368 164.482 118.448 163.954 119.384C163.426 120.32 162.694 121.052 161.758 121.58C160.83 122.1 159.754 122.36 158.53 122.36ZM158.53 119.612C159.138 119.612 159.69 119.468 160.186 119.18C160.682 118.884 161.074 118.492 161.362 118.004C161.65 117.508 161.794 116.956 161.794 116.348V110.36C161.794 109.744 161.65 109.192 161.362 108.704C161.074 108.208 160.682 107.816 160.186 107.528C159.69 107.232 159.138 107.084 158.53 107.084C157.922 107.084 157.37 107.232 156.874 107.528C156.378 107.816 155.986 108.208 155.698 108.704C155.41 109.192 155.266 109.744 155.266 110.36V116.348C155.266 116.956 155.41 117.508 155.698 118.004C155.986 118.492 156.378 118.884 156.874 119.18C157.37 119.468 157.922 119.612 158.53 119.612ZM174.087 122.36C172.863 122.36 171.783 122.1 170.847 121.58C169.911 121.052 169.179 120.32 168.651 119.384C168.131 118.448 167.871 117.368 167.871 116.144V110.576C167.871 109.352 168.131 108.272 168.651 107.336C169.179 106.4 169.911 105.672 170.847 105.152C171.783 104.624 172.863 104.36 174.087 104.36C175.311 104.36 176.387 104.624 177.315 105.152C178.251 105.672 178.983 106.4 179.511 107.336C180.039 108.272 180.303 109.352 180.303 110.576V116.144C180.303 117.368 180.039 118.448 179.511 119.384C178.983 120.32 178.251 121.052 177.315 121.58C176.387 122.1 175.311 122.36 174.087 122.36ZM174.087 119.612C174.695 119.612 175.247 119.468 175.743 119.18C176.239 118.884 176.631 118.492 176.919 118.004C177.207 117.508 177.351 116.956 177.351 116.348V110.36C177.351 109.744 177.207 109.192 176.919 108.704C176.631 108.208 176.239 107.816 175.743 107.528C175.247 107.232 174.695 107.084 174.087 107.084C173.479 107.084 172.927 107.232 172.431 107.528C171.935 107.816 171.543 108.208 171.255 108.704C170.967 109.192 170.823 109.744 170.823 110.36V116.348C170.823 116.956 170.967 117.508 171.255 118.004C171.543 118.492 171.935 118.884 172.431 119.18C172.927 119.468 173.479 119.612 174.087 119.612Z" fill="#1A1A19"/>
<path d="M50 133.5C45.3056 133.5 41.5 137.306 41.5 142V158C41.5 162.694 45.3056 166.5 50 166.5H230C234.694 166.5 238.5 162.694 238.5 158V142C238.5 137.306 234.694 133.5 230 133.5H50Z" fill="#F6F9FF"/>
<path d="M50 133.5C45.3056 133.5 41.5 137.306 41.5 142V158C41.5 162.694 45.3056 166.5 50 166.5H230C234.694 166.5 238.5 162.694 238.5 158V142C238.5 137.306 234.694 133.5 230 133.5H50Z" stroke="#6F6F6A"/>
<mask id="path-12-inside-2_508_9442" fill="white">
<path d="M42 137.5H114V162.5H42V137.5Z"/>
</mask>
<path d="M113 137.5V162.5H115V137.5H113Z" fill="#DFDFD9" mask="url(#path-12-inside-2_508_9442)"/>
<path d="M54.924 155.5V145.7H56.534L59.432 150.6L62.33 145.7H63.884V155.5H62.442V148.066L59.754 152.546H59.012L56.352 148.094V155.5H54.924ZM68.7641 155.64C68.2134 155.64 67.7281 155.57 67.3081 155.43C66.8974 155.281 66.5428 155.057 66.2441 154.758C65.9548 154.459 65.7354 154.077 65.5861 153.61C65.4368 153.134 65.3621 152.574 65.3621 151.93C65.3621 151.174 65.4508 150.535 65.6281 150.012C65.8148 149.48 66.0668 149.055 66.3841 148.738C66.7108 148.411 67.0888 148.178 67.5181 148.038C67.9568 147.889 68.4328 147.814 68.9461 147.814C69.9541 147.814 70.6961 148.075 71.1721 148.598C71.6574 149.121 71.9001 149.97 71.9001 151.146C71.9001 151.211 71.8954 151.305 71.8861 151.426C71.8861 151.538 71.8861 151.65 71.8861 151.762C71.6714 151.781 71.3961 151.804 71.0601 151.832C70.7334 151.86 70.3554 151.888 69.9261 151.916C69.4968 151.944 69.0301 151.967 68.5261 151.986C68.0221 152.005 67.4948 152.019 66.9441 152.028C66.9348 152.065 66.9301 152.107 66.9301 152.154C66.9301 152.191 66.9301 152.233 66.9301 152.28C66.9301 152.793 67.0094 153.209 67.1681 153.526C67.3268 153.834 67.5601 154.063 67.8681 154.212C68.1761 154.352 68.5634 154.422 69.0301 154.422C69.3101 154.422 69.5994 154.408 69.8981 154.38C70.2061 154.343 70.5048 154.301 70.7941 154.254C71.0834 154.198 71.3588 154.137 71.6201 154.072L71.8161 155.206C71.5361 155.29 71.2328 155.369 70.9061 155.444C70.5888 155.509 70.2528 155.556 69.8981 155.584C69.5434 155.621 69.1654 155.64 68.7641 155.64ZM66.9581 151.006C67.3501 151.006 67.7234 151.001 68.0781 150.992C68.4421 150.973 68.7781 150.955 69.0861 150.936C69.3941 150.917 69.6554 150.903 69.8701 150.894C70.0941 150.875 70.2621 150.861 70.3741 150.852C70.3648 150.385 70.3041 150.012 70.1921 149.732C70.0801 149.452 69.9121 149.251 69.6881 149.13C69.4641 148.999 69.1794 148.934 68.8341 148.934C68.6194 148.934 68.4094 148.967 68.2041 149.032C67.9988 149.088 67.8074 149.195 67.6301 149.354C67.4621 149.503 67.3174 149.713 67.1961 149.984C67.0748 150.245 66.9954 150.586 66.9581 151.006ZM68.1341 147.17L69.6601 144.454H71.1721L69.3241 147.17H68.1341ZM75.8669 155.64C75.3909 155.64 74.9942 155.551 74.6769 155.374C74.3596 155.197 74.1216 154.926 73.9629 154.562C73.8136 154.189 73.7389 153.722 73.7389 153.162V149.088H72.5069V148.08L73.7389 147.954L73.9349 146.232H75.2509V147.954H77.5749V149.088H75.2509V153.05C75.2509 153.507 75.3396 153.839 75.5169 154.044C75.6942 154.249 75.9789 154.352 76.3709 154.352C76.5669 154.352 76.7676 154.333 76.9729 154.296C77.1876 154.249 77.4069 154.198 77.6309 154.142L77.8409 155.304C77.4862 155.425 77.1409 155.509 76.8049 155.556C76.4689 155.612 76.1562 155.64 75.8669 155.64ZM78.3706 151.72C78.3706 151.067 78.4266 150.497 78.5386 150.012C78.6599 149.527 78.8513 149.125 79.1126 148.808C79.3739 148.481 79.7239 148.234 80.1626 148.066C80.6013 147.898 81.1426 147.814 81.7866 147.814C82.4306 147.814 82.9719 147.898 83.4106 148.066C83.8493 148.234 84.1993 148.481 84.4606 148.808C84.7219 149.125 84.9086 149.527 85.0206 150.012C85.1419 150.497 85.2026 151.067 85.2026 151.72C85.2026 152.383 85.1373 152.961 85.0066 153.456C84.8853 153.951 84.6893 154.361 84.4186 154.688C84.1479 155.005 83.7933 155.243 83.3546 155.402C82.9253 155.561 82.4026 155.64 81.7866 155.64C81.1706 155.64 80.6433 155.561 80.2046 155.402C79.7753 155.243 79.4253 155.005 79.1546 154.688C78.8839 154.361 78.6833 153.951 78.5526 153.456C78.4313 152.961 78.3706 152.383 78.3706 151.72ZM79.9246 151.72C79.9246 152.401 79.9853 152.943 80.1066 153.344C80.2373 153.745 80.4379 154.035 80.7086 154.212C80.9886 154.389 81.3479 154.478 81.7866 154.478C82.2253 154.478 82.5799 154.389 82.8506 154.212C83.1213 154.035 83.3173 153.745 83.4386 153.344C83.5693 152.943 83.6346 152.401 83.6346 151.72C83.6346 151.039 83.5786 150.502 83.4666 150.11C83.3546 149.709 83.1586 149.424 82.8786 149.256C82.6079 149.079 82.2439 148.99 81.7866 148.99C81.3199 148.99 80.9513 149.079 80.6806 149.256C80.4099 149.424 80.2139 149.709 80.0926 150.11C79.9806 150.502 79.9246 151.039 79.9246 151.72ZM91.3999 155.514L91.2179 154.87C90.8072 155.131 90.4106 155.327 90.0279 155.458C89.6452 155.579 89.2486 155.64 88.8379 155.64C88.0259 155.64 87.3959 155.318 86.9479 154.674C86.5092 154.03 86.2899 153.101 86.2899 151.888C86.2899 150.955 86.4112 150.189 86.6539 149.592C86.9059 148.995 87.2886 148.551 87.8019 148.262C88.3246 147.963 88.9732 147.814 89.7479 147.814C89.9719 147.814 90.2099 147.828 90.4619 147.856C90.7139 147.875 90.9612 147.907 91.2039 147.954V145.14H92.7299V155.514H91.3999ZM91.2039 153.764V149.13C90.9426 149.065 90.6999 149.018 90.4759 148.99C90.2612 148.962 90.0606 148.948 89.8739 148.948C89.4166 148.948 89.0386 149.041 88.7399 149.228C88.4412 149.405 88.2219 149.699 88.0819 150.11C87.9419 150.521 87.8719 151.071 87.8719 151.762C87.8719 152.341 87.9326 152.826 88.0539 153.218C88.1752 153.601 88.3479 153.89 88.5719 154.086C88.8052 154.273 89.0852 154.366 89.4119 154.366C89.5986 154.366 89.7852 154.347 89.9719 154.31C90.1679 154.263 90.3639 154.198 90.5599 154.114C90.7559 154.021 90.9706 153.904 91.2039 153.764ZM94.1408 151.72C94.1408 151.067 94.1968 150.497 94.3088 150.012C94.4302 149.527 94.6215 149.125 94.8828 148.808C95.1442 148.481 95.4942 148.234 95.9328 148.066C96.3715 147.898 96.9128 147.814 97.5568 147.814C98.2008 147.814 98.7422 147.898 99.1808 148.066C99.6195 148.234 99.9695 148.481 100.231 148.808C100.492 149.125 100.679 149.527 100.791 150.012C100.912 150.497 100.973 151.067 100.973 151.72C100.973 152.383 100.908 152.961 100.777 153.456C100.656 153.951 100.46 154.361 100.189 154.688C99.9182 155.005 99.5635 155.243 99.1248 155.402C98.6955 155.561 98.1728 155.64 97.5568 155.64C96.9408 155.64 96.4135 155.561 95.9748 155.402C95.5455 155.243 95.1955 155.005 94.9248 154.688C94.6542 154.361 94.4535 153.951 94.3228 153.456C94.2015 152.961 94.1408 152.383 94.1408 151.72ZM95.6948 151.72C95.6948 152.401 95.7555 152.943 95.8768 153.344C96.0075 153.745 96.2082 154.035 96.4788 154.212C96.7588 154.389 97.1182 154.478 97.5568 154.478C97.9955 154.478 98.3502 154.389 98.6208 154.212C98.8915 154.035 99.0875 153.745 99.2088 153.344C99.3395 152.943 99.4048 152.401 99.4048 151.72C99.4048 151.039 99.3488 150.502 99.2368 150.11C99.1248 149.709 98.9288 149.424 98.6488 149.256C98.3782 149.079 98.0142 148.99 97.5568 148.99C97.0902 148.99 96.7215 149.079 96.4508 149.256C96.1802 149.424 95.9842 149.709 95.8628 150.11C95.7508 150.502 95.6948 151.039 95.6948 151.72Z" fill="#6F6F6A"/>
<path fill-rule="evenodd" clip-rule="evenodd" d="M132.995 144.5H136.207V147.69H132.995V144.5ZM133.542 145.048H135.66V147.143H133.542V145.048ZM134.066 145.548H135.16V146.643H134.066V145.548ZM127.689 146.214H129.426C130.854 146.214 132.02 147.381 132.02 148.81C132.02 150.238 130.854 151.381 129.426 151.381H127.689V153.357H126V151.381V147.476H127.689V146.214ZM127.689 147.5V150.119H129.117C129.854 150.119 130.449 149.524 130.449 148.81C130.449 148.071 129.854 147.5 129.117 147.5H127.689ZM132.995 148.786H134.684V153.357H132.995V148.786ZM143.654 146.214H145.391C146.819 146.214 147.985 147.381 147.985 148.81C147.985 150.238 146.819 151.381 145.391 151.381H143.654V153.357H141.965V151.381V147.476H143.654V146.214ZM143.654 147.5V150.119H145.082C145.819 150.119 146.414 149.524 146.414 148.81C146.414 148.071 145.819 147.5 145.082 147.5H143.654ZM138.61 147.81C139.562 147.81 140.418 148.262 140.942 148.952L140.038 149.857C139.776 149.381 139.3 149.071 138.753 149.071C137.944 149.071 137.278 149.762 137.278 150.643C137.278 151.5 137.944 152.214 138.753 152.214C139.3 152.214 139.776 151.881 140.038 151.429L140.942 152.333C140.418 153.024 139.562 153.476 138.61 153.476C137.016 153.476 135.707 152.214 135.707 150.667C135.684 149.071 136.992 147.81 138.61 147.81ZM155.337 155.5H156.978L160 147.905H158.358L156.978 151.405L155.598 147.905H153.957L156.169 153.476L155.337 155.5ZM153.528 153.262H152.006V152.833C150.197 154.024 148.675 153.238 148.484 152.071C148.27 150.786 149.079 149.833 152.148 150.095C152.148 148.929 150.411 148.786 149.222 149.595L148.675 148.5C150.84 147.357 153.528 147.714 153.528 149.619V153.262ZM152.196 150.976H150.887C149.579 150.976 149.864 152.667 151.125 152.405C151.768 152.262 152.172 151.833 152.196 150.976Z" fill="#21C25E"/>
<path d="M217.75 148.625L220.5 151.375L223.25 148.625" stroke="#6F6F6A" stroke-linecap="round" stroke-linejoin="round"/>
</svg>
