<svg width="280" height="202" viewBox="0 0 280 202" fill="none" xmlns="http://www.w3.org/2000/svg">
<rect width="280" height="202" fill="white"/>
<path d="M71.5855 152.653C71.5855 154.471 70.1113 155.945 68.2928 155.945C66.4742 155.945 65 154.471 65 152.653L65 140.148C65 138.33 66.4742 136.856 68.2928 136.856C70.1113 136.856 71.5855 138.33 71.5855 140.148L71.5855 152.653Z" fill="url(#paint0_linear_508_9417)"/>
<path d="M68.8914 169.418C68.8914 169.748 68.6234 170.016 68.2927 170.016C67.9621 170.016 67.6941 169.748 67.6941 169.418L67.6941 132.599C67.6941 132.268 67.9621 132 68.2927 132C68.6234 132 68.8914 132.268 68.8914 132.599L68.8914 169.418Z" fill="url(#paint1_linear_508_9417)"/>
<path d="M84.1714 126.1C84.1714 127.919 82.6972 129.393 80.8787 129.393C79.0602 129.393 77.5859 127.919 77.5859 126.1L77.5859 107.426C77.5859 105.607 79.0602 104.133 80.8787 104.133C82.6972 104.133 84.1714 105.607 84.1714 107.426L84.1714 126.1Z" fill="url(#paint2_linear_508_9417)"/>
<path d="M81.4774 142.187C81.4774 142.518 81.2094 142.786 80.8788 142.786C80.5481 142.786 80.2801 142.518 80.2801 142.187L80.2801 91.5987C80.2801 91.268 80.5481 91 80.8788 91C81.2094 91 81.4774 91.268 81.4774 91.5987L81.4774 142.187Z" fill="url(#paint3_linear_508_9417)"/>
<path d="M96.7564 134.1C96.7564 135.919 95.2822 137.393 93.4637 137.393C91.6451 137.393 90.1709 135.919 90.1709 134.1L90.1709 115.426C90.1709 113.607 91.6451 112.133 93.4637 112.133C95.2822 112.133 96.7564 113.607 96.7564 115.426L96.7564 134.1Z" fill="url(#paint4_linear_508_9417)"/>
<path d="M94.0623 150.187C94.0623 150.518 93.7943 150.786 93.4636 150.786C93.133 150.786 92.865 150.518 92.865 150.187L92.865 99.5987C92.865 99.268 93.133 99 93.4636 99C93.7943 99 94.0623 99.268 94.0623 99.5987L94.0623 150.187Z" fill="url(#paint5_linear_508_9417)"/>
<path d="M102.757 94.2928C102.757 92.4742 104.231 91 106.05 91C107.868 91 109.342 92.4742 109.342 94.2928V102.674C109.342 104.493 107.868 105.967 106.05 105.967C104.231 105.967 102.757 104.493 102.757 102.674V94.2928Z" fill="url(#paint6_linear_508_9417)"/>
<path d="M105.451 92.4633C105.451 92.1326 105.719 91.8646 106.05 91.8646C106.38 91.8646 106.648 92.1326 106.648 92.4633V131.378C106.648 131.708 106.38 131.976 106.05 131.976C105.719 131.976 105.451 131.708 105.451 131.378V92.4633Z" fill="url(#paint7_linear_508_9417)"/>
<path d="M115.342 81.2928C115.342 79.4742 116.816 78 118.635 78C120.453 78 121.927 79.4742 121.927 81.2928V97.1578C121.927 98.9764 120.453 100.451 118.635 100.451C116.816 100.451 115.342 98.9764 115.342 97.1578V81.2928Z" fill="url(#paint8_linear_508_9417)"/>
<path d="M118.036 79.4624C118.036 79.1317 118.304 78.8637 118.635 78.8637C118.965 78.8637 119.233 79.1317 119.233 79.4624V118.377C119.233 118.707 118.965 118.975 118.635 118.975C118.304 118.975 118.036 118.707 118.036 118.377V79.4624Z" fill="url(#paint9_linear_508_9417)"/>
<path d="M134.513 127.845C134.513 129.664 133.039 131.138 131.22 131.138C129.402 131.138 127.928 129.664 127.928 127.845L127.928 114.674C127.928 112.855 129.402 111.381 131.22 111.381C133.039 111.381 134.513 112.855 134.513 114.674L134.513 127.845Z" fill="url(#paint10_linear_508_9417)"/>
<path d="M131.819 135.628C131.819 135.959 131.551 136.227 131.22 136.227C130.89 136.227 130.622 135.959 130.622 135.628L130.622 103.599C130.622 103.268 130.89 103 131.22 103C131.551 103 131.819 103.268 131.819 103.599L131.819 135.628Z" fill="url(#paint11_linear_508_9417)"/>
<path d="M147.098 110.436C147.098 112.254 145.624 113.729 143.805 113.729C141.987 113.729 140.513 112.254 140.513 110.436L140.513 92.6372C140.513 90.8187 141.987 89.3444 143.805 89.3444C145.624 89.3444 147.098 90.8187 147.098 92.6372L147.098 110.436Z" fill="url(#paint12_linear_508_9417)"/>
<path d="M144.404 119.411C144.404 119.742 144.136 120.01 143.805 120.01C143.475 120.01 143.207 119.742 143.207 119.411L143.207 79.5987C143.207 79.268 143.475 79 143.805 79C144.136 79 144.404 79.268 144.404 79.5987L144.404 119.411Z" fill="url(#paint13_linear_508_9417)"/>
<path d="M159.684 133.1C159.684 134.919 158.21 136.393 156.391 136.393C154.573 136.393 153.099 134.919 153.099 133.1L153.099 114.426C153.099 112.607 154.573 111.133 156.391 111.133C158.21 111.133 159.684 112.607 159.684 114.426L159.684 133.1Z" fill="url(#paint14_linear_508_9417)"/>
<path d="M156.99 149.187C156.99 149.518 156.722 149.786 156.391 149.786C156.061 149.786 155.793 149.518 155.793 149.187L155.793 98.5987C155.793 98.268 156.061 98 156.391 98C156.722 98 156.99 98.268 156.99 98.5987L156.99 149.187Z" fill="url(#paint15_linear_508_9417)"/>
<path d="M172.269 86.1003C172.269 87.9188 170.795 89.393 168.976 89.393C167.158 89.393 165.684 87.9188 165.684 86.1003L165.684 67.4255C165.684 65.607 167.158 64.1328 168.976 64.1328C170.795 64.1328 172.269 65.607 172.269 67.4255L172.269 86.1003Z" fill="url(#paint16_linear_508_9417)"/>
<path d="M169.575 102.187C169.575 102.518 169.307 102.786 168.976 102.786C168.646 102.786 168.378 102.518 168.378 102.187L168.378 51.5987C168.378 51.268 168.646 51 168.976 51C169.307 51 169.575 51.268 169.575 51.5987L169.575 102.187Z" fill="url(#paint17_linear_508_9417)"/>
<path d="M184.855 104.683C184.855 106.501 183.381 107.975 181.562 107.975C179.744 107.975 178.27 106.501 178.27 104.683L178.27 83.6326C178.27 81.8141 179.744 80.3399 181.562 80.3399C183.381 80.3399 184.855 81.8141 184.855 83.6326L184.855 104.683Z" fill="url(#paint18_linear_508_9417)"/>
<path d="M182.161 106.513C182.161 106.844 181.893 107.112 181.562 107.112C181.232 107.112 180.964 106.844 180.964 106.513L180.964 67.5987C180.964 67.268 181.232 67 181.562 67C181.893 67 182.161 67.268 182.161 67.5987L182.161 106.513Z" fill="url(#paint19_linear_508_9417)"/>
<path d="M197.441 83.1003C197.441 84.9188 195.967 86.393 194.148 86.393C192.33 86.393 190.855 84.9188 190.855 83.1003L190.855 64.4255C190.855 62.607 192.33 61.1328 194.148 61.1328C195.967 61.1328 197.441 62.607 197.441 64.4255L197.441 83.1003Z" fill="url(#paint20_linear_508_9417)"/>
<path d="M194.747 99.1873C194.747 99.518 194.479 99.786 194.148 99.786C193.817 99.786 193.549 99.518 193.549 99.1873L193.549 48.5987C193.549 48.268 193.817 48 194.148 48C194.479 48 194.747 48.268 194.747 48.5987L194.747 99.1873Z" fill="url(#paint21_linear_508_9417)"/>
<path d="M210.026 61.5807C210.026 63.3993 208.552 64.8735 206.733 64.8735C204.915 64.8735 203.44 63.3993 203.44 61.5807L203.44 56.5921C203.44 54.7736 204.915 53.2994 206.733 53.2994C208.552 53.2994 210.026 54.7736 210.026 56.5921L210.026 61.5807Z" fill="url(#paint22_linear_508_9417)"/>
<path d="M207.332 70.411C207.332 70.7417 207.064 71.0097 206.733 71.0097C206.402 71.0097 206.134 70.7417 206.134 70.411L206.134 30.5987C206.134 30.268 206.402 30 206.733 30C207.064 30 207.332 30.268 207.332 30.5987L207.332 70.411Z" fill="url(#paint23_linear_508_9417)"/>
<path d="M35.148 37.18C34.788 37.18 34.416 37.156 34.032 37.108C33.66 37.072 33.288 37.024 32.916 36.964C32.556 36.892 32.196 36.808 31.836 36.712C31.488 36.616 31.164 36.514 30.864 36.406L31.332 34.552C31.656 34.66 31.998 34.762 32.358 34.858C32.718 34.942 33.078 35.02 33.438 35.092C33.81 35.152 34.164 35.2 34.5 35.236C34.848 35.26 35.172 35.272 35.472 35.272C36.3 35.272 36.906 35.152 37.29 34.912C37.674 34.672 37.866 34.312 37.866 33.832C37.866 33.568 37.794 33.334 37.65 33.13C37.506 32.926 37.29 32.74 37.002 32.572C36.726 32.392 36.372 32.218 35.94 32.05C35.52 31.882 35.022 31.702 34.446 31.51C33.774 31.258 33.198 30.964 32.718 30.628C32.238 30.28 31.872 29.866 31.62 29.386C31.38 28.906 31.26 28.348 31.26 27.712C31.26 26.932 31.446 26.29 31.818 25.786C32.19 25.27 32.718 24.88 33.402 24.616C34.098 24.352 34.932 24.22 35.904 24.22C36.372 24.22 36.834 24.25 37.29 24.31C37.758 24.358 38.208 24.424 38.64 24.508C39.072 24.592 39.456 24.694 39.792 24.814L39.342 26.686C39.03 26.578 38.682 26.488 38.298 26.416C37.926 26.344 37.542 26.29 37.146 26.254C36.75 26.206 36.366 26.182 35.994 26.182C35.226 26.182 34.656 26.302 34.284 26.542C33.912 26.77 33.726 27.118 33.726 27.586C33.726 27.85 33.786 28.09 33.906 28.306C34.026 28.51 34.206 28.696 34.446 28.864C34.686 29.032 34.992 29.194 35.364 29.35C35.748 29.506 36.198 29.662 36.714 29.818C37.494 30.058 38.154 30.346 38.694 30.682C39.246 31.006 39.66 31.414 39.936 31.906C40.212 32.386 40.35 32.968 40.35 33.652C40.35 34.3 40.224 34.846 39.972 35.29C39.72 35.734 39.36 36.1 38.892 36.388C38.436 36.676 37.89 36.88 37.254 37C36.618 37.132 35.916 37.192 35.148 37.18ZM34.806 38.89V36.928L36.714 36.82V38.89H34.806ZM34.806 24.562V22.528H36.714V24.454L34.806 24.562ZM42.7988 37V35.056H46.4168V27.064L43.0508 28.576L42.5288 26.542L47.6228 24.364H48.8468V35.056H51.9068V37H42.7988ZM53.2937 30.7C53.2937 29.452 53.4137 28.414 53.6537 27.586C53.8937 26.746 54.2417 26.08 54.6977 25.588C55.1537 25.096 55.6937 24.748 56.3177 24.544C56.9417 24.328 57.6377 24.22 58.4057 24.22C59.1857 24.22 59.8877 24.328 60.5117 24.544C61.1477 24.748 61.6877 25.102 62.1317 25.606C62.5757 26.098 62.9177 26.758 63.1577 27.586C63.3977 28.414 63.5177 29.452 63.5177 30.7C63.5177 31.936 63.3917 32.974 63.1397 33.814C62.8877 34.642 62.5337 35.302 62.0777 35.794C61.6337 36.286 61.0997 36.64 60.4757 36.856C59.8517 37.072 59.1617 37.18 58.4057 37.18C57.6377 37.18 56.9417 37.078 56.3177 36.874C55.6937 36.658 55.1537 36.304 54.6977 35.812C54.2537 35.308 53.9057 34.642 53.6537 33.814C53.4137 32.974 53.2937 31.936 53.2937 30.7ZM55.7417 30.772C55.7417 31.708 55.8077 32.476 55.9397 33.076C56.0717 33.664 56.2577 34.12 56.4977 34.444C56.7377 34.756 57.0197 34.978 57.3437 35.11C57.6677 35.23 58.0217 35.29 58.4057 35.29C58.7777 35.29 59.1257 35.23 59.4497 35.11C59.7737 34.978 60.0557 34.756 60.2957 34.444C60.5357 34.12 60.7217 33.664 60.8537 33.076C60.9857 32.476 61.0517 31.708 61.0517 30.772C61.0517 29.8 60.9857 29.008 60.8537 28.396C60.7217 27.784 60.5297 27.31 60.2777 26.974C60.0377 26.638 59.7557 26.41 59.4317 26.29C59.1197 26.17 58.7777 26.11 58.4057 26.11C58.0217 26.11 57.6677 26.17 57.3437 26.29C57.0317 26.41 56.7497 26.638 56.4977 26.974C56.2577 27.31 56.0717 27.784 55.9397 28.396C55.8077 29.008 55.7417 29.8 55.7417 30.772ZM65.0125 35.65L67.2085 35.578C67.2685 35.77 67.3165 35.98 67.3525 36.208C67.4005 36.424 67.4245 36.664 67.4245 36.928C67.4245 37.336 67.3645 37.75 67.2445 38.17C67.1365 38.59 66.9625 38.992 66.7225 39.376C66.4825 39.76 66.1765 40.126 65.8045 40.474L64.0225 40.042C64.4185 39.61 64.7065 39.112 64.8865 38.548C65.0785 37.996 65.1745 37.456 65.1745 36.928C65.1745 36.772 65.1625 36.58 65.1385 36.352C65.1145 36.124 65.0725 35.89 65.0125 35.65ZM68.7533 30.7C68.7533 29.452 68.8733 28.414 69.1133 27.586C69.3533 26.746 69.7013 26.08 70.1573 25.588C70.6133 25.096 71.1533 24.748 71.7773 24.544C72.4013 24.328 73.0973 24.22 73.8653 24.22C74.6453 24.22 75.3473 24.328 75.9713 24.544C76.6073 24.748 77.1473 25.102 77.5913 25.606C78.0353 26.098 78.3773 26.758 78.6173 27.586C78.8573 28.414 78.9773 29.452 78.9773 30.7C78.9773 31.936 78.8513 32.974 78.5993 33.814C78.3473 34.642 77.9933 35.302 77.5373 35.794C77.0933 36.286 76.5593 36.64 75.9353 36.856C75.3113 37.072 74.6213 37.18 73.8653 37.18C73.0973 37.18 72.4013 37.078 71.7773 36.874C71.1533 36.658 70.6133 36.304 70.1573 35.812C69.7133 35.308 69.3653 34.642 69.1133 33.814C68.8733 32.974 68.7533 31.936 68.7533 30.7ZM71.2013 30.772C71.2013 31.708 71.2673 32.476 71.3993 33.076C71.5313 33.664 71.7173 34.12 71.9573 34.444C72.1973 34.756 72.4793 34.978 72.8033 35.11C73.1273 35.23 73.4813 35.29 73.8653 35.29C74.2373 35.29 74.5853 35.23 74.9093 35.11C75.2333 34.978 75.5153 34.756 75.7553 34.444C75.9953 34.12 76.1813 33.664 76.3133 33.076C76.4453 32.476 76.5113 31.708 76.5113 30.772C76.5113 29.8 76.4453 29.008 76.3133 28.396C76.1813 27.784 75.9893 27.31 75.7373 26.974C75.4973 26.638 75.2153 26.41 74.8913 26.29C74.5793 26.17 74.2373 26.11 73.8653 26.11C73.4813 26.11 73.1273 26.17 72.8033 26.29C72.4913 26.41 72.2093 26.638 71.9573 26.974C71.7173 27.31 71.5313 27.784 71.3993 28.396C71.2673 29.008 71.2013 29.8 71.2013 30.772ZM80.1481 30.7C80.1481 29.452 80.2681 28.414 80.5081 27.586C80.7481 26.746 81.0961 26.08 81.5521 25.588C82.0081 25.096 82.5481 24.748 83.1721 24.544C83.7961 24.328 84.4921 24.22 85.2601 24.22C86.0401 24.22 86.7421 24.328 87.3661 24.544C88.0021 24.748 88.5421 25.102 88.9861 25.606C89.4301 26.098 89.7721 26.758 90.0121 27.586C90.2521 28.414 90.3721 29.452 90.3721 30.7C90.3721 31.936 90.2461 32.974 89.9941 33.814C89.7421 34.642 89.3881 35.302 88.9321 35.794C88.4881 36.286 87.9541 36.64 87.3301 36.856C86.7061 37.072 86.0161 37.18 85.2601 37.18C84.4921 37.18 83.7961 37.078 83.1721 36.874C82.5481 36.658 82.0081 36.304 81.5521 35.812C81.1081 35.308 80.7601 34.642 80.5081 33.814C80.2681 32.974 80.1481 31.936 80.1481 30.7ZM82.5961 30.772C82.5961 31.708 82.6621 32.476 82.7941 33.076C82.9261 33.664 83.1121 34.12 83.3521 34.444C83.5921 34.756 83.8741 34.978 84.1981 35.11C84.5221 35.23 84.8761 35.29 85.2601 35.29C85.6321 35.29 85.9801 35.23 86.3041 35.11C86.6281 34.978 86.9101 34.756 87.1501 34.444C87.3901 34.12 87.5761 33.664 87.7081 33.076C87.8401 32.476 87.9061 31.708 87.9061 30.772C87.9061 29.8 87.8401 29.008 87.7081 28.396C87.5761 27.784 87.3841 27.31 87.1321 26.974C86.8921 26.638 86.6101 26.41 86.2861 26.29C85.9741 26.17 85.6321 26.11 85.2601 26.11C84.8761 26.11 84.5221 26.17 84.1981 26.29C83.8861 26.41 83.6041 26.638 83.3521 26.974C83.1121 27.31 82.9261 27.784 82.7941 28.396C82.6621 29.008 82.5961 29.8 82.5961 30.772ZM91.543 30.7C91.543 29.452 91.663 28.414 91.903 27.586C92.143 26.746 92.491 26.08 92.947 25.588C93.403 25.096 93.943 24.748 94.567 24.544C95.191 24.328 95.887 24.22 96.655 24.22C97.435 24.22 98.137 24.328 98.761 24.544C99.397 24.748 99.937 25.102 100.381 25.606C100.825 26.098 101.167 26.758 101.407 27.586C101.647 28.414 101.767 29.452 101.767 30.7C101.767 31.936 101.641 32.974 101.389 33.814C101.137 34.642 100.783 35.302 100.327 35.794C99.883 36.286 99.349 36.64 98.725 36.856C98.101 37.072 97.411 37.18 96.655 37.18C95.887 37.18 95.191 37.078 94.567 36.874C93.943 36.658 93.403 36.304 92.947 35.812C92.503 35.308 92.155 34.642 91.903 33.814C91.663 32.974 91.543 31.936 91.543 30.7ZM93.991 30.772C93.991 31.708 94.057 32.476 94.189 33.076C94.321 33.664 94.507 34.12 94.747 34.444C94.987 34.756 95.269 34.978 95.593 35.11C95.917 35.23 96.271 35.29 96.655 35.29C97.027 35.29 97.375 35.23 97.699 35.11C98.023 34.978 98.305 34.756 98.545 34.444C98.785 34.12 98.971 33.664 99.103 33.076C99.235 32.476 99.301 31.708 99.301 30.772C99.301 29.8 99.235 29.008 99.103 28.396C98.971 27.784 98.779 27.31 98.527 26.974C98.287 26.638 98.005 26.41 97.681 26.29C97.369 26.17 97.027 26.11 96.655 26.11C96.271 26.11 95.917 26.17 95.593 26.29C95.281 26.41 94.999 26.638 94.747 26.974C94.507 27.31 94.321 27.784 94.189 28.396C94.057 29.008 93.991 29.8 93.991 30.772Z" fill="#00AC76"/>
<path d="M30.312 46.296C30.312 45.5867 30.408 45.0133 30.6 44.576C30.7973 44.1387 31.0853 43.8213 31.464 43.624C31.848 43.4213 32.3227 43.32 32.888 43.32C33.0533 43.32 33.2053 43.3253 33.344 43.336C33.4827 43.3413 33.616 43.3547 33.744 43.376C33.872 43.392 33.9947 43.4133 34.112 43.44C34.2347 43.4667 34.3573 43.4987 34.48 43.536L34.304 44.256C34.144 44.2133 33.992 44.1813 33.848 44.16C33.704 44.1333 33.56 44.1147 33.416 44.104C33.272 44.0933 33.1227 44.088 32.968 44.088C32.6747 44.088 32.4187 44.1253 32.2 44.2C31.9813 44.2747 31.8 44.3973 31.656 44.568C31.512 44.7387 31.4027 44.9653 31.328 45.248C31.2587 45.5307 31.224 45.8773 31.224 46.288C31.224 46.6667 31.2587 46.9867 31.328 47.248C31.3973 47.504 31.5013 47.712 31.64 47.872C31.784 48.0267 31.96 48.1413 32.168 48.216C32.3813 48.2853 32.6293 48.32 32.912 48.32C33.1627 48.32 33.424 48.304 33.696 48.272C33.968 48.2347 34.216 48.184 34.44 48.12L34.6 48.832C34.4773 48.8693 34.3467 48.904 34.208 48.936C34.0747 48.968 33.9307 48.9947 33.776 49.016C33.6267 49.0373 33.4693 49.0533 33.304 49.064C33.1387 49.0747 32.9627 49.08 32.776 49.08C32.376 49.08 32.0213 49.032 31.712 48.936C31.408 48.8347 31.152 48.6747 30.944 48.456C30.736 48.2373 30.5787 47.952 30.472 47.6C30.3653 47.2427 30.312 46.808 30.312 46.296ZM35.0004 46.84C35.0004 46.4667 35.0324 46.1413 35.0964 45.864C35.1658 45.5867 35.2751 45.3573 35.4244 45.176C35.5738 44.9893 35.7738 44.848 36.0244 44.752C36.2751 44.656 36.5844 44.608 36.9524 44.608C37.3204 44.608 37.6298 44.656 37.8804 44.752C38.1311 44.848 38.3311 44.9893 38.4804 45.176C38.6298 45.3573 38.7364 45.5867 38.8004 45.864C38.8698 46.1413 38.9044 46.4667 38.9044 46.84C38.9044 47.2187 38.8671 47.5493 38.7924 47.832C38.7231 48.1147 38.6111 48.3493 38.4564 48.536C38.3018 48.7173 38.0991 48.8533 37.8484 48.944C37.6031 49.0347 37.3044 49.08 36.9524 49.08C36.6004 49.08 36.2991 49.0347 36.0484 48.944C35.8031 48.8533 35.6031 48.7173 35.4484 48.536C35.2938 48.3493 35.1791 48.1147 35.1044 47.832C35.0351 47.5493 35.0004 47.2187 35.0004 46.84ZM35.8884 46.84C35.8884 47.2293 35.9231 47.5387 35.9924 47.768C36.0671 47.9973 36.1818 48.1627 36.3364 48.264C36.4964 48.3653 36.7018 48.416 36.9524 48.416C37.2031 48.416 37.4058 48.3653 37.5604 48.264C37.7151 48.1627 37.8271 47.9973 37.8964 47.768C37.9711 47.5387 38.0084 47.2293 38.0084 46.84C38.0084 46.4507 37.9764 46.144 37.9124 45.92C37.8484 45.6907 37.7364 45.528 37.5764 45.432C37.4218 45.3307 37.2138 45.28 36.9524 45.28C36.6858 45.28 36.4751 45.3307 36.3204 45.432C36.1658 45.528 36.0538 45.6907 35.9844 45.92C35.9204 46.144 35.8884 46.4507 35.8884 46.84ZM39.7177 49V44.688H40.5017V45.064C40.6777 44.968 40.8457 44.888 41.0057 44.824C41.1657 44.7547 41.3284 44.7013 41.4937 44.664C41.6591 44.6267 41.8324 44.608 42.0138 44.608C42.2804 44.608 42.5017 44.656 42.6778 44.752C42.8591 44.848 42.9951 44.984 43.0858 45.16C43.1817 45.336 43.2297 45.552 43.2297 45.808V49H42.3577V46.072C42.3577 45.832 42.2991 45.6507 42.1818 45.528C42.0644 45.4053 41.8884 45.344 41.6537 45.344C41.5311 45.344 41.4111 45.3573 41.2938 45.384C41.1764 45.4107 41.0591 45.448 40.9417 45.496C40.8244 45.5387 40.7044 45.592 40.5817 45.656V49H39.7177ZM45.7394 49.08C45.4674 49.08 45.2408 49.0293 45.0594 48.928C44.8781 48.8267 44.7421 48.672 44.6514 48.464C44.5661 48.2507 44.5234 47.984 44.5234 47.664V45.336H43.8194V44.76L44.5234 44.688L44.6354 43.704H45.3874V44.688H46.7154V45.336H45.3874V47.6C45.3874 47.8613 45.4381 48.0507 45.5394 48.168C45.6408 48.2853 45.8034 48.344 46.0274 48.344C46.1394 48.344 46.2541 48.3333 46.3714 48.312C46.4941 48.2853 46.6194 48.256 46.7474 48.224L46.8674 48.888C46.6648 48.9573 46.4674 49.0053 46.2754 49.032C46.0834 49.064 45.9048 49.08 45.7394 49.08ZM47.1844 47.92C47.1844 47.6587 47.2351 47.4453 47.3364 47.28C47.4431 47.1093 47.6031 46.976 47.8164 46.88C48.0298 46.7787 48.2964 46.7013 48.6164 46.648C48.9364 46.5893 49.3071 46.544 49.7284 46.512V46.016C49.7284 45.7973 49.6511 45.632 49.4964 45.52C49.3471 45.408 49.1258 45.352 48.8324 45.352C48.7258 45.352 48.6031 45.3573 48.4644 45.368C48.3311 45.3787 48.1898 45.3973 48.0404 45.424C47.8911 45.4507 47.7391 45.488 47.5844 45.536L47.4404 44.84C47.6698 44.7653 47.9124 44.7093 48.1684 44.672C48.4244 44.6293 48.6644 44.608 48.8884 44.608C49.2778 44.608 49.5978 44.6613 49.8484 44.768C50.1044 44.8693 50.2938 45.024 50.4164 45.232C50.5444 45.44 50.6084 45.6987 50.6084 46.008V47.912C50.6084 48.072 50.6324 48.1813 50.6804 48.24C50.7284 48.2933 50.7898 48.32 50.8644 48.32C50.8911 48.32 50.9231 48.3173 50.9604 48.312C50.9978 48.3067 51.0351 48.296 51.0724 48.28L51.1524 48.92C51.0671 48.968 50.9738 49.0053 50.8724 49.032C50.7711 49.064 50.6618 49.08 50.5444 49.08C50.3418 49.08 50.1791 49.0347 50.0564 48.944C49.9391 48.848 49.8591 48.704 49.8164 48.512C49.6831 48.6133 49.5391 48.7093 49.3844 48.8C49.2351 48.8853 49.0698 48.952 48.8884 49C48.7124 49.0533 48.5178 49.08 48.3044 49.08C48.1338 49.08 47.9791 49.0533 47.8404 49C47.7071 48.952 47.5898 48.88 47.4884 48.784C47.3924 48.6827 47.3178 48.56 47.2644 48.416C47.2111 48.272 47.1844 48.1067 47.1844 47.92ZM48.0644 47.856C48.0644 48.064 48.1151 48.2187 48.2164 48.32C48.3178 48.4213 48.4538 48.472 48.6244 48.472C48.7524 48.472 48.8831 48.4533 49.0164 48.416C49.1498 48.3733 49.2778 48.3173 49.4004 48.248C49.5284 48.1733 49.6378 48.0853 49.7284 47.984V47.008C49.4724 47.0293 49.2431 47.056 49.0404 47.088C48.8378 47.12 48.6618 47.168 48.5124 47.232C48.3684 47.2907 48.2564 47.3707 48.1764 47.472C48.1018 47.5733 48.0644 47.7013 48.0644 47.856ZM56.672 49.008L56.568 48.64C56.3333 48.7893 56.1067 48.9013 55.888 48.976C55.6693 49.0453 55.4427 49.08 55.208 49.08C54.744 49.08 54.384 48.896 54.128 48.528C53.8773 48.16 53.752 47.6293 53.752 46.936C53.752 46.4027 53.8213 45.9653 53.96 45.624C54.104 45.2827 54.3227 45.0293 54.616 44.864C54.9147 44.6933 55.2853 44.608 55.728 44.608C55.856 44.608 55.992 44.616 56.136 44.632C56.28 44.6427 56.4213 44.6613 56.56 44.688V43.08H57.432V49.008H56.672ZM56.56 48.008V45.36C56.4107 45.3227 56.272 45.296 56.144 45.28C56.0213 45.264 55.9067 45.256 55.8 45.256C55.5387 45.256 55.3227 45.3093 55.152 45.416C54.9813 45.5173 54.856 45.6853 54.776 45.92C54.696 46.1547 54.656 46.4693 54.656 46.864C54.656 47.1947 54.6907 47.472 54.76 47.696C54.8293 47.9147 54.928 48.08 55.056 48.192C55.1893 48.2987 55.3493 48.352 55.536 48.352C55.6427 48.352 55.7493 48.3413 55.856 48.32C55.968 48.2933 56.08 48.256 56.192 48.208C56.304 48.1547 56.4267 48.088 56.56 48.008ZM60.1822 49.08C59.8676 49.08 59.5902 49.04 59.3502 48.96C59.1156 48.8747 58.9129 48.7467 58.7422 48.576C58.5769 48.4053 58.4516 48.1867 58.3662 47.92C58.2809 47.648 58.2382 47.328 58.2382 46.96C58.2382 46.528 58.2889 46.1627 58.3902 45.864C58.4969 45.56 58.6409 45.3173 58.8222 45.136C59.0089 44.9493 59.2249 44.816 59.4702 44.736C59.7209 44.6507 59.9929 44.608 60.2862 44.608C60.8622 44.608 61.2862 44.7573 61.5582 45.056C61.8356 45.3547 61.9742 45.84 61.9742 46.512C61.9742 46.5493 61.9716 46.6027 61.9662 46.672C61.9662 46.736 61.9662 46.8 61.9662 46.864C61.8436 46.8747 61.6862 46.888 61.4942 46.904C61.3076 46.92 61.0916 46.936 60.8462 46.952C60.6009 46.968 60.3342 46.9813 60.0462 46.992C59.7582 47.0027 59.4569 47.0107 59.1422 47.016C59.1369 47.0373 59.1342 47.0613 59.1342 47.088C59.1342 47.1093 59.1342 47.1333 59.1342 47.16C59.1342 47.4533 59.1796 47.6907 59.2702 47.872C59.3609 48.048 59.4942 48.1787 59.6702 48.264C59.8462 48.344 60.0676 48.384 60.3342 48.384C60.4942 48.384 60.6596 48.376 60.8302 48.36C61.0062 48.3387 61.1769 48.3147 61.3422 48.288C61.5076 48.256 61.6649 48.2213 61.8142 48.184L61.9262 48.832C61.7662 48.88 61.5929 48.9253 61.4062 48.968C61.2249 49.0053 61.0329 49.032 60.8302 49.048C60.6276 49.0693 60.4116 49.08 60.1822 49.08ZM59.1502 46.432C59.3742 46.432 59.5876 46.4293 59.7902 46.424C59.9982 46.4133 60.1902 46.4027 60.3662 46.392C60.5422 46.3813 60.6916 46.3733 60.8142 46.368C60.9422 46.3573 61.0382 46.3493 61.1022 46.344C61.0969 46.0773 61.0622 45.864 60.9982 45.704C60.9342 45.544 60.8382 45.4293 60.7102 45.36C60.5822 45.2853 60.4196 45.248 60.2222 45.248C60.0996 45.248 59.9796 45.2667 59.8622 45.304C59.7449 45.336 59.6356 45.3973 59.5342 45.488C59.4382 45.5733 59.3556 45.6933 59.2862 45.848C59.2169 45.9973 59.1716 46.192 59.1502 46.432ZM65.0043 50.68V44.664H65.7883L65.8123 45.08C66.0576 44.92 66.295 44.8027 66.5243 44.728C66.7536 44.648 66.9856 44.608 67.2203 44.608C67.6896 44.608 68.0496 44.7947 68.3003 45.168C68.551 45.536 68.6763 46.064 68.6763 46.752C68.6763 47.28 68.6043 47.7173 68.4603 48.064C68.3163 48.4107 68.0976 48.6667 67.8043 48.832C67.511 48.9973 67.1403 49.08 66.6923 49.08C66.5696 49.08 66.439 49.072 66.3003 49.056C66.167 49.04 66.023 49.0187 65.8683 48.992V50.68H65.0043ZM66.6283 48.44C66.895 48.44 67.111 48.3893 67.2763 48.288C67.447 48.1813 67.5723 48.0107 67.6523 47.776C67.7376 47.536 67.7803 47.2213 67.7803 46.832C67.7803 46.4907 67.7456 46.2107 67.6763 45.992C67.607 45.768 67.5056 45.6027 67.3723 45.496C67.2443 45.384 67.0843 45.328 66.8923 45.328C66.7856 45.328 66.6763 45.3413 66.5643 45.368C66.4576 45.3893 66.3483 45.4267 66.2363 45.48C66.1243 45.528 66.0016 45.5947 65.8683 45.68V48.336C66.0176 48.368 66.1536 48.3947 66.2763 48.416C66.399 48.432 66.5163 48.44 66.6283 48.44ZM70.2746 44.688V45.216C70.4292 45.072 70.5732 44.9573 70.7066 44.872C70.8452 44.7813 70.9839 44.7147 71.1226 44.672C71.2612 44.6293 71.4079 44.608 71.5626 44.608C71.6639 44.608 71.7652 44.616 71.8666 44.632C71.9732 44.648 72.0719 44.6693 72.1626 44.696L72.0186 45.488C71.9226 45.4613 71.8239 45.4427 71.7226 45.432C71.6266 45.416 71.5332 45.408 71.4426 45.408C71.2719 45.408 71.0959 45.4427 70.9146 45.512C70.7386 45.5813 70.5492 45.6987 70.3466 45.864V49H69.4906V44.688H70.2746ZM72.2523 47.92C72.2523 47.6587 72.3029 47.4453 72.4043 47.28C72.5109 47.1093 72.6709 46.976 72.8843 46.88C73.0976 46.7787 73.3643 46.7013 73.6843 46.648C74.0043 46.5893 74.3749 46.544 74.7963 46.512V46.016C74.7963 45.7973 74.7189 45.632 74.5643 45.52C74.4149 45.408 74.1936 45.352 73.9003 45.352C73.7936 45.352 73.6709 45.3573 73.5323 45.368C73.3989 45.3787 73.2576 45.3973 73.1083 45.424C72.9589 45.4507 72.8069 45.488 72.6523 45.536L72.5083 44.84C72.7376 44.7653 72.9803 44.7093 73.2363 44.672C73.4923 44.6293 73.7323 44.608 73.9563 44.608C74.3456 44.608 74.6656 44.6613 74.9163 44.768C75.1723 44.8693 75.3616 45.024 75.4843 45.232C75.6123 45.44 75.6763 45.6987 75.6763 46.008V47.912C75.6763 48.072 75.7003 48.1813 75.7483 48.24C75.7963 48.2933 75.8576 48.32 75.9323 48.32C75.9589 48.32 75.9909 48.3173 76.0283 48.312C76.0656 48.3067 76.1029 48.296 76.1403 48.28L76.2203 48.92C76.1349 48.968 76.0416 49.0053 75.9403 49.032C75.8389 49.064 75.7296 49.08 75.6123 49.08C75.4096 49.08 75.2469 49.0347 75.1243 48.944C75.0069 48.848 74.9269 48.704 74.8843 48.512C74.7509 48.6133 74.6069 48.7093 74.4523 48.8C74.3029 48.8853 74.1376 48.952 73.9563 49C73.7803 49.0533 73.5856 49.08 73.3723 49.08C73.2016 49.08 73.0469 49.0533 72.9083 49C72.7749 48.952 72.6576 48.88 72.5563 48.784C72.4603 48.6827 72.3856 48.56 72.3323 48.416C72.2789 48.272 72.2523 48.1067 72.2523 47.92ZM73.1323 47.856C73.1323 48.064 73.1829 48.2187 73.2843 48.32C73.3856 48.4213 73.5216 48.472 73.6923 48.472C73.8203 48.472 73.9509 48.4533 74.0843 48.416C74.2176 48.3733 74.3456 48.3173 74.4683 48.248C74.5963 48.1733 74.7056 48.0853 74.7963 47.984V47.008C74.5403 47.0293 74.3109 47.056 74.1083 47.088C73.9056 47.12 73.7296 47.168 73.5803 47.232C73.4363 47.2907 73.3243 47.3707 73.2443 47.472C73.1696 47.5733 73.1323 47.7013 73.1323 47.856ZM73.7163 44.24L74.5883 42.688H75.4523L74.3963 44.24H73.7163ZM78.186 49.08C77.914 49.08 77.6873 49.0293 77.506 48.928C77.3247 48.8267 77.1887 48.672 77.098 48.464C77.0127 48.2507 76.97 47.984 76.97 47.664V45.336H76.266V44.76L76.97 44.688L77.082 43.704H77.834V44.688H79.162V45.336H77.834V47.6C77.834 47.8613 77.8847 48.0507 77.986 48.168C78.0873 48.2853 78.25 48.344 78.474 48.344C78.586 48.344 78.7007 48.3333 78.818 48.312C78.9407 48.2853 79.066 48.256 79.194 48.224L79.314 48.888C79.1113 48.9573 78.914 49.0053 78.722 49.032C78.53 49.064 78.3513 49.08 78.186 49.08ZM80.3579 43.952C80.1712 43.952 80.0379 43.9173 79.9579 43.848C79.8779 43.7787 79.8379 43.6613 79.8379 43.496C79.8379 43.336 79.8779 43.2213 79.9579 43.152C80.0379 43.0773 80.1712 43.04 80.3579 43.04C80.5445 43.04 80.6779 43.0773 80.7579 43.152C80.8379 43.2213 80.8779 43.336 80.8779 43.496C80.8779 43.6613 80.8379 43.7787 80.7579 43.848C80.6779 43.9173 80.5445 43.952 80.3579 43.952ZM79.9259 49V44.688H80.7899V49H79.9259ZM81.5951 46.912C81.5951 46.3947 81.6751 45.968 81.8351 45.632C81.9951 45.2907 82.2298 45.0347 82.5391 44.864C82.8538 44.6933 83.2351 44.608 83.6831 44.608C83.8325 44.608 83.9845 44.616 84.1391 44.632C84.2991 44.6427 84.4538 44.6613 84.6031 44.688C84.7525 44.7093 84.8885 44.7387 85.0111 44.776L84.8831 45.496C84.7658 45.4693 84.6431 45.448 84.5151 45.432C84.3871 45.4107 84.2591 45.3947 84.1311 45.384C84.0085 45.3733 83.8885 45.368 83.7711 45.368C83.4938 45.368 83.2591 45.424 83.0671 45.536C82.8805 45.648 82.7365 45.816 82.6351 46.04C82.5391 46.264 82.4911 46.552 82.4911 46.904C82.4911 47.224 82.5418 47.4907 82.6431 47.704C82.7445 47.912 82.8911 48.0693 83.0831 48.176C83.2751 48.2773 83.5071 48.328 83.7791 48.328C83.9018 48.328 84.0271 48.3227 84.1551 48.312C84.2885 48.3013 84.4218 48.2853 84.5551 48.264C84.6938 48.2427 84.8271 48.2187 84.9551 48.192L85.0831 48.888C84.8805 48.9413 84.6431 48.9867 84.3711 49.024C84.1045 49.0613 83.8458 49.08 83.5951 49.08C82.9338 49.08 82.4351 48.904 82.0991 48.552C81.7631 48.1947 81.5951 47.648 81.5951 46.912ZM85.5176 47.92C85.5176 47.6587 85.5682 47.4453 85.6696 47.28C85.7762 47.1093 85.9362 46.976 86.1496 46.88C86.3629 46.7787 86.6296 46.7013 86.9496 46.648C87.2696 46.5893 87.6402 46.544 88.0616 46.512V46.016C88.0616 45.7973 87.9842 45.632 87.8296 45.52C87.6802 45.408 87.4589 45.352 87.1656 45.352C87.0589 45.352 86.9362 45.3573 86.7976 45.368C86.6642 45.3787 86.5229 45.3973 86.3736 45.424C86.2242 45.4507 86.0722 45.488 85.9176 45.536L85.7736 44.84C86.0029 44.7653 86.2456 44.7093 86.5016 44.672C86.7576 44.6293 86.9976 44.608 87.2216 44.608C87.6109 44.608 87.9309 44.6613 88.1816 44.768C88.4376 44.8693 88.6269 45.024 88.7496 45.232C88.8776 45.44 88.9416 45.6987 88.9416 46.008V47.912C88.9416 48.072 88.9656 48.1813 89.0136 48.24C89.0616 48.2933 89.1229 48.32 89.1976 48.32C89.2242 48.32 89.2562 48.3173 89.2936 48.312C89.3309 48.3067 89.3682 48.296 89.4056 48.28L89.4856 48.92C89.4002 48.968 89.3069 49.0053 89.2056 49.032C89.1042 49.064 88.9949 49.08 88.8776 49.08C88.6749 49.08 88.5122 49.0347 88.3896 48.944C88.2722 48.848 88.1922 48.704 88.1496 48.512C88.0162 48.6133 87.8722 48.7093 87.7176 48.8C87.5682 48.8853 87.4029 48.952 87.2216 49C87.0456 49.0533 86.8509 49.08 86.6376 49.08C86.4669 49.08 86.3122 49.0533 86.1736 49C86.0402 48.952 85.9229 48.88 85.8216 48.784C85.7256 48.6827 85.6509 48.56 85.5976 48.416C85.5442 48.272 85.5176 48.1067 85.5176 47.92ZM86.3976 47.856C86.3976 48.064 86.4482 48.2187 86.5496 48.32C86.6509 48.4213 86.7869 48.472 86.9576 48.472C87.0856 48.472 87.2162 48.4533 87.3496 48.416C87.4829 48.3733 87.6109 48.3173 87.7336 48.248C87.8616 48.1733 87.9709 48.0853 88.0616 47.984V47.008C87.8056 47.0293 87.5762 47.056 87.3736 47.088C87.1709 47.12 86.9949 47.168 86.8456 47.232C86.7016 47.2907 86.5896 47.3707 86.5096 47.472C86.4349 47.5733 86.3976 47.7013 86.3976 47.856Z" fill="#1A1A19"/>
<path fill-rule="evenodd" clip-rule="evenodd" d="M201.923 172.873V175.025C201.923 177.9 204.371 178.907 205 179.117C205.629 178.907 208.077 177.9 208.077 175.025V172.873H201.923ZM201.226 172.222C201.372 172.081 201.572 172 201.783 172H208.217C208.428 172 208.628 172.081 208.774 172.222C208.92 172.363 209 172.552 209 172.747V175.025C209 178.579 205.871 179.76 205.254 179.958C205.09 180.014 204.91 180.014 204.746 179.958C204.129 179.76 201 178.579 201 175.025V172.747C201 172.552 201.08 172.363 201.226 172.222Z" fill="#00AC76"/>
<path fill-rule="evenodd" clip-rule="evenodd" d="M201.154 175.491C201.154 175.25 201.356 175.055 201.606 175.055H208.394C208.644 175.055 208.846 175.25 208.846 175.491C208.846 175.732 208.644 175.927 208.394 175.927H201.606C201.356 175.927 201.154 175.732 201.154 175.491Z" fill="#00AC76"/>
<path fill-rule="evenodd" clip-rule="evenodd" d="M205 172C205.255 172 205.462 172.195 205.462 172.436V179.564C205.462 179.805 205.255 180 205 180C204.745 180 204.538 179.805 204.538 179.564V172.436C204.538 172.195 204.745 172 205 172Z" fill="#00AC76"/>
<path d="M216.36 172.584L216.152 173.44C216.045 173.403 215.925 173.371 215.792 173.344C215.659 173.312 215.52 173.285 215.376 173.264C215.237 173.243 215.096 173.227 214.952 173.216C214.808 173.205 214.672 173.2 214.544 173.2C214.192 173.2 213.915 173.256 213.712 173.368C213.515 173.475 213.416 173.637 213.416 173.856C213.416 173.963 213.443 174.059 213.496 174.144C213.555 174.224 213.643 174.301 213.76 174.376C213.877 174.451 214.032 174.523 214.224 174.592C214.421 174.661 214.656 174.733 214.928 174.808C215.216 174.888 215.467 174.981 215.68 175.088C215.893 175.189 216.069 175.304 216.208 175.432C216.352 175.56 216.456 175.709 216.52 175.88C216.589 176.045 216.624 176.237 216.624 176.456C216.624 176.803 216.531 177.096 216.344 177.336C216.163 177.576 215.893 177.76 215.536 177.888C215.184 178.016 214.752 178.08 214.24 178.08C214.075 178.08 213.899 178.072 213.712 178.056C213.525 178.04 213.336 178.019 213.144 177.992C212.957 177.96 212.776 177.923 212.6 177.88C212.424 177.837 212.267 177.789 212.128 177.736L212.344 176.888C212.488 176.936 212.643 176.981 212.808 177.024C212.973 177.061 213.141 177.096 213.312 177.128C213.483 177.155 213.653 177.176 213.824 177.192C213.995 177.208 214.155 177.216 214.304 177.216C214.565 177.216 214.784 177.192 214.96 177.144C215.136 177.091 215.267 177.013 215.352 176.912C215.443 176.811 215.488 176.688 215.488 176.544C215.488 176.432 215.453 176.333 215.384 176.248C215.315 176.163 215.211 176.088 215.072 176.024C214.933 175.955 214.755 175.883 214.536 175.808C214.323 175.733 214.072 175.651 213.784 175.56C213.528 175.469 213.304 175.373 213.112 175.272C212.925 175.171 212.771 175.056 212.648 174.928C212.525 174.795 212.432 174.645 212.368 174.48C212.309 174.315 212.28 174.128 212.28 173.92C212.28 173.685 212.325 173.472 212.416 173.28C212.507 173.083 212.643 172.912 212.824 172.768C213.011 172.624 213.245 172.515 213.528 172.44C213.816 172.36 214.152 172.32 214.536 172.32C214.765 172.32 214.992 172.333 215.216 172.36C215.445 172.381 215.659 172.413 215.856 172.456C216.059 172.493 216.227 172.536 216.36 172.584ZM219.157 178.08C218.831 178.08 218.543 178.04 218.293 177.96C218.042 177.875 217.829 177.747 217.653 177.576C217.482 177.4 217.351 177.179 217.261 176.912C217.175 176.64 217.133 176.317 217.133 175.944C217.133 175.512 217.183 175.147 217.285 174.848C217.391 174.544 217.541 174.301 217.733 174.12C217.925 173.933 218.149 173.8 218.405 173.72C218.661 173.635 218.941 173.592 219.245 173.592C219.847 173.592 220.29 173.744 220.573 174.048C220.861 174.352 221.005 174.848 221.005 175.536C221.005 175.584 221.005 175.645 221.005 175.72C221.005 175.795 220.999 175.867 220.989 175.936C220.866 175.947 220.709 175.96 220.517 175.976C220.325 175.992 220.109 176.008 219.869 176.024C219.629 176.04 219.37 176.053 219.093 176.064C218.815 176.075 218.53 176.085 218.237 176.096C218.231 176.112 218.229 176.131 218.229 176.152C218.229 176.173 218.229 176.195 218.229 176.216C218.229 176.461 218.269 176.659 218.349 176.808C218.434 176.952 218.559 177.061 218.725 177.136C218.89 177.205 219.098 177.24 219.349 177.24C219.509 177.24 219.671 177.232 219.837 177.216C220.007 177.195 220.175 177.171 220.341 177.144C220.511 177.112 220.677 177.077 220.837 177.04L220.965 177.824C220.794 177.877 220.613 177.925 220.421 177.968C220.229 178.005 220.029 178.032 219.821 178.048C219.613 178.069 219.391 178.08 219.157 178.08ZM218.245 175.408C218.431 175.408 218.61 175.405 218.781 175.4C218.957 175.389 219.122 175.381 219.277 175.376C219.431 175.365 219.565 175.357 219.677 175.352C219.789 175.341 219.877 175.333 219.941 175.328C219.935 175.093 219.903 174.904 219.845 174.76C219.791 174.616 219.706 174.512 219.589 174.448C219.477 174.384 219.335 174.352 219.165 174.352C219.058 174.352 218.954 174.368 218.853 174.4C218.751 174.432 218.658 174.488 218.573 174.568C218.487 174.648 218.415 174.755 218.357 174.888C218.303 175.021 218.266 175.195 218.245 175.408ZM221.748 178V173.672H222.716V174.048C222.871 173.947 223.023 173.864 223.172 173.8C223.321 173.736 223.471 173.688 223.62 173.656C223.775 173.619 223.929 173.6 224.084 173.6C224.249 173.6 224.393 173.619 224.516 173.656C224.639 173.693 224.743 173.749 224.828 173.824C224.919 173.893 224.993 173.981 225.052 174.088C225.217 173.987 225.377 173.899 225.532 173.824C225.687 173.749 225.847 173.693 226.012 173.656C226.177 173.613 226.353 173.592 226.54 173.592C226.7 173.592 226.841 173.613 226.964 173.656C227.092 173.693 227.201 173.749 227.292 173.824C227.388 173.899 227.465 173.987 227.524 174.088C227.583 174.189 227.625 174.301 227.652 174.424C227.679 174.547 227.692 174.677 227.692 174.816V178H226.628V175.152C226.628 175.067 226.617 174.984 226.596 174.904C226.58 174.824 226.551 174.755 226.508 174.696C226.471 174.632 226.415 174.584 226.34 174.552C226.265 174.515 226.169 174.496 226.052 174.496C225.951 174.496 225.849 174.509 225.748 174.536C225.652 174.563 225.559 174.595 225.468 174.632C225.383 174.669 225.3 174.712 225.22 174.76C225.236 174.813 225.247 174.867 225.252 174.92C225.257 174.973 225.26 175.024 225.26 175.072V178H224.196V175.152C224.196 175.072 224.185 174.992 224.164 174.912C224.148 174.832 224.119 174.763 224.076 174.704C224.033 174.64 223.975 174.592 223.9 174.56C223.825 174.523 223.732 174.504 223.62 174.504C223.524 174.504 223.431 174.515 223.34 174.536C223.255 174.557 223.167 174.587 223.076 174.624C222.991 174.661 222.903 174.707 222.812 174.76V178H221.748ZM231.782 173.672V174.184C231.931 174.045 232.07 173.933 232.198 173.848C232.331 173.757 232.465 173.693 232.598 173.656C232.737 173.613 232.881 173.592 233.03 173.592C233.126 173.592 233.222 173.6 233.318 173.616C233.419 173.627 233.518 173.648 233.614 173.68L233.446 174.64C233.35 174.619 233.251 174.603 233.15 174.592C233.054 174.576 232.963 174.568 232.878 174.568C232.723 174.568 232.563 174.597 232.398 174.656C232.233 174.715 232.059 174.816 231.878 174.96V178H230.814V173.672H231.782ZM234.68 173.056C234.456 173.056 234.293 173.013 234.192 172.928C234.096 172.837 234.048 172.699 234.048 172.512C234.048 172.32 234.096 172.181 234.192 172.096C234.293 172.011 234.456 171.968 234.68 171.968C234.904 171.968 235.064 172.011 235.16 172.096C235.261 172.181 235.312 172.32 235.312 172.512C235.312 172.699 235.261 172.837 235.16 172.928C235.064 173.013 234.904 173.056 234.68 173.056ZM234.144 178V173.672H235.208V178H234.144ZM235.875 177.832L236.003 177.048C236.099 177.08 236.205 177.112 236.323 177.144C236.44 177.171 236.563 177.195 236.691 177.216C236.824 177.237 236.955 177.253 237.083 177.264C237.211 177.275 237.331 177.28 237.443 177.28C237.699 177.28 237.885 177.243 238.003 177.168C238.12 177.088 238.179 176.971 238.179 176.816C238.179 176.731 238.155 176.659 238.107 176.6C238.064 176.536 237.995 176.483 237.899 176.44C237.808 176.392 237.693 176.349 237.555 176.312C237.421 176.269 237.267 176.227 237.091 176.184C236.904 176.141 236.741 176.085 236.603 176.016C236.464 175.941 236.344 175.853 236.243 175.752C236.147 175.651 236.075 175.533 236.027 175.4C235.984 175.267 235.963 175.115 235.963 174.944C235.963 174.501 236.107 174.165 236.395 173.936C236.683 173.707 237.109 173.592 237.675 173.592C237.851 173.592 238.016 173.603 238.171 173.624C238.325 173.64 238.472 173.664 238.611 173.696C238.755 173.723 238.885 173.757 239.003 173.8L238.867 174.6C238.749 174.563 238.632 174.531 238.515 174.504C238.397 174.477 238.269 174.456 238.131 174.44C237.997 174.424 237.845 174.416 237.675 174.416C237.445 174.416 237.272 174.453 237.155 174.528C237.037 174.597 236.979 174.704 236.979 174.848C236.979 174.933 237 175.005 237.043 175.064C237.085 175.117 237.147 175.163 237.227 175.2C237.307 175.237 237.405 175.272 237.523 175.304C237.64 175.336 237.771 175.368 237.915 175.4C238.112 175.448 238.291 175.507 238.451 175.576C238.611 175.64 238.747 175.72 238.859 175.816C238.976 175.912 239.067 176.035 239.131 176.184C239.2 176.328 239.235 176.504 239.235 176.712C239.235 176.909 239.203 177.085 239.139 177.24C239.08 177.389 238.995 177.517 238.883 177.624C238.771 177.731 238.64 177.819 238.491 177.888C238.341 177.952 238.176 178 237.995 178.032C237.813 178.064 237.624 178.08 237.427 178.08C237.235 178.08 237.051 178.069 236.875 178.048C236.699 178.032 236.525 178.005 236.355 177.968C236.189 177.931 236.029 177.885 235.875 177.832ZM239.706 175.896C239.706 175.384 239.786 174.957 239.946 174.616C240.112 174.275 240.357 174.019 240.682 173.848C241.008 173.677 241.402 173.592 241.866 173.592C242.026 173.592 242.186 173.6 242.346 173.616C242.512 173.627 242.672 173.645 242.826 173.672C242.981 173.693 243.12 173.723 243.242 173.76L243.098 174.648C242.976 174.621 242.85 174.6 242.722 174.584C242.594 174.563 242.466 174.547 242.338 174.536C242.216 174.525 242.096 174.52 241.978 174.52C241.722 174.52 241.506 174.571 241.33 174.672C241.16 174.768 241.029 174.917 240.938 175.12C240.848 175.317 240.802 175.571 240.802 175.88C240.802 176.168 240.848 176.408 240.938 176.6C241.034 176.787 241.17 176.928 241.346 177.024C241.528 177.115 241.744 177.16 241.994 177.16C242.117 177.16 242.242 177.157 242.37 177.152C242.504 177.141 242.637 177.125 242.77 177.104C242.904 177.083 243.034 177.059 243.162 177.032L243.322 177.88C243.109 177.939 242.861 177.987 242.578 178.024C242.301 178.061 242.032 178.08 241.77 178.08C241.082 178.08 240.565 177.904 240.218 177.552C239.877 177.195 239.706 176.643 239.706 175.896ZM243.724 175.832C243.724 175.464 243.756 175.141 243.82 174.864C243.889 174.587 243.999 174.355 244.148 174.168C244.303 173.981 244.511 173.84 244.772 173.744C245.033 173.643 245.356 173.592 245.74 173.592C246.129 173.592 246.452 173.643 246.708 173.744C246.969 173.84 247.177 173.981 247.332 174.168C247.487 174.355 247.596 174.587 247.66 174.864C247.729 175.141 247.764 175.464 247.764 175.832C247.764 176.2 247.727 176.525 247.652 176.808C247.583 177.091 247.468 177.325 247.308 177.512C247.148 177.699 246.94 177.84 246.684 177.936C246.428 178.032 246.113 178.08 245.74 178.08C245.372 178.08 245.057 178.032 244.796 177.936C244.54 177.84 244.332 177.699 244.172 177.512C244.017 177.325 243.903 177.091 243.828 176.808C243.759 176.525 243.724 176.2 243.724 175.832ZM244.812 175.832C244.812 176.189 244.844 176.475 244.908 176.688C244.972 176.896 245.073 177.045 245.212 177.136C245.351 177.227 245.527 177.272 245.74 177.272C245.964 177.272 246.143 177.227 246.276 177.136C246.415 177.045 246.513 176.896 246.572 176.688C246.636 176.475 246.668 176.189 246.668 175.832C246.668 175.475 246.639 175.192 246.58 174.984C246.527 174.776 246.431 174.627 246.292 174.536C246.159 174.445 245.975 174.4 245.74 174.4C245.511 174.4 245.327 174.445 245.188 174.536C245.055 174.627 244.959 174.776 244.9 174.984C244.841 175.192 244.812 175.475 244.812 175.832ZM248.216 177.832L248.344 177.048C248.44 177.08 248.547 177.112 248.664 177.144C248.781 177.171 248.904 177.195 249.032 177.216C249.165 177.237 249.296 177.253 249.424 177.264C249.552 177.275 249.672 177.28 249.784 177.28C250.04 177.28 250.227 177.243 250.344 177.168C250.461 177.088 250.52 176.971 250.52 176.816C250.52 176.731 250.496 176.659 250.448 176.6C250.405 176.536 250.336 176.483 250.24 176.44C250.149 176.392 250.035 176.349 249.896 176.312C249.763 176.269 249.608 176.227 249.432 176.184C249.245 176.141 249.083 176.085 248.944 176.016C248.805 175.941 248.685 175.853 248.584 175.752C248.488 175.651 248.416 175.533 248.368 175.4C248.325 175.267 248.304 175.115 248.304 174.944C248.304 174.501 248.448 174.165 248.736 173.936C249.024 173.707 249.451 173.592 250.016 173.592C250.192 173.592 250.357 173.603 250.512 173.624C250.667 173.64 250.813 173.664 250.952 173.696C251.096 173.723 251.227 173.757 251.344 173.8L251.208 174.6C251.091 174.563 250.973 174.531 250.856 174.504C250.739 174.477 250.611 174.456 250.472 174.44C250.339 174.424 250.187 174.416 250.016 174.416C249.787 174.416 249.613 174.453 249.496 174.528C249.379 174.597 249.32 174.704 249.32 174.848C249.32 174.933 249.341 175.005 249.384 175.064C249.427 175.117 249.488 175.163 249.568 175.2C249.648 175.237 249.747 175.272 249.864 175.304C249.981 175.336 250.112 175.368 250.256 175.4C250.453 175.448 250.632 175.507 250.792 175.576C250.952 175.64 251.088 175.72 251.2 175.816C251.317 175.912 251.408 176.035 251.472 176.184C251.541 176.328 251.576 176.504 251.576 176.712C251.576 176.909 251.544 177.085 251.48 177.24C251.421 177.389 251.336 177.517 251.224 177.624C251.112 177.731 250.981 177.819 250.832 177.888C250.683 177.952 250.517 178 250.336 178.032C250.155 178.064 249.965 178.08 249.768 178.08C249.576 178.08 249.392 178.069 249.216 178.048C249.04 178.032 248.867 178.005 248.696 177.968C248.531 177.931 248.371 177.885 248.216 177.832Z" fill="#00AC76"/>
<defs>
<linearGradient id="paint0_linear_508_9417" x1="68.2928" y1="132" x2="68.2928" y2="170.016" gradientUnits="userSpaceOnUse">
<stop stop-color="#202FFF"/>
<stop offset="1" stop-color="#F6F9FF"/>
</linearGradient>
<linearGradient id="paint1_linear_508_9417" x1="68.2928" y1="132" x2="68.2928" y2="170.016" gradientUnits="userSpaceOnUse">
<stop stop-color="#202FFF"/>
<stop offset="1" stop-color="#F6F9FF"/>
</linearGradient>
<linearGradient id="paint2_linear_508_9417" x1="80.8787" y1="91" x2="80.8787" y2="142.786" gradientUnits="userSpaceOnUse">
<stop stop-color="#202FFF"/>
<stop offset="1" stop-color="#F6F9FF"/>
</linearGradient>
<linearGradient id="paint3_linear_508_9417" x1="80.8787" y1="91" x2="80.8787" y2="142.786" gradientUnits="userSpaceOnUse">
<stop stop-color="#202FFF"/>
<stop offset="1" stop-color="#F6F9FF"/>
</linearGradient>
<linearGradient id="paint4_linear_508_9417" x1="93.4637" y1="99" x2="93.4637" y2="150.786" gradientUnits="userSpaceOnUse">
<stop stop-color="#202FFF"/>
<stop offset="1" stop-color="#F6F9FF"/>
</linearGradient>
<linearGradient id="paint5_linear_508_9417" x1="93.4637" y1="99" x2="93.4637" y2="150.786" gradientUnits="userSpaceOnUse">
<stop stop-color="#202FFF"/>
<stop offset="1" stop-color="#F6F9FF"/>
</linearGradient>
<linearGradient id="paint6_linear_508_9417" x1="106.05" y1="91" x2="106.05" y2="131.976" gradientUnits="userSpaceOnUse">
<stop stop-color="#202FFF"/>
<stop offset="1" stop-color="#F6F9FF"/>
</linearGradient>
<linearGradient id="paint7_linear_508_9417" x1="106.05" y1="91" x2="106.05" y2="131.976" gradientUnits="userSpaceOnUse">
<stop stop-color="#202FFF"/>
<stop offset="1" stop-color="#F6F9FF"/>
</linearGradient>
<linearGradient id="paint8_linear_508_9417" x1="118.635" y1="78" x2="118.635" y2="118.975" gradientUnits="userSpaceOnUse">
<stop stop-color="#202FFF"/>
<stop offset="1" stop-color="#F6F9FF"/>
</linearGradient>
<linearGradient id="paint9_linear_508_9417" x1="118.635" y1="78" x2="118.635" y2="118.975" gradientUnits="userSpaceOnUse">
<stop stop-color="#202FFF"/>
<stop offset="1" stop-color="#F6F9FF"/>
</linearGradient>
<linearGradient id="paint10_linear_508_9417" x1="131.22" y1="103" x2="131.22" y2="136.227" gradientUnits="userSpaceOnUse">
<stop stop-color="#202FFF"/>
<stop offset="1" stop-color="#F6F9FF"/>
</linearGradient>
<linearGradient id="paint11_linear_508_9417" x1="131.22" y1="103" x2="131.22" y2="136.227" gradientUnits="userSpaceOnUse">
<stop stop-color="#202FFF"/>
<stop offset="1" stop-color="#F6F9FF"/>
</linearGradient>
<linearGradient id="paint12_linear_508_9417" x1="143.805" y1="79" x2="143.805" y2="120.01" gradientUnits="userSpaceOnUse">
<stop stop-color="#202FFF"/>
<stop offset="1" stop-color="#F6F9FF"/>
</linearGradient>
<linearGradient id="paint13_linear_508_9417" x1="143.805" y1="79" x2="143.805" y2="120.01" gradientUnits="userSpaceOnUse">
<stop stop-color="#202FFF"/>
<stop offset="1" stop-color="#F6F9FF"/>
</linearGradient>
<linearGradient id="paint14_linear_508_9417" x1="156.391" y1="98" x2="156.391" y2="149.786" gradientUnits="userSpaceOnUse">
<stop stop-color="#202FFF"/>
<stop offset="1" stop-color="#F6F9FF"/>
</linearGradient>
<linearGradient id="paint15_linear_508_9417" x1="156.391" y1="98" x2="156.391" y2="149.786" gradientUnits="userSpaceOnUse">
<stop stop-color="#202FFF"/>
<stop offset="1" stop-color="#F6F9FF"/>
</linearGradient>
<linearGradient id="paint16_linear_508_9417" x1="168.976" y1="51" x2="168.976" y2="102.786" gradientUnits="userSpaceOnUse">
<stop stop-color="#202FFF"/>
<stop offset="1" stop-color="#F6F9FF"/>
</linearGradient>
<linearGradient id="paint17_linear_508_9417" x1="168.976" y1="51" x2="168.976" y2="102.786" gradientUnits="userSpaceOnUse">
<stop stop-color="#202FFF"/>
<stop offset="1" stop-color="#F6F9FF"/>
</linearGradient>
<linearGradient id="paint18_linear_508_9417" x1="181.562" y1="67" x2="181.562" y2="107.975" gradientUnits="userSpaceOnUse">
<stop stop-color="#202FFF"/>
<stop offset="1" stop-color="#F6F9FF"/>
</linearGradient>
<linearGradient id="paint19_linear_508_9417" x1="181.562" y1="67" x2="181.562" y2="107.975" gradientUnits="userSpaceOnUse">
<stop stop-color="#202FFF"/>
<stop offset="1" stop-color="#F6F9FF"/>
</linearGradient>
<linearGradient id="paint20_linear_508_9417" x1="194.148" y1="48" x2="194.148" y2="99.786" gradientUnits="userSpaceOnUse">
<stop stop-color="#202FFF"/>
<stop offset="1" stop-color="#F6F9FF"/>
</linearGradient>
<linearGradient id="paint21_linear_508_9417" x1="194.148" y1="48" x2="194.148" y2="99.786" gradientUnits="userSpaceOnUse">
<stop stop-color="#202FFF"/>
<stop offset="1" stop-color="#F6F9FF"/>
</linearGradient>
<linearGradient id="paint22_linear_508_9417" x1="206.733" y1="30" x2="206.733" y2="71.0097" gradientUnits="userSpaceOnUse">
<stop stop-color="#202FFF"/>
<stop offset="1" stop-color="#F6F9FF"/>
</linearGradient>
<linearGradient id="paint23_linear_508_9417" x1="206.733" y1="30" x2="206.733" y2="71.0097" gradientUnits="userSpaceOnUse">
<stop stop-color="#202FFF"/>
<stop offset="1" stop-color="#F6F9FF"/>
</linearGradient>
</defs>
</svg>
