<svg width="280" height="202" viewBox="0 0 280 202" fill="none" xmlns="http://www.w3.org/2000/svg">
<rect width="280" height="202" fill="white"/>
<path d="M61 35.5C56.3056 35.5 52.5 39.3056 52.5 44V60C52.5 64.6944 56.3056 68.5 61 68.5H220C224.694 68.5 228.5 64.6944 228.5 60V44C228.5 39.3056 224.694 35.5 220 35.5H61Z" fill="#F6F9FF"/>
<path d="M61 35.5C56.3056 35.5 52.5 39.3056 52.5 44V60C52.5 64.6944 56.3056 68.5 61 68.5H220C224.694 68.5 228.5 64.6944 228.5 60V44C228.5 39.3056 224.694 35.5 220 35.5H61Z" stroke="#DFDFD9"/>
<path d="M66.098 58.464V45.954C66.782 45.894 67.394 45.852 67.934 45.828C68.486 45.792 68.996 45.768 69.464 45.756C69.932 45.732 70.37 45.72 70.778 45.72C71.906 45.72 72.812 45.828 73.496 46.044C74.18 46.248 74.672 46.578 74.972 47.034C75.284 47.478 75.44 48.066 75.44 48.798C75.44 49.482 75.284 50.07 74.972 50.562C74.66 51.042 74.198 51.408 73.586 51.66V51.696C74.378 51.888 74.996 52.266 75.44 52.83C75.884 53.394 76.106 54.084 76.106 54.9C76.106 55.572 76.01 56.148 75.818 56.628C75.626 57.108 75.326 57.498 74.918 57.798C74.51 58.098 73.97 58.32 73.298 58.464C72.638 58.608 71.816 58.68 70.832 58.68C70.496 58.68 70.19 58.674 69.914 58.662C69.638 58.662 69.38 58.656 69.14 58.644C68.9 58.644 68.636 58.632 68.348 58.608C68.072 58.596 67.754 58.578 67.394 58.554C67.034 58.53 66.602 58.5 66.098 58.464ZM68.6 51.21H71.426C71.762 51.21 72.056 51.138 72.308 50.994C72.572 50.85 72.77 50.646 72.902 50.382C73.046 50.118 73.118 49.818 73.118 49.482C73.118 49.074 73.034 48.738 72.866 48.474C72.71 48.21 72.452 48.018 72.092 47.898C71.744 47.778 71.27 47.718 70.67 47.718C70.514 47.718 70.37 47.718 70.238 47.718C70.118 47.718 70.004 47.724 69.896 47.736C69.788 47.736 69.674 47.742 69.554 47.754C69.434 47.754 69.296 47.76 69.14 47.772C68.996 47.784 68.816 47.802 68.6 47.826V51.21ZM68.6 56.574C68.852 56.586 69.08 56.604 69.284 56.628C69.488 56.64 69.668 56.652 69.824 56.664C69.992 56.664 70.148 56.67 70.292 56.682C70.436 56.682 70.574 56.682 70.706 56.682C71.426 56.682 71.99 56.622 72.398 56.502C72.818 56.37 73.112 56.166 73.28 55.89C73.46 55.614 73.55 55.248 73.55 54.792C73.55 54.216 73.376 53.784 73.028 53.496C72.68 53.196 72.146 53.046 71.426 53.046H68.6V56.574ZM88.1567 58.68C87.8087 58.68 87.4667 58.626 87.1307 58.518C86.7947 58.41 86.4527 58.242 86.1047 58.014C85.7567 57.774 85.4027 57.474 85.0427 57.114C84.6827 56.742 84.3047 56.304 83.9087 55.8C83.5127 55.284 83.0987 54.702 82.6667 54.054C82.5827 54.066 82.4507 54.072 82.2707 54.072C82.1027 54.072 81.9767 54.072 81.8927 54.072C81.6647 54.072 81.4187 54.072 81.1547 54.072C80.9027 54.072 80.6507 54.066 80.3987 54.054V58.5H77.9147V45.882C78.5627 45.846 79.1507 45.816 79.6787 45.792C80.2187 45.768 80.7167 45.75 81.1727 45.738C81.6407 45.726 82.0787 45.72 82.4867 45.72C83.4587 45.72 84.2867 45.792 84.9707 45.936C85.6547 46.068 86.2127 46.29 86.6447 46.602C87.0767 46.902 87.3887 47.298 87.5807 47.79C87.7847 48.282 87.8867 48.87 87.8867 49.554C87.8867 50.274 87.7727 50.892 87.5447 51.408C87.3287 51.912 87.0167 52.326 86.6087 52.65C86.2007 52.974 85.7147 53.232 85.1507 53.424C85.5107 53.904 85.8467 54.324 86.1587 54.684C86.4827 55.032 86.7767 55.326 87.0407 55.566C87.3167 55.794 87.5687 55.968 87.7967 56.088C88.0247 56.208 88.2467 56.268 88.4627 56.268C88.4987 56.268 88.5407 56.268 88.5887 56.268C88.6487 56.256 88.7027 56.25 88.7507 56.25V58.626C88.6787 58.638 88.5947 58.65 88.4987 58.662C88.4027 58.674 88.2887 58.68 88.1567 58.68ZM82.4147 52.092C82.9067 52.092 83.3327 52.056 83.6927 51.984C84.0647 51.9 84.3707 51.774 84.6107 51.606C84.8507 51.438 85.0307 51.216 85.1507 50.94C85.2707 50.652 85.3307 50.298 85.3307 49.878C85.3307 49.35 85.2467 48.93 85.0787 48.618C84.9107 48.294 84.6227 48.06 84.2147 47.916C83.8067 47.772 83.2487 47.7 82.5407 47.7C82.3367 47.7 82.1567 47.7 82.0007 47.7C81.8447 47.7 81.6887 47.706 81.5327 47.718C81.3887 47.718 81.2267 47.724 81.0467 47.736C80.8667 47.736 80.6507 47.748 80.3987 47.772V52.038C80.6027 52.05 80.7887 52.062 80.9567 52.074C81.1247 52.074 81.2867 52.08 81.4427 52.092C81.6107 52.092 81.7667 52.092 81.9107 52.092C82.0667 52.092 82.2347 52.092 82.4147 52.092ZM90.3291 58.5V45.9H92.7951V56.34H98.6271V58.5H90.3291Z" fill="#1A1A19"/>
<path d="M111 44C111 39.5817 114.582 36 119 36H163C167.418 36 171 39.5817 171 44V60C171 64.4183 167.418 68 163 68H119C114.582 68 111 64.4183 111 60V44Z" fill="#008CFF"/>
<path d="M123.936 53.022V44.4H126.366V53.04C126.366 53.376 126.414 53.67 126.51 53.922C126.606 54.162 126.738 54.366 126.906 54.534C127.074 54.69 127.272 54.816 127.5 54.912C127.728 55.008 127.974 55.074 128.238 55.11C128.514 55.146 128.79 55.164 129.066 55.164C129.366 55.164 129.648 55.146 129.912 55.11C130.176 55.062 130.416 54.99 130.632 54.894C130.86 54.798 131.058 54.672 131.226 54.516C131.394 54.348 131.52 54.144 131.604 53.904C131.7 53.664 131.748 53.376 131.748 53.04V44.4H134.196V53.022C134.196 53.646 134.118 54.192 133.962 54.66C133.806 55.116 133.578 55.506 133.278 55.83C132.99 56.154 132.636 56.418 132.216 56.622C131.796 56.814 131.316 56.952 130.776 57.036C130.248 57.132 129.678 57.18 129.066 57.18C128.454 57.18 127.884 57.132 127.356 57.036C126.828 56.952 126.354 56.814 125.934 56.622C125.514 56.418 125.154 56.154 124.854 55.83C124.554 55.506 124.326 55.116 124.17 54.66C124.014 54.192 123.936 53.646 123.936 53.022ZM145.013 44.814L144.545 46.74C144.305 46.656 144.035 46.584 143.735 46.524C143.435 46.452 143.123 46.392 142.799 46.344C142.487 46.296 142.169 46.26 141.845 46.236C141.521 46.212 141.215 46.2 140.927 46.2C140.135 46.2 139.511 46.326 139.055 46.578C138.611 46.818 138.389 47.184 138.389 47.676C138.389 47.916 138.449 48.132 138.569 48.324C138.701 48.504 138.899 48.678 139.163 48.846C139.427 49.014 139.775 49.176 140.207 49.332C140.651 49.488 141.179 49.65 141.791 49.818C142.439 49.998 143.003 50.208 143.483 50.448C143.963 50.676 144.359 50.934 144.671 51.222C144.995 51.51 145.229 51.846 145.373 52.23C145.529 52.602 145.607 53.034 145.607 53.526C145.607 54.306 145.397 54.966 144.977 55.506C144.569 56.046 143.963 56.46 143.159 56.748C142.367 57.036 141.395 57.18 140.243 57.18C139.871 57.18 139.475 57.162 139.055 57.126C138.635 57.09 138.209 57.042 137.777 56.982C137.357 56.91 136.949 56.826 136.553 56.73C136.157 56.634 135.803 56.526 135.491 56.406L135.977 54.498C136.301 54.606 136.649 54.708 137.021 54.804C137.393 54.888 137.771 54.966 138.155 55.038C138.539 55.098 138.923 55.146 139.307 55.182C139.691 55.218 140.051 55.236 140.387 55.236C140.975 55.236 141.467 55.182 141.863 55.074C142.259 54.954 142.553 54.78 142.745 54.552C142.949 54.324 143.051 54.048 143.051 53.724C143.051 53.472 142.973 53.25 142.817 53.058C142.661 52.866 142.427 52.698 142.115 52.554C141.803 52.398 141.401 52.236 140.909 52.068C140.429 51.9 139.865 51.714 139.217 51.51C138.641 51.306 138.137 51.09 137.705 50.862C137.285 50.634 136.937 50.376 136.661 50.088C136.385 49.788 136.175 49.452 136.031 49.08C135.899 48.708 135.833 48.288 135.833 47.82C135.833 47.292 135.935 46.812 136.139 46.38C136.343 45.936 136.649 45.552 137.057 45.228C137.477 44.904 138.005 44.658 138.641 44.49C139.289 44.31 140.045 44.22 140.909 44.22C141.425 44.22 141.935 44.25 142.439 44.31C142.955 44.358 143.435 44.43 143.879 44.526C144.335 44.61 144.713 44.706 145.013 44.814ZM151.918 57.18C151.354 57.18 150.808 57.174 150.28 57.162C149.764 57.15 149.26 57.132 148.768 57.108C148.276 57.084 147.79 57.06 147.31 57.036V44.4C147.85 44.352 148.36 44.316 148.84 44.292C149.332 44.268 149.818 44.25 150.298 44.238C150.778 44.226 151.27 44.22 151.774 44.22C153.202 44.22 154.36 44.448 155.248 44.904C156.136 45.348 156.784 46.05 157.192 47.01C157.612 47.958 157.822 49.194 157.822 50.718C157.822 52.206 157.6 53.43 157.156 54.39C156.724 55.338 156.07 56.04 155.194 56.496C154.33 56.952 153.238 57.18 151.918 57.18ZM152.062 55.218C152.758 55.218 153.34 55.074 153.808 54.786C154.288 54.486 154.648 54.006 154.888 53.346C155.128 52.686 155.248 51.816 155.248 50.736C155.248 49.608 155.128 48.714 154.888 48.054C154.66 47.394 154.306 46.92 153.826 46.632C153.346 46.344 152.728 46.2 151.972 46.2C151.756 46.2 151.516 46.206 151.252 46.218C151 46.218 150.748 46.224 150.496 46.236C150.256 46.248 150.022 46.26 149.794 46.272V55.128C149.974 55.14 150.16 55.152 150.352 55.164C150.544 55.176 150.736 55.188 150.928 55.2C151.12 55.2 151.312 55.206 151.504 55.218C151.696 55.218 151.882 55.218 152.062 55.218Z" fill="white"/>
<path d="M184.098 58.464V45.954C184.782 45.894 185.394 45.852 185.934 45.828C186.486 45.792 186.996 45.768 187.464 45.756C187.932 45.732 188.37 45.72 188.778 45.72C189.906 45.72 190.812 45.828 191.496 46.044C192.18 46.248 192.672 46.578 192.972 47.034C193.284 47.478 193.44 48.066 193.44 48.798C193.44 49.482 193.284 50.07 192.972 50.562C192.66 51.042 192.198 51.408 191.586 51.66V51.696C192.378 51.888 192.996 52.266 193.44 52.83C193.884 53.394 194.106 54.084 194.106 54.9C194.106 55.572 194.01 56.148 193.818 56.628C193.626 57.108 193.326 57.498 192.918 57.798C192.51 58.098 191.97 58.32 191.298 58.464C190.638 58.608 189.816 58.68 188.832 58.68C188.496 58.68 188.19 58.674 187.914 58.662C187.638 58.662 187.38 58.656 187.14 58.644C186.9 58.644 186.636 58.632 186.348 58.608C186.072 58.596 185.754 58.578 185.394 58.554C185.034 58.53 184.602 58.5 184.098 58.464ZM186.6 51.21H189.426C189.762 51.21 190.056 51.138 190.308 50.994C190.572 50.85 190.77 50.646 190.902 50.382C191.046 50.118 191.118 49.818 191.118 49.482C191.118 49.074 191.034 48.738 190.866 48.474C190.71 48.21 190.452 48.018 190.092 47.898C189.744 47.778 189.27 47.718 188.67 47.718C188.514 47.718 188.37 47.718 188.238 47.718C188.118 47.718 188.004 47.724 187.896 47.736C187.788 47.736 187.674 47.742 187.554 47.754C187.434 47.754 187.296 47.76 187.14 47.772C186.996 47.784 186.816 47.802 186.6 47.826V51.21ZM186.6 56.574C186.852 56.586 187.08 56.604 187.284 56.628C187.488 56.64 187.668 56.652 187.824 56.664C187.992 56.664 188.148 56.67 188.292 56.682C188.436 56.682 188.574 56.682 188.706 56.682C189.426 56.682 189.99 56.622 190.398 56.502C190.818 56.37 191.112 56.166 191.28 55.89C191.46 55.614 191.55 55.248 191.55 54.792C191.55 54.216 191.376 53.784 191.028 53.496C190.68 53.196 190.146 53.046 189.426 53.046H186.6V56.574ZM204.637 48.078H200.875V58.5H198.409V48.078H194.629V45.9H204.637V48.078ZM205.295 52.398C205.295 50.814 205.517 49.53 205.961 48.546C206.405 47.562 207.065 46.848 207.941 46.404C208.829 45.948 209.927 45.72 211.235 45.72C211.631 45.72 211.991 45.732 212.315 45.756C212.651 45.768 212.963 45.798 213.251 45.846C213.551 45.882 213.839 45.936 214.115 46.008C214.391 46.068 214.673 46.14 214.961 46.224L214.457 48.204C214.109 48.108 213.767 48.036 213.431 47.988C213.095 47.928 212.765 47.886 212.441 47.862C212.129 47.838 211.805 47.826 211.469 47.826C210.845 47.826 210.299 47.904 209.831 48.06C209.375 48.216 208.997 48.474 208.697 48.834C208.397 49.182 208.175 49.65 208.031 50.238C207.887 50.826 207.815 51.54 207.815 52.38C207.815 53.172 207.887 53.838 208.031 54.378C208.175 54.906 208.391 55.338 208.679 55.674C208.979 55.998 209.351 56.232 209.795 56.376C210.239 56.52 210.761 56.592 211.361 56.592C211.913 56.592 212.489 56.556 213.089 56.484C213.701 56.4 214.259 56.286 214.763 56.142L215.195 58.086C214.907 58.182 214.607 58.266 214.295 58.338C213.995 58.41 213.671 58.47 213.323 58.518C212.975 58.566 212.609 58.602 212.225 58.626C211.841 58.662 211.421 58.68 210.965 58.68C210.041 58.68 209.225 58.566 208.517 58.338C207.809 58.11 207.215 57.756 206.735 57.276C206.255 56.784 205.895 56.136 205.655 55.332C205.415 54.528 205.295 53.55 205.295 52.398Z" fill="#1A1A19"/>
<path d="M111.817 96.08C111.566 96.08 111.323 96.0773 111.089 96.072C110.859 96.0667 110.635 96.0587 110.417 96.048C110.198 96.0373 109.982 96.0267 109.769 96.016V90.4C110.009 90.3787 110.235 90.3627 110.449 90.352C110.667 90.3413 110.883 90.3333 111.097 90.328C111.31 90.3227 111.529 90.32 111.753 90.32C112.387 90.32 112.902 90.4213 113.297 90.624C113.691 90.8213 113.979 91.1333 114.161 91.56C114.347 91.9813 114.441 92.5307 114.441 93.208C114.441 93.8693 114.342 94.4133 114.145 94.84C113.953 95.2613 113.662 95.5733 113.273 95.776C112.889 95.9787 112.403 96.08 111.817 96.08ZM111.881 95.208C112.19 95.208 112.449 95.144 112.657 95.016C112.87 94.8827 113.03 94.6693 113.137 94.376C113.243 94.0827 113.297 93.696 113.297 93.216C113.297 92.7147 113.243 92.3173 113.137 92.024C113.035 91.7307 112.878 91.52 112.665 91.392C112.451 91.264 112.177 91.2 111.841 91.2C111.745 91.2 111.638 91.2027 111.521 91.208C111.409 91.208 111.297 91.2107 111.185 91.216C111.078 91.2213 110.974 91.2267 110.873 91.232V95.168C110.953 95.1733 111.035 95.1787 111.121 95.184C111.206 95.1893 111.291 95.1947 111.377 95.2C111.462 95.2 111.547 95.2027 111.633 95.208C111.718 95.208 111.801 95.208 111.881 95.208ZM117.047 96.08C116.722 96.08 116.434 96.04 116.183 95.96C115.932 95.8747 115.719 95.7467 115.543 95.576C115.372 95.4 115.242 95.1787 115.151 94.912C115.066 94.64 115.023 94.3173 115.023 93.944C115.023 93.512 115.074 93.1467 115.175 92.848C115.282 92.544 115.431 92.3013 115.623 92.12C115.815 91.9333 116.039 91.8 116.295 91.72C116.551 91.6347 116.831 91.592 117.135 91.592C117.738 91.592 118.18 91.744 118.463 92.048C118.751 92.352 118.895 92.848 118.895 93.536C118.895 93.584 118.895 93.6453 118.895 93.72C118.895 93.7947 118.89 93.8667 118.879 93.936C118.756 93.9467 118.599 93.96 118.407 93.976C118.215 93.992 117.999 94.008 117.759 94.024C117.519 94.04 117.26 94.0533 116.983 94.064C116.706 94.0747 116.42 94.0853 116.127 94.096C116.122 94.112 116.119 94.1307 116.119 94.152C116.119 94.1733 116.119 94.1947 116.119 94.216C116.119 94.4613 116.159 94.6587 116.239 94.808C116.324 94.952 116.45 95.0613 116.615 95.136C116.78 95.2053 116.988 95.24 117.239 95.24C117.399 95.24 117.562 95.232 117.727 95.216C117.898 95.1947 118.066 95.1707 118.231 95.144C118.402 95.112 118.567 95.0773 118.727 95.04L118.855 95.824C118.684 95.8773 118.503 95.9253 118.311 95.968C118.119 96.0053 117.919 96.032 117.711 96.048C117.503 96.0693 117.282 96.08 117.047 96.08ZM116.135 93.408C116.322 93.408 116.5 93.4053 116.671 93.4C116.847 93.3893 117.012 93.3813 117.167 93.376C117.322 93.3653 117.455 93.3573 117.567 93.352C117.679 93.3413 117.767 93.3333 117.831 93.328C117.826 93.0933 117.794 92.904 117.735 92.76C117.682 92.616 117.596 92.512 117.479 92.448C117.367 92.384 117.226 92.352 117.055 92.352C116.948 92.352 116.844 92.368 116.743 92.4C116.642 92.432 116.548 92.488 116.463 92.568C116.378 92.648 116.306 92.7547 116.247 92.888C116.194 93.0213 116.156 93.1947 116.135 93.408ZM119.638 97.68V91.648H120.606L120.638 92.048C120.883 91.888 121.118 91.7733 121.342 91.704C121.571 91.6293 121.803 91.592 122.038 91.592C122.507 91.592 122.867 91.7787 123.118 92.152C123.374 92.52 123.502 93.0507 123.502 93.744C123.502 94.2773 123.427 94.7173 123.278 95.064C123.134 95.4053 122.91 95.6613 122.606 95.832C122.307 95.9973 121.929 96.08 121.47 96.08C121.358 96.08 121.238 96.072 121.11 96.056C120.982 96.0453 120.849 96.0293 120.71 96.008V97.68H119.638ZM121.39 95.304C121.625 95.304 121.814 95.2587 121.958 95.168C122.107 95.072 122.217 94.9173 122.286 94.704C122.361 94.4907 122.398 94.2053 122.398 93.848C122.398 93.528 122.369 93.2667 122.31 93.064C122.251 92.8613 122.163 92.712 122.046 92.616C121.934 92.52 121.793 92.472 121.622 92.472C121.526 92.472 121.43 92.4827 121.334 92.504C121.238 92.52 121.139 92.5493 121.038 92.592C120.937 92.6347 120.825 92.6933 120.702 92.768V95.2C120.835 95.232 120.958 95.2587 121.07 95.28C121.182 95.296 121.289 95.304 121.39 95.304ZM124.081 93.832C124.081 93.464 124.113 93.1413 124.177 92.864C124.247 92.5867 124.356 92.3547 124.505 92.168C124.66 91.9813 124.868 91.84 125.129 91.744C125.391 91.6427 125.713 91.592 126.097 91.592C126.487 91.592 126.809 91.6427 127.065 91.744C127.327 91.84 127.535 91.9813 127.689 92.168C127.844 92.3547 127.953 92.5867 128.017 92.864C128.087 93.1413 128.121 93.464 128.121 93.832C128.121 94.2 128.084 94.5253 128.009 94.808C127.94 95.0907 127.825 95.3253 127.665 95.512C127.505 95.6987 127.297 95.84 127.041 95.936C126.785 96.032 126.471 96.08 126.097 96.08C125.729 96.08 125.415 96.032 125.153 95.936C124.897 95.84 124.689 95.6987 124.529 95.512C124.375 95.3253 124.26 95.0907 124.185 94.808C124.116 94.5253 124.081 94.2 124.081 93.832ZM125.169 93.832C125.169 94.1893 125.201 94.4747 125.265 94.688C125.329 94.896 125.431 95.0453 125.569 95.136C125.708 95.2267 125.884 95.272 126.097 95.272C126.321 95.272 126.5 95.2267 126.633 95.136C126.772 95.0453 126.871 94.896 126.929 94.688C126.993 94.4747 127.025 94.1893 127.025 93.832C127.025 93.4747 126.996 93.192 126.937 92.984C126.884 92.776 126.788 92.6267 126.649 92.536C126.516 92.4453 126.332 92.4 126.097 92.4C125.868 92.4 125.684 92.4453 125.545 92.536C125.412 92.6267 125.316 92.776 125.257 92.984C125.199 93.192 125.169 93.4747 125.169 93.832ZM128.573 95.832L128.701 95.048C128.797 95.08 128.904 95.112 129.021 95.144C129.139 95.1707 129.261 95.1947 129.389 95.216C129.523 95.2373 129.653 95.2533 129.781 95.264C129.909 95.2747 130.029 95.28 130.141 95.28C130.397 95.28 130.584 95.2427 130.701 95.168C130.819 95.088 130.877 94.9707 130.877 94.816C130.877 94.7307 130.853 94.6587 130.805 94.6C130.763 94.536 130.693 94.4827 130.597 94.44C130.507 94.392 130.392 94.3493 130.253 94.312C130.12 94.2693 129.965 94.2267 129.789 94.184C129.603 94.1413 129.44 94.0853 129.301 94.016C129.163 93.9413 129.043 93.8533 128.941 93.752C128.845 93.6507 128.773 93.5333 128.725 93.4C128.683 93.2667 128.661 93.1147 128.661 92.944C128.661 92.5013 128.805 92.1653 129.093 91.936C129.381 91.7067 129.808 91.592 130.373 91.592C130.549 91.592 130.715 91.6027 130.869 91.624C131.024 91.64 131.171 91.664 131.309 91.696C131.453 91.7227 131.584 91.7573 131.701 91.8L131.565 92.6C131.448 92.5627 131.331 92.5307 131.213 92.504C131.096 92.4773 130.968 92.456 130.829 92.44C130.696 92.424 130.544 92.416 130.373 92.416C130.144 92.416 129.971 92.4533 129.853 92.528C129.736 92.5973 129.677 92.704 129.677 92.848C129.677 92.9333 129.699 93.0053 129.741 93.064C129.784 93.1173 129.845 93.1627 129.925 93.2C130.005 93.2373 130.104 93.272 130.221 93.304C130.339 93.336 130.469 93.368 130.613 93.4C130.811 93.448 130.989 93.5067 131.149 93.576C131.309 93.64 131.445 93.72 131.557 93.816C131.675 93.912 131.765 94.0347 131.829 94.184C131.899 94.328 131.933 94.504 131.933 94.712C131.933 94.9093 131.901 95.0853 131.837 95.24C131.779 95.3893 131.693 95.5173 131.581 95.624C131.469 95.7307 131.339 95.8187 131.189 95.888C131.04 95.952 130.875 96 130.693 96.032C130.512 96.064 130.323 96.08 130.125 96.08C129.933 96.08 129.749 96.0693 129.573 96.048C129.397 96.032 129.224 96.0053 129.053 95.968C128.888 95.9307 128.728 95.8853 128.573 95.832ZM133.125 91.056C132.901 91.056 132.738 91.0133 132.637 90.928C132.541 90.8373 132.493 90.6987 132.493 90.512C132.493 90.32 132.541 90.1813 132.637 90.096C132.738 90.0107 132.901 89.968 133.125 89.968C133.349 89.968 133.509 90.0107 133.605 90.096C133.706 90.1813 133.757 90.32 133.757 90.512C133.757 90.6987 133.706 90.8373 133.605 90.928C133.509 91.0133 133.349 91.056 133.125 91.056ZM132.589 96V91.672H133.653V96H132.589ZM136.135 96.08C135.858 96.08 135.623 96.0267 135.431 95.92C135.245 95.8133 135.103 95.6507 135.007 95.432C134.917 95.2133 134.871 94.9333 134.871 94.592V92.448H134.207V91.744L134.871 91.672L134.999 90.712H135.935V91.672H137.159V92.456H135.935V94.504C135.935 94.7493 135.981 94.9227 136.071 95.024C136.162 95.1253 136.303 95.176 136.495 95.176C136.602 95.176 136.711 95.168 136.823 95.152C136.935 95.1307 137.053 95.104 137.175 95.072L137.319 95.88C137.106 95.9547 136.898 96.0053 136.695 96.032C136.498 96.064 136.311 96.08 136.135 96.08ZM139.649 96L141.481 90.36H142.785L144.633 96H143.425L143.057 94.8H141.169L140.793 96H139.649ZM141.369 93.896H142.849L142.113 91.272L141.369 93.896ZM145.167 96V91.672H146.135V92.048C146.289 91.9467 146.441 91.864 146.591 91.8C146.74 91.736 146.889 91.688 147.039 91.656C147.193 91.6187 147.348 91.6 147.503 91.6C147.668 91.6 147.812 91.6187 147.935 91.656C148.057 91.6933 148.161 91.7493 148.247 91.824C148.337 91.8933 148.412 91.9813 148.471 92.088C148.636 91.9867 148.796 91.8987 148.951 91.824C149.105 91.7493 149.265 91.6933 149.431 91.656C149.596 91.6133 149.772 91.592 149.959 91.592C150.119 91.592 150.26 91.6133 150.383 91.656C150.511 91.6933 150.62 91.7493 150.711 91.824C150.807 91.8987 150.884 91.9867 150.943 92.088C151.001 92.1893 151.044 92.3013 151.071 92.424C151.097 92.5467 151.111 92.6773 151.111 92.816V96H150.047V93.152C150.047 93.0667 150.036 92.984 150.015 92.904C149.999 92.824 149.969 92.7547 149.927 92.696C149.889 92.632 149.833 92.584 149.759 92.552C149.684 92.5147 149.588 92.496 149.471 92.496C149.369 92.496 149.268 92.5093 149.167 92.536C149.071 92.5627 148.977 92.5947 148.887 92.632C148.801 92.6693 148.719 92.712 148.639 92.76C148.655 92.8133 148.665 92.8667 148.671 92.92C148.676 92.9733 148.679 93.024 148.679 93.072V96H147.615V93.152C147.615 93.072 147.604 92.992 147.583 92.912C147.567 92.832 147.537 92.7627 147.495 92.704C147.452 92.64 147.393 92.592 147.319 92.56C147.244 92.5227 147.151 92.504 147.039 92.504C146.943 92.504 146.849 92.5147 146.759 92.536C146.673 92.5573 146.585 92.5867 146.495 92.624C146.409 92.6613 146.321 92.7067 146.231 92.76V96H145.167ZM151.852 93.832C151.852 93.464 151.884 93.1413 151.948 92.864C152.018 92.5867 152.127 92.3547 152.276 92.168C152.431 91.9813 152.639 91.84 152.9 91.744C153.162 91.6427 153.484 91.592 153.868 91.592C154.258 91.592 154.58 91.6427 154.836 91.744C155.098 91.84 155.306 91.9813 155.46 92.168C155.615 92.3547 155.724 92.5867 155.788 92.864C155.858 93.1413 155.892 93.464 155.892 93.832C155.892 94.2 155.855 94.5253 155.78 94.808C155.711 95.0907 155.596 95.3253 155.436 95.512C155.276 95.6987 155.068 95.84 154.812 95.936C154.556 96.032 154.242 96.08 153.868 96.08C153.5 96.08 153.186 96.032 152.924 95.936C152.668 95.84 152.46 95.6987 152.3 95.512C152.146 95.3253 152.031 95.0907 151.956 94.808C151.887 94.5253 151.852 94.2 151.852 93.832ZM152.94 93.832C152.94 94.1893 152.972 94.4747 153.036 94.688C153.1 94.896 153.202 95.0453 153.34 95.136C153.479 95.2267 153.655 95.272 153.868 95.272C154.092 95.272 154.271 95.2267 154.404 95.136C154.543 95.0453 154.642 94.896 154.7 94.688C154.764 94.4747 154.796 94.1893 154.796 93.832C154.796 93.4747 154.767 93.192 154.708 92.984C154.655 92.776 154.559 92.6267 154.42 92.536C154.287 92.4453 154.103 92.4 153.868 92.4C153.639 92.4 153.455 92.4453 153.316 92.536C153.183 92.6267 153.087 92.776 153.028 92.984C152.97 93.192 152.94 93.4747 152.94 93.832ZM157.871 96.08C157.621 96.08 157.402 96.0347 157.215 95.944C157.029 95.8533 156.885 95.7147 156.783 95.528C156.682 95.3413 156.631 95.1067 156.631 94.824V91.672H157.695V94.576C157.695 94.7787 157.746 94.9333 157.847 95.04C157.954 95.1413 158.103 95.192 158.295 95.192C158.402 95.192 158.503 95.1813 158.599 95.16C158.695 95.1387 158.791 95.1093 158.887 95.072C158.983 95.0293 159.085 94.9813 159.191 94.928V91.672H160.255V94.808C160.255 94.8987 160.263 94.9707 160.279 95.024C160.301 95.0773 160.33 95.1173 160.367 95.144C160.405 95.1653 160.447 95.176 160.495 95.176C160.559 95.176 160.623 95.1627 160.687 95.136L160.775 95.896C160.717 95.9333 160.65 95.9653 160.575 95.992C160.501 96.0187 160.418 96.04 160.327 96.056C160.242 96.072 160.151 96.08 160.055 96.08C159.879 96.08 159.73 96.0427 159.607 95.968C159.485 95.888 159.389 95.776 159.319 95.632C159.165 95.7227 159.01 95.8027 158.855 95.872C158.701 95.9413 158.543 95.992 158.383 96.024C158.223 96.0613 158.053 96.08 157.871 96.08ZM161.305 96V91.672H162.273V92.048C162.449 91.9467 162.617 91.864 162.777 91.8C162.937 91.7307 163.095 91.68 163.249 91.648C163.409 91.6107 163.577 91.592 163.753 91.592C164.031 91.592 164.26 91.6427 164.441 91.744C164.628 91.84 164.767 91.9787 164.857 92.16C164.948 92.3413 164.993 92.56 164.993 92.816V96H163.929V93.152C163.929 92.928 163.876 92.7627 163.769 92.656C163.668 92.544 163.513 92.488 163.305 92.488C163.199 92.488 163.095 92.5013 162.993 92.528C162.892 92.5493 162.791 92.5787 162.689 92.616C162.588 92.6533 162.481 92.7013 162.369 92.76V96H161.305ZM167.477 96.08C167.199 96.08 166.965 96.0267 166.773 95.92C166.586 95.8133 166.445 95.6507 166.349 95.432C166.258 95.2133 166.213 94.9333 166.213 94.592V92.448H165.549V91.744L166.213 91.672L166.341 90.712H167.277V91.672H168.501V92.456H167.277V94.504C167.277 94.7493 167.322 94.9227 167.413 95.024C167.503 95.1253 167.645 95.176 167.837 95.176C167.943 95.176 168.053 95.168 168.165 95.152C168.277 95.1307 168.394 95.104 168.517 95.072L168.661 95.88C168.447 95.9547 168.239 96.0053 168.037 96.032C167.839 96.064 167.653 96.08 167.477 96.08Z" fill="#6F6F6A"/>
<path d="M109.697 124.364V121.628H111.461V124.364H109.697ZM109.697 105.08V102.332H111.461V105.08H109.697ZM110.789 122.36C109.645 122.36 108.613 122.156 107.693 121.748C106.781 121.34 106.025 120.764 105.425 120.02C104.833 119.276 104.445 118.396 104.261 117.38L105.977 117.08C106.241 118.184 106.809 119.06 107.681 119.708C108.561 120.348 109.621 120.668 110.861 120.668C112.117 120.668 113.133 120.364 113.909 119.756C114.685 119.14 115.073 118.336 115.073 117.344C115.073 116.608 114.857 116.02 114.425 115.58C113.993 115.14 113.261 114.764 112.229 114.452L108.389 113.252C106.069 112.524 104.909 111.148 104.909 109.124C104.909 108.18 105.141 107.352 105.605 106.64C106.077 105.92 106.729 105.36 107.561 104.96C108.401 104.56 109.381 104.364 110.501 104.372C111.597 104.372 112.577 104.58 113.441 104.996C114.313 105.404 115.029 105.984 115.589 106.736C116.149 107.488 116.521 108.38 116.705 109.412L114.941 109.748C114.829 109.012 114.569 108.368 114.161 107.816C113.761 107.264 113.245 106.836 112.613 106.532C111.981 106.22 111.277 106.06 110.501 106.052C109.765 106.052 109.109 106.18 108.533 106.436C107.957 106.692 107.501 107.048 107.165 107.504C106.837 107.952 106.673 108.468 106.673 109.052C106.673 109.692 106.901 110.236 107.357 110.684C107.821 111.124 108.553 111.496 109.553 111.8L112.853 112.796C114.245 113.212 115.249 113.772 115.865 114.476C116.481 115.18 116.789 116.12 116.789 117.296C116.789 118.312 116.541 119.2 116.045 119.96C115.549 120.72 114.849 121.312 113.945 121.736C113.049 122.152 111.997 122.36 110.789 122.36ZM122.029 122V107.876L118.789 109.856V106.664L122.029 104.72H124.981V122H122.029ZM135.529 122.36C134.305 122.36 133.225 122.1 132.289 121.58C131.353 121.052 130.621 120.32 130.093 119.384C129.573 118.448 129.313 117.368 129.313 116.144V110.576C129.313 109.352 129.573 108.272 130.093 107.336C130.621 106.4 131.353 105.672 132.289 105.152C133.225 104.624 134.305 104.36 135.529 104.36C136.753 104.36 137.829 104.624 138.757 105.152C139.693 105.672 140.425 106.4 140.953 107.336C141.481 108.272 141.745 109.352 141.745 110.576V116.144C141.745 117.368 141.481 118.448 140.953 119.384C140.425 120.32 139.693 121.052 138.757 121.58C137.829 122.1 136.753 122.36 135.529 122.36ZM135.529 119.612C136.137 119.612 136.689 119.468 137.185 119.18C137.681 118.884 138.073 118.492 138.361 118.004C138.649 117.508 138.793 116.956 138.793 116.348V110.36C138.793 109.744 138.649 109.192 138.361 108.704C138.073 108.208 137.681 107.816 137.185 107.528C136.689 107.232 136.137 107.084 135.529 107.084C134.921 107.084 134.369 107.232 133.873 107.528C133.377 107.816 132.985 108.208 132.697 108.704C132.409 109.192 132.265 109.744 132.265 110.36V116.348C132.265 116.956 132.409 117.508 132.697 118.004C132.985 118.492 133.377 118.884 133.873 119.18C134.369 119.468 134.921 119.612 135.529 119.612ZM151.086 122.36C149.862 122.36 148.782 122.1 147.846 121.58C146.91 121.052 146.178 120.32 145.65 119.384C145.13 118.448 144.87 117.368 144.87 116.144V110.576C144.87 109.352 145.13 108.272 145.65 107.336C146.178 106.4 146.91 105.672 147.846 105.152C148.782 104.624 149.862 104.36 151.086 104.36C152.31 104.36 153.386 104.624 154.314 105.152C155.25 105.672 155.982 106.4 156.51 107.336C157.038 108.272 157.302 109.352 157.302 110.576V116.144C157.302 117.368 157.038 118.448 156.51 119.384C155.982 120.32 155.25 121.052 154.314 121.58C153.386 122.1 152.31 122.36 151.086 122.36ZM151.086 119.612C151.694 119.612 152.246 119.468 152.742 119.18C153.238 118.884 153.63 118.492 153.918 118.004C154.206 117.508 154.35 116.956 154.35 116.348V110.36C154.35 109.744 154.206 109.192 153.918 108.704C153.63 108.208 153.238 107.816 152.742 107.528C152.246 107.232 151.694 107.084 151.086 107.084C150.478 107.084 149.926 107.232 149.43 107.528C148.934 107.816 148.542 108.208 148.254 108.704C147.966 109.192 147.822 109.744 147.822 110.36V116.348C147.822 116.956 147.966 117.508 148.254 118.004C148.542 118.492 148.934 118.884 149.43 119.18C149.926 119.468 150.478 119.612 151.086 119.612ZM166.643 122.36C165.419 122.36 164.339 122.1 163.403 121.58C162.467 121.052 161.735 120.32 161.207 119.384C160.687 118.448 160.427 117.368 160.427 116.144V110.576C160.427 109.352 160.687 108.272 161.207 107.336C161.735 106.4 162.467 105.672 163.403 105.152C164.339 104.624 165.419 104.36 166.643 104.36C167.867 104.36 168.943 104.624 169.871 105.152C170.807 105.672 171.539 106.4 172.067 107.336C172.595 108.272 172.859 109.352 172.859 110.576V116.144C172.859 117.368 172.595 118.448 172.067 119.384C171.539 120.32 170.807 121.052 169.871 121.58C168.943 122.1 167.867 122.36 166.643 122.36ZM166.643 119.612C167.251 119.612 167.803 119.468 168.299 119.18C168.795 118.884 169.187 118.492 169.475 118.004C169.763 117.508 169.907 116.956 169.907 116.348V110.36C169.907 109.744 169.763 109.192 169.475 108.704C169.187 108.208 168.795 107.816 168.299 107.528C167.803 107.232 167.251 107.084 166.643 107.084C166.035 107.084 165.483 107.232 164.987 107.528C164.491 107.816 164.099 108.208 163.811 108.704C163.523 109.192 163.379 109.744 163.379 110.36V116.348C163.379 116.956 163.523 117.508 163.811 118.004C164.099 118.492 164.491 118.884 164.987 119.18C165.483 119.468 166.035 119.612 166.643 119.612Z" fill="#1A1A19"/>
<path d="M50 133.5C45.3056 133.5 41.5 137.306 41.5 142V158C41.5 162.694 45.3056 166.5 50 166.5H230C234.694 166.5 238.5 162.694 238.5 158V142C238.5 137.306 234.694 133.5 230 133.5H50Z" fill="#F6F9FF"/>
<path d="M50 133.5C45.3056 133.5 41.5 137.306 41.5 142V158C41.5 162.694 45.3056 166.5 50 166.5H230C234.694 166.5 238.5 162.694 238.5 158V142C238.5 137.306 234.694 133.5 230 133.5H50Z" stroke="#6F6F6A"/>
<mask id="path-11-inside-1_286_13138" fill="white">
<path d="M42 137.5H114V162.5H42V137.5Z"/>
</mask>
<path d="M113 137.5V162.5H115V137.5H113Z" fill="#DFDFD9" mask="url(#path-11-inside-1_286_13138)"/>
<path d="M54.924 155.5V145.7H56.534L59.432 150.6L62.33 145.7H63.884V155.5H62.442V148.066L59.754 152.546H59.012L56.352 148.094V155.5H54.924ZM68.7641 155.64C68.2134 155.64 67.7281 155.57 67.3081 155.43C66.8974 155.281 66.5428 155.057 66.2441 154.758C65.9548 154.459 65.7354 154.077 65.5861 153.61C65.4368 153.134 65.3621 152.574 65.3621 151.93C65.3621 151.174 65.4508 150.535 65.6281 150.012C65.8148 149.48 66.0668 149.055 66.3841 148.738C66.7108 148.411 67.0888 148.178 67.5181 148.038C67.9568 147.889 68.4328 147.814 68.9461 147.814C69.9541 147.814 70.6961 148.075 71.1721 148.598C71.6574 149.121 71.9001 149.97 71.9001 151.146C71.9001 151.211 71.8954 151.305 71.8861 151.426C71.8861 151.538 71.8861 151.65 71.8861 151.762C71.6714 151.781 71.3961 151.804 71.0601 151.832C70.7334 151.86 70.3554 151.888 69.9261 151.916C69.4968 151.944 69.0301 151.967 68.5261 151.986C68.0221 152.005 67.4948 152.019 66.9441 152.028C66.9348 152.065 66.9301 152.107 66.9301 152.154C66.9301 152.191 66.9301 152.233 66.9301 152.28C66.9301 152.793 67.0094 153.209 67.1681 153.526C67.3268 153.834 67.5601 154.063 67.8681 154.212C68.1761 154.352 68.5634 154.422 69.0301 154.422C69.3101 154.422 69.5994 154.408 69.8981 154.38C70.2061 154.343 70.5048 154.301 70.7941 154.254C71.0834 154.198 71.3588 154.137 71.6201 154.072L71.8161 155.206C71.5361 155.29 71.2328 155.369 70.9061 155.444C70.5888 155.509 70.2528 155.556 69.8981 155.584C69.5434 155.621 69.1654 155.64 68.7641 155.64ZM66.9581 151.006C67.3501 151.006 67.7234 151.001 68.0781 150.992C68.4421 150.973 68.7781 150.955 69.0861 150.936C69.3941 150.917 69.6554 150.903 69.8701 150.894C70.0941 150.875 70.2621 150.861 70.3741 150.852C70.3648 150.385 70.3041 150.012 70.1921 149.732C70.0801 149.452 69.9121 149.251 69.6881 149.13C69.4641 148.999 69.1794 148.934 68.8341 148.934C68.6194 148.934 68.4094 148.967 68.2041 149.032C67.9988 149.088 67.8074 149.195 67.6301 149.354C67.4621 149.503 67.3174 149.713 67.1961 149.984C67.0748 150.245 66.9954 150.586 66.9581 151.006ZM75.9079 155.64C75.4319 155.64 75.0353 155.551 74.7179 155.374C74.4006 155.197 74.1626 154.926 74.0039 154.562C73.8546 154.189 73.7799 153.722 73.7799 153.162V149.088H72.5479V148.08L73.7799 147.954L73.9759 146.232H75.2919V147.954H77.6159V149.088H75.2919V153.05C75.2919 153.507 75.3806 153.839 75.5579 154.044C75.7353 154.249 76.0199 154.352 76.4119 154.352C76.6079 154.352 76.8086 154.333 77.0139 154.296C77.2286 154.249 77.4479 154.198 77.6719 154.142L77.8819 155.304C77.5273 155.425 77.1819 155.509 76.8459 155.556C76.5099 155.612 76.1973 155.64 75.9079 155.64ZM78.9387 155.5V145.14H80.4787V148.584C80.7587 148.416 81.0294 148.276 81.2907 148.164C81.552 148.052 81.818 147.968 82.0887 147.912C82.3687 147.847 82.6627 147.814 82.9707 147.814C83.428 147.814 83.8154 147.898 84.1327 148.066C84.45 148.225 84.688 148.463 84.8467 148.78C85.0147 149.088 85.0987 149.471 85.0987 149.928V155.5H83.5727V150.376C83.5727 149.956 83.47 149.643 83.2647 149.438C83.0594 149.223 82.7514 149.116 82.3407 149.116C82.126 149.116 81.9114 149.139 81.6967 149.186C81.4914 149.233 81.2907 149.298 81.0947 149.382C80.8987 149.457 80.6934 149.55 80.4787 149.662V155.5H78.9387ZM86.5087 151.72C86.5087 151.067 86.5647 150.497 86.6767 150.012C86.798 149.527 86.9893 149.125 87.2507 148.808C87.512 148.481 87.862 148.234 88.3007 148.066C88.7393 147.898 89.2807 147.814 89.9247 147.814C90.5687 147.814 91.11 147.898 91.5487 148.066C91.9873 148.234 92.3373 148.481 92.5987 148.808C92.86 149.125 93.0467 149.527 93.1587 150.012C93.28 150.497 93.3407 151.067 93.3407 151.72C93.3407 152.383 93.2753 152.961 93.1447 153.456C93.0233 153.951 92.8273 154.361 92.5567 154.688C92.286 155.005 91.9313 155.243 91.4927 155.402C91.0633 155.561 90.5407 155.64 89.9247 155.64C89.3087 155.64 88.7813 155.561 88.3427 155.402C87.9133 155.243 87.5633 155.005 87.2927 154.688C87.022 154.361 86.8213 153.951 86.6907 153.456C86.5693 152.961 86.5087 152.383 86.5087 151.72ZM88.0627 151.72C88.0627 152.401 88.1233 152.943 88.2447 153.344C88.3753 153.745 88.576 154.035 88.8467 154.212C89.1267 154.389 89.486 154.478 89.9247 154.478C90.3633 154.478 90.718 154.389 90.9887 154.212C91.2593 154.035 91.4553 153.745 91.5767 153.344C91.7073 152.943 91.7727 152.401 91.7727 151.72C91.7727 151.039 91.7167 150.502 91.6047 150.11C91.4927 149.709 91.2967 149.424 91.0167 149.256C90.746 149.079 90.382 148.99 89.9247 148.99C89.458 148.99 89.0893 149.079 88.8187 149.256C88.548 149.424 88.352 149.709 88.2307 150.11C88.1187 150.502 88.0627 151.039 88.0627 151.72ZM99.538 155.514L99.356 154.87C98.9453 155.131 98.5486 155.327 98.166 155.458C97.7833 155.579 97.3866 155.64 96.976 155.64C96.164 155.64 95.534 155.318 95.086 154.674C94.6473 154.03 94.428 153.101 94.428 151.888C94.428 150.955 94.5493 150.189 94.792 149.592C95.044 148.995 95.4266 148.551 95.94 148.262C96.4626 147.963 97.1113 147.814 97.886 147.814C98.11 147.814 98.348 147.828 98.6 147.856C98.852 147.875 99.0993 147.907 99.342 147.954V145.14H100.868V155.514H99.538ZM99.342 153.764V149.13C99.0806 149.065 98.838 149.018 98.614 148.99C98.3993 148.962 98.1986 148.948 98.012 148.948C97.5546 148.948 97.1766 149.041 96.878 149.228C96.5793 149.405 96.36 149.699 96.22 150.11C96.08 150.521 96.01 151.071 96.01 151.762C96.01 152.341 96.0706 152.826 96.192 153.218C96.3133 153.601 96.486 153.89 96.71 154.086C96.9433 154.273 97.2233 154.366 97.55 154.366C97.7366 154.366 97.9233 154.347 98.11 154.31C98.306 154.263 98.502 154.198 98.698 154.114C98.894 154.021 99.1086 153.904 99.342 153.764Z" fill="#6F6F6A"/>
<path fill-rule="evenodd" clip-rule="evenodd" d="M132.995 144.5H136.207V147.69H132.995V144.5ZM133.542 145.048H135.66V147.143H133.542V145.048ZM134.066 145.548H135.16V146.643H134.066V145.548ZM127.689 146.214H129.426C130.854 146.214 132.02 147.381 132.02 148.81C132.02 150.238 130.854 151.381 129.426 151.381H127.689V153.357H126V151.381V147.476H127.689V146.214ZM127.689 147.5V150.119H129.117C129.854 150.119 130.449 149.524 130.449 148.81C130.449 148.071 129.854 147.5 129.117 147.5H127.689ZM132.995 148.786H134.684V153.357H132.995V148.786ZM143.654 146.214H145.391C146.819 146.214 147.985 147.381 147.985 148.81C147.985 150.238 146.819 151.381 145.391 151.381H143.654V153.357H141.965V151.381V147.476H143.654V146.214ZM143.654 147.5V150.119H145.082C145.819 150.119 146.414 149.524 146.414 148.81C146.414 148.071 145.819 147.5 145.082 147.5H143.654ZM138.61 147.81C139.562 147.81 140.418 148.262 140.942 148.952L140.038 149.857C139.776 149.381 139.3 149.071 138.753 149.071C137.944 149.071 137.278 149.762 137.278 150.643C137.278 151.5 137.944 152.214 138.753 152.214C139.3 152.214 139.776 151.881 140.038 151.429L140.942 152.333C140.418 153.024 139.562 153.476 138.61 153.476C137.016 153.476 135.707 152.214 135.707 150.667C135.684 149.071 136.992 147.81 138.61 147.81ZM155.337 155.5H156.978L160 147.905H158.358L156.978 151.405L155.598 147.905H153.957L156.169 153.476L155.337 155.5ZM153.528 153.262H152.006V152.833C150.197 154.024 148.675 153.238 148.484 152.071C148.27 150.786 149.079 149.833 152.148 150.095C152.148 148.929 150.411 148.786 149.222 149.595L148.675 148.5C150.84 147.357 153.528 147.714 153.528 149.619V153.262ZM152.196 150.976H150.887C149.579 150.976 149.864 152.667 151.125 152.405C151.768 152.262 152.172 151.833 152.196 150.976Z" fill="#21C25E"/>
<path d="M217.75 148.625L220.5 151.375L223.25 148.625" stroke="#6F6F6A" stroke-linecap="round" stroke-linejoin="round"/>
</svg>
