<svg width="280" height="202" viewBox="0 0 280 202" fill="none" xmlns="http://www.w3.org/2000/svg">
<rect width="280" height="202" fill="white"/>
<path fill-rule="evenodd" clip-rule="evenodd" d="M66.6932 25.9702C66.9882 25.9702 67.2272 26.2093 67.2272 26.5042V30.5492C67.2272 30.8441 67.4663 31.0832 67.7612 31.0832H69.5505C69.8454 31.0832 70.0845 30.8441 70.0845 30.5492V26.5042C70.0845 26.2093 70.3236 25.9702 70.6185 25.9702H74.6635C74.9584 25.9702 75.1975 25.7311 75.1975 25.4362V23.647C75.1975 23.3521 74.9584 23.113 74.6635 23.113H70.6185C70.3236 23.113 70.0845 22.8739 70.0845 22.579V18.534C70.0845 18.2391 69.8454 18 69.5505 18L67.7612 18C67.4663 18 67.2272 18.2391 67.2272 18.534V22.579C67.2272 22.8739 66.9882 23.113 66.6932 23.113H62.6483C62.3533 23.113 62.1143 23.3521 62.1143 23.647V25.4362C62.1143 25.7311 62.3533 25.9702 62.6483 25.9702H66.6932Z" fill="#008CFF"/>
<path fill-rule="evenodd" clip-rule="evenodd" d="M65.7337 27.4316V38.8852C65.7337 39.672 65.4211 40.4266 64.8648 40.9829C64.3084 41.5393 63.5538 41.8519 62.767 41.8519H44.9667C44.1799 41.8519 43.4253 41.5393 42.8689 40.9829C42.3126 40.4266 42 39.672 42 38.8852V21.0849C42 20.2981 42.3126 19.5435 42.8689 18.9871C43.4253 18.4307 44.1799 18.1182 44.9667 18.1182H62.767C63.5538 18.1182 64.3084 18.4307 64.8648 18.9871C65.4211 19.5435 65.7337 20.2981 65.7337 21.0849V21.5616H62.2478C61.4614 21.5616 60.8238 22.1991 60.8238 22.9856V26.0076C60.8238 26.794 61.4614 27.4316 62.2478 27.4316H65.7337ZM56.4891 22.9127C55.7936 22.2173 54.8504 21.8266 53.8669 21.8266C52.8833 21.8266 51.9401 22.2173 51.2446 22.9127C50.5492 23.6082 50.1585 24.5514 50.1585 25.5349C50.1585 26.5185 50.5492 27.4617 51.2446 28.1572C51.9401 28.8526 52.8833 29.2433 53.8669 29.2433C54.8504 29.2433 55.7936 28.8526 56.4891 28.1572C57.1845 27.4617 57.5752 26.5185 57.5752 25.5349C57.5752 24.5514 57.1845 23.6082 56.4891 22.9127ZM46.4501 37.4018H61.2836V37.031C61.2836 34.2882 57.9402 31.4684 53.8669 31.4684C49.7936 31.4684 46.4501 34.2882 46.4501 37.031V37.4018Z" fill="#008CFF"/>
<path d="M84.68 38V20.72H87.224L95.732 33.56V20.72H98.276V38H95.732L87.224 25.148V38H84.68ZM107.133 38.36C105.845 38.36 104.713 38.08 103.737 37.52C102.769 36.952 102.013 36.164 101.469 35.156C100.933 34.14 100.665 32.964 100.665 31.628C100.665 30.212 100.929 28.984 101.457 27.944C101.993 26.904 102.737 26.1 103.689 25.532C104.641 24.964 105.749 24.68 107.013 24.68C108.333 24.68 109.457 24.988 110.385 25.604C111.313 26.212 112.005 27.08 112.461 28.208C112.925 29.336 113.109 30.676 113.013 32.228H110.505V31.316C110.489 29.812 110.201 28.7 109.641 27.98C109.089 27.26 108.245 26.9 107.109 26.9C105.853 26.9 104.909 27.296 104.277 28.088C103.645 28.88 103.329 30.024 103.329 31.52C103.329 32.944 103.645 34.048 104.277 34.832C104.909 35.608 105.821 35.996 107.013 35.996C107.797 35.996 108.473 35.82 109.041 35.468C109.617 35.108 110.065 34.596 110.385 33.932L112.845 34.712C112.341 35.872 111.577 36.772 110.553 37.412C109.529 38.044 108.389 38.36 107.133 38.36ZM102.513 32.228V30.272H111.765V32.228H102.513ZM117.757 38L113.797 25.028L116.281 25.04L118.993 33.932L121.729 25.04H123.889L126.625 33.932L129.337 25.04H131.809L127.849 38H125.833L122.809 28.616L119.773 38H117.757ZM141.943 38.36C140.983 38.36 140.179 38.184 139.531 37.832C138.883 37.472 138.391 37 138.055 36.416C137.727 35.824 137.563 35.176 137.563 34.472C137.563 33.816 137.679 33.24 137.911 32.744C138.143 32.248 138.487 31.828 138.943 31.484C139.399 31.132 139.959 30.848 140.623 30.632C141.199 30.464 141.851 30.316 142.579 30.188C143.307 30.06 144.071 29.94 144.871 29.828C145.679 29.716 146.479 29.604 147.271 29.492L146.359 29.996C146.375 28.98 146.159 28.228 145.711 27.74C145.271 27.244 144.511 26.996 143.431 26.996C142.751 26.996 142.127 27.156 141.559 27.476C140.991 27.788 140.595 28.308 140.371 29.036L138.031 28.316C138.351 27.204 138.959 26.32 139.855 25.664C140.759 25.008 141.959 24.68 143.455 24.68C144.615 24.68 145.623 24.88 146.479 25.28C147.343 25.672 147.975 26.296 148.375 27.152C148.583 27.576 148.711 28.024 148.759 28.496C148.807 28.968 148.831 29.476 148.831 30.02V38H146.611V35.036L147.043 35.42C146.507 36.412 145.823 37.152 144.991 37.64C144.167 38.12 143.151 38.36 141.943 38.36ZM142.387 36.308C143.099 36.308 143.711 36.184 144.223 35.936C144.735 35.68 145.147 35.356 145.459 34.964C145.771 34.572 145.975 34.164 146.071 33.74C146.207 33.356 146.283 32.924 146.299 32.444C146.323 31.964 146.335 31.58 146.335 31.292L147.151 31.592C146.359 31.712 145.639 31.82 144.991 31.916C144.343 32.012 143.755 32.108 143.227 32.204C142.707 32.292 142.243 32.4 141.835 32.528C141.491 32.648 141.183 32.792 140.911 32.96C140.647 33.128 140.435 33.332 140.275 33.572C140.123 33.812 140.047 34.104 140.047 34.448C140.047 34.784 140.131 35.096 140.299 35.384C140.467 35.664 140.723 35.888 141.067 36.056C141.411 36.224 141.851 36.308 142.387 36.308ZM157.251 38.36C155.923 38.36 154.795 38.064 153.867 37.472C152.939 36.88 152.227 36.068 151.731 35.036C151.243 34.004 150.995 32.832 150.987 31.52C150.995 30.184 151.251 29.004 151.755 27.98C152.259 26.948 152.979 26.14 153.915 25.556C154.851 24.972 155.975 24.68 157.287 24.68C158.703 24.68 159.911 25.032 160.911 25.736C161.919 26.44 162.583 27.404 162.903 28.628L160.407 29.348C160.159 28.62 159.751 28.056 159.183 27.656C158.623 27.248 157.979 27.044 157.251 27.044C156.427 27.044 155.751 27.24 155.223 27.632C154.695 28.016 154.303 28.544 154.047 29.216C153.791 29.888 153.659 30.656 153.651 31.52C153.659 32.856 153.963 33.936 154.563 34.76C155.171 35.584 156.067 35.996 157.251 35.996C158.059 35.996 158.711 35.812 159.207 35.444C159.711 35.068 160.095 34.532 160.359 33.836L162.903 34.436C162.479 35.7 161.779 36.672 160.803 37.352C159.827 38.024 158.643 38.36 157.251 38.36ZM170.3 38.36C168.972 38.36 167.844 38.064 166.916 37.472C165.988 36.88 165.276 36.068 164.78 35.036C164.292 34.004 164.044 32.832 164.036 31.52C164.044 30.184 164.3 29.004 164.804 27.98C165.308 26.948 166.028 26.14 166.964 25.556C167.9 24.972 169.024 24.68 170.336 24.68C171.752 24.68 172.96 25.032 173.96 25.736C174.968 26.44 175.632 27.404 175.952 28.628L173.456 29.348C173.208 28.62 172.8 28.056 172.232 27.656C171.672 27.248 171.028 27.044 170.3 27.044C169.476 27.044 168.8 27.24 168.272 27.632C167.744 28.016 167.352 28.544 167.096 29.216C166.84 29.888 166.708 30.656 166.7 31.52C166.708 32.856 167.012 33.936 167.612 34.76C168.22 35.584 169.116 35.996 170.3 35.996C171.108 35.996 171.76 35.812 172.256 35.444C172.76 35.068 173.144 34.532 173.408 33.836L175.952 34.436C175.528 35.7 174.828 36.672 173.852 37.352C172.876 38.024 171.692 38.36 170.3 38.36ZM183.433 38.36C182.137 38.36 181.013 38.068 180.061 37.484C179.109 36.9 178.373 36.096 177.853 35.072C177.341 34.04 177.085 32.852 177.085 31.508C177.085 30.156 177.349 28.968 177.877 27.944C178.405 26.912 179.145 26.112 180.097 25.544C181.049 24.968 182.161 24.68 183.433 24.68C184.729 24.68 185.853 24.972 186.805 25.556C187.757 26.14 188.493 26.944 189.013 27.968C189.533 28.992 189.793 30.172 189.793 31.508C189.793 32.86 189.529 34.052 189.001 35.084C188.481 36.108 187.745 36.912 186.793 37.496C185.841 38.072 184.721 38.36 183.433 38.36ZM183.433 35.996C184.673 35.996 185.597 35.58 186.205 34.748C186.821 33.908 187.129 32.828 187.129 31.508C187.129 30.156 186.817 29.076 186.193 28.268C185.577 27.452 184.657 27.044 183.433 27.044C182.593 27.044 181.901 27.236 181.357 27.62C180.813 27.996 180.409 28.52 180.145 29.192C179.881 29.856 179.749 30.628 179.749 31.508C179.749 32.868 180.061 33.956 180.685 34.772C181.309 35.588 182.225 35.996 183.433 35.996ZM197.074 38.348C196.178 38.348 195.426 38.204 194.818 37.916C194.21 37.628 193.714 37.252 193.33 36.788C192.954 36.316 192.666 35.804 192.466 35.252C192.266 34.7 192.13 34.16 192.058 33.632C191.986 33.104 191.95 32.64 191.95 32.24V25.04H194.494V31.412C194.494 31.916 194.534 32.436 194.614 32.972C194.702 33.5 194.862 33.992 195.094 34.448C195.334 34.904 195.666 35.272 196.09 35.552C196.522 35.832 197.082 35.972 197.77 35.972C198.218 35.972 198.642 35.9 199.042 35.756C199.442 35.604 199.79 35.364 200.086 35.036C200.39 34.708 200.626 34.276 200.794 33.74C200.97 33.204 201.058 32.552 201.058 31.784L202.618 32.372C202.618 33.548 202.398 34.588 201.958 35.492C201.518 36.388 200.886 37.088 200.062 37.592C199.238 38.096 198.242 38.348 197.074 38.348ZM201.358 38V34.256H201.058V25.04H203.59V38H201.358ZM215.811 38V31.628C215.811 31.124 215.767 30.608 215.679 30.08C215.599 29.544 215.439 29.048 215.199 28.592C214.967 28.136 214.635 27.768 214.203 27.488C213.779 27.208 213.223 27.068 212.535 27.068C212.087 27.068 211.663 27.144 211.263 27.296C210.863 27.44 210.511 27.676 210.207 28.004C209.911 28.332 209.675 28.764 209.499 29.3C209.331 29.836 209.247 30.488 209.247 31.256L207.687 30.668C207.687 29.492 207.907 28.456 208.347 27.56C208.787 26.656 209.419 25.952 210.243 25.448C211.067 24.944 212.063 24.692 213.231 24.692C214.127 24.692 214.879 24.836 215.487 25.124C216.095 25.412 216.587 25.792 216.963 26.264C217.347 26.728 217.639 27.236 217.839 27.788C218.039 28.34 218.175 28.88 218.247 29.408C218.319 29.936 218.355 30.4 218.355 30.8V38H215.811ZM206.703 38V25.04H208.947V28.784H209.247V38H206.703ZM228.657 38C227.841 38.16 227.041 38.228 226.257 38.204C225.473 38.18 224.773 38.028 224.157 37.748C223.541 37.468 223.077 37.028 222.765 36.428C222.485 35.892 222.333 35.348 222.309 34.796C222.293 34.236 222.285 33.604 222.285 32.9V21.44H224.805V32.78C224.805 33.3 224.809 33.752 224.817 34.136C224.833 34.52 224.917 34.844 225.069 35.108C225.357 35.604 225.813 35.888 226.437 35.96C227.069 36.024 227.809 35.996 228.657 35.876V38ZM219.801 27.056V25.04H228.657V27.056H219.801Z" fill="#008CFF"/>
<path d="M55.062 84.202V75.4H56.592V84.22C56.592 84.652 56.652 85.024 56.772 85.336C56.892 85.648 57.06 85.906 57.276 86.11C57.492 86.302 57.744 86.458 58.032 86.578C58.32 86.698 58.62 86.782 58.932 86.83C59.256 86.866 59.58 86.884 59.904 86.884C60.24 86.884 60.564 86.86 60.876 86.812C61.2 86.764 61.5 86.686 61.776 86.578C62.052 86.458 62.298 86.296 62.514 86.092C62.73 85.888 62.898 85.636 63.018 85.336C63.138 85.024 63.198 84.652 63.198 84.22V75.4H64.728V84.202C64.728 84.826 64.644 85.366 64.476 85.822C64.32 86.266 64.092 86.644 63.792 86.956C63.492 87.256 63.138 87.496 62.73 87.676C62.334 87.856 61.896 87.982 61.416 88.054C60.936 88.138 60.426 88.18 59.886 88.18C59.37 88.18 58.866 88.138 58.374 88.054C57.894 87.982 57.45 87.856 57.042 87.676C56.646 87.496 56.298 87.256 55.998 86.956C55.698 86.644 55.464 86.266 55.296 85.822C55.14 85.366 55.062 84.826 55.062 84.202ZM66.2307 87.622L66.4467 86.47C66.6507 86.554 66.8787 86.632 67.1307 86.704C67.3947 86.764 67.6647 86.818 67.9407 86.866C68.2167 86.914 68.4987 86.95 68.7867 86.974C69.0747 86.998 69.3507 87.01 69.6147 87.01C70.3707 87.01 70.9347 86.884 71.3067 86.632C71.6907 86.368 71.8827 85.996 71.8827 85.516C71.8827 85.264 71.8287 85.048 71.7207 84.868C71.6127 84.676 71.4507 84.514 71.2347 84.382C71.0187 84.238 70.7427 84.112 70.4067 84.004C70.0827 83.884 69.7047 83.764 69.2727 83.644C68.8527 83.536 68.4747 83.41 68.1387 83.266C67.8027 83.11 67.5087 82.924 67.2567 82.708C67.0167 82.48 66.8307 82.222 66.6987 81.934C66.5667 81.634 66.5007 81.292 66.5007 80.908C66.5007 80.044 66.8067 79.372 67.4187 78.892C68.0307 78.412 68.9307 78.172 70.1187 78.172C70.4667 78.172 70.8027 78.19 71.1267 78.226C71.4627 78.262 71.7747 78.316 72.0627 78.388C72.3627 78.448 72.6267 78.526 72.8547 78.622L72.6387 79.774C72.3987 79.702 72.1467 79.636 71.8827 79.576C71.6307 79.516 71.3547 79.468 71.0547 79.432C70.7667 79.396 70.4547 79.378 70.1187 79.378C69.4107 79.378 68.8767 79.504 68.5167 79.756C68.1567 80.008 67.9767 80.35 67.9767 80.782C67.9767 81.046 68.0307 81.268 68.1387 81.448C68.2587 81.616 68.4267 81.766 68.6427 81.898C68.8707 82.018 69.1287 82.126 69.4167 82.222C69.7167 82.318 70.0407 82.414 70.3887 82.51C70.8447 82.63 71.2587 82.768 71.6307 82.924C72.0027 83.068 72.3147 83.248 72.5667 83.464C72.8307 83.68 73.0347 83.944 73.1787 84.256C73.3227 84.568 73.3947 84.946 73.3947 85.39C73.3947 85.774 73.3287 86.122 73.1967 86.434C73.0767 86.734 72.9027 86.998 72.6747 87.226C72.4587 87.442 72.1947 87.622 71.8827 87.766C71.5707 87.898 71.2227 88 70.8387 88.072C70.4547 88.144 70.0407 88.18 69.5967 88.18C69.1887 88.18 68.7807 88.156 68.3727 88.108C67.9767 88.072 67.5927 88.012 67.2207 87.928C66.8607 87.844 66.5307 87.742 66.2307 87.622ZM78.8192 88.18C78.1592 88.18 77.5712 88.09 77.0552 87.91C76.5392 87.73 76.1012 87.448 75.7412 87.064C75.3932 86.68 75.1232 86.188 74.9312 85.588C74.7512 84.988 74.6612 84.268 74.6612 83.428C74.6612 82.456 74.7692 81.634 74.9852 80.962C75.2132 80.278 75.5312 79.732 75.9392 79.324C76.3472 78.916 76.8152 78.622 77.3432 78.442C77.8832 78.262 78.4712 78.172 79.1072 78.172C80.3312 78.172 81.2432 78.502 81.8432 79.162C82.4432 79.81 82.7432 80.866 82.7432 82.33C82.7432 82.402 82.7372 82.504 82.7252 82.636C82.7252 82.768 82.7192 82.894 82.7072 83.014C82.4552 83.026 82.1132 83.05 81.6812 83.086C81.2612 83.122 80.7692 83.158 80.2052 83.194C79.6412 83.23 79.0232 83.26 78.3512 83.284C77.6792 83.308 76.9712 83.326 76.2272 83.338C76.2152 83.398 76.2092 83.458 76.2092 83.518C76.2092 83.578 76.2092 83.644 76.2092 83.716C76.2092 84.496 76.3172 85.126 76.5332 85.606C76.7612 86.074 77.0852 86.416 77.5052 86.632C77.9372 86.848 78.4592 86.956 79.0712 86.956C79.4552 86.956 79.8452 86.938 80.2412 86.902C80.6372 86.854 81.0152 86.794 81.3752 86.722C81.7472 86.65 82.0892 86.578 82.4012 86.506L82.5992 87.64C82.2752 87.748 81.9092 87.844 81.5012 87.928C81.1052 88.012 80.6852 88.072 80.2412 88.108C79.7972 88.156 79.3232 88.18 78.8192 88.18ZM76.2452 82.294C76.8212 82.294 77.3732 82.288 77.9012 82.276C78.4412 82.252 78.9332 82.228 79.3772 82.204C79.8332 82.18 80.2172 82.156 80.5292 82.132C80.8412 82.108 81.0692 82.09 81.2132 82.078C81.2012 81.406 81.1172 80.866 80.9612 80.458C80.8052 80.05 80.5652 79.756 80.2412 79.576C79.9172 79.384 79.5032 79.288 78.9992 79.288C78.6872 79.288 78.3812 79.336 78.0812 79.432C77.7812 79.516 77.4992 79.672 77.2352 79.9C76.9832 80.116 76.7672 80.422 76.5872 80.818C76.4192 81.202 76.3052 81.694 76.2452 82.294ZM86.0459 78.352V79.54C86.4059 79.216 86.7419 78.958 87.0539 78.766C87.3659 78.562 87.6839 78.412 88.0079 78.316C88.3319 78.22 88.6679 78.172 89.0159 78.172C89.2679 78.172 89.5139 78.19 89.7539 78.226C89.9939 78.262 90.2159 78.31 90.4199 78.37L90.1679 79.738C89.9519 79.678 89.7239 79.636 89.4839 79.612C89.2559 79.576 89.0399 79.558 88.8359 79.558C88.4159 79.558 87.9839 79.648 87.5399 79.828C87.1079 79.996 86.6519 80.302 86.1719 80.746V88H84.6779V78.352H86.0459ZM91.7837 88V78.352H93.1517V79.198C93.5477 78.982 93.9257 78.796 94.2857 78.64C94.6577 78.484 95.0297 78.37 95.4017 78.298C95.7857 78.214 96.1877 78.172 96.6077 78.172C97.1957 78.172 97.6877 78.274 98.0837 78.478C98.4797 78.682 98.7797 78.982 98.9837 79.378C99.1877 79.762 99.2897 80.242 99.2897 80.818V88H97.7957V81.232C97.7957 80.656 97.6457 80.218 97.3457 79.918C97.0577 79.606 96.6137 79.45 96.0137 79.45C95.6897 79.45 95.3777 79.486 95.0777 79.558C94.7777 79.63 94.4837 79.726 94.1957 79.846C93.9077 79.954 93.6017 80.092 93.2777 80.26V88H91.7837ZM101.003 85.678C101.003 85.102 101.123 84.628 101.363 84.256C101.603 83.884 101.969 83.59 102.461 83.374C102.953 83.146 103.559 82.972 104.279 82.852C104.999 82.72 105.833 82.612 106.781 82.528V81.178C106.781 80.626 106.601 80.206 106.241 79.918C105.881 79.618 105.341 79.468 104.621 79.468C104.381 79.468 104.111 79.48 103.811 79.504C103.511 79.528 103.199 79.57 102.875 79.63C102.551 79.69 102.215 79.774 101.867 79.882L101.597 78.658C102.113 78.502 102.641 78.382 103.181 78.298C103.721 78.214 104.231 78.172 104.711 78.172C105.503 78.172 106.163 78.286 106.691 78.514C107.231 78.73 107.633 79.06 107.897 79.504C108.173 79.948 108.311 80.5 108.311 81.16V85.84C108.311 86.236 108.365 86.506 108.473 86.65C108.593 86.782 108.749 86.848 108.941 86.848C109.013 86.848 109.091 86.842 109.175 86.83C109.259 86.818 109.349 86.794 109.445 86.758L109.607 87.874C109.427 87.97 109.235 88.042 109.031 88.09C108.839 88.15 108.635 88.18 108.419 88.18C107.987 88.18 107.645 88.072 107.393 87.856C107.141 87.628 106.979 87.286 106.907 86.83C106.619 87.058 106.295 87.28 105.935 87.496C105.587 87.7 105.203 87.868 104.783 88C104.375 88.12 103.925 88.18 103.433 88.18C103.061 88.18 102.725 88.126 102.425 88.018C102.137 87.91 101.885 87.754 101.669 87.55C101.453 87.334 101.285 87.07 101.165 86.758C101.057 86.446 101.003 86.086 101.003 85.678ZM102.533 85.552C102.533 86.068 102.659 86.458 102.911 86.722C103.175 86.974 103.523 87.1 103.955 87.1C104.291 87.1 104.627 87.046 104.963 86.938C105.299 86.83 105.623 86.686 105.935 86.506C106.259 86.314 106.541 86.098 106.781 85.858V83.428C106.145 83.488 105.563 83.56 105.035 83.644C104.519 83.716 104.069 83.83 103.685 83.986C103.313 84.142 103.025 84.346 102.821 84.598C102.629 84.85 102.533 85.168 102.533 85.552ZM111.023 88V78.352H112.391V79.198C112.727 78.982 113.063 78.802 113.399 78.658C113.735 78.514 114.077 78.4 114.425 78.316C114.785 78.232 115.151 78.19 115.523 78.19C115.895 78.19 116.213 78.238 116.477 78.334C116.753 78.418 116.987 78.544 117.179 78.712C117.371 78.868 117.527 79.06 117.647 79.288C117.959 79.084 118.283 78.904 118.619 78.748C118.967 78.58 119.339 78.442 119.735 78.334C120.143 78.226 120.581 78.172 121.049 78.172C121.409 78.172 121.727 78.22 122.003 78.316C122.291 78.4 122.531 78.526 122.723 78.694C122.915 78.862 123.071 79.06 123.191 79.288C123.323 79.504 123.413 79.744 123.461 80.008C123.521 80.272 123.551 80.542 123.551 80.818V88H122.039V81.232C122.039 81.028 122.015 80.824 121.967 80.62C121.919 80.404 121.835 80.212 121.715 80.044C121.607 79.864 121.445 79.726 121.229 79.63C121.013 79.522 120.737 79.468 120.401 79.468C120.077 79.468 119.765 79.51 119.465 79.594C119.165 79.666 118.883 79.762 118.619 79.882C118.367 80.002 118.133 80.128 117.917 80.26C117.965 80.404 117.995 80.554 118.007 80.71C118.031 80.866 118.043 81.016 118.043 81.16V88H116.549V81.268C116.549 81.052 116.525 80.842 116.477 80.638C116.429 80.422 116.345 80.23 116.225 80.062C116.105 79.894 115.937 79.756 115.721 79.648C115.517 79.54 115.247 79.486 114.911 79.486C114.623 79.486 114.347 79.522 114.083 79.594C113.819 79.654 113.555 79.744 113.291 79.864C113.039 79.972 112.781 80.104 112.517 80.26V88H111.023ZM129.694 88.18C129.034 88.18 128.446 88.09 127.93 87.91C127.414 87.73 126.976 87.448 126.616 87.064C126.268 86.68 125.998 86.188 125.806 85.588C125.626 84.988 125.536 84.268 125.536 83.428C125.536 82.456 125.644 81.634 125.86 80.962C126.088 80.278 126.406 79.732 126.814 79.324C127.222 78.916 127.69 78.622 128.218 78.442C128.758 78.262 129.346 78.172 129.982 78.172C131.206 78.172 132.118 78.502 132.718 79.162C133.318 79.81 133.618 80.866 133.618 82.33C133.618 82.402 133.612 82.504 133.6 82.636C133.6 82.768 133.594 82.894 133.582 83.014C133.33 83.026 132.988 83.05 132.556 83.086C132.136 83.122 131.644 83.158 131.08 83.194C130.516 83.23 129.898 83.26 129.226 83.284C128.554 83.308 127.846 83.326 127.102 83.338C127.09 83.398 127.084 83.458 127.084 83.518C127.084 83.578 127.084 83.644 127.084 83.716C127.084 84.496 127.192 85.126 127.408 85.606C127.636 86.074 127.96 86.416 128.38 86.632C128.812 86.848 129.334 86.956 129.946 86.956C130.33 86.956 130.72 86.938 131.116 86.902C131.512 86.854 131.89 86.794 132.25 86.722C132.622 86.65 132.964 86.578 133.276 86.506L133.474 87.64C133.15 87.748 132.784 87.844 132.376 87.928C131.98 88.012 131.56 88.072 131.116 88.108C130.672 88.156 130.198 88.18 129.694 88.18ZM127.12 82.294C127.696 82.294 128.248 82.288 128.776 82.276C129.316 82.252 129.808 82.228 130.252 82.204C130.708 82.18 131.092 82.156 131.404 82.132C131.716 82.108 131.944 82.09 132.088 82.078C132.076 81.406 131.992 80.866 131.836 80.458C131.68 80.05 131.44 79.756 131.116 79.576C130.792 79.384 130.378 79.288 129.874 79.288C129.562 79.288 129.256 79.336 128.956 79.432C128.656 79.516 128.374 79.672 128.11 79.9C127.858 80.116 127.642 80.422 127.462 80.818C127.294 81.202 127.18 81.694 127.12 82.294Z" fill="#6F6F6A"/>
<path d="M55.566 124.43L54.936 123.998L56.25 121.928L54.108 121.028L54.36 120.344L56.52 121.046L56.574 118.58H57.348L57.42 121.046L59.562 120.344L59.814 121.028L57.69 121.928L58.968 124.016L58.356 124.43L56.97 122.486L55.566 124.43ZM61.6698 124.43L61.0398 123.998L62.3538 121.928L60.2118 121.028L60.4638 120.344L62.6238 121.046L62.6778 118.58H63.4518L63.5238 121.046L65.6658 120.344L65.9178 121.028L63.7938 121.928L65.0718 124.016L64.4598 124.43L63.0738 122.486L61.6698 124.43ZM67.7737 124.43L67.1437 123.998L68.4577 121.928L66.3157 121.028L66.5677 120.344L68.7277 121.046L68.7817 118.58H69.5557L69.6277 121.046L71.7697 120.344L72.0217 121.028L69.8977 121.928L71.1757 124.016L70.5637 124.43L69.1777 122.486L67.7737 124.43ZM73.8775 124.43L73.2475 123.998L74.5615 121.928L72.4195 121.028L72.6715 120.344L74.8315 121.046L74.8855 118.58H75.6595L75.7315 121.046L77.8735 120.344L78.1255 121.028L76.0015 121.928L77.2795 124.016L76.6675 124.43L75.2815 122.486L73.8775 124.43ZM79.9813 124.43L79.3513 123.998L80.6653 121.928L78.5233 121.028L78.7753 120.344L80.9353 121.046L80.9893 118.58H81.7633L81.8353 121.046L83.9773 120.344L84.2293 121.028L82.1053 121.928L83.3833 124.016L82.7713 124.43L81.3853 122.486L79.9813 124.43ZM86.0851 124.43L85.4551 123.998L86.7691 121.928L84.6271 121.028L84.8791 120.344L87.0391 121.046L87.0931 118.58H87.8671L87.9391 121.046L90.0811 120.344L90.3331 121.028L88.2091 121.928L89.4871 124.016L88.8751 124.43L87.4891 122.486L86.0851 124.43ZM92.189 124.43L91.559 123.998L92.873 121.928L90.731 121.028L90.983 120.344L93.143 121.046L93.197 118.58H93.971L94.043 121.046L96.185 120.344L96.437 121.028L94.313 121.928L95.591 124.016L94.979 124.43L93.593 122.486L92.189 124.43ZM98.2928 124.43L97.6628 123.998L98.9768 121.928L96.8348 121.028L97.0868 120.344L99.2468 121.046L99.3008 118.58H100.075L100.147 121.046L102.289 120.344L102.541 121.028L100.417 121.928L101.695 124.016L101.083 124.43L99.6968 122.486L98.2928 124.43ZM104.397 124.43L103.767 123.998L105.081 121.928L102.939 121.028L103.191 120.344L105.351 121.046L105.405 118.58H106.179L106.251 121.046L108.393 120.344L108.645 121.028L106.521 121.928L107.799 124.016L107.187 124.43L105.801 122.486L104.397 124.43ZM110.5 124.43L109.87 123.998L111.184 121.928L109.042 121.028L109.294 120.344L111.454 121.046L111.508 118.58H112.282L112.354 121.046L114.496 120.344L114.748 121.028L112.624 121.928L113.902 124.016L113.29 124.43L111.904 122.486L110.5 124.43ZM116.604 124.43L115.974 123.998L117.288 121.928L115.146 121.028L115.398 120.344L117.558 121.046L117.612 118.58H118.386L118.458 121.046L120.6 120.344L120.852 121.028L118.728 121.928L120.006 124.016L119.394 124.43L118.008 122.486L116.604 124.43ZM122.708 124.43L122.078 123.998L123.392 121.928L121.25 121.028L121.502 120.344L123.662 121.046L123.716 118.58H124.49L124.562 121.046L126.704 120.344L126.956 121.028L124.832 121.928L126.11 124.016L125.498 124.43L124.112 122.486L122.708 124.43ZM128.812 124.43L128.182 123.998L129.496 121.928L127.354 121.028L127.606 120.344L129.766 121.046L129.82 118.58H130.594L130.666 121.046L132.808 120.344L133.06 121.028L130.936 121.928L132.214 124.016L131.602 124.43L130.216 122.486L128.812 124.43Z" fill="#6F6F6A"/>
<path d="M43.5 71C43.5 66.8579 46.8579 63.5 51 63.5H227C231.142 63.5 234.5 66.8579 234.5 71V93C234.5 97.1421 231.142 100.5 227 100.5H51C46.8579 100.5 43.5 97.1421 43.5 93V71Z" stroke="#6F6F6A"/>
<path d="M43.5 114C43.5 109.858 46.8579 106.5 51 106.5H227C231.142 106.5 234.5 109.858 234.5 114V136C234.5 140.142 231.142 143.5 227 143.5H51C46.8579 143.5 43.5 140.142 43.5 136V114Z" stroke="#6F6F6A"/>
<path d="M43 157C43 152.582 46.5817 149 51 149H227C231.418 149 235 152.582 235 157V179C235 183.418 231.418 187 227 187H51C46.5817 187 43 183.418 43 179V157Z" fill="#008CFF"/>
<path d="M98.072 161.778L97.748 163.002C97.532 162.93 97.286 162.864 97.01 162.804C96.734 162.732 96.446 162.672 96.146 162.624C95.846 162.576 95.546 162.54 95.246 162.516C94.946 162.492 94.664 162.48 94.4 162.48C93.476 162.48 92.738 162.66 92.186 163.02C91.646 163.368 91.376 163.86 91.376 164.496C91.376 164.784 91.436 165.048 91.556 165.288C91.688 165.516 91.886 165.732 92.15 165.936C92.426 166.128 92.786 166.32 93.23 166.512C93.674 166.704 94.22 166.908 94.868 167.124C95.564 167.34 96.152 167.574 96.632 167.826C97.112 168.066 97.502 168.33 97.802 168.618C98.114 168.894 98.336 169.212 98.468 169.572C98.612 169.92 98.684 170.322 98.684 170.778C98.684 171.498 98.492 172.11 98.108 172.614C97.736 173.118 97.19 173.508 96.47 173.784C95.75 174.048 94.868 174.18 93.824 174.18C93.488 174.18 93.122 174.162 92.726 174.126C92.33 174.09 91.928 174.042 91.52 173.982C91.112 173.91 90.722 173.832 90.35 173.748C89.99 173.652 89.678 173.55 89.414 173.442L89.756 172.218C90.032 172.326 90.344 172.422 90.692 172.506C91.04 172.59 91.4 172.662 91.772 172.722C92.144 172.782 92.51 172.83 92.87 172.866C93.242 172.902 93.584 172.92 93.896 172.92C94.592 172.92 95.174 172.842 95.642 172.686C96.122 172.53 96.482 172.302 96.722 172.002C96.974 171.69 97.1 171.324 97.1 170.904C97.1 170.604 97.028 170.334 96.884 170.094C96.74 169.854 96.518 169.638 96.218 169.446C95.918 169.242 95.528 169.044 95.048 168.852C94.58 168.66 94.016 168.45 93.356 168.222C92.72 167.994 92.174 167.76 91.718 167.52C91.262 167.28 90.89 167.016 90.602 166.728C90.326 166.44 90.116 166.122 89.972 165.774C89.84 165.426 89.774 165.03 89.774 164.586C89.774 164.094 89.876 163.644 90.08 163.236C90.284 162.816 90.578 162.456 90.962 162.156C91.346 161.856 91.826 161.628 92.402 161.472C92.99 161.304 93.656 161.22 94.4 161.22C94.832 161.22 95.276 161.25 95.732 161.31C96.188 161.358 96.62 161.424 97.028 161.508C97.448 161.58 97.796 161.67 98.072 161.778ZM103.504 174.18C102.916 174.18 102.424 174.072 102.028 173.856C101.644 173.628 101.356 173.292 101.164 172.848C100.984 172.392 100.894 171.828 100.894 171.156V165.486H99.2381V164.478L100.894 164.352L101.092 162.066H102.406V164.352H105.628V165.486H102.406V171.048C102.406 171.696 102.526 172.164 102.766 172.452C103.018 172.74 103.426 172.884 103.99 172.884C104.278 172.884 104.566 172.86 104.854 172.812C105.142 172.752 105.43 172.68 105.718 172.596L105.934 173.766C105.49 173.91 105.064 174.012 104.656 174.072C104.248 174.144 103.864 174.18 103.504 174.18ZM106.67 171.678C106.67 171.102 106.79 170.628 107.03 170.256C107.27 169.884 107.636 169.59 108.128 169.374C108.62 169.146 109.226 168.972 109.946 168.852C110.666 168.72 111.5 168.612 112.448 168.528V167.178C112.448 166.626 112.268 166.206 111.908 165.918C111.548 165.618 111.008 165.468 110.288 165.468C110.048 165.468 109.778 165.48 109.478 165.504C109.178 165.528 108.866 165.57 108.542 165.63C108.218 165.69 107.882 165.774 107.534 165.882L107.264 164.658C107.78 164.502 108.308 164.382 108.848 164.298C109.388 164.214 109.898 164.172 110.378 164.172C111.17 164.172 111.83 164.286 112.358 164.514C112.898 164.73 113.3 165.06 113.564 165.504C113.84 165.948 113.978 166.5 113.978 167.16V171.84C113.978 172.236 114.032 172.506 114.14 172.65C114.26 172.782 114.416 172.848 114.608 172.848C114.68 172.848 114.758 172.842 114.842 172.83C114.926 172.818 115.016 172.794 115.112 172.758L115.274 173.874C115.094 173.97 114.902 174.042 114.698 174.09C114.506 174.15 114.302 174.18 114.086 174.18C113.654 174.18 113.312 174.072 113.06 173.856C112.808 173.628 112.646 173.286 112.574 172.83C112.286 173.058 111.962 173.28 111.602 173.496C111.254 173.7 110.87 173.868 110.45 174C110.042 174.12 109.592 174.18 109.1 174.18C108.728 174.18 108.392 174.126 108.092 174.018C107.804 173.91 107.552 173.754 107.336 173.55C107.12 173.334 106.952 173.07 106.832 172.758C106.724 172.446 106.67 172.086 106.67 171.678ZM108.2 171.552C108.2 172.068 108.326 172.458 108.578 172.722C108.842 172.974 109.19 173.1 109.622 173.1C109.958 173.1 110.294 173.046 110.63 172.938C110.966 172.83 111.29 172.686 111.602 172.506C111.926 172.314 112.208 172.098 112.448 171.858V169.428C111.812 169.488 111.23 169.56 110.702 169.644C110.186 169.716 109.736 169.83 109.352 169.986C108.98 170.142 108.692 170.346 108.488 170.598C108.296 170.85 108.2 171.168 108.2 171.552ZM118.058 164.352V165.54C118.418 165.216 118.754 164.958 119.066 164.766C119.378 164.562 119.696 164.412 120.02 164.316C120.344 164.22 120.68 164.172 121.028 164.172C121.28 164.172 121.526 164.19 121.766 164.226C122.006 164.262 122.228 164.31 122.432 164.37L122.18 165.738C121.964 165.678 121.736 165.636 121.496 165.612C121.268 165.576 121.052 165.558 120.848 165.558C120.428 165.558 119.996 165.648 119.552 165.828C119.12 165.996 118.664 166.302 118.184 166.746V174H116.69V164.352H118.058ZM127.194 174.18C126.606 174.18 126.114 174.072 125.718 173.856C125.334 173.628 125.046 173.292 124.854 172.848C124.674 172.392 124.584 171.828 124.584 171.156V165.486H122.928V164.478L124.584 164.352L124.782 162.066H126.096V164.352H129.318V165.486H126.096V171.048C126.096 171.696 126.216 172.164 126.456 172.452C126.708 172.74 127.116 172.884 127.68 172.884C127.968 172.884 128.256 172.86 128.544 172.812C128.832 172.752 129.12 172.68 129.408 172.596L129.624 173.766C129.18 173.91 128.754 174.012 128.346 174.072C127.938 174.144 127.554 174.18 127.194 174.18ZM139.367 174.18C138.779 174.18 138.287 174.072 137.891 173.856C137.507 173.628 137.219 173.292 137.027 172.848C136.847 172.392 136.757 171.828 136.757 171.156V165.486H135.101V164.478L136.757 164.352L136.955 162.066H138.269V164.352H141.491V165.486H138.269V171.048C138.269 171.696 138.389 172.164 138.629 172.452C138.881 172.74 139.289 172.884 139.853 172.884C140.141 172.884 140.429 172.86 140.717 172.812C141.005 172.752 141.293 172.68 141.581 172.596L141.797 173.766C141.353 173.91 140.927 174.012 140.519 174.072C140.111 174.144 139.727 174.18 139.367 174.18ZM144.617 164.352V165.54C144.977 165.216 145.313 164.958 145.625 164.766C145.937 164.562 146.255 164.412 146.579 164.316C146.903 164.22 147.239 164.172 147.587 164.172C147.839 164.172 148.085 164.19 148.325 164.226C148.565 164.262 148.787 164.31 148.991 164.37L148.739 165.738C148.523 165.678 148.295 165.636 148.055 165.612C147.827 165.576 147.611 165.558 147.407 165.558C146.987 165.558 146.555 165.648 146.111 165.828C145.679 165.996 145.223 166.302 144.743 166.746V174H143.249V164.352H144.617ZM149.251 171.678C149.251 171.102 149.371 170.628 149.611 170.256C149.851 169.884 150.217 169.59 150.709 169.374C151.201 169.146 151.807 168.972 152.527 168.852C153.247 168.72 154.081 168.612 155.029 168.528V167.178C155.029 166.626 154.849 166.206 154.489 165.918C154.129 165.618 153.589 165.468 152.869 165.468C152.629 165.468 152.359 165.48 152.059 165.504C151.759 165.528 151.447 165.57 151.123 165.63C150.799 165.69 150.463 165.774 150.115 165.882L149.845 164.658C150.361 164.502 150.889 164.382 151.429 164.298C151.969 164.214 152.479 164.172 152.959 164.172C153.751 164.172 154.411 164.286 154.939 164.514C155.479 164.73 155.881 165.06 156.145 165.504C156.421 165.948 156.559 166.5 156.559 167.16V171.84C156.559 172.236 156.613 172.506 156.721 172.65C156.841 172.782 156.997 172.848 157.189 172.848C157.261 172.848 157.339 172.842 157.423 172.83C157.507 172.818 157.597 172.794 157.693 172.758L157.855 173.874C157.675 173.97 157.483 174.042 157.279 174.09C157.087 174.15 156.883 174.18 156.667 174.18C156.235 174.18 155.893 174.072 155.641 173.856C155.389 173.628 155.227 173.286 155.155 172.83C154.867 173.058 154.543 173.28 154.183 173.496C153.835 173.7 153.451 173.868 153.031 174C152.623 174.12 152.173 174.18 151.681 174.18C151.309 174.18 150.973 174.126 150.673 174.018C150.385 173.91 150.133 173.754 149.917 173.55C149.701 173.334 149.533 173.07 149.413 172.758C149.305 172.446 149.251 172.086 149.251 171.678ZM150.781 171.552C150.781 172.068 150.907 172.458 151.159 172.722C151.423 172.974 151.771 173.1 152.203 173.1C152.539 173.1 152.875 173.046 153.211 172.938C153.547 172.83 153.871 172.686 154.183 172.506C154.507 172.314 154.789 172.098 155.029 171.858V169.428C154.393 169.488 153.811 169.56 153.283 169.644C152.767 169.716 152.317 169.83 151.933 169.986C151.561 170.142 151.273 170.346 151.069 170.598C150.877 170.85 150.781 171.168 150.781 171.552ZM165.197 174.018L164.999 173.136C164.459 173.496 163.937 173.76 163.433 173.928C162.941 174.096 162.431 174.18 161.903 174.18C160.871 174.18 160.073 173.772 159.509 172.956C158.945 172.128 158.663 170.94 158.663 169.392C158.663 168.192 158.813 167.208 159.113 166.44C159.425 165.672 159.905 165.102 160.553 164.73C161.201 164.358 162.017 164.172 163.001 164.172C163.301 164.172 163.619 164.19 163.955 164.226C164.303 164.25 164.651 164.298 164.999 164.37V160.68H166.511V174.018H165.197ZM164.999 172.02V165.558C164.627 165.462 164.285 165.396 163.973 165.36C163.673 165.324 163.391 165.306 163.127 165.306C162.467 165.306 161.921 165.438 161.489 165.702C161.057 165.954 160.739 166.374 160.535 166.962C160.331 167.538 160.229 168.312 160.229 169.284C160.229 170.076 160.313 170.742 160.481 171.282C160.661 171.822 160.913 172.23 161.237 172.506C161.573 172.77 161.975 172.902 162.443 172.902C162.719 172.902 162.989 172.872 163.253 172.812C163.517 172.752 163.787 172.656 164.063 172.524C164.351 172.392 164.663 172.224 164.999 172.02ZM169.7 162.408C169.364 162.408 169.124 162.348 168.98 162.228C168.836 162.108 168.764 161.898 168.764 161.598C168.764 161.286 168.83 161.07 168.962 160.95C169.106 160.83 169.352 160.77 169.7 160.77C170.036 160.77 170.27 160.83 170.402 160.95C170.546 161.07 170.618 161.286 170.618 161.598C170.618 161.898 170.546 162.108 170.402 162.228C170.27 162.348 170.036 162.408 169.7 162.408ZM168.944 174V164.352H170.438V174H168.944ZM172.885 174V164.352H174.253V165.198C174.649 164.982 175.027 164.796 175.387 164.64C175.759 164.484 176.131 164.37 176.503 164.298C176.887 164.214 177.289 164.172 177.709 164.172C178.297 164.172 178.789 164.274 179.185 164.478C179.581 164.682 179.881 164.982 180.085 165.378C180.289 165.762 180.391 166.242 180.391 166.818V174H178.897V167.232C178.897 166.656 178.747 166.218 178.447 165.918C178.159 165.606 177.715 165.45 177.115 165.45C176.791 165.45 176.479 165.486 176.179 165.558C175.879 165.63 175.585 165.726 175.297 165.846C175.009 165.954 174.703 166.092 174.379 166.26V174H172.885ZM186.313 177.96C184.921 177.96 183.871 177.744 183.163 177.312C182.455 176.88 182.101 176.232 182.101 175.368C182.101 175.032 182.155 174.72 182.263 174.432C182.383 174.156 182.557 173.904 182.785 173.676C183.025 173.448 183.325 173.25 183.685 173.082L184.657 173.406C184.369 173.526 184.129 173.67 183.937 173.838C183.757 174.006 183.619 174.192 183.523 174.396C183.439 174.6 183.397 174.828 183.397 175.08C183.397 175.464 183.505 175.788 183.721 176.052C183.937 176.316 184.267 176.514 184.711 176.646C185.167 176.778 185.731 176.844 186.403 176.844C187.111 176.844 187.705 176.766 188.185 176.61C188.665 176.466 189.031 176.256 189.283 175.98C189.547 175.704 189.679 175.368 189.679 174.972C189.679 174.672 189.613 174.426 189.481 174.234C189.349 174.054 189.145 173.916 188.869 173.82C188.605 173.724 188.257 173.676 187.825 173.676H185.359C184.771 173.676 184.267 173.604 183.847 173.46C183.439 173.304 183.127 173.082 182.911 172.794C182.707 172.494 182.605 172.134 182.605 171.714C182.605 171.27 182.719 170.886 182.947 170.562C183.175 170.226 183.511 169.932 183.955 169.68L184.819 170.004C184.495 170.172 184.243 170.364 184.063 170.58C183.895 170.796 183.811 171.048 183.811 171.336C183.811 171.66 183.931 171.918 184.171 172.11C184.411 172.29 184.801 172.38 185.341 172.38H188.257C189.193 172.38 189.901 172.59 190.381 173.01C190.861 173.43 191.101 174.036 191.101 174.828C191.101 175.476 190.909 176.034 190.525 176.502C190.153 176.97 189.613 177.33 188.905 177.582C188.197 177.834 187.333 177.96 186.313 177.96ZM186.439 170.436C185.227 170.436 184.309 170.172 183.685 169.644C183.061 169.116 182.749 168.336 182.749 167.304C182.749 166.26 183.061 165.48 183.685 164.964C184.309 164.436 185.227 164.172 186.439 164.172C187.651 164.172 188.563 164.436 189.175 164.964C189.799 165.48 190.111 166.26 190.111 167.304C190.111 168.336 189.799 169.116 189.175 169.644C188.563 170.172 187.651 170.436 186.439 170.436ZM186.439 169.392C187.183 169.392 187.735 169.23 188.095 168.906C188.455 168.57 188.635 168.036 188.635 167.304C188.635 166.56 188.455 166.026 188.095 165.702C187.735 165.366 187.183 165.198 186.439 165.198C185.695 165.198 185.137 165.366 184.765 165.702C184.405 166.026 184.225 166.56 184.225 167.304C184.225 168.036 184.405 168.57 184.765 168.906C185.137 169.23 185.695 169.392 186.439 169.392ZM189.211 165.72L188.581 164.91C188.737 164.526 188.977 164.238 189.301 164.046C189.625 163.854 190.009 163.758 190.453 163.758C190.585 163.758 190.705 163.764 190.813 163.776C190.933 163.788 191.053 163.806 191.173 163.83L191.011 165.036C190.927 165.012 190.837 164.994 190.741 164.982C190.645 164.97 190.543 164.964 190.435 164.964C190.159 164.964 189.919 165.024 189.715 165.144C189.511 165.264 189.343 165.456 189.211 165.72Z" fill="white"/>
<rect y="58" width="280" height="144" fill="url(#paint0_linear_227_11823)"/>
<defs>
<linearGradient id="paint0_linear_227_11823" x1="140" y1="58" x2="140" y2="202" gradientUnits="userSpaceOnUse">
<stop stop-color="white" stop-opacity="0"/>
<stop offset="1" stop-color="white"/>
</linearGradient>
</defs>
</svg>
