<svg width="280" height="202" viewBox="0 0 280 202" fill="none" xmlns="http://www.w3.org/2000/svg">
<rect width="280" height="202" fill="white"/>
<path d="M61 35.5C56.3056 35.5 52.5 39.3056 52.5 44V60C52.5 64.6944 56.3056 68.5 61 68.5H220C224.694 68.5 228.5 64.6944 228.5 60V44C228.5 39.3056 224.694 35.5 220 35.5H61Z" fill="#F6F9FF"/>
<path d="M61 35.5C56.3056 35.5 52.5 39.3056 52.5 44V60C52.5 64.6944 56.3056 68.5 61 68.5H220C224.694 68.5 228.5 64.6944 228.5 60V44C228.5 39.3056 224.694 35.5 220 35.5H61Z" stroke="#DFDFD9"/>
<path d="M53 44C53 39.5817 56.5817 36 61 36H103C107.418 36 111 39.5817 111 44V60C111 64.4183 107.418 68 103 68H61C56.5817 68 53 64.4183 53 60V44Z" fill="#008CFF"/>
<path d="M66.098 56.964V44.454C66.782 44.394 67.394 44.352 67.934 44.328C68.486 44.292 68.996 44.268 69.464 44.256C69.932 44.232 70.37 44.22 70.778 44.22C71.906 44.22 72.812 44.328 73.496 44.544C74.18 44.748 74.672 45.078 74.972 45.534C75.284 45.978 75.44 46.566 75.44 47.298C75.44 47.982 75.284 48.57 74.972 49.062C74.66 49.542 74.198 49.908 73.586 50.16V50.196C74.378 50.388 74.996 50.766 75.44 51.33C75.884 51.894 76.106 52.584 76.106 53.4C76.106 54.072 76.01 54.648 75.818 55.128C75.626 55.608 75.326 55.998 74.918 56.298C74.51 56.598 73.97 56.82 73.298 56.964C72.638 57.108 71.816 57.18 70.832 57.18C70.496 57.18 70.19 57.174 69.914 57.162C69.638 57.162 69.38 57.156 69.14 57.144C68.9 57.144 68.636 57.132 68.348 57.108C68.072 57.096 67.754 57.078 67.394 57.054C67.034 57.03 66.602 57 66.098 56.964ZM68.6 49.71H71.426C71.762 49.71 72.056 49.638 72.308 49.494C72.572 49.35 72.77 49.146 72.902 48.882C73.046 48.618 73.118 48.318 73.118 47.982C73.118 47.574 73.034 47.238 72.866 46.974C72.71 46.71 72.452 46.518 72.092 46.398C71.744 46.278 71.27 46.218 70.67 46.218C70.514 46.218 70.37 46.218 70.238 46.218C70.118 46.218 70.004 46.224 69.896 46.236C69.788 46.236 69.674 46.242 69.554 46.254C69.434 46.254 69.296 46.26 69.14 46.272C68.996 46.284 68.816 46.302 68.6 46.326V49.71ZM68.6 55.074C68.852 55.086 69.08 55.104 69.284 55.128C69.488 55.14 69.668 55.152 69.824 55.164C69.992 55.164 70.148 55.17 70.292 55.182C70.436 55.182 70.574 55.182 70.706 55.182C71.426 55.182 71.99 55.122 72.398 55.002C72.818 54.87 73.112 54.666 73.28 54.39C73.46 54.114 73.55 53.748 73.55 53.292C73.55 52.716 73.376 52.284 73.028 51.996C72.68 51.696 72.146 51.546 71.426 51.546H68.6V55.074ZM88.1567 57.18C87.8087 57.18 87.4667 57.126 87.1307 57.018C86.7947 56.91 86.4527 56.742 86.1047 56.514C85.7567 56.274 85.4027 55.974 85.0427 55.614C84.6827 55.242 84.3047 54.804 83.9087 54.3C83.5127 53.784 83.0987 53.202 82.6667 52.554C82.5827 52.566 82.4507 52.572 82.2707 52.572C82.1027 52.572 81.9767 52.572 81.8927 52.572C81.6647 52.572 81.4187 52.572 81.1547 52.572C80.9027 52.572 80.6507 52.566 80.3987 52.554V57H77.9147V44.382C78.5627 44.346 79.1507 44.316 79.6787 44.292C80.2187 44.268 80.7167 44.25 81.1727 44.238C81.6407 44.226 82.0787 44.22 82.4867 44.22C83.4587 44.22 84.2867 44.292 84.9707 44.436C85.6547 44.568 86.2127 44.79 86.6447 45.102C87.0767 45.402 87.3887 45.798 87.5807 46.29C87.7847 46.782 87.8867 47.37 87.8867 48.054C87.8867 48.774 87.7727 49.392 87.5447 49.908C87.3287 50.412 87.0167 50.826 86.6087 51.15C86.2007 51.474 85.7147 51.732 85.1507 51.924C85.5107 52.404 85.8467 52.824 86.1587 53.184C86.4827 53.532 86.7767 53.826 87.0407 54.066C87.3167 54.294 87.5687 54.468 87.7967 54.588C88.0247 54.708 88.2467 54.768 88.4627 54.768C88.4987 54.768 88.5407 54.768 88.5887 54.768C88.6487 54.756 88.7027 54.75 88.7507 54.75V57.126C88.6787 57.138 88.5947 57.15 88.4987 57.162C88.4027 57.174 88.2887 57.18 88.1567 57.18ZM82.4147 50.592C82.9067 50.592 83.3327 50.556 83.6927 50.484C84.0647 50.4 84.3707 50.274 84.6107 50.106C84.8507 49.938 85.0307 49.716 85.1507 49.44C85.2707 49.152 85.3307 48.798 85.3307 48.378C85.3307 47.85 85.2467 47.43 85.0787 47.118C84.9107 46.794 84.6227 46.56 84.2147 46.416C83.8067 46.272 83.2487 46.2 82.5407 46.2C82.3367 46.2 82.1567 46.2 82.0007 46.2C81.8447 46.2 81.6887 46.206 81.5327 46.218C81.3887 46.218 81.2267 46.224 81.0467 46.236C80.8667 46.236 80.6507 46.248 80.3987 46.272V50.538C80.6027 50.55 80.7887 50.562 80.9567 50.574C81.1247 50.574 81.2867 50.58 81.4427 50.592C81.6107 50.592 81.7667 50.592 81.9107 50.592C82.0667 50.592 82.2347 50.592 82.4147 50.592ZM90.3291 57V44.4H92.7951V54.84H98.6271V57H90.3291Z" fill="white"/>
<mask id="path-4-inside-1_227_11865" fill="white">
<path d="M111 44C111 39.5817 114.582 36 119 36H163C167.418 36 171 39.5817 171 44V60C171 64.4183 167.418 68 163 68H119C114.582 68 111 64.4183 111 60V44Z"/>
</mask>
<path d="M111 36H171H111ZM171 68H111H171ZM111 68V36V68ZM163 36C167.971 36 172 40.0294 172 45V59C172 63.9706 167.971 68 163 68C166.866 68 170 64.4183 170 60V44C170 39.5817 166.866 36 163 36Z" fill="#DFDFD9" mask="url(#path-4-inside-1_227_11865)"/>
<path d="M123.936 54.522V45.9H126.366V54.54C126.366 54.876 126.414 55.17 126.51 55.422C126.606 55.662 126.738 55.866 126.906 56.034C127.074 56.19 127.272 56.316 127.5 56.412C127.728 56.508 127.974 56.574 128.238 56.61C128.514 56.646 128.79 56.664 129.066 56.664C129.366 56.664 129.648 56.646 129.912 56.61C130.176 56.562 130.416 56.49 130.632 56.394C130.86 56.298 131.058 56.172 131.226 56.016C131.394 55.848 131.52 55.644 131.604 55.404C131.7 55.164 131.748 54.876 131.748 54.54V45.9H134.196V54.522C134.196 55.146 134.118 55.692 133.962 56.16C133.806 56.616 133.578 57.006 133.278 57.33C132.99 57.654 132.636 57.918 132.216 58.122C131.796 58.314 131.316 58.452 130.776 58.536C130.248 58.632 129.678 58.68 129.066 58.68C128.454 58.68 127.884 58.632 127.356 58.536C126.828 58.452 126.354 58.314 125.934 58.122C125.514 57.918 125.154 57.654 124.854 57.33C124.554 57.006 124.326 56.616 124.17 56.16C124.014 55.692 123.936 55.146 123.936 54.522ZM145.013 46.314L144.545 48.24C144.305 48.156 144.035 48.084 143.735 48.024C143.435 47.952 143.123 47.892 142.799 47.844C142.487 47.796 142.169 47.76 141.845 47.736C141.521 47.712 141.215 47.7 140.927 47.7C140.135 47.7 139.511 47.826 139.055 48.078C138.611 48.318 138.389 48.684 138.389 49.176C138.389 49.416 138.449 49.632 138.569 49.824C138.701 50.004 138.899 50.178 139.163 50.346C139.427 50.514 139.775 50.676 140.207 50.832C140.651 50.988 141.179 51.15 141.791 51.318C142.439 51.498 143.003 51.708 143.483 51.948C143.963 52.176 144.359 52.434 144.671 52.722C144.995 53.01 145.229 53.346 145.373 53.73C145.529 54.102 145.607 54.534 145.607 55.026C145.607 55.806 145.397 56.466 144.977 57.006C144.569 57.546 143.963 57.96 143.159 58.248C142.367 58.536 141.395 58.68 140.243 58.68C139.871 58.68 139.475 58.662 139.055 58.626C138.635 58.59 138.209 58.542 137.777 58.482C137.357 58.41 136.949 58.326 136.553 58.23C136.157 58.134 135.803 58.026 135.491 57.906L135.977 55.998C136.301 56.106 136.649 56.208 137.021 56.304C137.393 56.388 137.771 56.466 138.155 56.538C138.539 56.598 138.923 56.646 139.307 56.682C139.691 56.718 140.051 56.736 140.387 56.736C140.975 56.736 141.467 56.682 141.863 56.574C142.259 56.454 142.553 56.28 142.745 56.052C142.949 55.824 143.051 55.548 143.051 55.224C143.051 54.972 142.973 54.75 142.817 54.558C142.661 54.366 142.427 54.198 142.115 54.054C141.803 53.898 141.401 53.736 140.909 53.568C140.429 53.4 139.865 53.214 139.217 53.01C138.641 52.806 138.137 52.59 137.705 52.362C137.285 52.134 136.937 51.876 136.661 51.588C136.385 51.288 136.175 50.952 136.031 50.58C135.899 50.208 135.833 49.788 135.833 49.32C135.833 48.792 135.935 48.312 136.139 47.88C136.343 47.436 136.649 47.052 137.057 46.728C137.477 46.404 138.005 46.158 138.641 45.99C139.289 45.81 140.045 45.72 140.909 45.72C141.425 45.72 141.935 45.75 142.439 45.81C142.955 45.858 143.435 45.93 143.879 46.026C144.335 46.11 144.713 46.206 145.013 46.314ZM151.918 58.68C151.354 58.68 150.808 58.674 150.28 58.662C149.764 58.65 149.26 58.632 148.768 58.608C148.276 58.584 147.79 58.56 147.31 58.536V45.9C147.85 45.852 148.36 45.816 148.84 45.792C149.332 45.768 149.818 45.75 150.298 45.738C150.778 45.726 151.27 45.72 151.774 45.72C153.202 45.72 154.36 45.948 155.248 46.404C156.136 46.848 156.784 47.55 157.192 48.51C157.612 49.458 157.822 50.694 157.822 52.218C157.822 53.706 157.6 54.93 157.156 55.89C156.724 56.838 156.07 57.54 155.194 57.996C154.33 58.452 153.238 58.68 151.918 58.68ZM152.062 56.718C152.758 56.718 153.34 56.574 153.808 56.286C154.288 55.986 154.648 55.506 154.888 54.846C155.128 54.186 155.248 53.316 155.248 52.236C155.248 51.108 155.128 50.214 154.888 49.554C154.66 48.894 154.306 48.42 153.826 48.132C153.346 47.844 152.728 47.7 151.972 47.7C151.756 47.7 151.516 47.706 151.252 47.718C151 47.718 150.748 47.724 150.496 47.736C150.256 47.748 150.022 47.76 149.794 47.772V56.628C149.974 56.64 150.16 56.652 150.352 56.664C150.544 56.676 150.736 56.688 150.928 56.7C151.12 56.7 151.312 56.706 151.504 56.718C151.696 56.718 151.882 56.718 152.062 56.718Z" fill="#1A1A19"/>
<path d="M184.098 58.464V45.954C184.782 45.894 185.394 45.852 185.934 45.828C186.486 45.792 186.996 45.768 187.464 45.756C187.932 45.732 188.37 45.72 188.778 45.72C189.906 45.72 190.812 45.828 191.496 46.044C192.18 46.248 192.672 46.578 192.972 47.034C193.284 47.478 193.44 48.066 193.44 48.798C193.44 49.482 193.284 50.07 192.972 50.562C192.66 51.042 192.198 51.408 191.586 51.66V51.696C192.378 51.888 192.996 52.266 193.44 52.83C193.884 53.394 194.106 54.084 194.106 54.9C194.106 55.572 194.01 56.148 193.818 56.628C193.626 57.108 193.326 57.498 192.918 57.798C192.51 58.098 191.97 58.32 191.298 58.464C190.638 58.608 189.816 58.68 188.832 58.68C188.496 58.68 188.19 58.674 187.914 58.662C187.638 58.662 187.38 58.656 187.14 58.644C186.9 58.644 186.636 58.632 186.348 58.608C186.072 58.596 185.754 58.578 185.394 58.554C185.034 58.53 184.602 58.5 184.098 58.464ZM186.6 51.21H189.426C189.762 51.21 190.056 51.138 190.308 50.994C190.572 50.85 190.77 50.646 190.902 50.382C191.046 50.118 191.118 49.818 191.118 49.482C191.118 49.074 191.034 48.738 190.866 48.474C190.71 48.21 190.452 48.018 190.092 47.898C189.744 47.778 189.27 47.718 188.67 47.718C188.514 47.718 188.37 47.718 188.238 47.718C188.118 47.718 188.004 47.724 187.896 47.736C187.788 47.736 187.674 47.742 187.554 47.754C187.434 47.754 187.296 47.76 187.14 47.772C186.996 47.784 186.816 47.802 186.6 47.826V51.21ZM186.6 56.574C186.852 56.586 187.08 56.604 187.284 56.628C187.488 56.64 187.668 56.652 187.824 56.664C187.992 56.664 188.148 56.67 188.292 56.682C188.436 56.682 188.574 56.682 188.706 56.682C189.426 56.682 189.99 56.622 190.398 56.502C190.818 56.37 191.112 56.166 191.28 55.89C191.46 55.614 191.55 55.248 191.55 54.792C191.55 54.216 191.376 53.784 191.028 53.496C190.68 53.196 190.146 53.046 189.426 53.046H186.6V56.574ZM204.637 48.078H200.875V58.5H198.409V48.078H194.629V45.9H204.637V48.078ZM205.295 52.398C205.295 50.814 205.517 49.53 205.961 48.546C206.405 47.562 207.065 46.848 207.941 46.404C208.829 45.948 209.927 45.72 211.235 45.72C211.631 45.72 211.991 45.732 212.315 45.756C212.651 45.768 212.963 45.798 213.251 45.846C213.551 45.882 213.839 45.936 214.115 46.008C214.391 46.068 214.673 46.14 214.961 46.224L214.457 48.204C214.109 48.108 213.767 48.036 213.431 47.988C213.095 47.928 212.765 47.886 212.441 47.862C212.129 47.838 211.805 47.826 211.469 47.826C210.845 47.826 210.299 47.904 209.831 48.06C209.375 48.216 208.997 48.474 208.697 48.834C208.397 49.182 208.175 49.65 208.031 50.238C207.887 50.826 207.815 51.54 207.815 52.38C207.815 53.172 207.887 53.838 208.031 54.378C208.175 54.906 208.391 55.338 208.679 55.674C208.979 55.998 209.351 56.232 209.795 56.376C210.239 56.52 210.761 56.592 211.361 56.592C211.913 56.592 212.489 56.556 213.089 56.484C213.701 56.4 214.259 56.286 214.763 56.142L215.195 58.086C214.907 58.182 214.607 58.266 214.295 58.338C213.995 58.41 213.671 58.47 213.323 58.518C212.975 58.566 212.609 58.602 212.225 58.626C211.841 58.662 211.421 58.68 210.965 58.68C210.041 58.68 209.225 58.566 208.517 58.338C207.809 58.11 207.215 57.756 206.735 57.276C206.255 56.784 205.895 56.136 205.655 55.332C205.415 54.528 205.295 53.55 205.295 52.398Z" fill="#1A1A19"/>
<path d="M111.817 96.08C111.566 96.08 111.323 96.0773 111.089 96.072C110.859 96.0667 110.635 96.0587 110.417 96.048C110.198 96.0373 109.982 96.0267 109.769 96.016V90.4C110.009 90.3787 110.235 90.3627 110.449 90.352C110.667 90.3413 110.883 90.3333 111.097 90.328C111.31 90.3227 111.529 90.32 111.753 90.32C112.387 90.32 112.902 90.4213 113.297 90.624C113.691 90.8213 113.979 91.1333 114.161 91.56C114.347 91.9813 114.441 92.5307 114.441 93.208C114.441 93.8693 114.342 94.4133 114.145 94.84C113.953 95.2613 113.662 95.5733 113.273 95.776C112.889 95.9787 112.403 96.08 111.817 96.08ZM111.881 95.208C112.19 95.208 112.449 95.144 112.657 95.016C112.87 94.8827 113.03 94.6693 113.137 94.376C113.243 94.0827 113.297 93.696 113.297 93.216C113.297 92.7147 113.243 92.3173 113.137 92.024C113.035 91.7307 112.878 91.52 112.665 91.392C112.451 91.264 112.177 91.2 111.841 91.2C111.745 91.2 111.638 91.2027 111.521 91.208C111.409 91.208 111.297 91.2107 111.185 91.216C111.078 91.2213 110.974 91.2267 110.873 91.232V95.168C110.953 95.1733 111.035 95.1787 111.121 95.184C111.206 95.1893 111.291 95.1947 111.377 95.2C111.462 95.2 111.547 95.2027 111.633 95.208C111.718 95.208 111.801 95.208 111.881 95.208ZM117.047 96.08C116.722 96.08 116.434 96.04 116.183 95.96C115.932 95.8747 115.719 95.7467 115.543 95.576C115.372 95.4 115.242 95.1787 115.151 94.912C115.066 94.64 115.023 94.3173 115.023 93.944C115.023 93.512 115.074 93.1467 115.175 92.848C115.282 92.544 115.431 92.3013 115.623 92.12C115.815 91.9333 116.039 91.8 116.295 91.72C116.551 91.6347 116.831 91.592 117.135 91.592C117.738 91.592 118.18 91.744 118.463 92.048C118.751 92.352 118.895 92.848 118.895 93.536C118.895 93.584 118.895 93.6453 118.895 93.72C118.895 93.7947 118.89 93.8667 118.879 93.936C118.756 93.9467 118.599 93.96 118.407 93.976C118.215 93.992 117.999 94.008 117.759 94.024C117.519 94.04 117.26 94.0533 116.983 94.064C116.706 94.0747 116.42 94.0853 116.127 94.096C116.122 94.112 116.119 94.1307 116.119 94.152C116.119 94.1733 116.119 94.1947 116.119 94.216C116.119 94.4613 116.159 94.6587 116.239 94.808C116.324 94.952 116.45 95.0613 116.615 95.136C116.78 95.2053 116.988 95.24 117.239 95.24C117.399 95.24 117.562 95.232 117.727 95.216C117.898 95.1947 118.066 95.1707 118.231 95.144C118.402 95.112 118.567 95.0773 118.727 95.04L118.855 95.824C118.684 95.8773 118.503 95.9253 118.311 95.968C118.119 96.0053 117.919 96.032 117.711 96.048C117.503 96.0693 117.282 96.08 117.047 96.08ZM116.135 93.408C116.322 93.408 116.5 93.4053 116.671 93.4C116.847 93.3893 117.012 93.3813 117.167 93.376C117.322 93.3653 117.455 93.3573 117.567 93.352C117.679 93.3413 117.767 93.3333 117.831 93.328C117.826 93.0933 117.794 92.904 117.735 92.76C117.682 92.616 117.596 92.512 117.479 92.448C117.367 92.384 117.226 92.352 117.055 92.352C116.948 92.352 116.844 92.368 116.743 92.4C116.642 92.432 116.548 92.488 116.463 92.568C116.378 92.648 116.306 92.7547 116.247 92.888C116.194 93.0213 116.156 93.1947 116.135 93.408ZM119.638 97.68V91.648H120.606L120.638 92.048C120.883 91.888 121.118 91.7733 121.342 91.704C121.571 91.6293 121.803 91.592 122.038 91.592C122.507 91.592 122.867 91.7787 123.118 92.152C123.374 92.52 123.502 93.0507 123.502 93.744C123.502 94.2773 123.427 94.7173 123.278 95.064C123.134 95.4053 122.91 95.6613 122.606 95.832C122.307 95.9973 121.929 96.08 121.47 96.08C121.358 96.08 121.238 96.072 121.11 96.056C120.982 96.0453 120.849 96.0293 120.71 96.008V97.68H119.638ZM121.39 95.304C121.625 95.304 121.814 95.2587 121.958 95.168C122.107 95.072 122.217 94.9173 122.286 94.704C122.361 94.4907 122.398 94.2053 122.398 93.848C122.398 93.528 122.369 93.2667 122.31 93.064C122.251 92.8613 122.163 92.712 122.046 92.616C121.934 92.52 121.793 92.472 121.622 92.472C121.526 92.472 121.43 92.4827 121.334 92.504C121.238 92.52 121.139 92.5493 121.038 92.592C120.937 92.6347 120.825 92.6933 120.702 92.768V95.2C120.835 95.232 120.958 95.2587 121.07 95.28C121.182 95.296 121.289 95.304 121.39 95.304ZM124.081 93.832C124.081 93.464 124.113 93.1413 124.177 92.864C124.247 92.5867 124.356 92.3547 124.505 92.168C124.66 91.9813 124.868 91.84 125.129 91.744C125.391 91.6427 125.713 91.592 126.097 91.592C126.487 91.592 126.809 91.6427 127.065 91.744C127.327 91.84 127.535 91.9813 127.689 92.168C127.844 92.3547 127.953 92.5867 128.017 92.864C128.087 93.1413 128.121 93.464 128.121 93.832C128.121 94.2 128.084 94.5253 128.009 94.808C127.94 95.0907 127.825 95.3253 127.665 95.512C127.505 95.6987 127.297 95.84 127.041 95.936C126.785 96.032 126.471 96.08 126.097 96.08C125.729 96.08 125.415 96.032 125.153 95.936C124.897 95.84 124.689 95.6987 124.529 95.512C124.375 95.3253 124.26 95.0907 124.185 94.808C124.116 94.5253 124.081 94.2 124.081 93.832ZM125.169 93.832C125.169 94.1893 125.201 94.4747 125.265 94.688C125.329 94.896 125.431 95.0453 125.569 95.136C125.708 95.2267 125.884 95.272 126.097 95.272C126.321 95.272 126.5 95.2267 126.633 95.136C126.772 95.0453 126.871 94.896 126.929 94.688C126.993 94.4747 127.025 94.1893 127.025 93.832C127.025 93.4747 126.996 93.192 126.937 92.984C126.884 92.776 126.788 92.6267 126.649 92.536C126.516 92.4453 126.332 92.4 126.097 92.4C125.868 92.4 125.684 92.4453 125.545 92.536C125.412 92.6267 125.316 92.776 125.257 92.984C125.199 93.192 125.169 93.4747 125.169 93.832ZM128.573 95.832L128.701 95.048C128.797 95.08 128.904 95.112 129.021 95.144C129.139 95.1707 129.261 95.1947 129.389 95.216C129.523 95.2373 129.653 95.2533 129.781 95.264C129.909 95.2747 130.029 95.28 130.141 95.28C130.397 95.28 130.584 95.2427 130.701 95.168C130.819 95.088 130.877 94.9707 130.877 94.816C130.877 94.7307 130.853 94.6587 130.805 94.6C130.763 94.536 130.693 94.4827 130.597 94.44C130.507 94.392 130.392 94.3493 130.253 94.312C130.12 94.2693 129.965 94.2267 129.789 94.184C129.603 94.1413 129.44 94.0853 129.301 94.016C129.163 93.9413 129.043 93.8533 128.941 93.752C128.845 93.6507 128.773 93.5333 128.725 93.4C128.683 93.2667 128.661 93.1147 128.661 92.944C128.661 92.5013 128.805 92.1653 129.093 91.936C129.381 91.7067 129.808 91.592 130.373 91.592C130.549 91.592 130.715 91.6027 130.869 91.624C131.024 91.64 131.171 91.664 131.309 91.696C131.453 91.7227 131.584 91.7573 131.701 91.8L131.565 92.6C131.448 92.5627 131.331 92.5307 131.213 92.504C131.096 92.4773 130.968 92.456 130.829 92.44C130.696 92.424 130.544 92.416 130.373 92.416C130.144 92.416 129.971 92.4533 129.853 92.528C129.736 92.5973 129.677 92.704 129.677 92.848C129.677 92.9333 129.699 93.0053 129.741 93.064C129.784 93.1173 129.845 93.1627 129.925 93.2C130.005 93.2373 130.104 93.272 130.221 93.304C130.339 93.336 130.469 93.368 130.613 93.4C130.811 93.448 130.989 93.5067 131.149 93.576C131.309 93.64 131.445 93.72 131.557 93.816C131.675 93.912 131.765 94.0347 131.829 94.184C131.899 94.328 131.933 94.504 131.933 94.712C131.933 94.9093 131.901 95.0853 131.837 95.24C131.779 95.3893 131.693 95.5173 131.581 95.624C131.469 95.7307 131.339 95.8187 131.189 95.888C131.04 95.952 130.875 96 130.693 96.032C130.512 96.064 130.323 96.08 130.125 96.08C129.933 96.08 129.749 96.0693 129.573 96.048C129.397 96.032 129.224 96.0053 129.053 95.968C128.888 95.9307 128.728 95.8853 128.573 95.832ZM133.125 91.056C132.901 91.056 132.738 91.0133 132.637 90.928C132.541 90.8373 132.493 90.6987 132.493 90.512C132.493 90.32 132.541 90.1813 132.637 90.096C132.738 90.0107 132.901 89.968 133.125 89.968C133.349 89.968 133.509 90.0107 133.605 90.096C133.706 90.1813 133.757 90.32 133.757 90.512C133.757 90.6987 133.706 90.8373 133.605 90.928C133.509 91.0133 133.349 91.056 133.125 91.056ZM132.589 96V91.672H133.653V96H132.589ZM136.135 96.08C135.858 96.08 135.623 96.0267 135.431 95.92C135.245 95.8133 135.103 95.6507 135.007 95.432C134.917 95.2133 134.871 94.9333 134.871 94.592V92.448H134.207V91.744L134.871 91.672L134.999 90.712H135.935V91.672H137.159V92.456H135.935V94.504C135.935 94.7493 135.981 94.9227 136.071 95.024C136.162 95.1253 136.303 95.176 136.495 95.176C136.602 95.176 136.711 95.168 136.823 95.152C136.935 95.1307 137.053 95.104 137.175 95.072L137.319 95.88C137.106 95.9547 136.898 96.0053 136.695 96.032C136.498 96.064 136.311 96.08 136.135 96.08ZM139.649 96L141.481 90.36H142.785L144.633 96H143.425L143.057 94.8H141.169L140.793 96H139.649ZM141.369 93.896H142.849L142.113 91.272L141.369 93.896ZM145.167 96V91.672H146.135V92.048C146.289 91.9467 146.441 91.864 146.591 91.8C146.74 91.736 146.889 91.688 147.039 91.656C147.193 91.6187 147.348 91.6 147.503 91.6C147.668 91.6 147.812 91.6187 147.935 91.656C148.057 91.6933 148.161 91.7493 148.247 91.824C148.337 91.8933 148.412 91.9813 148.471 92.088C148.636 91.9867 148.796 91.8987 148.951 91.824C149.105 91.7493 149.265 91.6933 149.431 91.656C149.596 91.6133 149.772 91.592 149.959 91.592C150.119 91.592 150.26 91.6133 150.383 91.656C150.511 91.6933 150.62 91.7493 150.711 91.824C150.807 91.8987 150.884 91.9867 150.943 92.088C151.001 92.1893 151.044 92.3013 151.071 92.424C151.097 92.5467 151.111 92.6773 151.111 92.816V96H150.047V93.152C150.047 93.0667 150.036 92.984 150.015 92.904C149.999 92.824 149.969 92.7547 149.927 92.696C149.889 92.632 149.833 92.584 149.759 92.552C149.684 92.5147 149.588 92.496 149.471 92.496C149.369 92.496 149.268 92.5093 149.167 92.536C149.071 92.5627 148.977 92.5947 148.887 92.632C148.801 92.6693 148.719 92.712 148.639 92.76C148.655 92.8133 148.665 92.8667 148.671 92.92C148.676 92.9733 148.679 93.024 148.679 93.072V96H147.615V93.152C147.615 93.072 147.604 92.992 147.583 92.912C147.567 92.832 147.537 92.7627 147.495 92.704C147.452 92.64 147.393 92.592 147.319 92.56C147.244 92.5227 147.151 92.504 147.039 92.504C146.943 92.504 146.849 92.5147 146.759 92.536C146.673 92.5573 146.585 92.5867 146.495 92.624C146.409 92.6613 146.321 92.7067 146.231 92.76V96H145.167ZM151.852 93.832C151.852 93.464 151.884 93.1413 151.948 92.864C152.018 92.5867 152.127 92.3547 152.276 92.168C152.431 91.9813 152.639 91.84 152.9 91.744C153.162 91.6427 153.484 91.592 153.868 91.592C154.258 91.592 154.58 91.6427 154.836 91.744C155.098 91.84 155.306 91.9813 155.46 92.168C155.615 92.3547 155.724 92.5867 155.788 92.864C155.858 93.1413 155.892 93.464 155.892 93.832C155.892 94.2 155.855 94.5253 155.78 94.808C155.711 95.0907 155.596 95.3253 155.436 95.512C155.276 95.6987 155.068 95.84 154.812 95.936C154.556 96.032 154.242 96.08 153.868 96.08C153.5 96.08 153.186 96.032 152.924 95.936C152.668 95.84 152.46 95.6987 152.3 95.512C152.146 95.3253 152.031 95.0907 151.956 94.808C151.887 94.5253 151.852 94.2 151.852 93.832ZM152.94 93.832C152.94 94.1893 152.972 94.4747 153.036 94.688C153.1 94.896 153.202 95.0453 153.34 95.136C153.479 95.2267 153.655 95.272 153.868 95.272C154.092 95.272 154.271 95.2267 154.404 95.136C154.543 95.0453 154.642 94.896 154.7 94.688C154.764 94.4747 154.796 94.1893 154.796 93.832C154.796 93.4747 154.767 93.192 154.708 92.984C154.655 92.776 154.559 92.6267 154.42 92.536C154.287 92.4453 154.103 92.4 153.868 92.4C153.639 92.4 153.455 92.4453 153.316 92.536C153.183 92.6267 153.087 92.776 153.028 92.984C152.97 93.192 152.94 93.4747 152.94 93.832ZM157.871 96.08C157.621 96.08 157.402 96.0347 157.215 95.944C157.029 95.8533 156.885 95.7147 156.783 95.528C156.682 95.3413 156.631 95.1067 156.631 94.824V91.672H157.695V94.576C157.695 94.7787 157.746 94.9333 157.847 95.04C157.954 95.1413 158.103 95.192 158.295 95.192C158.402 95.192 158.503 95.1813 158.599 95.16C158.695 95.1387 158.791 95.1093 158.887 95.072C158.983 95.0293 159.085 94.9813 159.191 94.928V91.672H160.255V94.808C160.255 94.8987 160.263 94.9707 160.279 95.024C160.301 95.0773 160.33 95.1173 160.367 95.144C160.405 95.1653 160.447 95.176 160.495 95.176C160.559 95.176 160.623 95.1627 160.687 95.136L160.775 95.896C160.717 95.9333 160.65 95.9653 160.575 95.992C160.501 96.0187 160.418 96.04 160.327 96.056C160.242 96.072 160.151 96.08 160.055 96.08C159.879 96.08 159.73 96.0427 159.607 95.968C159.485 95.888 159.389 95.776 159.319 95.632C159.165 95.7227 159.01 95.8027 158.855 95.872C158.701 95.9413 158.543 95.992 158.383 96.024C158.223 96.0613 158.053 96.08 157.871 96.08ZM161.305 96V91.672H162.273V92.048C162.449 91.9467 162.617 91.864 162.777 91.8C162.937 91.7307 163.095 91.68 163.249 91.648C163.409 91.6107 163.577 91.592 163.753 91.592C164.031 91.592 164.26 91.6427 164.441 91.744C164.628 91.84 164.767 91.9787 164.857 92.16C164.948 92.3413 164.993 92.56 164.993 92.816V96H163.929V93.152C163.929 92.928 163.876 92.7627 163.769 92.656C163.668 92.544 163.513 92.488 163.305 92.488C163.199 92.488 163.095 92.5013 162.993 92.528C162.892 92.5493 162.791 92.5787 162.689 92.616C162.588 92.6533 162.481 92.7013 162.369 92.76V96H161.305ZM167.477 96.08C167.199 96.08 166.965 96.0267 166.773 95.92C166.586 95.8133 166.445 95.6507 166.349 95.432C166.258 95.2133 166.213 94.9333 166.213 94.592V92.448H165.549V91.744L166.213 91.672L166.341 90.712H167.277V91.672H168.501V92.456H167.277V94.504C167.277 94.7493 167.322 94.9227 167.413 95.024C167.503 95.1253 167.645 95.176 167.837 95.176C167.943 95.176 168.053 95.168 168.165 95.152C168.277 95.1307 168.394 95.104 168.517 95.072L168.661 95.88C168.447 95.9547 168.239 96.0053 168.037 96.032C167.839 96.064 167.653 96.08 167.477 96.08Z" fill="#6F6F6A"/>
<path d="M97.68 122V104.72H104.352C104.52 104.72 104.708 104.728 104.916 104.744C105.132 104.752 105.348 104.776 105.564 104.816C106.468 104.952 107.232 105.268 107.856 105.764C108.488 106.252 108.964 106.868 109.284 107.612C109.612 108.356 109.776 109.18 109.776 110.084C109.776 111.388 109.432 112.52 108.744 113.48C108.056 114.44 107.072 115.044 105.792 115.292L105.18 115.436H99.444V122H97.68ZM108.144 122L104.736 114.968L106.428 114.32L110.172 122H108.144ZM99.444 113.756H104.304C104.448 113.756 104.616 113.748 104.808 113.732C105 113.716 105.188 113.688 105.372 113.648C105.964 113.52 106.448 113.276 106.824 112.916C107.208 112.556 107.492 112.128 107.676 111.632C107.868 111.136 107.964 110.62 107.964 110.084C107.964 109.548 107.868 109.032 107.676 108.536C107.492 108.032 107.208 107.6 106.824 107.24C106.448 106.88 105.964 106.636 105.372 106.508C105.188 106.468 105 106.444 104.808 106.436C104.616 106.42 104.448 106.412 104.304 106.412H99.444V113.756ZM117.141 124.364V121.628H118.905V124.364H117.141ZM117.141 105.08V102.332H118.905V105.08H117.141ZM118.233 122.36C117.089 122.36 116.057 122.156 115.137 121.748C114.225 121.34 113.469 120.764 112.869 120.02C112.277 119.276 111.889 118.396 111.705 117.38L113.421 117.08C113.685 118.184 114.253 119.06 115.125 119.708C116.005 120.348 117.065 120.668 118.305 120.668C119.561 120.668 120.577 120.364 121.353 119.756C122.129 119.14 122.517 118.336 122.517 117.344C122.517 116.608 122.301 116.02 121.869 115.58C121.437 115.14 120.705 114.764 119.673 114.452L115.833 113.252C113.513 112.524 112.353 111.148 112.353 109.124C112.353 108.18 112.585 107.352 113.049 106.64C113.521 105.92 114.173 105.36 115.005 104.96C115.845 104.56 116.825 104.364 117.945 104.372C119.041 104.372 120.021 104.58 120.885 104.996C121.757 105.404 122.473 105.984 123.033 106.736C123.593 107.488 123.965 108.38 124.149 109.412L122.385 109.748C122.273 109.012 122.013 108.368 121.605 107.816C121.205 107.264 120.689 106.836 120.057 106.532C119.425 106.22 118.721 106.06 117.945 106.052C117.209 106.052 116.553 106.18 115.977 106.436C115.401 106.692 114.945 107.048 114.609 107.504C114.281 107.952 114.117 108.468 114.117 109.052C114.117 109.692 114.345 110.236 114.801 110.684C115.265 111.124 115.997 111.496 116.997 111.8L120.297 112.796C121.689 113.212 122.693 113.772 123.309 114.476C123.925 115.18 124.233 116.12 124.233 117.296C124.233 118.312 123.985 119.2 123.489 119.96C122.993 120.72 122.293 121.312 121.389 121.736C120.493 122.152 119.441 122.36 118.233 122.36ZM129.473 122V107.876L126.233 109.856V106.664L129.473 104.72H132.425V122H129.473ZM142.973 122.36C141.749 122.36 140.669 122.1 139.733 121.58C138.797 121.052 138.065 120.32 137.537 119.384C137.017 118.448 136.757 117.368 136.757 116.144V110.576C136.757 109.352 137.017 108.272 137.537 107.336C138.065 106.4 138.797 105.672 139.733 105.152C140.669 104.624 141.749 104.36 142.973 104.36C144.197 104.36 145.273 104.624 146.201 105.152C147.137 105.672 147.869 106.4 148.397 107.336C148.925 108.272 149.189 109.352 149.189 110.576V116.144C149.189 117.368 148.925 118.448 148.397 119.384C147.869 120.32 147.137 121.052 146.201 121.58C145.273 122.1 144.197 122.36 142.973 122.36ZM142.973 119.612C143.581 119.612 144.133 119.468 144.629 119.18C145.125 118.884 145.517 118.492 145.805 118.004C146.093 117.508 146.237 116.956 146.237 116.348V110.36C146.237 109.744 146.093 109.192 145.805 108.704C145.517 108.208 145.125 107.816 144.629 107.528C144.133 107.232 143.581 107.084 142.973 107.084C142.365 107.084 141.813 107.232 141.317 107.528C140.821 107.816 140.429 108.208 140.141 108.704C139.853 109.192 139.709 109.744 139.709 110.36V116.348C139.709 116.956 139.853 117.508 140.141 118.004C140.429 118.492 140.821 118.884 141.317 119.18C141.813 119.468 142.365 119.612 142.973 119.612ZM158.53 122.36C157.306 122.36 156.226 122.1 155.29 121.58C154.354 121.052 153.622 120.32 153.094 119.384C152.574 118.448 152.314 117.368 152.314 116.144V110.576C152.314 109.352 152.574 108.272 153.094 107.336C153.622 106.4 154.354 105.672 155.29 105.152C156.226 104.624 157.306 104.36 158.53 104.36C159.754 104.36 160.83 104.624 161.758 105.152C162.694 105.672 163.426 106.4 163.954 107.336C164.482 108.272 164.746 109.352 164.746 110.576V116.144C164.746 117.368 164.482 118.448 163.954 119.384C163.426 120.32 162.694 121.052 161.758 121.58C160.83 122.1 159.754 122.36 158.53 122.36ZM158.53 119.612C159.138 119.612 159.69 119.468 160.186 119.18C160.682 118.884 161.074 118.492 161.362 118.004C161.65 117.508 161.794 116.956 161.794 116.348V110.36C161.794 109.744 161.65 109.192 161.362 108.704C161.074 108.208 160.682 107.816 160.186 107.528C159.69 107.232 159.138 107.084 158.53 107.084C157.922 107.084 157.37 107.232 156.874 107.528C156.378 107.816 155.986 108.208 155.698 108.704C155.41 109.192 155.266 109.744 155.266 110.36V116.348C155.266 116.956 155.41 117.508 155.698 118.004C155.986 118.492 156.378 118.884 156.874 119.18C157.37 119.468 157.922 119.612 158.53 119.612ZM174.087 122.36C172.863 122.36 171.783 122.1 170.847 121.58C169.911 121.052 169.179 120.32 168.651 119.384C168.131 118.448 167.871 117.368 167.871 116.144V110.576C167.871 109.352 168.131 108.272 168.651 107.336C169.179 106.4 169.911 105.672 170.847 105.152C171.783 104.624 172.863 104.36 174.087 104.36C175.311 104.36 176.387 104.624 177.315 105.152C178.251 105.672 178.983 106.4 179.511 107.336C180.039 108.272 180.303 109.352 180.303 110.576V116.144C180.303 117.368 180.039 118.448 179.511 119.384C178.983 120.32 178.251 121.052 177.315 121.58C176.387 122.1 175.311 122.36 174.087 122.36ZM174.087 119.612C174.695 119.612 175.247 119.468 175.743 119.18C176.239 118.884 176.631 118.492 176.919 118.004C177.207 117.508 177.351 116.956 177.351 116.348V110.36C177.351 109.744 177.207 109.192 176.919 108.704C176.631 108.208 176.239 107.816 175.743 107.528C175.247 107.232 174.695 107.084 174.087 107.084C173.479 107.084 172.927 107.232 172.431 107.528C171.935 107.816 171.543 108.208 171.255 108.704C170.967 109.192 170.823 109.744 170.823 110.36V116.348C170.823 116.956 170.967 117.508 171.255 118.004C171.543 118.492 171.935 118.884 172.431 119.18C172.927 119.468 173.479 119.612 174.087 119.612Z" fill="#1A1A19"/>
<path d="M50 133.5C45.3056 133.5 41.5 137.306 41.5 142V158C41.5 162.694 45.3056 166.5 50 166.5H230C234.694 166.5 238.5 162.694 238.5 158V142C238.5 137.306 234.694 133.5 230 133.5H50Z" fill="#F6F9FF"/>
<path d="M50 133.5C45.3056 133.5 41.5 137.306 41.5 142V158C41.5 162.694 45.3056 166.5 50 166.5H230C234.694 166.5 238.5 162.694 238.5 158V142C238.5 137.306 234.694 133.5 230 133.5H50Z" stroke="#6F6F6A"/>
<mask id="path-12-inside-2_227_11865" fill="white">
<path d="M42 137.5H114V162.5H42V137.5Z"/>
</mask>
<path d="M113 137.5V162.5H115V137.5H113Z" fill="#DFDFD9" mask="url(#path-12-inside-2_227_11865)"/>
<path d="M54.924 155.5V145.7H56.534L59.432 150.6L62.33 145.7H63.884V155.5H62.442V148.066L59.754 152.546H59.012L56.352 148.094V155.5H54.924ZM68.7641 155.64C68.2134 155.64 67.7281 155.57 67.3081 155.43C66.8974 155.281 66.5428 155.057 66.2441 154.758C65.9548 154.459 65.7354 154.077 65.5861 153.61C65.4368 153.134 65.3621 152.574 65.3621 151.93C65.3621 151.174 65.4508 150.535 65.6281 150.012C65.8148 149.48 66.0668 149.055 66.3841 148.738C66.7108 148.411 67.0888 148.178 67.5181 148.038C67.9568 147.889 68.4328 147.814 68.9461 147.814C69.9541 147.814 70.6961 148.075 71.1721 148.598C71.6574 149.121 71.9001 149.97 71.9001 151.146C71.9001 151.211 71.8954 151.305 71.8861 151.426C71.8861 151.538 71.8861 151.65 71.8861 151.762C71.6714 151.781 71.3961 151.804 71.0601 151.832C70.7334 151.86 70.3554 151.888 69.9261 151.916C69.4968 151.944 69.0301 151.967 68.5261 151.986C68.0221 152.005 67.4948 152.019 66.9441 152.028C66.9348 152.065 66.9301 152.107 66.9301 152.154C66.9301 152.191 66.9301 152.233 66.9301 152.28C66.9301 152.793 67.0094 153.209 67.1681 153.526C67.3268 153.834 67.5601 154.063 67.8681 154.212C68.1761 154.352 68.5634 154.422 69.0301 154.422C69.3101 154.422 69.5994 154.408 69.8981 154.38C70.2061 154.343 70.5048 154.301 70.7941 154.254C71.0834 154.198 71.3588 154.137 71.6201 154.072L71.8161 155.206C71.5361 155.29 71.2328 155.369 70.9061 155.444C70.5888 155.509 70.2528 155.556 69.8981 155.584C69.5434 155.621 69.1654 155.64 68.7641 155.64ZM66.9581 151.006C67.3501 151.006 67.7234 151.001 68.0781 150.992C68.4421 150.973 68.7781 150.955 69.0861 150.936C69.3941 150.917 69.6554 150.903 69.8701 150.894C70.0941 150.875 70.2621 150.861 70.3741 150.852C70.3648 150.385 70.3041 150.012 70.1921 149.732C70.0801 149.452 69.9121 149.251 69.6881 149.13C69.4641 148.999 69.1794 148.934 68.8341 148.934C68.6194 148.934 68.4094 148.967 68.2041 149.032C67.9988 149.088 67.8074 149.195 67.6301 149.354C67.4621 149.503 67.3174 149.713 67.1961 149.984C67.0748 150.245 66.9954 150.586 66.9581 151.006ZM75.9079 155.64C75.4319 155.64 75.0353 155.551 74.7179 155.374C74.4006 155.197 74.1626 154.926 74.0039 154.562C73.8546 154.189 73.7799 153.722 73.7799 153.162V149.088H72.5479V148.08L73.7799 147.954L73.9759 146.232H75.2919V147.954H77.6159V149.088H75.2919V153.05C75.2919 153.507 75.3806 153.839 75.5579 154.044C75.7353 154.249 76.0199 154.352 76.4119 154.352C76.6079 154.352 76.8086 154.333 77.0139 154.296C77.2286 154.249 77.4479 154.198 77.6719 154.142L77.8819 155.304C77.5273 155.425 77.1819 155.509 76.8459 155.556C76.5099 155.612 76.1973 155.64 75.9079 155.64ZM78.9387 155.5V145.14H80.4787V148.584C80.7587 148.416 81.0294 148.276 81.2907 148.164C81.552 148.052 81.818 147.968 82.0887 147.912C82.3687 147.847 82.6627 147.814 82.9707 147.814C83.428 147.814 83.8154 147.898 84.1327 148.066C84.45 148.225 84.688 148.463 84.8467 148.78C85.0147 149.088 85.0987 149.471 85.0987 149.928V155.5H83.5727V150.376C83.5727 149.956 83.47 149.643 83.2647 149.438C83.0594 149.223 82.7514 149.116 82.3407 149.116C82.126 149.116 81.9114 149.139 81.6967 149.186C81.4914 149.233 81.2907 149.298 81.0947 149.382C80.8987 149.457 80.6934 149.55 80.4787 149.662V155.5H78.9387ZM86.5087 151.72C86.5087 151.067 86.5647 150.497 86.6767 150.012C86.798 149.527 86.9893 149.125 87.2507 148.808C87.512 148.481 87.862 148.234 88.3007 148.066C88.7393 147.898 89.2807 147.814 89.9247 147.814C90.5687 147.814 91.11 147.898 91.5487 148.066C91.9873 148.234 92.3373 148.481 92.5987 148.808C92.86 149.125 93.0467 149.527 93.1587 150.012C93.28 150.497 93.3407 151.067 93.3407 151.72C93.3407 152.383 93.2753 152.961 93.1447 153.456C93.0233 153.951 92.8273 154.361 92.5567 154.688C92.286 155.005 91.9313 155.243 91.4927 155.402C91.0633 155.561 90.5407 155.64 89.9247 155.64C89.3087 155.64 88.7813 155.561 88.3427 155.402C87.9133 155.243 87.5633 155.005 87.2927 154.688C87.022 154.361 86.8213 153.951 86.6907 153.456C86.5693 152.961 86.5087 152.383 86.5087 151.72ZM88.0627 151.72C88.0627 152.401 88.1233 152.943 88.2447 153.344C88.3753 153.745 88.576 154.035 88.8467 154.212C89.1267 154.389 89.486 154.478 89.9247 154.478C90.3633 154.478 90.718 154.389 90.9887 154.212C91.2593 154.035 91.4553 153.745 91.5767 153.344C91.7073 152.943 91.7727 152.401 91.7727 151.72C91.7727 151.039 91.7167 150.502 91.6047 150.11C91.4927 149.709 91.2967 149.424 91.0167 149.256C90.746 149.079 90.382 148.99 89.9247 148.99C89.458 148.99 89.0893 149.079 88.8187 149.256C88.548 149.424 88.352 149.709 88.2307 150.11C88.1187 150.502 88.0627 151.039 88.0627 151.72ZM99.538 155.514L99.356 154.87C98.9453 155.131 98.5486 155.327 98.166 155.458C97.7833 155.579 97.3866 155.64 96.976 155.64C96.164 155.64 95.534 155.318 95.086 154.674C94.6473 154.03 94.428 153.101 94.428 151.888C94.428 150.955 94.5493 150.189 94.792 149.592C95.044 148.995 95.4266 148.551 95.94 148.262C96.4626 147.963 97.1113 147.814 97.886 147.814C98.11 147.814 98.348 147.828 98.6 147.856C98.852 147.875 99.0993 147.907 99.342 147.954V145.14H100.868V155.514H99.538ZM99.342 153.764V149.13C99.0806 149.065 98.838 149.018 98.614 148.99C98.3993 148.962 98.1986 148.948 98.012 148.948C97.5546 148.948 97.1766 149.041 96.878 149.228C96.5793 149.405 96.36 149.699 96.22 150.11C96.08 150.521 96.01 151.071 96.01 151.762C96.01 152.341 96.0706 152.826 96.192 153.218C96.3133 153.601 96.486 153.89 96.71 154.086C96.9433 154.273 97.2233 154.366 97.55 154.366C97.7366 154.366 97.9233 154.347 98.11 154.31C98.306 154.263 98.502 154.198 98.698 154.114C98.894 154.021 99.1086 153.904 99.342 153.764Z" fill="#6F6F6A"/>
<path fill-rule="evenodd" clip-rule="evenodd" d="M132.995 144.5H136.207V147.69H132.995V144.5ZM133.542 145.048H135.66V147.143H133.542V145.048ZM134.066 145.548H135.16V146.643H134.066V145.548ZM127.689 146.214H129.426C130.854 146.214 132.02 147.381 132.02 148.81C132.02 150.238 130.854 151.381 129.426 151.381H127.689V153.357H126V151.381V147.476H127.689V146.214ZM127.689 147.5V150.119H129.117C129.854 150.119 130.449 149.524 130.449 148.81C130.449 148.071 129.854 147.5 129.117 147.5H127.689ZM132.995 148.786H134.684V153.357H132.995V148.786ZM143.654 146.214H145.391C146.819 146.214 147.985 147.381 147.985 148.81C147.985 150.238 146.819 151.381 145.391 151.381H143.654V153.357H141.965V151.381V147.476H143.654V146.214ZM143.654 147.5V150.119H145.082C145.819 150.119 146.414 149.524 146.414 148.81C146.414 148.071 145.819 147.5 145.082 147.5H143.654ZM138.61 147.81C139.562 147.81 140.418 148.262 140.942 148.952L140.038 149.857C139.776 149.381 139.3 149.071 138.753 149.071C137.944 149.071 137.278 149.762 137.278 150.643C137.278 151.5 137.944 152.214 138.753 152.214C139.3 152.214 139.776 151.881 140.038 151.429L140.942 152.333C140.418 153.024 139.562 153.476 138.61 153.476C137.016 153.476 135.707 152.214 135.707 150.667C135.684 149.071 136.992 147.81 138.61 147.81ZM155.337 155.5H156.978L160 147.905H158.358L156.978 151.405L155.598 147.905H153.957L156.169 153.476L155.337 155.5ZM153.528 153.262H152.006V152.833C150.197 154.024 148.675 153.238 148.484 152.071C148.27 150.786 149.079 149.833 152.148 150.095C152.148 148.929 150.411 148.786 149.222 149.595L148.675 148.5C150.84 147.357 153.528 147.714 153.528 149.619V153.262ZM152.196 150.976H150.887C149.579 150.976 149.864 152.667 151.125 152.405C151.768 152.262 152.172 151.833 152.196 150.976Z" fill="#21C25E"/>
<path d="M217.75 148.625L220.5 151.375L223.25 148.625" stroke="#6F6F6A" stroke-linecap="round" stroke-linejoin="round"/>
</svg>
