<svg width="280" height="202" viewBox="0 0 280 202" fill="none" xmlns="http://www.w3.org/2000/svg">
<rect width="280" height="202" fill="white"/>
<path d="M71.5855 152.653C71.5855 154.471 70.1113 155.945 68.2928 155.945C66.4742 155.945 65 154.471 65 152.653L65 140.148C65 138.33 66.4742 136.856 68.2928 136.856C70.1113 136.856 71.5855 138.33 71.5855 140.148L71.5855 152.653Z" fill="url(#paint0_linear_227_11840)"/>
<path d="M68.8914 169.418C68.8914 169.748 68.6234 170.016 68.2927 170.016C67.9621 170.016 67.6941 169.748 67.6941 169.418L67.6941 132.599C67.6941 132.268 67.9621 132 68.2927 132C68.6234 132 68.8914 132.268 68.8914 132.599L68.8914 169.418Z" fill="url(#paint1_linear_227_11840)"/>
<path d="M84.171 126.1C84.171 127.919 82.6967 129.393 80.8782 129.393C79.0597 129.393 77.5854 127.919 77.5854 126.1L77.5855 107.426C77.5855 105.607 79.0597 104.133 80.8782 104.133C82.6967 104.133 84.171 105.607 84.171 107.426L84.171 126.1Z" fill="url(#paint2_linear_227_11840)"/>
<path d="M81.477 142.187C81.477 142.518 81.2089 142.786 80.8783 142.786C80.5476 142.786 80.2796 142.518 80.2796 142.187L80.2796 91.5987C80.2796 91.268 80.5476 91 80.8783 91C81.2089 91 81.477 91.268 81.477 91.5987L81.477 142.187Z" fill="url(#paint3_linear_227_11840)"/>
<path d="M96.7564 134.1C96.7564 135.919 95.2822 137.393 93.4637 137.393C91.6451 137.393 90.1709 135.919 90.1709 134.1L90.1709 115.426C90.1709 113.607 91.6451 112.133 93.4637 112.133C95.2822 112.133 96.7564 113.607 96.7564 115.426L96.7564 134.1Z" fill="url(#paint4_linear_227_11840)"/>
<path d="M94.0623 150.187C94.0623 150.518 93.7943 150.786 93.4636 150.786C93.133 150.786 92.865 150.518 92.865 150.187L92.865 99.5987C92.865 99.268 93.133 99 93.4636 99C93.7943 99 94.0623 99.268 94.0623 99.5987L94.0623 150.187Z" fill="url(#paint5_linear_227_11840)"/>
<path d="M102.756 94.2928C102.756 92.4742 104.231 91 106.049 91C107.868 91 109.342 92.4742 109.342 94.2928V102.674C109.342 104.493 107.868 105.967 106.049 105.967C104.231 105.967 102.756 104.493 102.756 102.674V94.2928Z" fill="url(#paint6_linear_227_11840)"/>
<path d="M105.45 92.4633C105.45 92.1326 105.718 91.8646 106.049 91.8646C106.38 91.8646 106.648 92.1326 106.648 92.4633V131.378C106.648 131.708 106.38 131.976 106.049 131.976C105.718 131.976 105.45 131.708 105.45 131.378V92.4633Z" fill="url(#paint7_linear_227_11840)"/>
<path d="M115.342 81.2928C115.342 79.4742 116.816 78 118.635 78C120.453 78 121.927 79.4742 121.927 81.2928V97.1578C121.927 98.9764 120.453 100.451 118.635 100.451C116.816 100.451 115.342 98.9764 115.342 97.1578V81.2928Z" fill="url(#paint8_linear_227_11840)"/>
<path d="M118.036 79.4624C118.036 79.1317 118.304 78.8637 118.635 78.8637C118.965 78.8637 119.233 79.1317 119.233 79.4624V118.377C119.233 118.707 118.965 118.975 118.635 118.975C118.304 118.975 118.036 118.707 118.036 118.377V79.4624Z" fill="url(#paint9_linear_227_11840)"/>
<path d="M134.513 127.845C134.513 129.664 133.039 131.138 131.22 131.138C129.402 131.138 127.928 129.664 127.928 127.845L127.928 114.674C127.928 112.855 129.402 111.381 131.22 111.381C133.039 111.381 134.513 112.855 134.513 114.674L134.513 127.845Z" fill="url(#paint10_linear_227_11840)"/>
<path d="M131.819 135.628C131.819 135.959 131.551 136.227 131.22 136.227C130.89 136.227 130.622 135.959 130.622 135.628L130.622 103.599C130.622 103.268 130.89 103 131.22 103C131.551 103 131.819 103.268 131.819 103.599L131.819 135.628Z" fill="url(#paint11_linear_227_11840)"/>
<path d="M147.099 110.436C147.099 112.254 145.624 113.729 143.806 113.729C141.987 113.729 140.513 112.254 140.513 110.436L140.513 92.6372C140.513 90.8187 141.987 89.3444 143.806 89.3444C145.624 89.3444 147.099 90.8187 147.099 92.6372L147.099 110.436Z" fill="url(#paint12_linear_227_11840)"/>
<path d="M144.405 119.411C144.405 119.742 144.137 120.01 143.806 120.01C143.475 120.01 143.207 119.742 143.207 119.411L143.207 79.5987C143.207 79.268 143.475 79 143.806 79C144.137 79 144.405 79.268 144.405 79.5987L144.405 119.411Z" fill="url(#paint13_linear_227_11840)"/>
<path d="M159.684 133.1C159.684 134.919 158.21 136.393 156.391 136.393C154.573 136.393 153.099 134.919 153.099 133.1L153.099 114.426C153.099 112.607 154.573 111.133 156.391 111.133C158.21 111.133 159.684 112.607 159.684 114.426L159.684 133.1Z" fill="url(#paint14_linear_227_11840)"/>
<path d="M156.99 149.187C156.99 149.518 156.722 149.786 156.391 149.786C156.061 149.786 155.793 149.518 155.793 149.187L155.793 98.5987C155.793 98.268 156.061 98 156.391 98C156.722 98 156.99 98.268 156.99 98.5987L156.99 149.187Z" fill="url(#paint15_linear_227_11840)"/>
<path d="M172.27 86.1003C172.27 87.9188 170.795 89.393 168.977 89.393C167.158 89.393 165.684 87.9188 165.684 86.1003L165.684 67.4255C165.684 65.607 167.158 64.1328 168.977 64.1328C170.795 64.1328 172.27 65.607 172.27 67.4255L172.27 86.1003Z" fill="url(#paint16_linear_227_11840)"/>
<path d="M169.576 102.187C169.576 102.518 169.307 102.786 168.977 102.786C168.646 102.786 168.378 102.518 168.378 102.187L168.378 51.5987C168.378 51.268 168.646 51 168.977 51C169.307 51 169.576 51.268 169.576 51.5987L169.576 102.187Z" fill="url(#paint17_linear_227_11840)"/>
<path d="M184.855 104.683C184.855 106.501 183.381 107.975 181.562 107.975C179.744 107.975 178.27 106.501 178.27 104.683L178.27 83.6326C178.27 81.8141 179.744 80.3399 181.562 80.3399C183.381 80.3399 184.855 81.8141 184.855 83.6326L184.855 104.683Z" fill="url(#paint18_linear_227_11840)"/>
<path d="M182.161 106.513C182.161 106.844 181.893 107.112 181.562 107.112C181.232 107.112 180.964 106.844 180.964 106.513L180.964 67.5987C180.964 67.268 181.232 67 181.562 67C181.893 67 182.161 67.268 182.161 67.5987L182.161 106.513Z" fill="url(#paint19_linear_227_11840)"/>
<path d="M197.44 83.1003C197.44 84.9188 195.966 86.393 194.148 86.393C192.329 86.393 190.855 84.9188 190.855 83.1003L190.855 64.4255C190.855 62.607 192.329 61.1328 194.148 61.1328C195.966 61.1328 197.44 62.607 197.44 64.4255L197.44 83.1003Z" fill="url(#paint20_linear_227_11840)"/>
<path d="M194.746 99.1873C194.746 99.518 194.478 99.786 194.148 99.786C193.817 99.786 193.549 99.518 193.549 99.1873L193.549 48.5987C193.549 48.268 193.817 48 194.148 48C194.478 48 194.746 48.268 194.746 48.5987L194.746 99.1873Z" fill="url(#paint21_linear_227_11840)"/>
<path d="M210.026 61.5807C210.026 63.3993 208.552 64.8735 206.733 64.8735C204.915 64.8735 203.44 63.3993 203.44 61.5807L203.44 56.5921C203.44 54.7736 204.915 53.2994 206.733 53.2994C208.552 53.2994 210.026 54.7736 210.026 56.5921L210.026 61.5807Z" fill="url(#paint22_linear_227_11840)"/>
<path d="M207.332 70.411C207.332 70.7417 207.064 71.0097 206.733 71.0097C206.402 71.0097 206.134 70.7417 206.134 70.411L206.134 30.5987C206.134 30.268 206.402 30 206.733 30C207.064 30 207.332 30.268 207.332 30.5987L207.332 70.411Z" fill="url(#paint23_linear_227_11840)"/>
<path d="M35.148 37.18C34.788 37.18 34.416 37.156 34.032 37.108C33.66 37.072 33.288 37.024 32.916 36.964C32.556 36.892 32.196 36.808 31.836 36.712C31.488 36.616 31.164 36.514 30.864 36.406L31.332 34.552C31.656 34.66 31.998 34.762 32.358 34.858C32.718 34.942 33.078 35.02 33.438 35.092C33.81 35.152 34.164 35.2 34.5 35.236C34.848 35.26 35.172 35.272 35.472 35.272C36.3 35.272 36.906 35.152 37.29 34.912C37.674 34.672 37.866 34.312 37.866 33.832C37.866 33.568 37.794 33.334 37.65 33.13C37.506 32.926 37.29 32.74 37.002 32.572C36.726 32.392 36.372 32.218 35.94 32.05C35.52 31.882 35.022 31.702 34.446 31.51C33.774 31.258 33.198 30.964 32.718 30.628C32.238 30.28 31.872 29.866 31.62 29.386C31.38 28.906 31.26 28.348 31.26 27.712C31.26 26.932 31.446 26.29 31.818 25.786C32.19 25.27 32.718 24.88 33.402 24.616C34.098 24.352 34.932 24.22 35.904 24.22C36.372 24.22 36.834 24.25 37.29 24.31C37.758 24.358 38.208 24.424 38.64 24.508C39.072 24.592 39.456 24.694 39.792 24.814L39.342 26.686C39.03 26.578 38.682 26.488 38.298 26.416C37.926 26.344 37.542 26.29 37.146 26.254C36.75 26.206 36.366 26.182 35.994 26.182C35.226 26.182 34.656 26.302 34.284 26.542C33.912 26.77 33.726 27.118 33.726 27.586C33.726 27.85 33.786 28.09 33.906 28.306C34.026 28.51 34.206 28.696 34.446 28.864C34.686 29.032 34.992 29.194 35.364 29.35C35.748 29.506 36.198 29.662 36.714 29.818C37.494 30.058 38.154 30.346 38.694 30.682C39.246 31.006 39.66 31.414 39.936 31.906C40.212 32.386 40.35 32.968 40.35 33.652C40.35 34.3 40.224 34.846 39.972 35.29C39.72 35.734 39.36 36.1 38.892 36.388C38.436 36.676 37.89 36.88 37.254 37C36.618 37.132 35.916 37.192 35.148 37.18ZM34.806 38.89V36.928L36.714 36.82V38.89H34.806ZM34.806 24.562V22.528H36.714V24.454L34.806 24.562ZM42.7988 37V35.056H46.4168V27.064L43.0508 28.576L42.5288 26.542L47.6228 24.364H48.8468V35.056H51.9068V37H42.7988ZM53.2937 30.7C53.2937 29.452 53.4137 28.414 53.6537 27.586C53.8937 26.746 54.2417 26.08 54.6977 25.588C55.1537 25.096 55.6937 24.748 56.3177 24.544C56.9417 24.328 57.6377 24.22 58.4057 24.22C59.1857 24.22 59.8877 24.328 60.5117 24.544C61.1477 24.748 61.6877 25.102 62.1317 25.606C62.5757 26.098 62.9177 26.758 63.1577 27.586C63.3977 28.414 63.5177 29.452 63.5177 30.7C63.5177 31.936 63.3917 32.974 63.1397 33.814C62.8877 34.642 62.5337 35.302 62.0777 35.794C61.6337 36.286 61.0997 36.64 60.4757 36.856C59.8517 37.072 59.1617 37.18 58.4057 37.18C57.6377 37.18 56.9417 37.078 56.3177 36.874C55.6937 36.658 55.1537 36.304 54.6977 35.812C54.2537 35.308 53.9057 34.642 53.6537 33.814C53.4137 32.974 53.2937 31.936 53.2937 30.7ZM55.7417 30.772C55.7417 31.708 55.8077 32.476 55.9397 33.076C56.0717 33.664 56.2577 34.12 56.4977 34.444C56.7377 34.756 57.0197 34.978 57.3437 35.11C57.6677 35.23 58.0217 35.29 58.4057 35.29C58.7777 35.29 59.1257 35.23 59.4497 35.11C59.7737 34.978 60.0557 34.756 60.2957 34.444C60.5357 34.12 60.7217 33.664 60.8537 33.076C60.9857 32.476 61.0517 31.708 61.0517 30.772C61.0517 29.8 60.9857 29.008 60.8537 28.396C60.7217 27.784 60.5297 27.31 60.2777 26.974C60.0377 26.638 59.7557 26.41 59.4317 26.29C59.1197 26.17 58.7777 26.11 58.4057 26.11C58.0217 26.11 57.6677 26.17 57.3437 26.29C57.0317 26.41 56.7497 26.638 56.4977 26.974C56.2577 27.31 56.0717 27.784 55.9397 28.396C55.8077 29.008 55.7417 29.8 55.7417 30.772ZM65.0125 35.65L67.2085 35.578C67.2685 35.77 67.3165 35.98 67.3525 36.208C67.4005 36.424 67.4245 36.664 67.4245 36.928C67.4245 37.336 67.3645 37.75 67.2445 38.17C67.1365 38.59 66.9625 38.992 66.7225 39.376C66.4825 39.76 66.1765 40.126 65.8045 40.474L64.0225 40.042C64.4185 39.61 64.7065 39.112 64.8865 38.548C65.0785 37.996 65.1745 37.456 65.1745 36.928C65.1745 36.772 65.1625 36.58 65.1385 36.352C65.1145 36.124 65.0725 35.89 65.0125 35.65ZM68.7533 30.7C68.7533 29.452 68.8733 28.414 69.1133 27.586C69.3533 26.746 69.7013 26.08 70.1573 25.588C70.6133 25.096 71.1533 24.748 71.7773 24.544C72.4013 24.328 73.0973 24.22 73.8653 24.22C74.6453 24.22 75.3473 24.328 75.9713 24.544C76.6073 24.748 77.1473 25.102 77.5913 25.606C78.0353 26.098 78.3773 26.758 78.6173 27.586C78.8573 28.414 78.9773 29.452 78.9773 30.7C78.9773 31.936 78.8513 32.974 78.5993 33.814C78.3473 34.642 77.9933 35.302 77.5373 35.794C77.0933 36.286 76.5593 36.64 75.9353 36.856C75.3113 37.072 74.6213 37.18 73.8653 37.18C73.0973 37.18 72.4013 37.078 71.7773 36.874C71.1533 36.658 70.6133 36.304 70.1573 35.812C69.7133 35.308 69.3653 34.642 69.1133 33.814C68.8733 32.974 68.7533 31.936 68.7533 30.7ZM71.2013 30.772C71.2013 31.708 71.2673 32.476 71.3993 33.076C71.5313 33.664 71.7173 34.12 71.9573 34.444C72.1973 34.756 72.4793 34.978 72.8033 35.11C73.1273 35.23 73.4813 35.29 73.8653 35.29C74.2373 35.29 74.5853 35.23 74.9093 35.11C75.2333 34.978 75.5153 34.756 75.7553 34.444C75.9953 34.12 76.1813 33.664 76.3133 33.076C76.4453 32.476 76.5113 31.708 76.5113 30.772C76.5113 29.8 76.4453 29.008 76.3133 28.396C76.1813 27.784 75.9893 27.31 75.7373 26.974C75.4973 26.638 75.2153 26.41 74.8913 26.29C74.5793 26.17 74.2373 26.11 73.8653 26.11C73.4813 26.11 73.1273 26.17 72.8033 26.29C72.4913 26.41 72.2093 26.638 71.9573 26.974C71.7173 27.31 71.5313 27.784 71.3993 28.396C71.2673 29.008 71.2013 29.8 71.2013 30.772ZM80.1481 30.7C80.1481 29.452 80.2681 28.414 80.5081 27.586C80.7481 26.746 81.0961 26.08 81.5521 25.588C82.0081 25.096 82.5481 24.748 83.1721 24.544C83.7961 24.328 84.4921 24.22 85.2601 24.22C86.0401 24.22 86.7421 24.328 87.3661 24.544C88.0021 24.748 88.5421 25.102 88.9861 25.606C89.4301 26.098 89.7721 26.758 90.0121 27.586C90.2521 28.414 90.3721 29.452 90.3721 30.7C90.3721 31.936 90.2461 32.974 89.9941 33.814C89.7421 34.642 89.3881 35.302 88.9321 35.794C88.4881 36.286 87.9541 36.64 87.3301 36.856C86.7061 37.072 86.0161 37.18 85.2601 37.18C84.4921 37.18 83.7961 37.078 83.1721 36.874C82.5481 36.658 82.0081 36.304 81.5521 35.812C81.1081 35.308 80.7601 34.642 80.5081 33.814C80.2681 32.974 80.1481 31.936 80.1481 30.7ZM82.5961 30.772C82.5961 31.708 82.6621 32.476 82.7941 33.076C82.9261 33.664 83.1121 34.12 83.3521 34.444C83.5921 34.756 83.8741 34.978 84.1981 35.11C84.5221 35.23 84.8761 35.29 85.2601 35.29C85.6321 35.29 85.9801 35.23 86.3041 35.11C86.6281 34.978 86.9101 34.756 87.1501 34.444C87.3901 34.12 87.5761 33.664 87.7081 33.076C87.8401 32.476 87.9061 31.708 87.9061 30.772C87.9061 29.8 87.8401 29.008 87.7081 28.396C87.5761 27.784 87.3841 27.31 87.1321 26.974C86.8921 26.638 86.6101 26.41 86.2861 26.29C85.9741 26.17 85.6321 26.11 85.2601 26.11C84.8761 26.11 84.5221 26.17 84.1981 26.29C83.8861 26.41 83.6041 26.638 83.3521 26.974C83.1121 27.31 82.9261 27.784 82.7941 28.396C82.6621 29.008 82.5961 29.8 82.5961 30.772ZM91.543 30.7C91.543 29.452 91.663 28.414 91.903 27.586C92.143 26.746 92.491 26.08 92.947 25.588C93.403 25.096 93.943 24.748 94.567 24.544C95.191 24.328 95.887 24.22 96.655 24.22C97.435 24.22 98.137 24.328 98.761 24.544C99.397 24.748 99.937 25.102 100.381 25.606C100.825 26.098 101.167 26.758 101.407 27.586C101.647 28.414 101.767 29.452 101.767 30.7C101.767 31.936 101.641 32.974 101.389 33.814C101.137 34.642 100.783 35.302 100.327 35.794C99.883 36.286 99.349 36.64 98.725 36.856C98.101 37.072 97.411 37.18 96.655 37.18C95.887 37.18 95.191 37.078 94.567 36.874C93.943 36.658 93.403 36.304 92.947 35.812C92.503 35.308 92.155 34.642 91.903 33.814C91.663 32.974 91.543 31.936 91.543 30.7ZM93.991 30.772C93.991 31.708 94.057 32.476 94.189 33.076C94.321 33.664 94.507 34.12 94.747 34.444C94.987 34.756 95.269 34.978 95.593 35.11C95.917 35.23 96.271 35.29 96.655 35.29C97.027 35.29 97.375 35.23 97.699 35.11C98.023 34.978 98.305 34.756 98.545 34.444C98.785 34.12 98.971 33.664 99.103 33.076C99.235 32.476 99.301 31.708 99.301 30.772C99.301 29.8 99.235 29.008 99.103 28.396C98.971 27.784 98.779 27.31 98.527 26.974C98.287 26.638 98.005 26.41 97.681 26.29C97.369 26.17 97.027 26.11 96.655 26.11C96.271 26.11 95.917 26.17 95.593 26.29C95.281 26.41 94.999 26.638 94.747 26.974C94.507 27.31 94.321 27.784 94.189 28.396C94.057 29.008 93.991 29.8 93.991 30.772Z" fill="#00AC76"/>
<path d="M30.464 50.68V44.664H31.248L31.272 45.08C31.5173 44.92 31.7547 44.8027 31.984 44.728C32.2133 44.648 32.4453 44.608 32.68 44.608C33.1493 44.608 33.5093 44.7947 33.76 45.168C34.0107 45.536 34.136 46.064 34.136 46.752C34.136 47.28 34.064 47.7173 33.92 48.064C33.776 48.4107 33.5573 48.6667 33.264 48.832C32.9707 48.9973 32.6 49.08 32.152 49.08C32.0293 49.08 31.8987 49.072 31.76 49.056C31.6267 49.04 31.4827 49.0187 31.328 48.992V50.68H30.464ZM32.088 48.44C32.3547 48.44 32.5707 48.3893 32.736 48.288C32.9067 48.1813 33.032 48.0107 33.112 47.776C33.1973 47.536 33.24 47.2213 33.24 46.832C33.24 46.4907 33.2053 46.2107 33.136 45.992C33.0667 45.768 32.9653 45.6027 32.832 45.496C32.704 45.384 32.544 45.328 32.352 45.328C32.2453 45.328 32.136 45.3413 32.024 45.368C31.9173 45.3893 31.808 45.4267 31.696 45.48C31.584 45.528 31.4613 45.5947 31.328 45.68V48.336C31.4773 48.368 31.6133 48.3947 31.736 48.416C31.8587 48.432 31.976 48.44 32.088 48.44ZM35.7342 44.688V45.216C35.8889 45.072 36.0329 44.9573 36.1662 44.872C36.3049 44.7813 36.4436 44.7147 36.5823 44.672C36.7209 44.6293 36.8676 44.608 37.0222 44.608C37.1236 44.608 37.2249 44.616 37.3263 44.632C37.4329 44.648 37.5316 44.6693 37.6223 44.696L37.4783 45.488C37.3822 45.4613 37.2836 45.4427 37.1823 45.432C37.0862 45.416 36.9929 45.408 36.9023 45.408C36.7316 45.408 36.5556 45.4427 36.3743 45.512C36.1983 45.5813 36.0089 45.6987 35.8062 45.864V49H34.9502V44.688H35.7342ZM37.7119 47.92C37.7119 47.6587 37.7626 47.4453 37.8639 47.28C37.9706 47.1093 38.1306 46.976 38.3439 46.88C38.5573 46.7787 38.8239 46.7013 39.1439 46.648C39.4639 46.5893 39.8346 46.544 40.2559 46.512V46.016C40.2559 45.7973 40.1786 45.632 40.0239 45.52C39.8746 45.408 39.6533 45.352 39.3599 45.352C39.2533 45.352 39.1306 45.3573 38.9919 45.368C38.8586 45.3787 38.7173 45.3973 38.5679 45.424C38.4186 45.4507 38.2666 45.488 38.1119 45.536L37.9679 44.84C38.1973 44.7653 38.4399 44.7093 38.6959 44.672C38.9519 44.6293 39.1919 44.608 39.4159 44.608C39.8053 44.608 40.1253 44.6613 40.3759 44.768C40.6319 44.8693 40.8213 45.024 40.9439 45.232C41.0719 45.44 41.1359 45.6987 41.1359 46.008V47.912C41.1359 48.072 41.1599 48.1813 41.2079 48.24C41.2559 48.2933 41.3173 48.32 41.3919 48.32C41.4186 48.32 41.4506 48.3173 41.4879 48.312C41.5253 48.3067 41.5626 48.296 41.5999 48.28L41.6799 48.92C41.5946 48.968 41.5013 49.0053 41.3999 49.032C41.2986 49.064 41.1893 49.08 41.0719 49.08C40.8693 49.08 40.7066 49.0347 40.5839 48.944C40.4666 48.848 40.3866 48.704 40.3439 48.512C40.2106 48.6133 40.0666 48.7093 39.9119 48.8C39.7626 48.8853 39.5973 48.952 39.4159 49C39.2399 49.0533 39.0453 49.08 38.8319 49.08C38.6613 49.08 38.5066 49.0533 38.3679 49C38.2346 48.952 38.1173 48.88 38.0159 48.784C37.9199 48.6827 37.8453 48.56 37.7919 48.416C37.7386 48.272 37.7119 48.1067 37.7119 47.92ZM38.5919 47.856C38.5919 48.064 38.6426 48.2187 38.7439 48.32C38.8453 48.4213 38.9813 48.472 39.1519 48.472C39.2799 48.472 39.4106 48.4533 39.5439 48.416C39.6773 48.3733 39.8053 48.3173 39.9279 48.248C40.0559 48.1733 40.1653 48.0853 40.2559 47.984V47.008C39.9999 47.0293 39.7706 47.056 39.5679 47.088C39.3653 47.12 39.1893 47.168 39.0399 47.232C38.8959 47.2907 38.7839 47.3707 38.7039 47.472C38.6293 47.5733 38.5919 47.7013 38.5919 47.856ZM42.012 46.912C42.012 46.3947 42.092 45.968 42.252 45.632C42.412 45.2907 42.6467 45.0347 42.956 44.864C43.2707 44.6933 43.652 44.608 44.1 44.608C44.2493 44.608 44.4013 44.616 44.556 44.632C44.716 44.6427 44.8707 44.6613 45.02 44.688C45.1693 44.7093 45.3053 44.7387 45.428 44.776L45.3 45.496C45.1827 45.4693 45.06 45.448 44.932 45.432C44.804 45.4107 44.676 45.3947 44.548 45.384C44.4253 45.3733 44.3053 45.368 44.188 45.368C43.9107 45.368 43.676 45.424 43.484 45.536C43.2973 45.648 43.1533 45.816 43.052 46.04C42.956 46.264 42.908 46.552 42.908 46.904C42.908 47.224 42.9587 47.4907 43.06 47.704C43.1613 47.912 43.308 48.0693 43.5 48.176C43.692 48.2773 43.924 48.328 44.196 48.328C44.3187 48.328 44.444 48.3227 44.572 48.312C44.7053 48.3013 44.8387 48.2853 44.972 48.264C45.1107 48.2427 45.244 48.2187 45.372 48.192L45.5 48.888C45.2973 48.9413 45.06 48.9867 44.788 49.024C44.5213 49.0613 44.2627 49.08 44.012 49.08C43.3507 49.08 42.852 48.904 42.516 48.552C42.18 48.1947 42.012 47.648 42.012 46.912ZM47.7335 49.08C47.4615 49.08 47.2348 49.0293 47.0535 48.928C46.8722 48.8267 46.7362 48.672 46.6455 48.464C46.5602 48.2507 46.5175 47.984 46.5175 47.664V45.336H45.8135V44.76L46.5175 44.688L46.6295 43.704H47.3815V44.688H48.7095V45.336H47.3815V47.6C47.3815 47.8613 47.4322 48.0507 47.5335 48.168C47.6348 48.2853 47.7975 48.344 48.0215 48.344C48.1335 48.344 48.2482 48.3333 48.3655 48.312C48.4882 48.2853 48.6135 48.256 48.7415 48.224L48.8615 48.888C48.6588 48.9573 48.4615 49.0053 48.2695 49.032C48.0775 49.064 47.8988 49.08 47.7335 49.08ZM49.9054 43.952C49.7187 43.952 49.5854 43.9173 49.5054 43.848C49.4254 43.7787 49.3854 43.6613 49.3854 43.496C49.3854 43.336 49.4254 43.2213 49.5054 43.152C49.5854 43.0773 49.7187 43.04 49.9054 43.04C50.092 43.04 50.2254 43.0773 50.3054 43.152C50.3854 43.2213 50.4254 43.336 50.4254 43.496C50.4254 43.6613 50.3854 43.7787 50.3054 43.848C50.2254 43.9173 50.092 43.952 49.9054 43.952ZM49.4734 49V44.688H50.3374V49H49.4734ZM51.1426 46.912C51.1426 46.3947 51.2226 45.968 51.3826 45.632C51.5426 45.2907 51.7773 45.0347 52.0866 44.864C52.4013 44.6933 52.7826 44.608 53.2306 44.608C53.38 44.608 53.532 44.616 53.6866 44.632C53.8466 44.6427 54.0013 44.6613 54.1506 44.688C54.3 44.7093 54.436 44.7387 54.5586 44.776L54.4306 45.496C54.3133 45.4693 54.1906 45.448 54.0626 45.432C53.9346 45.4107 53.8066 45.3947 53.6786 45.384C53.556 45.3733 53.436 45.368 53.3186 45.368C53.0413 45.368 52.8066 45.424 52.6146 45.536C52.428 45.648 52.284 45.816 52.1826 46.04C52.0866 46.264 52.0386 46.552 52.0386 46.904C52.0386 47.224 52.0893 47.4907 52.1906 47.704C52.292 47.912 52.4386 48.0693 52.6306 48.176C52.8226 48.2773 53.0546 48.328 53.3266 48.328C53.4493 48.328 53.5746 48.3227 53.7026 48.312C53.836 48.3013 53.9693 48.2853 54.1026 48.264C54.2413 48.2427 54.3746 48.2187 54.5026 48.192L54.6306 48.888C54.428 48.9413 54.1906 48.9867 53.9186 49.024C53.652 49.0613 53.3933 49.08 53.1426 49.08C52.4813 49.08 51.9826 48.904 51.6466 48.552C51.3106 48.1947 51.1426 47.648 51.1426 46.912ZM57.0182 49.08C56.7035 49.08 56.4262 49.04 56.1862 48.96C55.9515 48.8747 55.7489 48.7467 55.5782 48.576C55.4129 48.4053 55.2875 48.1867 55.2022 47.92C55.1169 47.648 55.0742 47.328 55.0742 46.96C55.0742 46.528 55.1249 46.1627 55.2262 45.864C55.3329 45.56 55.4769 45.3173 55.6582 45.136C55.8449 44.9493 56.0609 44.816 56.3062 44.736C56.5569 44.6507 56.8289 44.608 57.1222 44.608C57.6982 44.608 58.1222 44.7573 58.3942 45.056C58.6715 45.3547 58.8102 45.84 58.8102 46.512C58.8102 46.5493 58.8075 46.6027 58.8022 46.672C58.8022 46.736 58.8022 46.8 58.8022 46.864C58.6795 46.8747 58.5222 46.888 58.3302 46.904C58.1435 46.92 57.9275 46.936 57.6822 46.952C57.4369 46.968 57.1702 46.9813 56.8822 46.992C56.5942 47.0027 56.2929 47.0107 55.9782 47.016C55.9729 47.0373 55.9702 47.0613 55.9702 47.088C55.9702 47.1093 55.9702 47.1333 55.9702 47.16C55.9702 47.4533 56.0155 47.6907 56.1062 47.872C56.1969 48.048 56.3302 48.1787 56.5062 48.264C56.6822 48.344 56.9035 48.384 57.1702 48.384C57.3302 48.384 57.4955 48.376 57.6662 48.36C57.8422 48.3387 58.0129 48.3147 58.1782 48.288C58.3435 48.256 58.5009 48.2213 58.6502 48.184L58.7622 48.832C58.6022 48.88 58.4289 48.9253 58.2422 48.968C58.0609 49.0053 57.8689 49.032 57.6662 49.048C57.4635 49.0693 57.2475 49.08 57.0182 49.08ZM55.9862 46.432C56.2102 46.432 56.4235 46.4293 56.6262 46.424C56.8342 46.4133 57.0262 46.4027 57.2022 46.392C57.3782 46.3813 57.5275 46.3733 57.6502 46.368C57.7782 46.3573 57.8742 46.3493 57.9382 46.344C57.9329 46.0773 57.8982 45.864 57.8342 45.704C57.7702 45.544 57.6742 45.4293 57.5462 45.36C57.4182 45.2853 57.2555 45.248 57.0582 45.248C56.9355 45.248 56.8155 45.2667 56.6982 45.304C56.5809 45.336 56.4715 45.3973 56.3702 45.488C56.2742 45.5733 56.1915 45.6933 56.1222 45.848C56.0529 45.9973 56.0075 46.192 55.9862 46.432ZM61.5922 47.92C61.5922 47.6587 61.6429 47.4453 61.7442 47.28C61.8509 47.1093 62.0109 46.976 62.2242 46.88C62.4376 46.7787 62.7042 46.7013 63.0242 46.648C63.3442 46.5893 63.7149 46.544 64.1362 46.512V46.016C64.1362 45.7973 64.0589 45.632 63.9042 45.52C63.7549 45.408 63.5336 45.352 63.2402 45.352C63.1336 45.352 63.0109 45.3573 62.8722 45.368C62.7389 45.3787 62.5976 45.3973 62.4482 45.424C62.2989 45.4507 62.1469 45.488 61.9922 45.536L61.8482 44.84C62.0776 44.7653 62.3202 44.7093 62.5762 44.672C62.8322 44.6293 63.0722 44.608 63.2962 44.608C63.6856 44.608 64.0056 44.6613 64.2562 44.768C64.5122 44.8693 64.7016 45.024 64.8242 45.232C64.9522 45.44 65.0162 45.6987 65.0162 46.008V47.912C65.0162 48.072 65.0402 48.1813 65.0882 48.24C65.1362 48.2933 65.1976 48.32 65.2722 48.32C65.2989 48.32 65.3309 48.3173 65.3682 48.312C65.4056 48.3067 65.4429 48.296 65.4802 48.28L65.5602 48.92C65.4749 48.968 65.3816 49.0053 65.2802 49.032C65.1789 49.064 65.0696 49.08 64.9522 49.08C64.7496 49.08 64.5869 49.0347 64.4642 48.944C64.3469 48.848 64.2669 48.704 64.2242 48.512C64.0909 48.6133 63.9469 48.7093 63.7922 48.8C63.6429 48.8853 63.4776 48.952 63.2962 49C63.1202 49.0533 62.9256 49.08 62.7122 49.08C62.5416 49.08 62.3869 49.0533 62.2482 49C62.1149 48.952 61.9976 48.88 61.8962 48.784C61.8002 48.6827 61.7256 48.56 61.6722 48.416C61.6189 48.272 61.5922 48.1067 61.5922 47.92ZM62.4722 47.856C62.4722 48.064 62.5229 48.2187 62.6242 48.32C62.7256 48.4213 62.8616 48.472 63.0322 48.472C63.1602 48.472 63.2909 48.4533 63.4242 48.416C63.5576 48.3733 63.6856 48.3173 63.8082 48.248C63.9362 48.1733 64.0456 48.0853 64.1362 47.984V47.008C63.8802 47.0293 63.6509 47.056 63.4482 47.088C63.2456 47.12 63.0696 47.168 62.9202 47.232C62.7762 47.2907 62.6642 47.3707 62.5842 47.472C62.5096 47.5733 62.4722 47.7013 62.4722 47.856ZM65.8923 46.912C65.8923 46.3947 65.9723 45.968 66.1323 45.632C66.2923 45.2907 66.527 45.0347 66.8363 44.864C67.151 44.6933 67.5323 44.608 67.9803 44.608C68.1296 44.608 68.2816 44.616 68.4363 44.632C68.5963 44.6427 68.751 44.6613 68.9003 44.688C69.0496 44.7093 69.1856 44.7387 69.3083 44.776L69.1803 45.496C69.063 45.4693 68.9403 45.448 68.8123 45.432C68.6843 45.4107 68.5563 45.3947 68.4283 45.384C68.3056 45.3733 68.1856 45.368 68.0683 45.368C67.791 45.368 67.5563 45.424 67.3643 45.536C67.1776 45.648 67.0336 45.816 66.9323 46.04C66.8363 46.264 66.7883 46.552 66.7883 46.904C66.7883 47.224 66.839 47.4907 66.9403 47.704C67.0416 47.912 67.1883 48.0693 67.3803 48.176C67.5723 48.2773 67.8043 48.328 68.0763 48.328C68.199 48.328 68.3243 48.3227 68.4523 48.312C68.5856 48.3013 68.719 48.2853 68.8523 48.264C68.991 48.2427 69.1243 48.2187 69.2523 48.192L69.3803 48.888C69.1776 48.9413 68.9403 48.9867 68.6683 49.024C68.4016 49.0613 68.143 49.08 67.8923 49.08C67.231 49.08 66.7323 48.904 66.3963 48.552C66.0603 48.1947 65.8923 47.648 65.8923 46.912ZM69.8239 46.912C69.8239 46.3947 69.9039 45.968 70.0639 45.632C70.2239 45.2907 70.4585 45.0347 70.7679 44.864C71.0825 44.6933 71.4639 44.608 71.9119 44.608C72.0612 44.608 72.2132 44.616 72.3679 44.632C72.5279 44.6427 72.6825 44.6613 72.8319 44.688C72.9812 44.7093 73.1172 44.7387 73.2399 44.776L73.1119 45.496C72.9945 45.4693 72.8719 45.448 72.7439 45.432C72.6159 45.4107 72.4879 45.3947 72.3599 45.384C72.2372 45.3733 72.1172 45.368 71.9999 45.368C71.7225 45.368 71.4879 45.424 71.2959 45.536C71.1092 45.648 70.9652 45.816 70.8639 46.04C70.7679 46.264 70.7199 46.552 70.7199 46.904C70.7199 47.224 70.7705 47.4907 70.8719 47.704C70.9732 47.912 71.1199 48.0693 71.3119 48.176C71.5039 48.2773 71.7359 48.328 72.0079 48.328C72.1305 48.328 72.2559 48.3227 72.3839 48.312C72.5172 48.3013 72.6505 48.2853 72.7839 48.264C72.9225 48.2427 73.0559 48.2187 73.1839 48.192L73.3119 48.888C73.1092 48.9413 72.8719 48.9867 72.5999 49.024C72.3332 49.0613 72.0745 49.08 71.8239 49.08C71.1625 49.08 70.6639 48.904 70.3279 48.552C69.9919 48.1947 69.8239 47.648 69.8239 46.912ZM73.7554 46.84C73.7554 46.4667 73.7874 46.1413 73.8514 45.864C73.9208 45.5867 74.0301 45.3573 74.1794 45.176C74.3288 44.9893 74.5288 44.848 74.7794 44.752C75.0301 44.656 75.3394 44.608 75.7074 44.608C76.0754 44.608 76.3848 44.656 76.6354 44.752C76.8861 44.848 77.0861 44.9893 77.2354 45.176C77.3848 45.3573 77.4914 45.5867 77.5554 45.864C77.6248 46.1413 77.6594 46.4667 77.6594 46.84C77.6594 47.2187 77.6221 47.5493 77.5474 47.832C77.4781 48.1147 77.3661 48.3493 77.2114 48.536C77.0568 48.7173 76.8541 48.8533 76.6034 48.944C76.3581 49.0347 76.0594 49.08 75.7074 49.08C75.3554 49.08 75.0541 49.0347 74.8034 48.944C74.5581 48.8533 74.3581 48.7173 74.2034 48.536C74.0488 48.3493 73.9341 48.1147 73.8594 47.832C73.7901 47.5493 73.7554 47.2187 73.7554 46.84ZM74.6434 46.84C74.6434 47.2293 74.6781 47.5387 74.7474 47.768C74.8221 47.9973 74.9368 48.1627 75.0914 48.264C75.2514 48.3653 75.4568 48.416 75.7074 48.416C75.9581 48.416 76.1608 48.3653 76.3154 48.264C76.4701 48.1627 76.5821 47.9973 76.6514 47.768C76.7261 47.5387 76.7634 47.2293 76.7634 46.84C76.7634 46.4507 76.7314 46.144 76.6674 45.92C76.6034 45.6907 76.4914 45.528 76.3314 45.432C76.1768 45.3307 75.9688 45.28 75.7074 45.28C75.4408 45.28 75.2301 45.3307 75.0754 45.432C74.9208 45.528 74.8088 45.6907 74.7394 45.92C74.6754 46.144 74.6434 46.4507 74.6434 46.84ZM79.6649 49.08C79.4196 49.08 79.2063 49.0373 79.0249 48.952C78.8436 48.8613 78.7023 48.7253 78.6009 48.544C78.5049 48.3627 78.4569 48.136 78.4569 47.864V44.688H79.3209V47.68C79.3209 47.8933 79.3796 48.0587 79.4969 48.176C79.6143 48.2933 79.7849 48.352 80.0089 48.352C80.1263 48.352 80.2409 48.3387 80.3529 48.312C80.4649 48.2853 80.5743 48.2507 80.6809 48.208C80.7929 48.16 80.9076 48.104 81.0249 48.04V44.688H81.8889V47.936C81.8889 48.0373 81.8996 48.1173 81.9209 48.176C81.9476 48.2347 81.9823 48.2773 82.0249 48.304C82.0676 48.3253 82.1129 48.336 82.1609 48.336C82.2303 48.336 82.2969 48.3227 82.3609 48.296L82.4489 48.92C82.3956 48.952 82.3343 48.9787 82.2649 49C82.1956 49.0267 82.1236 49.0453 82.0489 49.056C81.9743 49.072 81.8969 49.08 81.8169 49.08C81.6516 49.08 81.5103 49.0427 81.3929 48.968C81.2756 48.888 81.1876 48.7733 81.1289 48.624C80.9743 48.7147 80.8169 48.7947 80.6569 48.864C80.5023 48.9333 80.3449 48.9867 80.1849 49.024C80.0249 49.0613 79.8516 49.08 79.6649 49.08ZM83.0215 49V44.688H83.8055V45.064C83.9815 44.968 84.1495 44.888 84.3095 44.824C84.4695 44.7547 84.6322 44.7013 84.7975 44.664C84.9628 44.6267 85.1362 44.608 85.3175 44.608C85.5842 44.608 85.8055 44.656 85.9815 44.752C86.1628 44.848 86.2988 44.984 86.3895 45.16C86.4855 45.336 86.5335 45.552 86.5335 45.808V49H85.6615V46.072C85.6615 45.832 85.6028 45.6507 85.4855 45.528C85.3682 45.4053 85.1922 45.344 84.9575 45.344C84.8348 45.344 84.7148 45.3573 84.5975 45.384C84.4802 45.4107 84.3628 45.448 84.2455 45.496C84.1282 45.5387 84.0082 45.592 83.8855 45.656V49H83.0215ZM89.0432 49.08C88.7712 49.08 88.5445 49.0293 88.3632 48.928C88.1819 48.8267 88.0459 48.672 87.9552 48.464C87.8699 48.2507 87.8272 47.984 87.8272 47.664V45.336H87.1232V44.76L87.8272 44.688L87.9392 43.704H88.6912V44.688H90.0192V45.336H88.6912V47.6C88.6912 47.8613 88.7419 48.0507 88.8432 48.168C88.9445 48.2853 89.1072 48.344 89.3312 48.344C89.4432 48.344 89.5579 48.3333 89.6752 48.312C89.7979 48.2853 89.9232 48.256 90.0512 48.224L90.1712 48.888C89.9685 48.9573 89.7712 49.0053 89.5792 49.032C89.3872 49.064 89.2085 49.08 89.0432 49.08Z" fill="#1A1A19"/>
<path fill-rule="evenodd" clip-rule="evenodd" d="M201.923 172.873V175.025C201.923 177.9 204.371 178.907 205 179.117C205.629 178.907 208.077 177.9 208.077 175.025V172.873H201.923ZM201.226 172.222C201.372 172.081 201.572 172 201.783 172H208.217C208.428 172 208.628 172.081 208.774 172.222C208.92 172.363 209 172.552 209 172.747V175.025C209 178.579 205.871 179.76 205.254 179.958C205.09 180.014 204.91 180.014 204.746 179.958C204.129 179.76 201 178.579 201 175.025V172.747C201 172.552 201.08 172.363 201.226 172.222Z" fill="#00AC76"/>
<path fill-rule="evenodd" clip-rule="evenodd" d="M201.154 175.491C201.154 175.25 201.356 175.055 201.606 175.055H208.394C208.644 175.055 208.846 175.25 208.846 175.491C208.846 175.732 208.644 175.927 208.394 175.927H201.606C201.356 175.927 201.154 175.732 201.154 175.491Z" fill="#00AC76"/>
<path fill-rule="evenodd" clip-rule="evenodd" d="M205 172C205.255 172 205.462 172.195 205.462 172.436V179.564C205.462 179.805 205.255 180 205 180C204.745 180 204.538 179.805 204.538 179.564V172.436C204.538 172.195 204.745 172 205 172Z" fill="#00AC76"/>
<path d="M212.416 178V173.672H213.384V174.048C213.56 173.947 213.728 173.864 213.888 173.8C214.048 173.731 214.205 173.68 214.36 173.648C214.52 173.611 214.688 173.592 214.864 173.592C215.141 173.592 215.371 173.643 215.552 173.744C215.739 173.84 215.877 173.979 215.968 174.16C216.059 174.341 216.104 174.56 216.104 174.816V178H215.04V175.152C215.04 174.928 214.987 174.763 214.88 174.656C214.779 174.544 214.624 174.488 214.416 174.488C214.309 174.488 214.205 174.501 214.104 174.528C214.003 174.549 213.901 174.579 213.8 174.616C213.699 174.653 213.592 174.701 213.48 174.76V178H212.416ZM216.851 175.832C216.851 175.464 216.883 175.141 216.947 174.864C217.017 174.587 217.126 174.355 217.275 174.168C217.43 173.981 217.638 173.84 217.899 173.744C218.161 173.643 218.483 173.592 218.867 173.592C219.257 173.592 219.579 173.643 219.835 173.744C220.097 173.84 220.305 173.981 220.459 174.168C220.614 174.355 220.723 174.587 220.787 174.864C220.857 175.141 220.891 175.464 220.891 175.832C220.891 176.2 220.854 176.525 220.779 176.808C220.71 177.091 220.595 177.325 220.435 177.512C220.275 177.699 220.067 177.84 219.811 177.936C219.555 178.032 219.241 178.08 218.867 178.08C218.499 178.08 218.185 178.032 217.923 177.936C217.667 177.84 217.459 177.699 217.299 177.512C217.145 177.325 217.03 177.091 216.955 176.808C216.886 176.525 216.851 176.2 216.851 175.832ZM217.939 175.832C217.939 176.189 217.971 176.475 218.035 176.688C218.099 176.896 218.201 177.045 218.339 177.136C218.478 177.227 218.654 177.272 218.867 177.272C219.091 177.272 219.27 177.227 219.403 177.136C219.542 177.045 219.641 176.896 219.699 176.688C219.763 176.475 219.795 176.189 219.795 175.832C219.795 175.475 219.766 175.192 219.707 174.984C219.654 174.776 219.558 174.627 219.419 174.536C219.286 174.445 219.102 174.4 218.867 174.4C218.638 174.4 218.454 174.445 218.315 174.536C218.182 174.627 218.086 174.776 218.027 174.984C217.969 175.192 217.939 175.475 217.939 175.832ZM224.819 173.672V174.184C224.969 174.045 225.107 173.933 225.235 173.848C225.369 173.757 225.502 173.693 225.635 173.656C225.774 173.613 225.918 173.592 226.067 173.592C226.163 173.592 226.259 173.6 226.355 173.616C226.457 173.627 226.555 173.648 226.651 173.68L226.483 174.64C226.387 174.619 226.289 174.603 226.187 174.592C226.091 174.576 226.001 174.568 225.915 174.568C225.761 174.568 225.601 174.597 225.435 174.656C225.27 174.715 225.097 174.816 224.915 174.96V178H223.851V173.672H224.819ZM227.717 173.056C227.493 173.056 227.331 173.013 227.229 172.928C227.133 172.837 227.085 172.699 227.085 172.512C227.085 172.32 227.133 172.181 227.229 172.096C227.331 172.011 227.493 171.968 227.717 171.968C227.941 171.968 228.101 172.011 228.197 172.096C228.299 172.181 228.349 172.32 228.349 172.512C228.349 172.699 228.299 172.837 228.197 172.928C228.101 173.013 227.941 173.056 227.717 173.056ZM227.181 178V173.672H228.245V178H227.181ZM228.912 177.832L229.04 177.048C229.136 177.08 229.242 177.112 229.36 177.144C229.477 177.171 229.6 177.195 229.728 177.216C229.861 177.237 229.992 177.253 230.12 177.264C230.248 177.275 230.368 177.28 230.48 177.28C230.736 177.28 230.922 177.243 231.04 177.168C231.157 177.088 231.216 176.971 231.216 176.816C231.216 176.731 231.192 176.659 231.144 176.6C231.101 176.536 231.032 176.483 230.936 176.44C230.845 176.392 230.73 176.349 230.592 176.312C230.458 176.269 230.304 176.227 230.128 176.184C229.941 176.141 229.778 176.085 229.64 176.016C229.501 175.941 229.381 175.853 229.28 175.752C229.184 175.651 229.112 175.533 229.064 175.4C229.021 175.267 229 175.115 229 174.944C229 174.501 229.144 174.165 229.432 173.936C229.72 173.707 230.146 173.592 230.712 173.592C230.888 173.592 231.053 173.603 231.208 173.624C231.362 173.64 231.509 173.664 231.648 173.696C231.792 173.723 231.922 173.757 232.04 173.8L231.904 174.6C231.786 174.563 231.669 174.531 231.552 174.504C231.434 174.477 231.306 174.456 231.168 174.44C231.034 174.424 230.882 174.416 230.712 174.416C230.482 174.416 230.309 174.453 230.192 174.528C230.074 174.597 230.016 174.704 230.016 174.848C230.016 174.933 230.037 175.005 230.08 175.064C230.122 175.117 230.184 175.163 230.264 175.2C230.344 175.237 230.442 175.272 230.56 175.304C230.677 175.336 230.808 175.368 230.952 175.4C231.149 175.448 231.328 175.507 231.488 175.576C231.648 175.64 231.784 175.72 231.896 175.816C232.013 175.912 232.104 176.035 232.168 176.184C232.237 176.328 232.272 176.504 232.272 176.712C232.272 176.909 232.24 177.085 232.176 177.24C232.117 177.389 232.032 177.517 231.92 177.624C231.808 177.731 231.677 177.819 231.528 177.888C231.378 177.952 231.213 178 231.032 178.032C230.85 178.064 230.661 178.08 230.464 178.08C230.272 178.08 230.088 178.069 229.912 178.048C229.736 178.032 229.562 178.005 229.392 177.968C229.226 177.931 229.066 177.885 228.912 177.832ZM236.423 178.072C236.338 178.072 236.25 178.061 236.159 178.04C236.074 178.024 235.981 177.987 235.879 177.928C235.783 177.869 235.666 177.784 235.527 177.672C235.394 177.56 235.234 177.411 235.047 177.224L233.943 176.16V178H232.927V172.08H233.943V174.792L235.263 176.08C235.525 176.331 235.733 176.52 235.887 176.648C236.047 176.776 236.178 176.864 236.279 176.912C236.386 176.955 236.482 176.976 236.567 176.976C236.583 176.976 236.602 176.976 236.623 176.976C236.645 176.971 236.666 176.968 236.687 176.968L236.703 178.048C236.666 178.053 236.623 178.059 236.575 178.064C236.533 178.069 236.482 178.072 236.423 178.072ZM234.815 176.096L233.951 175.672C234.138 175.507 234.311 175.344 234.471 175.184C234.637 175.024 234.786 174.861 234.919 174.696C235.053 174.531 235.17 174.36 235.271 174.184C235.373 174.003 235.45 173.808 235.503 173.6L236.575 173.672C236.511 173.907 236.415 174.136 236.287 174.36C236.159 174.584 236.01 174.8 235.839 175.008C235.674 175.211 235.503 175.403 235.327 175.584C235.151 175.765 234.981 175.936 234.815 176.096ZM237.064 177.832L237.192 177.048C237.288 177.08 237.395 177.112 237.512 177.144C237.629 177.171 237.752 177.195 237.88 177.216C238.013 177.237 238.144 177.253 238.272 177.264C238.4 177.275 238.52 177.28 238.632 177.28C238.888 177.28 239.075 177.243 239.192 177.168C239.309 177.088 239.368 176.971 239.368 176.816C239.368 176.731 239.344 176.659 239.296 176.6C239.253 176.536 239.184 176.483 239.088 176.44C238.997 176.392 238.883 176.349 238.744 176.312C238.611 176.269 238.456 176.227 238.28 176.184C238.093 176.141 237.931 176.085 237.792 176.016C237.653 175.941 237.533 175.853 237.432 175.752C237.336 175.651 237.264 175.533 237.216 175.4C237.173 175.267 237.152 175.115 237.152 174.944C237.152 174.501 237.296 174.165 237.584 173.936C237.872 173.707 238.299 173.592 238.864 173.592C239.04 173.592 239.205 173.603 239.36 173.624C239.515 173.64 239.661 173.664 239.8 173.696C239.944 173.723 240.075 173.757 240.192 173.8L240.056 174.6C239.939 174.563 239.821 174.531 239.704 174.504C239.587 174.477 239.459 174.456 239.32 174.44C239.187 174.424 239.035 174.416 238.864 174.416C238.635 174.416 238.461 174.453 238.344 174.528C238.227 174.597 238.168 174.704 238.168 174.848C238.168 174.933 238.189 175.005 238.232 175.064C238.275 175.117 238.336 175.163 238.416 175.2C238.496 175.237 238.595 175.272 238.712 175.304C238.829 175.336 238.96 175.368 239.104 175.4C239.301 175.448 239.48 175.507 239.64 175.576C239.8 175.64 239.936 175.72 240.048 175.816C240.165 175.912 240.256 176.035 240.32 176.184C240.389 176.328 240.424 176.504 240.424 176.712C240.424 176.909 240.392 177.085 240.328 177.24C240.269 177.389 240.184 177.517 240.072 177.624C239.96 177.731 239.829 177.819 239.68 177.888C239.531 177.952 239.365 178 239.184 178.032C239.003 178.064 238.813 178.08 238.616 178.08C238.424 178.08 238.24 178.069 238.064 178.048C237.888 178.032 237.715 178.005 237.544 177.968C237.379 177.931 237.219 177.885 237.064 177.832Z" fill="#00AC76"/>
<defs>
<linearGradient id="paint0_linear_227_11840" x1="68.2928" y1="132" x2="68.2928" y2="170.016" gradientUnits="userSpaceOnUse">
<stop stop-color="#202FFF"/>
<stop offset="1" stop-color="#F6F9FF"/>
</linearGradient>
<linearGradient id="paint1_linear_227_11840" x1="68.2928" y1="132" x2="68.2928" y2="170.016" gradientUnits="userSpaceOnUse">
<stop stop-color="#202FFF"/>
<stop offset="1" stop-color="#F6F9FF"/>
</linearGradient>
<linearGradient id="paint2_linear_227_11840" x1="80.8782" y1="91" x2="80.8782" y2="142.786" gradientUnits="userSpaceOnUse">
<stop stop-color="#202FFF"/>
<stop offset="1" stop-color="#F6F9FF"/>
</linearGradient>
<linearGradient id="paint3_linear_227_11840" x1="80.8782" y1="91" x2="80.8782" y2="142.786" gradientUnits="userSpaceOnUse">
<stop stop-color="#202FFF"/>
<stop offset="1" stop-color="#F6F9FF"/>
</linearGradient>
<linearGradient id="paint4_linear_227_11840" x1="93.4637" y1="99" x2="93.4637" y2="150.786" gradientUnits="userSpaceOnUse">
<stop stop-color="#202FFF"/>
<stop offset="1" stop-color="#F6F9FF"/>
</linearGradient>
<linearGradient id="paint5_linear_227_11840" x1="93.4637" y1="99" x2="93.4637" y2="150.786" gradientUnits="userSpaceOnUse">
<stop stop-color="#202FFF"/>
<stop offset="1" stop-color="#F6F9FF"/>
</linearGradient>
<linearGradient id="paint6_linear_227_11840" x1="106.049" y1="91" x2="106.049" y2="131.976" gradientUnits="userSpaceOnUse">
<stop stop-color="#202FFF"/>
<stop offset="1" stop-color="#F6F9FF"/>
</linearGradient>
<linearGradient id="paint7_linear_227_11840" x1="106.049" y1="91" x2="106.049" y2="131.976" gradientUnits="userSpaceOnUse">
<stop stop-color="#202FFF"/>
<stop offset="1" stop-color="#F6F9FF"/>
</linearGradient>
<linearGradient id="paint8_linear_227_11840" x1="118.635" y1="78" x2="118.635" y2="118.975" gradientUnits="userSpaceOnUse">
<stop stop-color="#202FFF"/>
<stop offset="1" stop-color="#F6F9FF"/>
</linearGradient>
<linearGradient id="paint9_linear_227_11840" x1="118.635" y1="78" x2="118.635" y2="118.975" gradientUnits="userSpaceOnUse">
<stop stop-color="#202FFF"/>
<stop offset="1" stop-color="#F6F9FF"/>
</linearGradient>
<linearGradient id="paint10_linear_227_11840" x1="131.22" y1="103" x2="131.22" y2="136.227" gradientUnits="userSpaceOnUse">
<stop stop-color="#202FFF"/>
<stop offset="1" stop-color="#F6F9FF"/>
</linearGradient>
<linearGradient id="paint11_linear_227_11840" x1="131.22" y1="103" x2="131.22" y2="136.227" gradientUnits="userSpaceOnUse">
<stop stop-color="#202FFF"/>
<stop offset="1" stop-color="#F6F9FF"/>
</linearGradient>
<linearGradient id="paint12_linear_227_11840" x1="143.806" y1="79" x2="143.806" y2="120.01" gradientUnits="userSpaceOnUse">
<stop stop-color="#202FFF"/>
<stop offset="1" stop-color="#F6F9FF"/>
</linearGradient>
<linearGradient id="paint13_linear_227_11840" x1="143.806" y1="79" x2="143.806" y2="120.01" gradientUnits="userSpaceOnUse">
<stop stop-color="#202FFF"/>
<stop offset="1" stop-color="#F6F9FF"/>
</linearGradient>
<linearGradient id="paint14_linear_227_11840" x1="156.391" y1="98" x2="156.391" y2="149.786" gradientUnits="userSpaceOnUse">
<stop stop-color="#202FFF"/>
<stop offset="1" stop-color="#F6F9FF"/>
</linearGradient>
<linearGradient id="paint15_linear_227_11840" x1="156.391" y1="98" x2="156.391" y2="149.786" gradientUnits="userSpaceOnUse">
<stop stop-color="#202FFF"/>
<stop offset="1" stop-color="#F6F9FF"/>
</linearGradient>
<linearGradient id="paint16_linear_227_11840" x1="168.977" y1="51" x2="168.977" y2="102.786" gradientUnits="userSpaceOnUse">
<stop stop-color="#202FFF"/>
<stop offset="1" stop-color="#F6F9FF"/>
</linearGradient>
<linearGradient id="paint17_linear_227_11840" x1="168.977" y1="51" x2="168.977" y2="102.786" gradientUnits="userSpaceOnUse">
<stop stop-color="#202FFF"/>
<stop offset="1" stop-color="#F6F9FF"/>
</linearGradient>
<linearGradient id="paint18_linear_227_11840" x1="181.562" y1="67" x2="181.562" y2="107.975" gradientUnits="userSpaceOnUse">
<stop stop-color="#202FFF"/>
<stop offset="1" stop-color="#F6F9FF"/>
</linearGradient>
<linearGradient id="paint19_linear_227_11840" x1="181.562" y1="67" x2="181.562" y2="107.975" gradientUnits="userSpaceOnUse">
<stop stop-color="#202FFF"/>
<stop offset="1" stop-color="#F6F9FF"/>
</linearGradient>
<linearGradient id="paint20_linear_227_11840" x1="194.148" y1="48" x2="194.148" y2="99.786" gradientUnits="userSpaceOnUse">
<stop stop-color="#202FFF"/>
<stop offset="1" stop-color="#F6F9FF"/>
</linearGradient>
<linearGradient id="paint21_linear_227_11840" x1="194.148" y1="48" x2="194.148" y2="99.786" gradientUnits="userSpaceOnUse">
<stop stop-color="#202FFF"/>
<stop offset="1" stop-color="#F6F9FF"/>
</linearGradient>
<linearGradient id="paint22_linear_227_11840" x1="206.733" y1="30" x2="206.733" y2="71.0097" gradientUnits="userSpaceOnUse">
<stop stop-color="#202FFF"/>
<stop offset="1" stop-color="#F6F9FF"/>
</linearGradient>
<linearGradient id="paint23_linear_227_11840" x1="206.733" y1="30" x2="206.733" y2="71.0097" gradientUnits="userSpaceOnUse">
<stop stop-color="#202FFF"/>
<stop offset="1" stop-color="#F6F9FF"/>
</linearGradient>
</defs>
</svg>
