<svg width="280" height="202" viewBox="0 0 280 202" fill="none" xmlns="http://www.w3.org/2000/svg">
<rect width="280" height="202" fill="white"/>
<path fill-rule="evenodd" clip-rule="evenodd" d="M66.6932 25.9702C66.9882 25.9702 67.2272 26.2093 67.2272 26.5042V30.5492C67.2272 30.8441 67.4663 31.0832 67.7612 31.0832H69.5505C69.8454 31.0832 70.0845 30.8441 70.0845 30.5492V26.5042C70.0845 26.2093 70.3236 25.9702 70.6185 25.9702H74.6635C74.9584 25.9702 75.1975 25.7311 75.1975 25.4362V23.647C75.1975 23.3521 74.9584 23.113 74.6635 23.113H70.6185C70.3236 23.113 70.0845 22.8739 70.0845 22.579V18.534C70.0845 18.2391 69.8454 18 69.5505 18L67.7612 18C67.4663 18 67.2272 18.2391 67.2272 18.534V22.579C67.2272 22.8739 66.9882 23.113 66.6932 23.113H62.6483C62.3533 23.113 62.1143 23.3521 62.1143 23.647V25.4362C62.1143 25.7311 62.3533 25.9702 62.6483 25.9702H66.6932Z" fill="#008CFF"/>
<path fill-rule="evenodd" clip-rule="evenodd" d="M65.7337 27.4321V38.8856C65.7337 39.6725 65.4211 40.4271 64.8648 40.9834C64.3084 41.5398 63.5538 41.8524 62.767 41.8524H44.9667C44.1799 41.8524 43.4253 41.5398 42.8689 40.9834C42.3126 40.4271 42 39.6725 42 38.8856V21.0854C42 20.2985 42.3126 19.5439 42.8689 18.9876C43.4253 18.4312 44.1799 18.1187 44.9667 18.1187H62.767C63.5538 18.1187 64.3084 18.4312 64.8648 18.9876C65.4211 19.5439 65.7337 20.2985 65.7337 21.0854V21.5621H62.2478C61.4614 21.5621 60.8238 22.1996 60.8238 22.9861V26.008C60.8238 26.7945 61.4614 27.4321 62.2478 27.4321H65.7337ZM56.4891 22.9132C55.7936 22.2177 54.8504 21.827 53.8669 21.827C52.8833 21.827 51.9401 22.2177 51.2446 22.9132C50.5492 23.6087 50.1585 24.5519 50.1585 25.5354C50.1585 26.519 50.5492 27.4622 51.2446 28.1577C51.9401 28.8531 52.8833 29.2438 53.8669 29.2438C54.8504 29.2438 55.7936 28.8531 56.4891 28.1577C57.1845 27.4622 57.5752 26.519 57.5752 25.5354C57.5752 24.5519 57.1845 23.6087 56.4891 22.9132ZM46.4501 37.4023H61.2836V37.0315C61.2836 34.2887 57.9402 31.4689 53.8669 31.4689C49.7936 31.4689 46.4501 34.2887 46.4501 37.0315V37.4023Z" fill="#008CFF"/>
<path d="M84.68 38V20.72H87.224L95.732 33.56V20.72H98.276V38H95.732L87.224 25.148V38H84.68ZM107.013 38.36C105.717 38.36 104.593 38.068 103.641 37.484C102.689 36.9 101.953 36.096 101.433 35.072C100.921 34.04 100.665 32.852 100.665 31.508C100.665 30.156 100.929 28.968 101.457 27.944C101.985 26.912 102.725 26.112 103.677 25.544C104.629 24.968 105.741 24.68 107.013 24.68C108.309 24.68 109.433 24.972 110.385 25.556C111.337 26.14 112.073 26.944 112.593 27.968C113.113 28.992 113.373 30.172 113.373 31.508C113.373 32.86 113.109 34.052 112.581 35.084C112.061 36.108 111.325 36.912 110.373 37.496C109.421 38.072 108.301 38.36 107.013 38.36ZM107.013 35.996C108.253 35.996 109.177 35.58 109.785 34.748C110.401 33.908 110.709 32.828 110.709 31.508C110.709 30.156 110.397 29.076 109.773 28.268C109.157 27.452 108.237 27.044 107.013 27.044C106.173 27.044 105.481 27.236 104.937 27.62C104.393 27.996 103.989 28.52 103.725 29.192C103.461 29.856 103.329 30.628 103.329 31.508C103.329 32.868 103.641 33.956 104.265 34.772C104.889 35.588 105.805 35.996 107.013 35.996ZM118.806 38L114.102 25.04H116.634L120.078 34.856L123.522 25.04H126.054L121.35 38H118.806ZM130.909 38.36C129.949 38.36 129.145 38.184 128.497 37.832C127.849 37.472 127.357 37 127.021 36.416C126.693 35.824 126.529 35.176 126.529 34.472C126.529 33.816 126.645 33.24 126.877 32.744C127.109 32.248 127.453 31.828 127.909 31.484C128.365 31.132 128.925 30.848 129.589 30.632C130.165 30.464 130.817 30.316 131.545 30.188C132.273 30.06 133.037 29.94 133.837 29.828C134.645 29.716 135.445 29.604 136.237 29.492L135.325 29.996C135.341 28.98 135.125 28.228 134.677 27.74C134.237 27.244 133.477 26.996 132.397 26.996C131.717 26.996 131.093 27.156 130.525 27.476C129.957 27.788 129.561 28.308 129.337 29.036L126.997 28.316C127.317 27.204 127.925 26.32 128.821 25.664C129.725 25.008 130.925 24.68 132.421 24.68C133.581 24.68 134.589 24.88 135.445 25.28C136.309 25.672 136.941 26.296 137.341 27.152C137.549 27.576 137.677 28.024 137.725 28.496C137.773 28.968 137.797 29.476 137.797 30.02V38H135.577V35.036L136.009 35.42C135.473 36.412 134.789 37.152 133.957 37.64C133.133 38.12 132.117 38.36 130.909 38.36ZM131.353 36.308C132.065 36.308 132.677 36.184 133.189 35.936C133.701 35.68 134.113 35.356 134.425 34.964C134.737 34.572 134.941 34.164 135.037 33.74C135.173 33.356 135.249 32.924 135.265 32.444C135.289 31.964 135.301 31.58 135.301 31.292L136.117 31.592C135.325 31.712 134.605 31.82 133.957 31.916C133.309 32.012 132.721 32.108 132.193 32.204C131.673 32.292 131.209 32.4 130.801 32.528C130.457 32.648 130.149 32.792 129.877 32.96C129.613 33.128 129.401 33.332 129.241 33.572C129.089 33.812 129.013 34.104 129.013 34.448C129.013 34.784 129.097 35.096 129.265 35.384C129.433 35.664 129.689 35.888 130.033 36.056C130.377 36.224 130.817 36.308 131.353 36.308ZM150.782 38.36C149.454 38.36 148.326 38.064 147.398 37.472C146.47 36.88 145.758 36.068 145.262 35.036C144.774 34.004 144.526 32.832 144.518 31.52C144.526 30.184 144.782 29.004 145.286 27.98C145.79 26.948 146.51 26.14 147.446 25.556C148.382 24.972 149.506 24.68 150.818 24.68C152.234 24.68 153.442 25.032 154.442 25.736C155.45 26.44 156.114 27.404 156.434 28.628L153.938 29.348C153.69 28.62 153.282 28.056 152.714 27.656C152.154 27.248 151.51 27.044 150.782 27.044C149.958 27.044 149.282 27.24 148.754 27.632C148.226 28.016 147.834 28.544 147.578 29.216C147.322 29.888 147.19 30.656 147.182 31.52C147.19 32.856 147.494 33.936 148.094 34.76C148.702 35.584 149.598 35.996 150.782 35.996C151.59 35.996 152.242 35.812 152.738 35.444C153.242 35.068 153.626 34.532 153.89 33.836L156.434 34.436C156.01 35.7 155.31 36.672 154.334 37.352C153.358 38.024 152.174 38.36 150.782 38.36ZM163.915 38.36C162.619 38.36 161.495 38.068 160.543 37.484C159.591 36.9 158.855 36.096 158.335 35.072C157.823 34.04 157.567 32.852 157.567 31.508C157.567 30.156 157.831 28.968 158.359 27.944C158.887 26.912 159.627 26.112 160.579 25.544C161.531 24.968 162.643 24.68 163.915 24.68C165.211 24.68 166.335 24.972 167.287 25.556C168.239 26.14 168.975 26.944 169.495 27.968C170.015 28.992 170.275 30.172 170.275 31.508C170.275 32.86 170.011 34.052 169.483 35.084C168.963 36.108 168.227 36.912 167.275 37.496C166.323 38.072 165.203 38.36 163.915 38.36ZM163.915 35.996C165.155 35.996 166.079 35.58 166.687 34.748C167.303 33.908 167.611 32.828 167.611 31.508C167.611 30.156 167.299 29.076 166.675 28.268C166.059 27.452 165.139 27.044 163.915 27.044C163.075 27.044 162.383 27.236 161.839 27.62C161.295 27.996 160.891 28.52 160.627 29.192C160.363 29.856 160.231 30.628 160.231 31.508C160.231 32.868 160.543 33.956 161.167 34.772C161.791 35.588 162.707 35.996 163.915 35.996ZM181.768 38V31.628C181.768 31.124 181.724 30.608 181.636 30.08C181.556 29.544 181.396 29.048 181.156 28.592C180.924 28.136 180.592 27.768 180.16 27.488C179.736 27.208 179.18 27.068 178.492 27.068C178.044 27.068 177.62 27.144 177.22 27.296C176.82 27.44 176.468 27.676 176.164 28.004C175.868 28.332 175.632 28.764 175.456 29.3C175.288 29.836 175.204 30.488 175.204 31.256L173.644 30.668C173.644 29.492 173.864 28.456 174.304 27.56C174.744 26.656 175.376 25.952 176.2 25.448C177.024 24.944 178.02 24.692 179.188 24.692C180.084 24.692 180.836 24.836 181.444 25.124C182.052 25.412 182.544 25.792 182.92 26.264C183.304 26.728 183.596 27.236 183.796 27.788C183.996 28.34 184.132 28.88 184.204 29.408C184.276 29.936 184.312 30.4 184.312 30.8V38H181.768ZM172.66 38V25.04H174.904V28.784H175.204V38H172.66ZM194.614 38C193.798 38.16 192.998 38.228 192.214 38.204C191.43 38.18 190.73 38.028 190.114 37.748C189.498 37.468 189.034 37.028 188.722 36.428C188.442 35.892 188.29 35.348 188.266 34.796C188.25 34.236 188.242 33.604 188.242 32.9V21.44H190.762V32.78C190.762 33.3 190.766 33.752 190.774 34.136C190.79 34.52 190.874 34.844 191.026 35.108C191.314 35.604 191.77 35.888 192.394 35.96C193.026 36.024 193.766 35.996 194.614 35.876V38ZM185.758 27.056V25.04H194.614V27.056H185.758ZM200.766 38.36C199.806 38.36 199.002 38.184 198.354 37.832C197.706 37.472 197.214 37 196.878 36.416C196.55 35.824 196.386 35.176 196.386 34.472C196.386 33.816 196.502 33.24 196.734 32.744C196.966 32.248 197.31 31.828 197.766 31.484C198.222 31.132 198.782 30.848 199.446 30.632C200.022 30.464 200.674 30.316 201.402 30.188C202.13 30.06 202.894 29.94 203.694 29.828C204.502 29.716 205.302 29.604 206.094 29.492L205.182 29.996C205.198 28.98 204.982 28.228 204.534 27.74C204.094 27.244 203.334 26.996 202.254 26.996C201.574 26.996 200.95 27.156 200.382 27.476C199.814 27.788 199.418 28.308 199.194 29.036L196.854 28.316C197.174 27.204 197.782 26.32 198.678 25.664C199.582 25.008 200.782 24.68 202.278 24.68C203.438 24.68 204.446 24.88 205.302 25.28C206.166 25.672 206.798 26.296 207.198 27.152C207.406 27.576 207.534 28.024 207.582 28.496C207.63 28.968 207.654 29.476 207.654 30.02V38H205.434V35.036L205.866 35.42C205.33 36.412 204.646 37.152 203.814 37.64C202.99 38.12 201.974 38.36 200.766 38.36ZM201.21 36.308C201.922 36.308 202.534 36.184 203.046 35.936C203.558 35.68 203.97 35.356 204.282 34.964C204.594 34.572 204.798 34.164 204.894 33.74C205.03 33.356 205.106 32.924 205.122 32.444C205.146 31.964 205.158 31.58 205.158 31.292L205.974 31.592C205.182 31.712 204.462 31.82 203.814 31.916C203.166 32.012 202.578 32.108 202.05 32.204C201.53 32.292 201.066 32.4 200.658 32.528C200.314 32.648 200.006 32.792 199.734 32.96C199.47 33.128 199.258 33.332 199.098 33.572C198.946 33.812 198.87 34.104 198.87 34.448C198.87 34.784 198.954 35.096 199.122 35.384C199.29 35.664 199.546 35.888 199.89 36.056C200.234 36.224 200.674 36.308 201.21 36.308Z" fill="#008CFF"/>
<path d="M55.278 88V75.346H56.736L63.396 85.552V75.4H64.782V88.018H63.324L56.682 77.902V88H55.278ZM66.8699 83.158C66.8699 82.306 66.9419 81.568 67.0859 80.944C67.2299 80.308 67.4639 79.792 67.7879 79.396C68.1119 78.988 68.5439 78.682 69.0839 78.478C69.6239 78.274 70.2899 78.172 71.0819 78.172C71.8739 78.172 72.5399 78.274 73.0799 78.478C73.6319 78.682 74.0699 78.988 74.3939 79.396C74.7179 79.792 74.9519 80.308 75.0959 80.944C75.2399 81.568 75.3119 82.306 75.3119 83.158C75.3119 84.034 75.2339 84.79 75.0779 85.426C74.9219 86.062 74.6759 86.584 74.3399 86.992C74.0039 87.388 73.5659 87.688 73.0259 87.892C72.4979 88.084 71.8499 88.18 71.0819 88.18C70.3259 88.18 69.6779 88.084 69.1379 87.892C68.6099 87.688 68.1779 87.388 67.8419 86.992C67.5059 86.584 67.2599 86.062 67.1039 85.426C66.9479 84.79 66.8699 84.034 66.8699 83.158ZM68.3999 83.158C68.3999 84.106 68.4899 84.862 68.6699 85.426C68.8619 85.99 69.1559 86.398 69.5519 86.65C69.9479 86.89 70.4579 87.01 71.0819 87.01C71.7179 87.01 72.2339 86.89 72.6299 86.65C73.0259 86.398 73.3139 85.99 73.4939 85.426C73.6739 84.862 73.7639 84.106 73.7639 83.158C73.7639 82.222 73.6799 81.478 73.5119 80.926C73.3559 80.362 73.0799 79.96 72.6839 79.72C72.2879 79.468 71.7539 79.342 71.0819 79.342C70.4219 79.342 69.8939 79.468 69.4979 79.72C69.1019 79.96 68.8199 80.362 68.6519 80.926C68.4839 81.478 68.3999 82.222 68.3999 83.158ZM77.3085 88V78.352H78.6765V79.198C79.0125 78.982 79.3485 78.802 79.6845 78.658C80.0205 78.514 80.3625 78.4 80.7105 78.316C81.0705 78.232 81.4365 78.19 81.8085 78.19C82.1805 78.19 82.4985 78.238 82.7625 78.334C83.0385 78.418 83.2725 78.544 83.4645 78.712C83.6565 78.868 83.8125 79.06 83.9325 79.288C84.2445 79.084 84.5685 78.904 84.9045 78.748C85.2525 78.58 85.6245 78.442 86.0205 78.334C86.4285 78.226 86.8665 78.172 87.3345 78.172C87.6945 78.172 88.0125 78.22 88.2885 78.316C88.5765 78.4 88.8165 78.526 89.0085 78.694C89.2005 78.862 89.3565 79.06 89.4765 79.288C89.6085 79.504 89.6985 79.744 89.7465 80.008C89.8065 80.272 89.8365 80.542 89.8365 80.818V88H88.3245V81.232C88.3245 81.028 88.3005 80.824 88.2525 80.62C88.2045 80.404 88.1205 80.212 88.0005 80.044C87.8925 79.864 87.7305 79.726 87.5145 79.63C87.2985 79.522 87.0225 79.468 86.6865 79.468C86.3625 79.468 86.0505 79.51 85.7505 79.594C85.4505 79.666 85.1685 79.762 84.9045 79.882C84.6525 80.002 84.4185 80.128 84.2025 80.26C84.2505 80.404 84.2805 80.554 84.2925 80.71C84.3165 80.866 84.3285 81.016 84.3285 81.16V88H82.8345V81.268C82.8345 81.052 82.8105 80.842 82.7625 80.638C82.7145 80.422 82.6305 80.23 82.5105 80.062C82.3905 79.894 82.2225 79.756 82.0065 79.648C81.8025 79.54 81.5325 79.486 81.1965 79.486C80.9085 79.486 80.6325 79.522 80.3685 79.594C80.1045 79.654 79.8405 79.744 79.5765 79.864C79.3245 79.972 79.0665 80.104 78.8025 80.26V88H77.3085ZM95.9797 88.18C95.3197 88.18 94.7317 88.09 94.2157 87.91C93.6997 87.73 93.2617 87.448 92.9017 87.064C92.5537 86.68 92.2837 86.188 92.0917 85.588C91.9117 84.988 91.8217 84.268 91.8217 83.428C91.8217 82.456 91.9297 81.634 92.1457 80.962C92.3737 80.278 92.6917 79.732 93.0997 79.324C93.5077 78.916 93.9757 78.622 94.5037 78.442C95.0437 78.262 95.6317 78.172 96.2677 78.172C97.4917 78.172 98.4037 78.502 99.0037 79.162C99.6037 79.81 99.9037 80.866 99.9037 82.33C99.9037 82.402 99.8977 82.504 99.8857 82.636C99.8857 82.768 99.8797 82.894 99.8677 83.014C99.6157 83.026 99.2737 83.05 98.8417 83.086C98.4217 83.122 97.9297 83.158 97.3657 83.194C96.8017 83.23 96.1837 83.26 95.5117 83.284C94.8397 83.308 94.1317 83.326 93.3877 83.338C93.3757 83.398 93.3697 83.458 93.3697 83.518C93.3697 83.578 93.3697 83.644 93.3697 83.716C93.3697 84.496 93.4777 85.126 93.6937 85.606C93.9217 86.074 94.2457 86.416 94.6657 86.632C95.0977 86.848 95.6197 86.956 96.2317 86.956C96.6157 86.956 97.0057 86.938 97.4017 86.902C97.7977 86.854 98.1757 86.794 98.5357 86.722C98.9077 86.65 99.2497 86.578 99.5617 86.506L99.7597 87.64C99.4357 87.748 99.0697 87.844 98.6617 87.928C98.2657 88.012 97.8457 88.072 97.4017 88.108C96.9577 88.156 96.4837 88.18 95.9797 88.18ZM93.4057 82.294C93.9817 82.294 94.5337 82.288 95.0617 82.276C95.6017 82.252 96.0937 82.228 96.5377 82.204C96.9937 82.18 97.3777 82.156 97.6897 82.132C98.0017 82.108 98.2297 82.09 98.3737 82.078C98.3617 81.406 98.2777 80.866 98.1217 80.458C97.9657 80.05 97.7257 79.756 97.4017 79.576C97.0777 79.384 96.6637 79.288 96.1597 79.288C95.8477 79.288 95.5417 79.336 95.2417 79.432C94.9417 79.516 94.6597 79.672 94.3957 79.9C94.1437 80.116 93.9277 80.422 93.7477 80.818C93.5797 81.202 93.4657 81.694 93.4057 82.294ZM112.936 88.018L112.738 87.136C112.198 87.496 111.676 87.76 111.172 87.928C110.68 88.096 110.17 88.18 109.642 88.18C108.61 88.18 107.812 87.772 107.248 86.956C106.684 86.128 106.402 84.94 106.402 83.392C106.402 82.192 106.552 81.208 106.852 80.44C107.164 79.672 107.644 79.102 108.292 78.73C108.94 78.358 109.756 78.172 110.74 78.172C111.04 78.172 111.358 78.19 111.694 78.226C112.042 78.25 112.39 78.298 112.738 78.37V74.68H114.25V88.018H112.936ZM112.738 86.02V79.558C112.366 79.462 112.024 79.396 111.712 79.36C111.412 79.324 111.13 79.306 110.866 79.306C110.206 79.306 109.66 79.438 109.228 79.702C108.796 79.954 108.478 80.374 108.274 80.962C108.07 81.538 107.968 82.312 107.968 83.284C107.968 84.076 108.052 84.742 108.22 85.282C108.4 85.822 108.652 86.23 108.976 86.506C109.312 86.77 109.714 86.902 110.182 86.902C110.458 86.902 110.728 86.872 110.992 86.812C111.256 86.752 111.526 86.656 111.802 86.524C112.09 86.392 112.402 86.224 112.738 86.02ZM120.391 88.18C119.731 88.18 119.143 88.09 118.627 87.91C118.111 87.73 117.673 87.448 117.313 87.064C116.965 86.68 116.695 86.188 116.503 85.588C116.323 84.988 116.233 84.268 116.233 83.428C116.233 82.456 116.341 81.634 116.557 80.962C116.785 80.278 117.103 79.732 117.511 79.324C117.919 78.916 118.387 78.622 118.915 78.442C119.455 78.262 120.043 78.172 120.679 78.172C121.903 78.172 122.815 78.502 123.415 79.162C124.015 79.81 124.315 80.866 124.315 82.33C124.315 82.402 124.309 82.504 124.297 82.636C124.297 82.768 124.291 82.894 124.279 83.014C124.027 83.026 123.685 83.05 123.253 83.086C122.833 83.122 122.341 83.158 121.777 83.194C121.213 83.23 120.595 83.26 119.923 83.284C119.251 83.308 118.543 83.326 117.799 83.338C117.787 83.398 117.781 83.458 117.781 83.518C117.781 83.578 117.781 83.644 117.781 83.716C117.781 84.496 117.889 85.126 118.105 85.606C118.333 86.074 118.657 86.416 119.077 86.632C119.509 86.848 120.031 86.956 120.643 86.956C121.027 86.956 121.417 86.938 121.813 86.902C122.209 86.854 122.587 86.794 122.947 86.722C123.319 86.65 123.661 86.578 123.973 86.506L124.171 87.64C123.847 87.748 123.481 87.844 123.073 87.928C122.677 88.012 122.257 88.072 121.813 88.108C121.369 88.156 120.895 88.18 120.391 88.18ZM117.817 82.294C118.393 82.294 118.945 82.288 119.473 82.276C120.013 82.252 120.505 82.228 120.949 82.204C121.405 82.18 121.789 82.156 122.101 82.132C122.413 82.108 122.641 82.09 122.785 82.078C122.773 81.406 122.689 80.866 122.533 80.458C122.377 80.05 122.137 79.756 121.813 79.576C121.489 79.384 121.075 79.288 120.571 79.288C120.259 79.288 119.953 79.336 119.653 79.432C119.353 79.516 119.071 79.672 118.807 79.9C118.555 80.116 118.339 80.422 118.159 80.818C117.991 81.202 117.877 81.694 117.817 82.294ZM133.891 88.18C133.351 88.18 132.883 88.084 132.487 87.892C132.091 87.7 131.785 87.412 131.569 87.028C131.353 86.632 131.245 86.14 131.245 85.552V78.352H132.757V85.246C132.757 85.774 132.901 86.182 133.189 86.47C133.477 86.758 133.903 86.902 134.467 86.902C134.767 86.902 135.055 86.872 135.331 86.812C135.619 86.74 135.901 86.644 136.177 86.524C136.465 86.404 136.753 86.266 137.041 86.11V78.352H138.553V85.894C138.553 86.134 138.583 86.332 138.643 86.488C138.703 86.632 138.781 86.734 138.877 86.794C138.985 86.854 139.099 86.884 139.219 86.884C139.387 86.884 139.549 86.848 139.705 86.776L139.867 87.874C139.759 87.934 139.639 87.988 139.507 88.036C139.375 88.084 139.237 88.12 139.093 88.144C138.949 88.168 138.799 88.18 138.643 88.18C138.319 88.18 138.031 88.096 137.779 87.928C137.527 87.748 137.347 87.49 137.239 87.154C136.879 87.358 136.519 87.538 136.159 87.694C135.799 87.85 135.433 87.97 135.061 88.054C134.701 88.138 134.311 88.18 133.891 88.18ZM140.655 87.622L140.871 86.47C141.075 86.554 141.303 86.632 141.555 86.704C141.819 86.764 142.089 86.818 142.365 86.866C142.641 86.914 142.923 86.95 143.211 86.974C143.499 86.998 143.775 87.01 144.039 87.01C144.795 87.01 145.359 86.884 145.731 86.632C146.115 86.368 146.307 85.996 146.307 85.516C146.307 85.264 146.253 85.048 146.145 84.868C146.037 84.676 145.875 84.514 145.659 84.382C145.443 84.238 145.167 84.112 144.831 84.004C144.507 83.884 144.129 83.764 143.697 83.644C143.277 83.536 142.899 83.41 142.563 83.266C142.227 83.11 141.933 82.924 141.681 82.708C141.441 82.48 141.255 82.222 141.123 81.934C140.991 81.634 140.925 81.292 140.925 80.908C140.925 80.044 141.231 79.372 141.843 78.892C142.455 78.412 143.355 78.172 144.543 78.172C144.891 78.172 145.227 78.19 145.551 78.226C145.887 78.262 146.199 78.316 146.487 78.388C146.787 78.448 147.051 78.526 147.279 78.622L147.063 79.774C146.823 79.702 146.571 79.636 146.307 79.576C146.055 79.516 145.779 79.468 145.479 79.432C145.191 79.396 144.879 79.378 144.543 79.378C143.835 79.378 143.301 79.504 142.941 79.756C142.581 80.008 142.401 80.35 142.401 80.782C142.401 81.046 142.455 81.268 142.563 81.448C142.683 81.616 142.851 81.766 143.067 81.898C143.295 82.018 143.553 82.126 143.841 82.222C144.141 82.318 144.465 82.414 144.813 82.51C145.269 82.63 145.683 82.768 146.055 82.924C146.427 83.068 146.739 83.248 146.991 83.464C147.255 83.68 147.459 83.944 147.603 84.256C147.747 84.568 147.819 84.946 147.819 85.39C147.819 85.774 147.753 86.122 147.621 86.434C147.501 86.734 147.327 86.998 147.099 87.226C146.883 87.442 146.619 87.622 146.307 87.766C145.995 87.898 145.647 88 145.263 88.072C144.879 88.144 144.465 88.18 144.021 88.18C143.613 88.18 143.205 88.156 142.797 88.108C142.401 88.072 142.017 88.012 141.645 87.928C141.285 87.844 140.955 87.742 140.655 87.622ZM152.146 88.18C151.606 88.18 151.138 88.084 150.742 87.892C150.346 87.7 150.04 87.412 149.824 87.028C149.608 86.632 149.5 86.14 149.5 85.552V78.352H151.012V85.246C151.012 85.774 151.156 86.182 151.444 86.47C151.732 86.758 152.158 86.902 152.722 86.902C153.022 86.902 153.31 86.872 153.586 86.812C153.874 86.74 154.156 86.644 154.432 86.524C154.72 86.404 155.008 86.266 155.296 86.11V78.352H156.808V85.894C156.808 86.134 156.838 86.332 156.898 86.488C156.958 86.632 157.036 86.734 157.132 86.794C157.24 86.854 157.354 86.884 157.474 86.884C157.642 86.884 157.804 86.848 157.96 86.776L158.122 87.874C158.014 87.934 157.894 87.988 157.762 88.036C157.63 88.084 157.492 88.12 157.348 88.144C157.204 88.168 157.054 88.18 156.898 88.18C156.574 88.18 156.286 88.096 156.034 87.928C155.782 87.748 155.602 87.49 155.494 87.154C155.134 87.358 154.774 87.538 154.414 87.694C154.054 87.85 153.688 87.97 153.316 88.054C152.956 88.138 152.566 88.18 152.146 88.18ZM158.877 85.678C158.877 85.102 158.997 84.628 159.237 84.256C159.477 83.884 159.843 83.59 160.335 83.374C160.827 83.146 161.433 82.972 162.153 82.852C162.873 82.72 163.707 82.612 164.655 82.528V81.178C164.655 80.626 164.475 80.206 164.115 79.918C163.755 79.618 163.215 79.468 162.495 79.468C162.255 79.468 161.985 79.48 161.685 79.504C161.385 79.528 161.073 79.57 160.749 79.63C160.425 79.69 160.089 79.774 159.741 79.882L159.471 78.658C159.987 78.502 160.515 78.382 161.055 78.298C161.595 78.214 162.105 78.172 162.585 78.172C163.377 78.172 164.037 78.286 164.565 78.514C165.105 78.73 165.507 79.06 165.771 79.504C166.047 79.948 166.185 80.5 166.185 81.16V85.84C166.185 86.236 166.239 86.506 166.347 86.65C166.467 86.782 166.623 86.848 166.815 86.848C166.887 86.848 166.965 86.842 167.049 86.83C167.133 86.818 167.223 86.794 167.319 86.758L167.481 87.874C167.301 87.97 167.109 88.042 166.905 88.09C166.713 88.15 166.509 88.18 166.293 88.18C165.861 88.18 165.519 88.072 165.267 87.856C165.015 87.628 164.853 87.286 164.781 86.83C164.493 87.058 164.169 87.28 163.809 87.496C163.461 87.7 163.077 87.868 162.657 88C162.249 88.12 161.799 88.18 161.307 88.18C160.935 88.18 160.599 88.126 160.299 88.018C160.011 87.91 159.759 87.754 159.543 87.55C159.327 87.334 159.159 87.07 159.039 86.758C158.931 86.446 158.877 86.086 158.877 85.678ZM160.407 85.552C160.407 86.068 160.533 86.458 160.785 86.722C161.049 86.974 161.397 87.1 161.829 87.1C162.165 87.1 162.501 87.046 162.837 86.938C163.173 86.83 163.497 86.686 163.809 86.506C164.133 86.314 164.415 86.098 164.655 85.858V83.428C164.019 83.488 163.437 83.56 162.909 83.644C162.393 83.716 161.943 83.83 161.559 83.986C161.187 84.142 160.899 84.346 160.695 84.598C160.503 84.85 160.407 85.168 160.407 85.552ZM162.135 77.29L164.241 73.798H165.771L163.359 77.29H162.135ZM170.266 78.352V79.54C170.626 79.216 170.962 78.958 171.274 78.766C171.586 78.562 171.904 78.412 172.228 78.316C172.552 78.22 172.888 78.172 173.236 78.172C173.488 78.172 173.734 78.19 173.974 78.226C174.214 78.262 174.436 78.31 174.64 78.37L174.388 79.738C174.172 79.678 173.944 79.636 173.704 79.612C173.476 79.576 173.26 79.558 173.056 79.558C172.636 79.558 172.204 79.648 171.76 79.828C171.328 79.996 170.872 80.302 170.392 80.746V88H168.898V78.352H170.266ZM176.759 76.408C176.423 76.408 176.183 76.348 176.039 76.228C175.895 76.108 175.823 75.898 175.823 75.598C175.823 75.286 175.889 75.07 176.021 74.95C176.165 74.83 176.411 74.77 176.759 74.77C177.095 74.77 177.329 74.83 177.461 74.95C177.605 75.07 177.677 75.286 177.677 75.598C177.677 75.898 177.605 76.108 177.461 76.228C177.329 76.348 177.095 76.408 176.759 76.408ZM176.003 88V78.352H177.497V88H176.003ZM179.495 83.158C179.495 82.306 179.567 81.568 179.711 80.944C179.855 80.308 180.089 79.792 180.413 79.396C180.737 78.988 181.169 78.682 181.709 78.478C182.249 78.274 182.915 78.172 183.707 78.172C184.499 78.172 185.165 78.274 185.705 78.478C186.257 78.682 186.695 78.988 187.019 79.396C187.343 79.792 187.577 80.308 187.721 80.944C187.865 81.568 187.937 82.306 187.937 83.158C187.937 84.034 187.859 84.79 187.703 85.426C187.547 86.062 187.301 86.584 186.965 86.992C186.629 87.388 186.191 87.688 185.651 87.892C185.123 88.084 184.475 88.18 183.707 88.18C182.951 88.18 182.303 88.084 181.763 87.892C181.235 87.688 180.803 87.388 180.467 86.992C180.131 86.584 179.885 86.062 179.729 85.426C179.573 84.79 179.495 84.034 179.495 83.158ZM181.025 83.158C181.025 84.106 181.115 84.862 181.295 85.426C181.487 85.99 181.781 86.398 182.177 86.65C182.573 86.89 183.083 87.01 183.707 87.01C184.343 87.01 184.859 86.89 185.255 86.65C185.651 86.398 185.939 85.99 186.119 85.426C186.299 84.862 186.389 84.106 186.389 83.158C186.389 82.222 186.305 81.478 186.137 80.926C185.981 80.362 185.705 79.96 185.309 79.72C184.913 79.468 184.379 79.342 183.707 79.342C183.047 79.342 182.519 79.468 182.123 79.72C181.727 79.96 181.445 80.362 181.277 80.926C181.109 81.478 181.025 82.222 181.025 83.158Z" fill="#6F6F6A"/>
<path d="M55.566 124.43L54.936 123.998L56.25 121.928L54.108 121.028L54.36 120.344L56.52 121.046L56.574 118.58H57.348L57.42 121.046L59.562 120.344L59.814 121.028L57.69 121.928L58.968 124.016L58.356 124.43L56.97 122.486L55.566 124.43ZM61.6698 124.43L61.0398 123.998L62.3538 121.928L60.2118 121.028L60.4638 120.344L62.6238 121.046L62.6778 118.58H63.4518L63.5238 121.046L65.6658 120.344L65.9178 121.028L63.7938 121.928L65.0718 124.016L64.4598 124.43L63.0738 122.486L61.6698 124.43ZM67.7737 124.43L67.1437 123.998L68.4577 121.928L66.3157 121.028L66.5677 120.344L68.7277 121.046L68.7817 118.58H69.5557L69.6277 121.046L71.7697 120.344L72.0217 121.028L69.8977 121.928L71.1757 124.016L70.5637 124.43L69.1777 122.486L67.7737 124.43ZM73.8775 124.43L73.2475 123.998L74.5615 121.928L72.4195 121.028L72.6715 120.344L74.8315 121.046L74.8855 118.58H75.6595L75.7315 121.046L77.8735 120.344L78.1255 121.028L76.0015 121.928L77.2795 124.016L76.6675 124.43L75.2815 122.486L73.8775 124.43ZM79.9813 124.43L79.3513 123.998L80.6653 121.928L78.5233 121.028L78.7753 120.344L80.9353 121.046L80.9893 118.58H81.7633L81.8353 121.046L83.9773 120.344L84.2293 121.028L82.1053 121.928L83.3833 124.016L82.7713 124.43L81.3853 122.486L79.9813 124.43ZM86.0851 124.43L85.4551 123.998L86.7691 121.928L84.6271 121.028L84.8791 120.344L87.0391 121.046L87.0931 118.58H87.8671L87.9391 121.046L90.0811 120.344L90.3331 121.028L88.2091 121.928L89.4871 124.016L88.8751 124.43L87.4891 122.486L86.0851 124.43ZM92.189 124.43L91.559 123.998L92.873 121.928L90.731 121.028L90.983 120.344L93.143 121.046L93.197 118.58H93.971L94.043 121.046L96.185 120.344L96.437 121.028L94.313 121.928L95.591 124.016L94.979 124.43L93.593 122.486L92.189 124.43ZM98.2928 124.43L97.6628 123.998L98.9768 121.928L96.8348 121.028L97.0868 120.344L99.2468 121.046L99.3008 118.58H100.075L100.147 121.046L102.289 120.344L102.541 121.028L100.417 121.928L101.695 124.016L101.083 124.43L99.6968 122.486L98.2928 124.43ZM104.397 124.43L103.767 123.998L105.081 121.928L102.939 121.028L103.191 120.344L105.351 121.046L105.405 118.58H106.179L106.251 121.046L108.393 120.344L108.645 121.028L106.521 121.928L107.799 124.016L107.187 124.43L105.801 122.486L104.397 124.43ZM110.5 124.43L109.87 123.998L111.184 121.928L109.042 121.028L109.294 120.344L111.454 121.046L111.508 118.58H112.282L112.354 121.046L114.496 120.344L114.748 121.028L112.624 121.928L113.902 124.016L113.29 124.43L111.904 122.486L110.5 124.43ZM116.604 124.43L115.974 123.998L117.288 121.928L115.146 121.028L115.398 120.344L117.558 121.046L117.612 118.58H118.386L118.458 121.046L120.6 120.344L120.852 121.028L118.728 121.928L120.006 124.016L119.394 124.43L118.008 122.486L116.604 124.43ZM122.708 124.43L122.078 123.998L123.392 121.928L121.25 121.028L121.502 120.344L123.662 121.046L123.716 118.58H124.49L124.562 121.046L126.704 120.344L126.956 121.028L124.832 121.928L126.11 124.016L125.498 124.43L124.112 122.486L122.708 124.43ZM128.812 124.43L128.182 123.998L129.496 121.928L127.354 121.028L127.606 120.344L129.766 121.046L129.82 118.58H130.594L130.666 121.046L132.808 120.344L133.06 121.028L130.936 121.928L132.214 124.016L131.602 124.43L130.216 122.486L128.812 124.43Z" fill="#6F6F6A"/>
<path d="M43.5 71C43.5 66.8579 46.8579 63.5 51 63.5H227C231.142 63.5 234.5 66.8579 234.5 71V93C234.5 97.1421 231.142 100.5 227 100.5H51C46.8579 100.5 43.5 97.1421 43.5 93V71Z" stroke="#6F6F6A"/>
<path d="M43.5 114C43.5 109.858 46.8579 106.5 51 106.5H227C231.142 106.5 234.5 109.858 234.5 114V136C234.5 140.142 231.142 143.5 227 143.5H51C46.8579 143.5 43.5 140.142 43.5 136V114Z" stroke="#6F6F6A"/>
<path d="M43 157C43 152.582 46.5817 149 51 149H227C231.418 149 235 152.582 235 157V179C235 183.418 231.418 187 227 187H51C46.5817 187 43 183.418 43 179V157Z" fill="#008CFF"/>
<path d="M61.774 167.916C61.774 166.32 61.984 165.03 62.404 164.046C62.836 163.062 63.472 162.348 64.312 161.904C65.152 161.448 66.184 161.22 67.408 161.22C67.756 161.22 68.08 161.232 68.38 161.256C68.692 161.268 68.98 161.292 69.244 161.328C69.52 161.364 69.79 161.412 70.054 161.472C70.318 161.532 70.588 161.604 70.864 161.688L70.558 162.93C70.21 162.846 69.874 162.774 69.55 162.714C69.226 162.654 68.896 162.612 68.56 162.588C68.236 162.564 67.894 162.552 67.534 162.552C66.85 162.552 66.244 162.648 65.716 162.84C65.2 163.02 64.768 163.32 64.42 163.74C64.072 164.148 63.808 164.7 63.628 165.396C63.448 166.08 63.358 166.92 63.358 167.916C63.358 168.828 63.442 169.602 63.61 170.238C63.778 170.862 64.036 171.366 64.384 171.75C64.732 172.134 65.158 172.416 65.662 172.596C66.166 172.776 66.748 172.866 67.408 172.866C67.972 172.866 68.566 172.824 69.19 172.74C69.814 172.656 70.378 172.536 70.882 172.38L71.17 173.64C70.894 173.724 70.606 173.802 70.306 173.874C70.006 173.934 69.688 173.988 69.352 174.036C69.016 174.084 68.668 174.12 68.308 174.144C67.948 174.168 67.57 174.18 67.174 174.18C66.31 174.18 65.542 174.072 64.87 173.856C64.198 173.628 63.628 173.274 63.16 172.794C62.704 172.302 62.356 171.66 62.116 170.868C61.888 170.064 61.774 169.08 61.774 167.916ZM72.1648 169.158C72.1648 168.306 72.2368 167.568 72.3808 166.944C72.5248 166.308 72.7588 165.792 73.0828 165.396C73.4068 164.988 73.8388 164.682 74.3788 164.478C74.9188 164.274 75.5848 164.172 76.3768 164.172C77.1688 164.172 77.8348 164.274 78.3748 164.478C78.9268 164.682 79.3648 164.988 79.6888 165.396C80.0128 165.792 80.2468 166.308 80.3908 166.944C80.5348 167.568 80.6068 168.306 80.6068 169.158C80.6068 170.034 80.5288 170.79 80.3728 171.426C80.2168 172.062 79.9708 172.584 79.6348 172.992C79.2988 173.388 78.8608 173.688 78.3208 173.892C77.7928 174.084 77.1448 174.18 76.3768 174.18C75.6208 174.18 74.9728 174.084 74.4328 173.892C73.9048 173.688 73.4728 173.388 73.1368 172.992C72.8008 172.584 72.5548 172.062 72.3988 171.426C72.2428 170.79 72.1648 170.034 72.1648 169.158ZM73.6948 169.158C73.6948 170.106 73.7848 170.862 73.9648 171.426C74.1568 171.99 74.4508 172.398 74.8468 172.65C75.2428 172.89 75.7528 173.01 76.3768 173.01C77.0128 173.01 77.5288 172.89 77.9248 172.65C78.3208 172.398 78.6088 171.99 78.7888 171.426C78.9688 170.862 79.0588 170.106 79.0588 169.158C79.0588 168.222 78.9748 167.478 78.8068 166.926C78.6508 166.362 78.3748 165.96 77.9788 165.72C77.5828 165.468 77.0488 165.342 76.3768 165.342C75.7168 165.342 75.1888 165.468 74.7928 165.72C74.3968 165.96 74.1148 166.362 73.9468 166.926C73.7788 167.478 73.6948 168.222 73.6948 169.158ZM82.6034 174V164.352H83.9714V165.198C84.3074 164.982 84.6434 164.802 84.9794 164.658C85.3154 164.514 85.6574 164.4 86.0054 164.316C86.3654 164.232 86.7314 164.19 87.1034 164.19C87.4754 164.19 87.7934 164.238 88.0574 164.334C88.3334 164.418 88.5674 164.544 88.7594 164.712C88.9514 164.868 89.1074 165.06 89.2274 165.288C89.5394 165.084 89.8634 164.904 90.1994 164.748C90.5474 164.58 90.9194 164.442 91.3154 164.334C91.7234 164.226 92.1614 164.172 92.6294 164.172C92.9894 164.172 93.3074 164.22 93.5834 164.316C93.8714 164.4 94.1114 164.526 94.3034 164.694C94.4954 164.862 94.6514 165.06 94.7714 165.288C94.9034 165.504 94.9934 165.744 95.0414 166.008C95.1014 166.272 95.1314 166.542 95.1314 166.818V174H93.6194V167.232C93.6194 167.028 93.5954 166.824 93.5474 166.62C93.4994 166.404 93.4154 166.212 93.2954 166.044C93.1874 165.864 93.0254 165.726 92.8094 165.63C92.5934 165.522 92.3174 165.468 91.9814 165.468C91.6574 165.468 91.3454 165.51 91.0454 165.594C90.7454 165.666 90.4634 165.762 90.1994 165.882C89.9474 166.002 89.7134 166.128 89.4974 166.26C89.5454 166.404 89.5754 166.554 89.5874 166.71C89.6114 166.866 89.6234 167.016 89.6234 167.16V174H88.1294V167.268C88.1294 167.052 88.1054 166.842 88.0574 166.638C88.0094 166.422 87.9254 166.23 87.8054 166.062C87.6854 165.894 87.5174 165.756 87.3014 165.648C87.0974 165.54 86.8274 165.486 86.4914 165.486C86.2034 165.486 85.9274 165.522 85.6634 165.594C85.3994 165.654 85.1354 165.744 84.8714 165.864C84.6194 165.972 84.3614 166.104 84.0974 166.26V174H82.6034ZM101.275 174.18C100.615 174.18 100.027 174.09 99.5106 173.91C98.9946 173.73 98.5566 173.448 98.1966 173.064C97.8486 172.68 97.5786 172.188 97.3866 171.588C97.2066 170.988 97.1166 170.268 97.1166 169.428C97.1166 168.456 97.2246 167.634 97.4406 166.962C97.6686 166.278 97.9866 165.732 98.3946 165.324C98.8026 164.916 99.2706 164.622 99.7986 164.442C100.339 164.262 100.927 164.172 101.563 164.172C102.787 164.172 103.699 164.502 104.299 165.162C104.899 165.81 105.199 166.866 105.199 168.33C105.199 168.402 105.193 168.504 105.181 168.636C105.181 168.768 105.175 168.894 105.163 169.014C104.911 169.026 104.569 169.05 104.137 169.086C103.717 169.122 103.225 169.158 102.661 169.194C102.097 169.23 101.479 169.26 100.807 169.284C100.135 169.308 99.4266 169.326 98.6826 169.338C98.6706 169.398 98.6646 169.458 98.6646 169.518C98.6646 169.578 98.6646 169.644 98.6646 169.716C98.6646 170.496 98.7726 171.126 98.9886 171.606C99.2166 172.074 99.5406 172.416 99.9606 172.632C100.393 172.848 100.915 172.956 101.527 172.956C101.911 172.956 102.301 172.938 102.697 172.902C103.093 172.854 103.471 172.794 103.831 172.722C104.203 172.65 104.545 172.578 104.857 172.506L105.055 173.64C104.731 173.748 104.365 173.844 103.957 173.928C103.561 174.012 103.141 174.072 102.697 174.108C102.253 174.156 101.779 174.18 101.275 174.18ZM98.7006 168.294C99.2766 168.294 99.8286 168.288 100.357 168.276C100.897 168.252 101.389 168.228 101.833 168.204C102.289 168.18 102.673 168.156 102.985 168.132C103.297 168.108 103.525 168.09 103.669 168.078C103.657 167.406 103.573 166.866 103.417 166.458C103.261 166.05 103.021 165.756 102.697 165.576C102.373 165.384 101.959 165.288 101.455 165.288C101.143 165.288 100.837 165.336 100.537 165.432C100.237 165.516 99.9546 165.672 99.6906 165.9C99.4386 166.116 99.2226 166.422 99.0426 166.818C98.8746 167.202 98.7606 167.694 98.7006 168.294ZM106.648 169.32C106.648 168.156 106.822 167.196 107.17 166.44C107.518 165.672 108.028 165.102 108.7 164.73C109.384 164.358 110.206 164.172 111.166 164.172C111.478 164.172 111.802 164.19 112.138 164.226C112.474 164.25 112.804 164.286 113.128 164.334C113.464 164.382 113.764 164.448 114.028 164.532L113.812 165.792C113.548 165.732 113.272 165.684 112.984 165.648C112.696 165.6 112.408 165.564 112.12 165.54C111.832 165.504 111.556 165.486 111.292 165.486C110.632 165.486 110.068 165.63 109.6 165.918C109.144 166.194 108.796 166.614 108.556 167.178C108.316 167.73 108.196 168.444 108.196 169.32C108.196 170.124 108.316 170.79 108.556 171.318C108.796 171.834 109.15 172.224 109.618 172.488C110.086 172.74 110.65 172.866 111.31 172.866C111.586 172.866 111.874 172.854 112.174 172.83C112.474 172.806 112.774 172.77 113.074 172.722C113.386 172.662 113.68 172.602 113.956 172.542L114.19 173.766C113.758 173.886 113.248 173.982 112.66 174.054C112.084 174.138 111.532 174.18 111.004 174.18C109.564 174.18 108.478 173.784 107.746 172.992C107.014 172.2 106.648 170.976 106.648 169.32ZM109.276 176.682C109.504 176.778 109.714 176.844 109.906 176.88C110.098 176.928 110.278 176.952 110.446 176.952C110.782 176.952 111.04 176.862 111.22 176.682C111.4 176.502 111.49 176.244 111.49 175.908C111.49 175.704 111.442 175.494 111.346 175.278C111.25 175.062 111.118 174.84 110.95 174.612C110.782 174.396 110.59 174.18 110.374 173.964H111.544C111.76 174.156 111.946 174.378 112.102 174.63C112.27 174.882 112.396 175.14 112.48 175.404C112.576 175.668 112.624 175.926 112.624 176.178C112.624 176.502 112.558 176.796 112.426 177.06C112.306 177.336 112.108 177.552 111.832 177.708C111.568 177.876 111.214 177.96 110.77 177.96C110.542 177.96 110.296 177.936 110.032 177.888C109.768 177.84 109.48 177.756 109.168 177.636L109.276 176.682ZM115.28 171.678C115.28 171.102 115.4 170.628 115.64 170.256C115.88 169.884 116.246 169.59 116.738 169.374C117.23 169.146 117.836 168.972 118.556 168.852C119.276 168.72 120.11 168.612 121.058 168.528V167.178C121.058 166.626 120.878 166.206 120.518 165.918C120.158 165.618 119.618 165.468 118.898 165.468C118.658 165.468 118.388 165.48 118.088 165.504C117.788 165.528 117.476 165.57 117.152 165.63C116.828 165.69 116.492 165.774 116.144 165.882L115.874 164.658C116.39 164.502 116.918 164.382 117.458 164.298C117.998 164.214 118.508 164.172 118.988 164.172C119.78 164.172 120.44 164.286 120.968 164.514C121.508 164.73 121.91 165.06 122.174 165.504C122.45 165.948 122.588 166.5 122.588 167.16V171.84C122.588 172.236 122.642 172.506 122.75 172.65C122.87 172.782 123.026 172.848 123.218 172.848C123.29 172.848 123.368 172.842 123.452 172.83C123.536 172.818 123.626 172.794 123.722 172.758L123.884 173.874C123.704 173.97 123.512 174.042 123.308 174.09C123.116 174.15 122.912 174.18 122.696 174.18C122.264 174.18 121.922 174.072 121.67 173.856C121.418 173.628 121.256 173.286 121.184 172.83C120.896 173.058 120.572 173.28 120.212 173.496C119.864 173.7 119.48 173.868 119.06 174C118.652 174.12 118.202 174.18 117.71 174.18C117.338 174.18 117.002 174.126 116.702 174.018C116.414 173.91 116.162 173.754 115.946 173.55C115.73 173.334 115.562 173.07 115.442 172.758C115.334 172.446 115.28 172.086 115.28 171.678ZM116.81 171.552C116.81 172.068 116.936 172.458 117.188 172.722C117.452 172.974 117.8 173.1 118.232 173.1C118.568 173.1 118.904 173.046 119.24 172.938C119.576 172.83 119.9 172.686 120.212 172.506C120.536 172.314 120.818 172.098 121.058 171.858V169.428C120.422 169.488 119.84 169.56 119.312 169.644C118.796 169.716 118.346 169.83 117.962 169.986C117.59 170.142 117.302 170.346 117.098 170.598C116.906 170.85 116.81 171.168 116.81 171.552ZM126.668 164.352V165.54C127.028 165.216 127.364 164.958 127.676 164.766C127.988 164.562 128.306 164.412 128.63 164.316C128.954 164.22 129.29 164.172 129.638 164.172C129.89 164.172 130.136 164.19 130.376 164.226C130.616 164.262 130.838 164.31 131.042 164.37L130.79 165.738C130.574 165.678 130.346 165.636 130.106 165.612C129.878 165.576 129.662 165.558 129.458 165.558C129.038 165.558 128.606 165.648 128.162 165.828C127.73 165.996 127.274 166.302 126.794 166.746V174H125.3V164.352H126.668ZM136.826 171.678C136.826 171.102 136.946 170.628 137.186 170.256C137.426 169.884 137.792 169.59 138.284 169.374C138.776 169.146 139.382 168.972 140.102 168.852C140.822 168.72 141.656 168.612 142.604 168.528V167.178C142.604 166.626 142.424 166.206 142.064 165.918C141.704 165.618 141.164 165.468 140.444 165.468C140.204 165.468 139.934 165.48 139.634 165.504C139.334 165.528 139.022 165.57 138.698 165.63C138.374 165.69 138.038 165.774 137.69 165.882L137.42 164.658C137.936 164.502 138.464 164.382 139.004 164.298C139.544 164.214 140.054 164.172 140.534 164.172C141.326 164.172 141.986 164.286 142.514 164.514C143.054 164.73 143.456 165.06 143.72 165.504C143.996 165.948 144.134 166.5 144.134 167.16V171.84C144.134 172.236 144.188 172.506 144.296 172.65C144.416 172.782 144.572 172.848 144.764 172.848C144.836 172.848 144.914 172.842 144.998 172.83C145.082 172.818 145.172 172.794 145.268 172.758L145.43 173.874C145.25 173.97 145.058 174.042 144.854 174.09C144.662 174.15 144.458 174.18 144.242 174.18C143.81 174.18 143.468 174.072 143.216 173.856C142.964 173.628 142.802 173.286 142.73 172.83C142.442 173.058 142.118 173.28 141.758 173.496C141.41 173.7 141.026 173.868 140.606 174C140.198 174.12 139.748 174.18 139.256 174.18C138.884 174.18 138.548 174.126 138.248 174.018C137.96 173.91 137.708 173.754 137.492 173.55C137.276 173.334 137.108 173.07 136.988 172.758C136.88 172.446 136.826 172.086 136.826 171.678ZM138.356 171.552C138.356 172.068 138.482 172.458 138.734 172.722C138.998 172.974 139.346 173.1 139.778 173.1C140.114 173.1 140.45 173.046 140.786 172.938C141.122 172.83 141.446 172.686 141.758 172.506C142.082 172.314 142.364 172.098 142.604 171.858V169.428C141.968 169.488 141.386 169.56 140.858 169.644C140.342 169.716 139.892 169.83 139.508 169.986C139.136 170.142 138.848 170.346 138.644 170.598C138.452 170.85 138.356 171.168 138.356 171.552ZM151.807 174V164.352H153.175V165.198C153.571 164.982 153.949 164.796 154.309 164.64C154.681 164.484 155.053 164.37 155.425 164.298C155.809 164.214 156.211 164.172 156.631 164.172C157.219 164.172 157.711 164.274 158.107 164.478C158.503 164.682 158.803 164.982 159.007 165.378C159.211 165.762 159.313 166.242 159.313 166.818V174H157.819V167.232C157.819 166.656 157.669 166.218 157.369 165.918C157.081 165.606 156.637 165.45 156.037 165.45C155.713 165.45 155.401 165.486 155.101 165.558C154.801 165.63 154.507 165.726 154.219 165.846C153.931 165.954 153.625 166.092 153.301 166.26V174H151.807ZM165.468 174.18C164.808 174.18 164.22 174.09 163.704 173.91C163.188 173.73 162.75 173.448 162.39 173.064C162.042 172.68 161.772 172.188 161.58 171.588C161.4 170.988 161.31 170.268 161.31 169.428C161.31 168.456 161.418 167.634 161.634 166.962C161.862 166.278 162.18 165.732 162.588 165.324C162.996 164.916 163.464 164.622 163.992 164.442C164.532 164.262 165.12 164.172 165.756 164.172C166.98 164.172 167.892 164.502 168.492 165.162C169.092 165.81 169.392 166.866 169.392 168.33C169.392 168.402 169.386 168.504 169.374 168.636C169.374 168.768 169.368 168.894 169.356 169.014C169.104 169.026 168.762 169.05 168.33 169.086C167.91 169.122 167.418 169.158 166.854 169.194C166.29 169.23 165.672 169.26 165 169.284C164.328 169.308 163.62 169.326 162.876 169.338C162.864 169.398 162.858 169.458 162.858 169.518C162.858 169.578 162.858 169.644 162.858 169.716C162.858 170.496 162.966 171.126 163.182 171.606C163.41 172.074 163.734 172.416 164.154 172.632C164.586 172.848 165.108 172.956 165.72 172.956C166.104 172.956 166.494 172.938 166.89 172.902C167.286 172.854 167.664 172.794 168.024 172.722C168.396 172.65 168.738 172.578 169.05 172.506L169.248 173.64C168.924 173.748 168.558 173.844 168.15 173.928C167.754 174.012 167.334 174.072 166.89 174.108C166.446 174.156 165.972 174.18 165.468 174.18ZM162.894 168.294C163.47 168.294 164.022 168.288 164.55 168.276C165.09 168.252 165.582 168.228 166.026 168.204C166.482 168.18 166.866 168.156 167.178 168.132C167.49 168.108 167.718 168.09 167.862 168.078C167.85 167.406 167.766 166.866 167.61 166.458C167.454 166.05 167.214 165.756 166.89 165.576C166.566 165.384 166.152 165.288 165.648 165.288C165.336 165.288 165.03 165.336 164.73 165.432C164.43 165.516 164.148 165.672 163.884 165.9C163.632 166.116 163.416 166.422 163.236 166.818C163.068 167.202 162.954 167.694 162.894 168.294ZM174.731 177.96C173.339 177.96 172.289 177.744 171.581 177.312C170.873 176.88 170.519 176.232 170.519 175.368C170.519 175.032 170.573 174.72 170.681 174.432C170.801 174.156 170.975 173.904 171.203 173.676C171.443 173.448 171.743 173.25 172.103 173.082L173.075 173.406C172.787 173.526 172.547 173.67 172.355 173.838C172.175 174.006 172.037 174.192 171.941 174.396C171.857 174.6 171.815 174.828 171.815 175.08C171.815 175.464 171.923 175.788 172.139 176.052C172.355 176.316 172.685 176.514 173.129 176.646C173.585 176.778 174.149 176.844 174.821 176.844C175.529 176.844 176.123 176.766 176.603 176.61C177.083 176.466 177.449 176.256 177.701 175.98C177.965 175.704 178.097 175.368 178.097 174.972C178.097 174.672 178.031 174.426 177.899 174.234C177.767 174.054 177.563 173.916 177.287 173.82C177.023 173.724 176.675 173.676 176.243 173.676H173.777C173.189 173.676 172.685 173.604 172.265 173.46C171.857 173.304 171.545 173.082 171.329 172.794C171.125 172.494 171.023 172.134 171.023 171.714C171.023 171.27 171.137 170.886 171.365 170.562C171.593 170.226 171.929 169.932 172.373 169.68L173.237 170.004C172.913 170.172 172.661 170.364 172.481 170.58C172.313 170.796 172.229 171.048 172.229 171.336C172.229 171.66 172.349 171.918 172.589 172.11C172.829 172.29 173.219 172.38 173.759 172.38H176.675C177.611 172.38 178.319 172.59 178.799 173.01C179.279 173.43 179.519 174.036 179.519 174.828C179.519 175.476 179.327 176.034 178.943 176.502C178.571 176.97 178.031 177.33 177.323 177.582C176.615 177.834 175.751 177.96 174.731 177.96ZM174.857 170.436C173.645 170.436 172.727 170.172 172.103 169.644C171.479 169.116 171.167 168.336 171.167 167.304C171.167 166.26 171.479 165.48 172.103 164.964C172.727 164.436 173.645 164.172 174.857 164.172C176.069 164.172 176.981 164.436 177.593 164.964C178.217 165.48 178.529 166.26 178.529 167.304C178.529 168.336 178.217 169.116 177.593 169.644C176.981 170.172 176.069 170.436 174.857 170.436ZM174.857 169.392C175.601 169.392 176.153 169.23 176.513 168.906C176.873 168.57 177.053 168.036 177.053 167.304C177.053 166.56 176.873 166.026 176.513 165.702C176.153 165.366 175.601 165.198 174.857 165.198C174.113 165.198 173.555 165.366 173.183 165.702C172.823 166.026 172.643 166.56 172.643 167.304C172.643 168.036 172.823 168.57 173.183 168.906C173.555 169.23 174.113 169.392 174.857 169.392ZM177.629 165.72L176.999 164.91C177.155 164.526 177.395 164.238 177.719 164.046C178.043 163.854 178.427 163.758 178.871 163.758C179.003 163.758 179.123 163.764 179.231 163.776C179.351 163.788 179.471 163.806 179.591 163.83L179.429 165.036C179.345 165.012 179.255 164.994 179.159 164.982C179.063 164.97 178.961 164.964 178.853 164.964C178.577 164.964 178.337 165.024 178.133 165.144C177.929 165.264 177.761 165.456 177.629 165.72ZM180.374 169.158C180.374 168.306 180.446 167.568 180.59 166.944C180.734 166.308 180.968 165.792 181.292 165.396C181.616 164.988 182.048 164.682 182.588 164.478C183.128 164.274 183.794 164.172 184.586 164.172C185.378 164.172 186.044 164.274 186.584 164.478C187.136 164.682 187.574 164.988 187.898 165.396C188.222 165.792 188.456 166.308 188.6 166.944C188.744 167.568 188.816 168.306 188.816 169.158C188.816 170.034 188.738 170.79 188.582 171.426C188.426 172.062 188.18 172.584 187.844 172.992C187.508 173.388 187.07 173.688 186.53 173.892C186.002 174.084 185.354 174.18 184.586 174.18C183.83 174.18 183.182 174.084 182.642 173.892C182.114 173.688 181.682 173.388 181.346 172.992C181.01 172.584 180.764 172.062 180.608 171.426C180.452 170.79 180.374 170.034 180.374 169.158ZM181.904 169.158C181.904 170.106 181.994 170.862 182.174 171.426C182.366 171.99 182.66 172.398 183.056 172.65C183.452 172.89 183.962 173.01 184.586 173.01C185.222 173.01 185.738 172.89 186.134 172.65C186.53 172.398 186.818 171.99 186.998 171.426C187.178 170.862 187.268 170.106 187.268 169.158C187.268 168.222 187.184 167.478 187.016 166.926C186.86 166.362 186.584 165.96 186.188 165.72C185.792 165.468 185.258 165.342 184.586 165.342C183.926 165.342 183.398 165.468 183.002 165.72C182.606 165.96 182.324 166.362 182.156 166.926C181.988 167.478 181.904 168.222 181.904 169.158ZM190.362 169.32C190.362 168.156 190.536 167.196 190.884 166.44C191.232 165.672 191.742 165.102 192.414 164.73C193.098 164.358 193.92 164.172 194.88 164.172C195.192 164.172 195.516 164.19 195.852 164.226C196.188 164.25 196.518 164.286 196.842 164.334C197.178 164.382 197.478 164.448 197.742 164.532L197.526 165.792C197.262 165.732 196.986 165.684 196.698 165.648C196.41 165.6 196.122 165.564 195.834 165.54C195.546 165.504 195.27 165.486 195.006 165.486C194.346 165.486 193.782 165.63 193.314 165.918C192.858 166.194 192.51 166.614 192.27 167.178C192.03 167.73 191.91 168.444 191.91 169.32C191.91 170.124 192.03 170.79 192.27 171.318C192.51 171.834 192.864 172.224 193.332 172.488C193.8 172.74 194.364 172.866 195.024 172.866C195.3 172.866 195.588 172.854 195.888 172.83C196.188 172.806 196.488 172.77 196.788 172.722C197.1 172.662 197.394 172.602 197.67 172.542L197.904 173.766C197.472 173.886 196.962 173.982 196.374 174.054C195.798 174.138 195.246 174.18 194.718 174.18C193.278 174.18 192.192 173.784 191.46 172.992C190.728 172.2 190.362 170.976 190.362 169.32ZM200.414 162.408C200.078 162.408 199.838 162.348 199.694 162.228C199.55 162.108 199.478 161.898 199.478 161.598C199.478 161.286 199.544 161.07 199.676 160.95C199.82 160.83 200.066 160.77 200.414 160.77C200.75 160.77 200.984 160.83 201.116 160.95C201.26 161.07 201.332 161.286 201.332 161.598C201.332 161.898 201.26 162.108 201.116 162.228C200.984 162.348 200.75 162.408 200.414 162.408ZM199.658 174V164.352H201.152V174H199.658ZM202.971 171.678C202.971 171.102 203.091 170.628 203.331 170.256C203.571 169.884 203.937 169.59 204.429 169.374C204.921 169.146 205.527 168.972 206.247 168.852C206.967 168.72 207.801 168.612 208.749 168.528V167.178C208.749 166.626 208.569 166.206 208.209 165.918C207.849 165.618 207.309 165.468 206.589 165.468C206.349 165.468 206.079 165.48 205.779 165.504C205.479 165.528 205.167 165.57 204.843 165.63C204.519 165.69 204.183 165.774 203.835 165.882L203.565 164.658C204.081 164.502 204.609 164.382 205.149 164.298C205.689 164.214 206.199 164.172 206.679 164.172C207.471 164.172 208.131 164.286 208.659 164.514C209.199 164.73 209.601 165.06 209.865 165.504C210.141 165.948 210.279 166.5 210.279 167.16V171.84C210.279 172.236 210.333 172.506 210.441 172.65C210.561 172.782 210.717 172.848 210.909 172.848C210.981 172.848 211.059 172.842 211.143 172.83C211.227 172.818 211.317 172.794 211.413 172.758L211.575 173.874C211.395 173.97 211.203 174.042 210.999 174.09C210.807 174.15 210.603 174.18 210.387 174.18C209.955 174.18 209.613 174.072 209.361 173.856C209.109 173.628 208.947 173.286 208.875 172.83C208.587 173.058 208.263 173.28 207.903 173.496C207.555 173.7 207.171 173.868 206.751 174C206.343 174.12 205.893 174.18 205.401 174.18C205.029 174.18 204.693 174.126 204.393 174.018C204.105 173.91 203.853 173.754 203.637 173.55C203.421 173.334 203.253 173.07 203.133 172.758C203.025 172.446 202.971 172.086 202.971 171.678ZM204.501 171.552C204.501 172.068 204.627 172.458 204.879 172.722C205.143 172.974 205.491 173.1 205.923 173.1C206.259 173.1 206.595 173.046 206.931 172.938C207.267 172.83 207.591 172.686 207.903 172.506C208.227 172.314 208.509 172.098 208.749 171.858V169.428C208.113 169.488 207.531 169.56 207.003 169.644C206.487 169.716 206.037 169.83 205.653 169.986C205.281 170.142 204.993 170.346 204.789 170.598C204.597 170.85 204.501 171.168 204.501 171.552ZM214.359 164.352V165.54C214.719 165.216 215.055 164.958 215.367 164.766C215.679 164.562 215.997 164.412 216.321 164.316C216.645 164.22 216.981 164.172 217.329 164.172C217.581 164.172 217.827 164.19 218.067 164.226C218.307 164.262 218.529 164.31 218.733 164.37L218.481 165.738C218.265 165.678 218.037 165.636 217.797 165.612C217.569 165.576 217.353 165.558 217.149 165.558C216.729 165.558 216.297 165.648 215.853 165.828C215.421 165.996 214.965 166.302 214.485 166.746V174H212.991V164.352H214.359Z" fill="white"/>
<rect y="58" width="280" height="144" fill="url(#paint0_linear_508_9400)"/>
<defs>
<linearGradient id="paint0_linear_508_9400" x1="140" y1="58" x2="140" y2="202" gradientUnits="userSpaceOnUse">
<stop stop-color="white" stop-opacity="0"/>
<stop offset="1" stop-color="white"/>
</linearGradient>
</defs>
</svg>
