<svg width="351" height="245" viewBox="0 0 351 245" fill="none" xmlns="http://www.w3.org/2000/svg">
<rect x="84.4804" y="218.757" width="13.9624" height="24.539" rx="3.49822" transform="rotate(-180 84.4804 218.757)" fill="#202FFF"/>
<rect x="78.7684" y="231.768" width="2.53862" height="86.9474" rx="1.26931" transform="rotate(-180 78.7684 231.768)" fill="#202FFF"/>
<rect x="116.716" y="190.163" width="13.9624" height="53.5559" rx="3.49822" transform="rotate(-180 116.716 190.163)" fill="#202FFF"/>
<rect x="111.004" y="218.558" width="2.53862" height="109.795" rx="1.26931" transform="rotate(-180 111.004 218.558)" fill="#202FFF"/>
<rect x="147.179" y="127.969" width="13.9624" height="53.5559" rx="3.49822" transform="rotate(-180 147.179 127.969)" fill="#202FFF"/>
<rect x="141.467" y="156.364" width="2.53862" height="109.795" rx="1.26931" transform="rotate(-180 141.467 156.364)" fill="#202FFF"/>
<rect x="61.8612" y="257.028" width="13.9624" height="53.5559" rx="3.49822" transform="rotate(-180 61.8612 257.028)" fill="#202FFF"/>
<rect x="56.1493" y="285.423" width="2.53862" height="109.795" rx="1.26931" transform="rotate(-180 56.1493 285.423)" fill="#202FFF"/>
<rect x="235.396" y="157.632" width="13.9624" height="41.8871" rx="3.49822" transform="rotate(-180 235.396 157.632)" fill="#202FFF"/>
<rect x="229.684" y="168.421" width="2.53862" height="70.4464" rx="1.26931" transform="rotate(-180 229.684 168.421)" fill="#202FFF"/>
<rect x="262.051" y="120.831" width="13.9624" height="51.6985" rx="3.49822" transform="rotate(-180 262.051 120.831)" fill="#202FFF"/>
<rect x="256.339" y="134.148" width="2.53862" height="86.9474" rx="1.26931" transform="rotate(-180 256.339 134.148)" fill="#202FFF"/>
<rect x="13.9623" y="156.062" width="13.9624" height="58.5919" rx="3.49822" transform="rotate(-180 13.9623 156.062)" fill="#9EE8DD"/>
<rect x="8.25067" y="154.23" width="2.53861" height="85.0434" rx="1.26931" transform="rotate(-180 8.25067 154.23)" fill="#9EE8DD"/>
<rect x="159.872" y="74.4912" width="13.9624" height="31.7326" rx="3.49822" fill="#9EE8DD"/>
<rect x="21.2885" y="157.002" width="13.9624" height="31.7326" rx="3.49822" fill="#9EE8DD"/>
<rect x="165.584" y="76.3232" width="2.53861" height="85.0434" rx="1.26931" fill="#9EE8DD"/>
<rect x="27.0004" y="138.375" width="2.53861" height="85.0434" rx="1.26931" fill="#9EE8DD"/>
<rect x="188.432" y="108.764" width="13.9624" height="47.5989" rx="3.49822" fill="#9EE8DD"/>
<rect x="194.143" y="110.595" width="2.53861" height="85.0434" rx="1.26931" fill="#9EE8DD"/>
<rect x="305.616" y="59.231" width="13.9624" height="95.8326" rx="3.49822" fill="#202FFF"/>
<rect x="311.328" y="52.8857" width="2.53862" height="122.488" rx="1.26931" fill="#202FFF"/>
<rect x="275.419" y="87.2808" width="13.9624" height="58.5919" rx="3.49822" fill="#9EE8DD"/>
<rect x="281.131" y="52.3022" width="2.53862" height="121.853" rx="1.26931" fill="#9EE8DD"/>
<rect x="336.334" y="17.7017" width="13.9624" height="66.04" rx="3.49822" fill="#9EE8DD"/>
<rect x="342.046" width="2.53862" height="106.622" rx="1.26931" fill="#9EE8DD"/>
</svg>
