<svg width="32" height="32" viewBox="0 0 32 32" fill="none" xmlns="http://www.w3.org/2000/svg">
<path d="M0 8C0 3.58172 3.58172 0 8 0H24C28.4183 0 32 3.58172 32 8V24C32 28.4183 28.4183 32 24 32H8C3.58172 32 0 28.4183 0 24V8Z" fill="white"/>
<path fill-rule="evenodd" clip-rule="evenodd" d="M16.526 16.7348C16.2477 17.2907 15.7704 17.6486 15.2539 17.7693C15.1756 17.7693 15.056 17.8085 14.9364 17.8085C14.0633 17.8085 13.5469 17.1329 13.5469 16.1398C13.5469 14.8671 14.3014 14.272 15.2539 13.9925C15.7704 13.8739 16.3673 13.8336 16.9631 13.8336V14.3112C16.9631 15.2249 17.0023 15.9396 16.526 16.7348ZM16.9631 12.0072C16.4467 12.0464 15.8498 12.0855 15.2539 12.1639C14.3406 12.2846 13.4273 12.4434 12.6737 12.8013C11.2037 13.3974 10.21 14.6691 10.21 16.5358C10.21 18.8821 11.7191 20.0733 13.6273 20.0733C14.2623 20.0733 14.7787 19.9928 15.2539 19.8753C16.0106 19.636 16.6446 19.1987 17.3992 18.4035C17.8362 18.9996 17.9569 19.2792 18.7104 19.9145C18.9094 19.9928 19.1084 19.9928 19.266 19.8753C19.7433 19.4772 20.5784 18.7614 21.0144 18.3644C21.2134 18.2055 21.1742 17.9662 21.0536 17.7693C20.6175 17.2124 20.1794 16.7348 20.1794 15.6622V12.0855C20.1794 10.5756 20.3 9.18435 19.1877 8.152C18.2744 7.31871 16.8435 7 15.7312 7H15.2539C13.2294 7.11753 11.0852 7.99212 10.6068 10.4962C10.5275 10.8149 10.7666 10.9335 10.9254 10.9727L13.15 11.2512C13.3881 11.2109 13.5077 11.0119 13.5469 10.8149C13.7448 9.94035 14.4602 9.50306 15.2539 9.42259H15.4137C15.891 9.42259 16.4075 9.62165 16.6848 10.0198C17.0023 10.4962 16.9631 11.1326 16.9631 11.6895V12.0072Z" fill="#343B45"/>
<path fill-rule="evenodd" clip-rule="evenodd" d="M24.9979 20.48V20.4789C24.9894 20.2915 24.9503 20.1486 24.8719 20.03L24.8635 20.0183L24.854 20.0067C24.7746 19.9199 24.6984 19.887 24.6158 19.851C24.3692 19.7557 24.0105 19.7049 23.5787 19.7039C23.2686 19.7039 22.9267 19.7335 22.5828 19.8087L22.5817 19.7854L22.2357 19.9008L22.2293 19.904L22.0335 19.9675V19.976C21.8039 20.0713 21.5954 20.1899 21.4017 20.3307C21.281 20.4207 21.1816 20.5403 21.1763 20.7235C21.1731 20.823 21.2239 20.9374 21.3075 21.0052C21.3911 21.0729 21.4885 21.0962 21.5742 21.0962C21.5943 21.0962 21.6134 21.0952 21.6303 21.092L21.6472 21.0909L21.6599 21.0888C21.8293 21.0528 22.0758 21.0284 22.3648 20.9882C22.6124 20.9607 22.8749 20.9406 23.1024 20.9406C23.2633 20.9395 23.4083 20.9512 23.5078 20.9723C23.5575 20.9829 23.5945 20.9956 23.6147 21.0062C23.6221 21.0083 23.6274 21.0115 23.6305 21.0136C23.6348 21.0274 23.6411 21.0634 23.6401 21.1132C23.6422 21.3037 23.5617 21.6574 23.4506 22.0026C23.3427 22.3477 23.2114 22.694 23.1246 22.9237C23.1035 22.9767 23.0897 23.0349 23.0897 23.0984C23.0876 23.1906 23.1257 23.3028 23.2061 23.3769C23.2845 23.451 23.3861 23.4807 23.4707 23.4807H23.475C23.602 23.4796 23.7099 23.4288 23.803 23.3557C24.6814 22.5659 24.9873 21.3037 25 20.5933L24.9979 20.48ZM22.3933 21.5748C22.3034 21.5737 22.2113 21.5949 22.1256 21.6352C22.0293 21.6733 21.9309 21.7177 21.8377 21.7569L21.7012 21.8141L21.5234 21.885V21.8872C19.592 22.6707 17.5632 23.1302 15.6857 23.1704C15.6169 23.1726 15.547 23.1726 15.4804 23.1726C12.5276 23.1747 10.1189 21.8046 7.68899 20.4546C7.60432 20.4101 7.51648 20.3868 7.43181 20.3868C7.32281 20.3868 7.21062 20.4281 7.12913 20.5043C7.04764 20.5816 6.99896 20.6928 7.00002 20.8061C6.99896 20.9533 7.07833 21.0888 7.18946 21.1767C9.47015 23.1577 11.9699 24.998 15.3322 25.0001C15.3978 25.0001 15.4645 24.998 15.5312 24.9969C17.67 24.9493 20.0883 24.2261 21.9658 23.0466L21.9774 23.0392C22.223 22.892 22.4685 22.7247 22.7003 22.5394C22.8442 22.4324 22.9437 22.2652 22.9437 22.0915C22.9373 21.7834 22.6759 21.5748 22.3933 21.5748Z" fill="#FF9A00"/>
</svg>
