<svg width="49" height="48" viewBox="0 0 49 48" fill="none" xmlns="http://www.w3.org/2000/svg">
<g clip-path="url(#clip0_227_11449)">
<path d="M48.6667 24C48.6667 10.7452 37.9216 0 24.6667 0C11.4119 0 0.666748 10.7452 0.666748 24C0.666748 37.2548 11.4119 48 24.6667 48C37.9216 48 48.6667 37.2548 48.6667 24Z" fill="#1A1A19"/>
<path fill-rule="evenodd" clip-rule="evenodd" d="M28.2796 15.4917C29.1373 14.4976 29.7155 13.113 29.5572 11.7354C28.3212 11.7824 26.8258 12.5249 25.9395 13.5179C25.1437 14.399 24.4489 15.807 24.6357 17.1576C26.0145 17.2599 27.4218 16.4869 28.2796 15.4917ZM31.3714 24.2354C31.4059 27.7965 34.6311 28.9811 34.6667 28.9964C34.6406 29.0799 34.1516 30.6843 32.9679 32.3431C31.9437 33.776 30.8813 35.2032 29.2075 35.2337C27.5634 35.2632 27.034 34.2997 25.1532 34.2997C23.2735 34.2997 22.6859 35.203 21.1298 35.263C19.5143 35.3207 18.283 33.7127 17.2516 32.2845C15.1411 29.3634 13.5292 24.0296 15.6943 20.4296C16.7698 18.6426 18.691 17.5092 20.7777 17.481C22.3635 17.4516 23.8612 18.5035 24.8308 18.5035C25.8003 18.5035 27.6205 17.2388 29.5334 17.4247C30.3341 17.4565 32.5825 17.734 34.0255 19.7587C33.9089 19.8281 31.3429 21.2589 31.3714 24.2354Z" fill="white"/>
</g>
<defs>
<clipPath id="clip0_227_11449">
<path d="M0.666748 24C0.666748 10.7452 11.4119 0 24.6667 0C37.9216 0 48.6667 10.7452 48.6667 24C48.6667 37.2548 37.9216 48 24.6667 48C11.4119 48 0.666748 37.2548 0.666748 24Z" fill="white"/>
</clipPath>
</defs>
</svg>
