<svg width="32" height="32" viewBox="0 0 32 32" fill="none" xmlns="http://www.w3.org/2000/svg">
<path d="M0 8C0 3.58172 3.58172 0 8 0H24C28.4183 0 32 3.58172 32 8V24C32 28.4183 28.4183 32 24 32H8C3.58172 32 0 28.4183 0 24V8Z" fill="#1A1A19"/>
<path fill-rule="evenodd" clip-rule="evenodd" d="M18.889 9.87361C19.5452 9.11311 19.9875 8.05389 19.8664 7C18.9208 7.036 17.7769 7.60404 17.0989 8.36364C16.49 9.03773 15.9585 10.1148 16.1014 11.148C17.1562 11.2263 18.2328 10.635 18.889 9.87361ZM21.2543 16.5626C21.2807 19.2869 23.7479 20.1931 23.7752 20.2048C23.7552 20.2687 23.3812 21.4961 22.4756 22.7651C21.6921 23.8613 20.8793 24.953 19.5989 24.9764C18.3411 24.9989 17.9361 24.2619 16.4973 24.2619C15.0594 24.2619 14.6098 24.9529 13.4194 24.9988C12.1835 25.0429 11.2415 23.8129 10.4525 22.7203C8.83801 20.4856 7.60485 16.4052 9.2612 13.6512C10.0839 12.2841 11.5537 11.4171 13.15 11.3955C14.3631 11.373 15.5089 12.1777 16.2507 12.1777C16.9924 12.1777 18.3848 11.2102 19.8482 11.3524C20.4607 11.3767 22.1808 11.589 23.2847 13.1379C23.1955 13.191 21.2325 14.2856 21.2543 16.5626Z" fill="white"/>
</svg>
