<svg width="32" height="32" viewBox="0 0 32 32" fill="none" xmlns="http://www.w3.org/2000/svg">
<path d="M0 8C0 3.58172 3.58172 0 8 0H24C28.4183 0 32 3.58172 32 8V24C32 28.4183 28.4183 32 24 32H8C3.58172 32 0 28.4183 0 24V8Z" fill="#FF0000"/>
<path fill-rule="evenodd" clip-rule="evenodd" d="M18.2578 18.9941C18.2009 19.867 18.3482 20.5894 18.5394 20.9241C18.8389 21.4481 19.5762 23.6457 18.4452 24.3854C17.6117 24.9302 16.7339 25 16.0622 25L15.7339 24.9979L15.4056 25C14.7337 25 13.8557 24.9302 13.0223 24.3854C11.8909 23.6455 12.6286 21.4481 12.928 20.9241C13.1826 20.4786 13.3593 19.3462 13.0805 18.0861C13.1359 18.0603 13.1896 18.0393 13.2412 18.0222C13.4278 17.9603 13.6292 17.9349 13.8621 17.9411C14.369 17.9546 14.9602 18.1122 15.6724 18.3414C15.7803 18.3761 15.8927 18.4131 16.0084 18.4513L16.0084 18.4513C16.5768 18.6386 17.2249 18.8522 17.8114 18.9452C17.9532 18.9677 18.103 18.9853 18.2578 18.9941ZM18.3936 18.0578C18.4442 17.834 18.5094 17.6063 18.591 17.3778C18.7005 17.071 18.8232 16.7049 18.9034 16.3165C19.0647 15.5329 19.0208 14.8182 18.7612 13.9992C18.6046 13.504 18.369 12.9779 18.0407 12.3904C17.6205 11.6387 17.1531 9.43109 17.2975 9.15775C17.4655 8.93359 17.4 8.60931 17.2966 8.32089C17.4844 8.18589 17.5992 7.96796 17.5992 7.72918C17.5992 7.32702 17.272 7 16.8698 7H14.5976C14.1955 7 13.8684 7.32702 13.8684 7.72921C13.8684 7.96799 13.983 8.18593 14.1708 8.32093C14.0675 8.60935 14.0015 8.93321 14.1675 9.15392C14.3146 9.4313 13.8474 11.639 13.427 12.3905C13.0987 12.9777 12.8629 13.5038 12.7063 13.999C12.4467 14.818 12.4028 15.5328 12.5643 16.3165C12.6228 16.601 12.7043 16.8734 12.7868 17.1192C13.1643 17.024 13.5496 16.9918 13.9256 17.0018C14.8015 17.025 15.6634 17.2816 16.3574 17.5049C16.5021 17.5515 16.6395 17.5965 16.7706 17.6394L16.7706 17.6394C17.3355 17.8245 17.782 17.9707 18.1792 18.0337C18.2639 18.0471 18.3346 18.0545 18.3936 18.0578ZM14.8876 8.49685C14.8232 8.66345 14.8041 8.74495 14.7984 8.7808C14.9338 9.00471 15.0128 9.44259 14.7299 10.7244C14.6887 10.911 14.6407 11.1069 14.5888 11.3006H16.8788C16.8267 11.1069 16.7788 10.911 16.7376 10.7242C16.4541 9.43914 16.5341 9.00236 16.6701 8.77912C16.6644 8.7479 16.6457 8.66725 16.5799 8.49685H14.8876Z" fill="white"/>
</svg>
