<svg width="20.000000" height="20.000000" viewBox="0 0 20 20" fill="none" xmlns="http://www.w3.org/2000/svg" xmlns:xlink="http://www.w3.org/1999/xlink">
	<desc>
			Created with Pixso.
	</desc>
	<defs>
		<clipPath id="clip2_696">
			<rect id="Property 1=commodities" rx="9.200000" width="18.400000" height="18.400000" transform="translate(0.800000 0.800000)" fill="white" fill-opacity="0"/>
		</clipPath>
	</defs>
	<g clip-path="url(#clip2_696)">
		<rect id="icons/icon-03-US-Oil" rx="0.000000" width="19.000000" height="19.000000" transform="translate(0.500000 0.500000)" fill="#FFFFFF" fill-opacity="0"/>
		<circle id="Ellipse 1" cx="10.000000" cy="10.000000" r="10.000000" fill="#EBEBEB" fill-opacity="1.000000"/>
		<path id="Vector" d="M11.06 15.31C10.67 15.37 10.24 15.4 9.78 15.4C7.85 15.4 6.28 14.8 6.28 14.05C6.28 13.91 6.34 13.76 6.45 13.63L6.45 12.9C6.32 12.76 6.25 12.56 6.25 12.44C6.25 12.32 6.26 12.28 6.29 12.21C6.33 12.24 6.36 12.28 6.4 12.31C6.96 12.76 8.22 13.04 9.54 13.08C9.8 13.09 10.07 13.09 10.33 13.08C10.31 13.19 10.3 13.29 10.3 13.4C10.3 13.78 10.37 14.14 10.51 14.47C10.64 14.78 10.82 15.05 11.06 15.31Z" fill="#6F6F6A" fill-opacity="1.000000" fill-rule="evenodd"/>
		<path id="Vector" d="M10.4 12.44C10.12 12.45 9.83 12.45 9.54 12.44C8.28 12.41 7.08 12.14 6.56 11.72C6.51 11.68 6.47 11.64 6.44 11.6C6.44 11.59 6.45 11.59 6.45 11.58L6.45 9.27C6.32 9.13 6.25 8.93 6.25 8.81C6.25 8.69 6.26 8.65 6.3 8.57C6.33 8.6 6.37 8.64 6.4 8.67C6.96 9.12 8.22 9.4 9.54 9.44C10.67 9.48 11.84 9.33 12.64 8.96C12.58 9.03 12.53 9.12 12.51 9.22C12.32 10.04 11.78 10.48 11.31 11.19C10.92 11.77 10.56 11.92 10.4 12.44Z" fill="#6F6F6A" fill-opacity="1.000000" fill-rule="evenodd"/>
		<path id="Vector" d="M9.78 4.58C10.71 4.58 11.57 4.72 12.19 4.96C12.86 5.21 13.28 5.58 13.28 6C13.28 6.15 13.23 6.29 13.13 6.42L13.13 7.95C13.05 8.03 12.96 8.11 12.85 8.18C12.12 8.66 10.81 8.85 9.54 8.81C8.28 8.77 7.08 8.51 6.56 8.09C6.52 8.05 6.47 8.01 6.44 7.97L6.45 7.96L6.45 6.46C6.33 6.32 6.27 6.16 6.27 6C6.27 5.58 6.69 5.21 7.36 4.96C7.98 4.72 8.84 4.58 9.78 4.58Z" fill="#6F6F6A" fill-opacity="1.000000" fill-rule="evenodd"/>
		<path id="Vector" d="M13.12 8.99C13.37 10.07 14.25 11.1 14.81 12.11C15.76 13.81 15.04 15.58 13.12 15.58C11.02 15.58 10.5 13.66 11.55 11.9C12.11 10.96 12.89 9.99 13.12 8.99ZM11.66 13.08C11.65 12.96 11.74 12.85 11.86 12.84C11.99 12.82 12.19 12.82 12.2 12.94C12.23 13.24 12.29 13.51 12.42 13.75C12.54 13.97 12.72 14.17 12.97 14.32C13.39 14.57 12.59 15.32 11.93 14.05C11.78 13.76 11.7 13.43 11.66 13.08Z" fill="#1A1A19" fill-opacity="1.000000" fill-rule="evenodd"/>
		<path id="Vector" d="M8.07 5.87C8.31 5.87 8.5 5.93 8.5 6.02C8.5 6.1 8.31 6.16 8.07 6.16C7.84 6.16 7.65 6.1 7.65 6.02C7.65 5.93 7.84 5.87 8.07 5.87Z" fill="#6F6F6A" fill-opacity="1.000000" fill-rule="evenodd"/>
		<path id="Vector" d="M12.04 5.28C11.46 5.07 10.66 4.94 9.78 4.94C8.89 4.94 8.09 5.07 7.52 5.28C6.99 5.48 6.67 5.73 6.67 6C6.67 6.26 6.99 6.51 7.52 6.71C8.09 6.92 8.89 7.06 9.78 7.06C10.66 7.06 11.46 6.92 12.04 6.71C12.56 6.51 12.88 6.26 12.88 6C12.88 5.73 12.56 5.48 12.04 5.28Z" fill="#EBEBEB" fill-opacity="1.000000" fill-rule="evenodd"/>
		<path id="Vector" d="M8.07 5.7C8.46 5.7 8.78 5.84 8.78 6.02C8.78 6.19 8.46 6.33 8.07 6.33C7.68 6.33 7.37 6.19 7.37 6.02C7.37 5.84 7.68 5.7 8.07 5.7Z" fill="#6F6F6A" fill-opacity="1.000000" fill-rule="evenodd"/>
	</g>
</svg>
