<svg width="20.000000" height="20.000000" viewBox="0 0 20 20" fill="none" xmlns="http://www.w3.org/2000/svg" xmlns:xlink="http://www.w3.org/1999/xlink">
	<desc>
			Created with Pixso.
	</desc>
	<defs>
		<clipPath id="clip2_768">
			<rect id="Property 1=crypto" rx="9.200000" width="18.400000" height="18.400000" transform="translate(0.800000 0.800000)" fill="white" fill-opacity="0"/>
		</clipPath>
	</defs>
	<g clip-path="url(#clip2_768)">
		<circle id="Ellipse 1" cx="10.000000" cy="10.000000" r="10.000000" fill="#FFA600" fill-opacity="1.000000"/>
		<path id="symbol" d="M18.4565 8.37805C21.8457 8.75232 24.5317 9.88843 24.8354 13.1285C25.0615 15.4994 24.1118 16.9015 22.5908 17.6782C25.0977 18.3524 26.6699 19.9318 26.3652 23.3972C25.9878 27.7009 22.8999 28.7977 18.4863 28.9758L18.4922 33.505L15.8667 33.4546L15.8613 28.986C15.1812 28.9735 14.4839 28.9541 13.7642 28.9247L13.7705 33.4139L11.1479 33.3628L11.1401 28.8256C10.5259 28.8096 9.90039 28.7863 9.26465 28.7732L5.84766 28.7073L6.36475 25.4563C6.36475 25.4563 8.30664 25.5253 8.27295 25.4937C9.01611 25.5067 9.21191 24.9554 9.2583 24.6083L9.24854 17.4487C9.34473 17.4497 9.43848 17.4521 9.52588 17.4537C9.41748 17.4362 9.32178 17.4312 9.24805 17.4293L9.24072 12.3186C9.13916 11.7626 8.79199 11.1138 7.72852 11.0929C7.76074 11.0563 5.82178 11.0573 5.82178 11.0573L5.81689 8.14087L9.43799 8.21204L9.43848 8.22595C9.98291 8.23621 10.541 8.23596 11.1094 8.23486L11.104 3.75L13.728 3.80078L13.7339 8.19763C14.4351 8.19666 15.1406 8.19604 15.8306 8.20935L15.8242 3.84143L18.4497 3.89185L18.4565 8.37805ZM13.8013 11.4084L13.8091 16.8607C13.9326 16.863 14.0781 16.8683 14.2412 16.8743C16.0347 16.9396 19.9473 17.0822 19.9438 14.2543C19.939 11.3621 16.1772 11.3931 14.3403 11.4081C14.1338 11.4098 13.9512 11.4114 13.8013 11.4084ZM21.1758 22.7592C21.1816 25.87 16.4834 25.7114 14.3335 25.6388C14.1401 25.6322 13.9673 25.6265 13.8203 25.6238L13.812 19.6122C13.9912 19.6156 14.2085 19.6145 14.4546 19.6133C16.6572 19.6017 21.1714 19.578 21.1758 22.7592Z" clip-rule="evenodd" fill="#FFFFFF" fill-opacity="1.000000" fill-rule="evenodd"/>
	</g>
</svg>
