<svg width="32" height="32" viewBox="0 0 32 32" fill="none" xmlns="http://www.w3.org/2000/svg">
<path d="M0 8C0 3.58172 3.58172 0 8 0H24C28.4183 0 32 3.58172 32 8V24C32 28.4183 28.4183 32 24 32H8C3.58172 32 0 28.4183 0 24V8Z" fill="#30A2FF"/>
<path fill-rule="evenodd" clip-rule="evenodd" d="M17.1325 6C17.1325 9.4 17.1325 11.8 18.9381 13.8C18.9381 12.6 19.3393 10.6 21.9473 9.8C21.9473 11.5149 22.4659 12.6554 22.9472 13.714C23.364 14.6308 23.7529 15.4862 23.7529 16.6C23.7529 20.6212 20.6266 23.7257 16.6629 23.9828C18.3213 23.8051 19.7294 22.2793 19.7294 20.5756C19.7294 19.7699 19.3308 18.9641 18.7328 18.5613C18.7328 18.5613 18.5335 19.7699 17.9356 20.3742C17.9356 20.2704 17.9455 20.1331 17.9573 19.9706C18.0367 18.8718 18.1997 16.6186 15.9425 15.7412C15.9425 16.5487 15.2419 17.3056 14.5178 18.0879C13.7967 18.8669 13.0524 19.6711 12.9529 20.5756C12.9529 22.3616 14.5004 23.9521 16.2614 23.999C16.2175 23.9996 16.1735 24 16.1294 24C11.9164 24 8.50586 20.6 8.50586 16.6C8.50586 15 9.30834 13 10.9133 12.2C10.9133 12.2 11.3145 15 12.7189 16.2C12.7543 15.8465 12.7396 15.3682 12.7225 14.8079C12.6424 12.198 12.5079 7.8112 17.1325 6Z" fill="white"/>
</svg>
