<svg width="32" height="32" viewBox="0 0 32 32" fill="none" xmlns="http://www.w3.org/2000/svg">
<path d="M0 8C0 3.58172 3.58172 0 8 0H24C28.4183 0 32 3.58172 32 8V24C32 28.4183 28.4183 32 24 32H8C3.58172 32 0 28.4183 0 24V8Z" fill="#F9BE08"/>
<path d="M15.1 25H7L8.5741 21.0661C8.64082 20.8991 8.75604 20.7559 8.90491 20.655C9.05378 20.5541 9.22946 20.5001 9.4093 20.5H12.6907C12.8705 20.5001 13.0462 20.5541 13.1951 20.655C13.344 20.7559 13.4592 20.8991 13.5259 21.0661L15.1 25ZM22.5907 20.5H19.3093C19.1295 20.5001 18.9538 20.5541 18.8049 20.655C18.656 20.7559 18.5408 20.8991 18.4741 21.0661L16.9 25H25L23.4259 21.0661C23.3592 20.8991 23.244 20.7559 23.0951 20.655C22.9462 20.5541 22.7705 20.5001 22.5907 20.5ZM13.5241 14.7661L11.95 18.7H20.05L18.4759 14.7661C18.4092 14.5991 18.294 14.4559 18.1451 14.355C17.9962 14.2541 17.8205 14.2001 17.6407 14.2H14.3593C14.1795 14.2001 14.0038 14.2541 13.8549 14.355C13.706 14.4559 13.5908 14.5991 13.5241 14.7661ZM16.9 9.7V7.9C16.9 7.66131 16.8052 7.43239 16.6364 7.2636C16.4676 7.09482 16.2387 7 16 7C15.7613 7 15.5324 7.09482 15.3636 7.2636C15.1948 7.43239 15.1 7.66131 15.1 7.9V9.7C15.1 9.93869 15.1948 10.1676 15.3636 10.3364C15.5324 10.5052 15.7613 10.6 16 10.6C16.2387 10.6 16.4676 10.5052 16.6364 10.3364C16.8052 10.1676 16.9 9.93869 16.9 9.7ZM21.0913 12.1813L22.3639 10.9087C22.4499 10.8257 22.5184 10.7264 22.5656 10.6166C22.6128 10.5068 22.6376 10.3887 22.6386 10.2692C22.6397 10.1497 22.6169 10.0311 22.5716 9.92054C22.5264 9.80993 22.4596 9.70945 22.3751 9.62494C22.2906 9.54044 22.1901 9.47361 22.0795 9.42836C21.9689 9.38311 21.8503 9.36034 21.7308 9.36137C21.6113 9.36241 21.4932 9.38724 21.3834 9.43441C21.2736 9.48158 21.1743 9.55014 21.0913 9.6361L19.8187 10.9087C19.7327 10.9917 19.6642 11.091 19.617 11.2008C19.5698 11.3106 19.545 11.4287 19.544 11.5482C19.5429 11.6677 19.5657 11.7863 19.611 11.8969C19.6562 12.0075 19.723 12.108 19.8075 12.1925C19.892 12.277 19.9925 12.3438 20.1031 12.389C20.2137 12.4343 20.3323 12.4571 20.4518 12.456C20.5713 12.455 20.6894 12.4302 20.7992 12.383C20.909 12.3358 21.0083 12.2673 21.0913 12.1813ZM10.9087 9.6361C10.739 9.47216 10.5116 9.38144 10.2756 9.38349C10.0397 9.38554 9.81393 9.4802 9.64706 9.64706C9.4802 9.81393 9.38554 10.0397 9.38349 10.2756C9.38144 10.5116 9.47216 10.739 9.6361 10.9087L10.9087 12.1813C11.0784 12.3452 11.3058 12.436 11.5418 12.4339C11.7777 12.4319 12.0035 12.3372 12.1703 12.1703C12.3372 12.0035 12.4319 11.7777 12.4339 11.5418C12.436 11.3058 12.3452 11.0784 12.1813 10.9087L10.9087 9.6361ZM7 16C7 16.2387 7.09482 16.4676 7.2636 16.6364C7.43239 16.8052 7.66131 16.9 7.9 16.9H9.7C9.93869 16.9 10.1676 16.8052 10.3364 16.6364C10.5052 16.4676 10.6 16.2387 10.6 16C10.6 15.7613 10.5052 15.5324 10.3364 15.3636C10.1676 15.1948 9.93869 15.1 9.7 15.1H7.9C7.66131 15.1 7.43239 15.1948 7.2636 15.3636C7.09482 15.5324 7 15.7613 7 16ZM24.1 15.1H22.3C22.0613 15.1 21.8324 15.1948 21.6636 15.3636C21.4948 15.5324 21.4 15.7613 21.4 16C21.4 16.2387 21.4948 16.4676 21.6636 16.6364C21.8324 16.8052 22.0613 16.9 22.3 16.9H24.1C24.3387 16.9 24.5676 16.8052 24.7364 16.6364C24.9052 16.4676 25 16.2387 25 16C25 15.7613 24.9052 15.5324 24.7364 15.3636C24.5676 15.1948 24.3387 15.1 24.1 15.1Z" fill="white"/>
</svg>
