<svg width="32" height="32" viewBox="0 0 32 32" fill="none" xmlns="http://www.w3.org/2000/svg">
<path d="M0 8C0 3.58172 3.58172 0 8 0H24C28.4183 0 32 3.58172 32 8V24C32 28.4183 28.4183 32 24 32H8C3.58172 32 0 28.4183 0 24V8Z" fill="white"/>
<path fill-rule="evenodd" clip-rule="evenodd" d="M11.1778 16.3666C11.1778 15.782 11.2749 15.2216 11.4482 14.6959L8.41494 12.3796C7.82379 13.5799 7.49072 14.9324 7.49072 16.3666C7.49072 17.7997 7.82338 19.1513 8.41371 20.3508L11.4453 18.03C11.2736 17.5068 11.1778 16.9484 11.1778 16.3666Z" fill="#FBBC05"/>
<path fill-rule="evenodd" clip-rule="evenodd" d="M16.5036 11.0485C17.7736 11.0485 18.9207 11.4985 19.8219 12.2349L22.4438 9.6167C20.8461 8.22579 18.7978 7.3667 16.5036 7.3667C12.9419 7.3667 9.88085 9.40356 8.41504 12.3797L11.4483 14.696C12.1472 12.5744 14.1394 11.0485 16.5036 11.0485Z" fill="#EB4335"/>
<path fill-rule="evenodd" clip-rule="evenodd" d="M16.5036 21.6848C14.1394 21.6848 12.1472 20.1589 11.4483 18.0374L8.41504 20.3532C9.88085 23.3298 12.9419 25.3666 16.5036 25.3666C18.7019 25.3666 20.8007 24.5861 22.3758 23.1236L19.4967 20.8977C18.6843 21.4095 17.6613 21.6848 16.5036 21.6848Z" fill="#34A853"/>
<path fill-rule="evenodd" clip-rule="evenodd" d="M25.1065 16.3666C25.1065 15.8348 25.0246 15.262 24.9017 14.7302H16.5034V18.2075H21.3375C21.0958 19.393 20.4379 20.3045 19.4965 20.8977L22.3757 23.1235C24.0303 21.5878 25.1065 19.3002 25.1065 16.3666Z" fill="#4285F4"/>
</svg>
