<svg width="20.000000" height="20.000000" viewBox="0 0 20 20" fill="none" xmlns="http://www.w3.org/2000/svg" xmlns:xlink="http://www.w3.org/1999/xlink">
	<desc>
			Created with Pixso.
	</desc>
	<defs>
		<clipPath id="clip2_779">
			<rect id="Property 1=indicies" rx="9.200000" width="18.400000" height="18.400000" transform="translate(0.800000 0.800000)" fill="white" fill-opacity="0"/>
		</clipPath>
	</defs>
	<g clip-path="url(#clip2_779)">
		<circle id="Ellipse 1" cx="10.000000" cy="10.000000" r="10.000000" fill="#0992F3" fill-opacity="1.000000"/>
		<mask id="mask2_785" mask-type="alpha" maskUnits="userSpaceOnUse" x="9.905762" y="5.779053" width="5.094238" height="6.223389">
			<path id="Vector" d="M9.9 5.77L15 5.77L15 12L9.9 12L9.9 5.77Z" fill="#FFFFFF" fill-opacity="1.000000" fill-rule="nonzero"/>
		</mask>
		<g mask="url(#mask2_785)">
			<path id="Vector" d="M12.54 5.77L10.39 11.69C10.36 11.77 10.32 11.83 10.26 11.88C10.19 11.92 10.12 11.95 10.04 11.96L10.04 11.97L12.32 11.97C12.5 11.97 12.65 11.85 12.71 11.69L14.86 5.77L12.54 5.77Z" fill="#FFFFFF" fill-opacity="1.000000" fill-rule="nonzero"/>
		</g>
		<path id="Vector" d="M9.86 11.88C9.99 11.88 10.11 11.81 10.18 11.71C10.18 11.7 10.21 11.66 10.23 11.61L11.02 9.44L10.56 8.17C10.53 8.11 10.49 8.05 10.43 8.01C10.37 7.97 10.31 7.94 10.24 7.94C10.17 7.93 10.1 7.94 10.04 7.97C9.97 8 9.92 8.04 9.88 8.1C9.87 8.11 9.84 8.16 9.83 8.19L9.04 10.37L9.5 11.64C9.53 11.71 9.58 11.77 9.64 11.81C9.71 11.85 9.78 11.88 9.86 11.88Z" fill="#FFFFFF" fill-opacity="1.000000" fill-rule="nonzero"/>
		<mask id="mask2_791" mask-type="alpha" maskUnits="userSpaceOnUse" x="5.000000" y="7.662842" width="5.094238" height="6.376831">
			<path id="Vector" d="M5 7.66L10.09 7.66L10.09 14.03L5 14.03L5 7.66Z" fill="#FFFFFF" fill-opacity="1.000000" fill-rule="nonzero"/>
		</mask>
		<g mask="url(#mask2_791)">
			<path id="Vector" d="M10.03 7.84L7.72 7.84C7.55 7.84 7.39 7.96 7.34 8.12L5.18 14.03L7.5 14.03L9.66 8.12C9.68 8.04 9.73 7.97 9.8 7.92C9.87 7.88 9.95 7.85 10.03 7.84L10.03 7.84Z" fill="#FFFFFF" fill-opacity="1.000000" fill-rule="nonzero"/>
		</g>
	</g>
</svg>
