<svg width="32" height="32" viewBox="0 0 32 32" fill="none" xmlns="http://www.w3.org/2000/svg">
<path d="M0 8C0 3.58172 3.58172 0 8 0H24C28.4183 0 32 3.58172 32 8V24C32 28.4183 28.4183 32 24 32H8C3.58172 32 0 28.4183 0 24V8Z" fill="white"/>
<path d="M9.00872 18.4675C9.00872 19.1767 9.16458 19.7212 9.3683 20.0506C9.6354 20.4821 10.0338 20.6649 10.4399 20.6649C10.9638 20.6649 11.443 20.535 12.3665 19.2594C13.1064 18.2369 13.9781 16.8017 14.5647 15.902L15.5581 14.3777C16.2481 13.3191 17.0468 12.1422 17.9626 11.3446C18.7102 10.6935 19.5167 10.3318 20.3283 10.3318C21.691 10.3318 22.9889 11.1204 23.9823 12.5995C25.0694 14.2194 25.5972 16.2598 25.5972 18.3655C25.5972 19.6172 25.3501 20.537 24.9298 21.2636C24.5236 21.9663 23.732 22.6684 22.4004 22.6684V20.6649C23.5406 20.6649 23.8251 19.6185 23.8251 18.421C23.8251 16.7145 23.4268 14.8208 22.5492 13.4676C21.9264 12.5078 21.1193 11.9213 20.2313 11.9213C19.2709 11.9213 18.4981 12.6447 17.6295 13.9346C17.1678 14.6199 16.6937 15.455 16.1615 16.3974L15.5755 17.4341C14.3985 19.5184 14.1004 19.9931 13.5119 20.7766C12.4803 22.1485 11.5995 22.6684 10.4399 22.6684C9.06434 22.6684 8.1945 22.0736 7.65578 21.1771C7.21601 20.4465 7 19.488 7 18.3958L9.00872 18.4675Z" fill="#0081FB"/>
<path d="M8.58398 12.741C9.50492 11.3232 10.8339 10.3318 12.3583 10.3318C13.241 10.3318 14.1186 10.5927 15.035 11.34C16.0375 12.1571 17.1059 13.5025 18.4388 15.7199L18.9167 16.5156C20.0704 18.4352 20.7269 19.4228 21.111 19.8885C21.6051 20.4866 21.9511 20.6649 22.4006 20.6649C23.5408 20.6649 23.8253 19.6185 23.8253 18.421L25.5973 18.3655C25.5973 19.6172 25.3503 20.537 24.9299 21.2636C24.5238 21.9663 23.7322 22.6684 22.4006 22.6684C21.5728 22.6684 20.8394 22.4889 20.0284 21.7248C19.405 21.1383 18.6761 20.0965 18.1154 19.1599L16.4475 16.3774C15.6106 14.981 14.843 13.9398 14.3987 13.4683C13.9207 12.9612 13.3064 12.3489 12.3259 12.3489C11.5324 12.3489 10.8585 12.905 10.2946 13.7557L8.58398 12.741Z" fill="url(#paint0_linear_2001_11175)"/>
<path d="M12.3258 12.3489C11.5322 12.3489 10.8584 12.905 10.2944 13.7557C9.497 14.9577 9.00872 16.7481 9.00872 18.4675C9.00872 19.1767 9.16458 19.7212 9.3683 20.0506L7.65578 21.1771C7.21601 20.4465 7 19.488 7 18.3958C7 16.4097 7.54583 14.3396 8.58382 12.741C9.50476 11.3232 10.8338 10.3318 12.3581 10.3318L12.3258 12.3489Z" fill="url(#paint1_linear_2001_11175)"/>
<defs>
<linearGradient id="paint0_linear_2001_11175" x1="10.9452" y1="17.8888" x2="23.7502" y2="18.5363" gradientUnits="userSpaceOnUse">
<stop stop-color="#0064E1"/>
<stop offset="0.4" stop-color="#0064E1"/>
<stop offset="0.83" stop-color="#0073EE"/>
<stop offset="1" stop-color="#0082FB"/>
</linearGradient>
<linearGradient id="paint1_linear_2001_11175" x1="9.91025" y1="19.3098" x2="9.91025" y2="14.5947" gradientUnits="userSpaceOnUse">
<stop stop-color="#0082FB"/>
<stop offset="1" stop-color="#0064E0"/>
</linearGradient>
</defs>
</svg>
