<svg width="49" height="48" viewBox="0 0 49 48" fill="none" xmlns="http://www.w3.org/2000/svg">
<g clip-path="url(#clip0_227_11435)">
<path d="M48.6667 24C48.6667 10.7452 37.9216 0 24.6667 0C11.4119 0 0.666748 10.7452 0.666748 24C0.666748 37.2548 11.4119 48 24.6667 48C37.9216 48 48.6667 37.2548 48.6667 24Z" fill="white"/>
<path d="M13.7064 27.3113C13.7064 28.3845 13.9423 29.2084 14.2506 29.7069C14.6547 30.3598 15.2576 30.6364 15.8722 30.6364C16.6649 30.6364 17.3901 30.44 18.7876 28.5096C19.9071 26.9624 21.2264 24.7906 22.114 23.4291L23.6172 21.1224C24.6614 19.5205 25.8701 17.7396 27.2558 16.5326C28.3871 15.5473 29.6075 15 30.8357 15C32.8977 15 34.8619 16.1934 36.3651 18.4316C38.0102 20.883 38.8088 23.9706 38.8088 27.1569C38.8088 29.0511 38.4349 30.4429 37.7988 31.5425C37.1842 32.6059 35.9863 33.6683 33.9713 33.6683V30.6364C35.6967 30.6364 36.1273 29.053 36.1273 27.2409C36.1273 24.6587 35.5244 21.7929 34.1964 19.7453C33.254 18.2929 32.0326 17.4054 30.6889 17.4054C29.2356 17.4054 28.0661 18.5001 26.7518 20.4519C26.0531 21.489 25.3357 22.7527 24.5303 24.1788L23.6436 25.7475C21.8625 28.9015 21.4113 29.6199 20.5208 30.8055C18.9598 32.8815 17.6269 33.6683 15.8722 33.6683C13.7906 33.6683 12.4743 32.7681 11.6591 31.4115C10.9936 30.3061 10.6667 28.8556 10.6667 27.2028L13.7064 27.3113Z" fill="#0081FB"/>
<path d="M13.0632 18.6457C14.4568 16.5003 16.468 15 18.7746 15C20.1105 15 21.4385 15.3949 22.8253 16.5257C24.3422 17.7621 25.9589 19.798 27.9759 23.1535L28.6991 24.3576C30.445 27.2624 31.4383 28.7569 32.0197 29.4616C32.7673 30.3667 33.2909 30.6364 33.9711 30.6364C35.6964 30.6364 36.127 29.053 36.127 27.2409L38.8085 27.1569C38.8085 29.0511 38.4347 30.4429 37.7986 31.5425C37.184 32.6059 35.9861 33.6683 33.9711 33.6683C32.7184 33.6683 31.6086 33.3966 30.3814 32.2403C29.438 31.3529 28.335 29.7763 27.4866 28.3591L24.9626 24.1485C23.6962 22.0353 22.5346 20.4597 21.8623 19.7462C21.139 18.979 20.2093 18.0524 18.7257 18.0524C17.5249 18.0524 16.5051 18.894 15.6518 20.1812L13.0632 18.6457Z" fill="url(#paint0_linear_227_11435)"/>
<path d="M18.7259 18.0524C17.5251 18.0524 16.5054 18.894 15.652 20.1812C14.4453 22.0001 13.7064 24.7095 13.7064 27.3113C13.7064 28.3845 13.9423 29.2084 14.2506 29.7069L11.6591 31.4115C10.9936 30.3061 10.6667 28.8556 10.6667 27.2028C10.6667 24.1973 11.4927 21.0648 13.0635 18.6457C14.4571 16.5003 16.4682 15 18.7748 15L18.7259 18.0524Z" fill="url(#paint1_linear_227_11435)"/>
</g>
<defs>
<linearGradient id="paint0_linear_227_11435" x1="16.6363" y1="26.4356" x2="36.0134" y2="27.4155" gradientUnits="userSpaceOnUse">
<stop stop-color="#0064E1"/>
<stop offset="0.4" stop-color="#0064E1"/>
<stop offset="0.83" stop-color="#0073EE"/>
<stop offset="1" stop-color="#0082FB"/>
</linearGradient>
<linearGradient id="paint1_linear_227_11435" x1="15.0707" y1="28.5858" x2="15.0707" y2="21.4508" gradientUnits="userSpaceOnUse">
<stop stop-color="#0082FB"/>
<stop offset="1" stop-color="#0064E0"/>
</linearGradient>
<clipPath id="clip0_227_11435">
<path d="M0.666748 24C0.666748 10.7452 11.4119 0 24.6667 0C37.9216 0 48.6667 10.7452 48.6667 24C48.6667 37.2548 37.9216 48 24.6667 48C11.4119 48 0.666748 37.2548 0.666748 24Z" fill="white"/>
</clipPath>
</defs>
</svg>
