<svg width="49" height="48" viewBox="0 0 49 48" fill="none" xmlns="http://www.w3.org/2000/svg">
<g clip-path="url(#clip0_2001_916)">
<path d="M48.7998 24C48.7998 10.7452 38.0546 0 24.7998 0C11.545 0 0.799805 10.7452 0.799805 24C0.799805 37.2548 11.545 48 24.7998 48C38.0546 48 48.7998 37.2548 48.7998 24Z" fill="#FF4500"/>
<path d="M38.4043 29.3784C39.8903 29.3777 41.3151 28.7867 42.3655 27.7356C43.4167 26.6844 44.0071 25.26 44.0083 23.7744C44.0095 22.2888 43.4167 20.8632 42.3655 19.8132C41.3143 18.7632 39.8899 18.1716 38.4043 18.1704C36.9187 18.1692 35.4931 18.762 34.4431 19.8132C33.3931 20.8644 32.8015 22.2888 32.8003 23.7744C32.7991 25.26 33.3919 26.6856 34.4431 27.7356C35.4943 28.7856 36.9187 29.3772 38.4043 29.3784Z" fill="#FEFFFF"/>
<path d="M11.1953 29.3784C12.6809 29.3772 14.1065 28.7868 15.1565 27.7356C16.2065 26.6844 16.7981 25.26 16.7993 23.7744C16.8005 22.2888 16.2077 20.8632 15.1565 19.8132C14.1053 18.7632 12.6809 18.1716 11.1953 18.1704C9.70971 18.1692 8.28411 18.762 7.23411 19.8132C6.18411 20.8644 5.59251 22.2888 5.59131 23.7744C5.59011 25.26 6.18291 26.6856 7.23411 27.7356C8.28448 28.7867 9.70933 29.3777 11.1953 29.3784Z" fill="#FEFFFF"/>
<path d="M24.8128 40.5877C33.6496 40.5877 40.8136 35.2152 40.8136 28.5876C40.8136 21.96 33.6496 16.5876 24.8128 16.5876C15.976 16.5876 8.81201 21.96 8.81201 28.5876C8.81201 35.2152 15.9748 40.5877 24.8128 40.5877Z" fill="#FEFFFF"/>
<path d="M20.0839 27.4404C19.9915 29.4588 18.6415 30.192 17.0707 30.192C15.4999 30.192 14.3023 29.0964 14.3947 27.0792C14.4871 25.062 15.8371 23.7408 17.4079 23.7408C18.9787 23.7408 20.1763 25.4256 20.0839 27.4428V27.4404Z" fill="url(#paint0_radial_2001_916)"/>
<path d="M29.5431 27.4404C29.6367 29.4588 30.9855 30.192 32.5563 30.192C34.1271 30.192 35.3247 29.0964 35.2323 27.0792C35.1399 25.062 33.7899 23.7408 32.2191 23.7408C30.6483 23.7408 29.4507 25.4256 29.5431 27.4428V27.4404Z" fill="url(#paint1_radial_2001_916)"/>
<path d="M18.4951 26.538C18.8383 26.538 19.1167 26.2344 19.1167 25.86C19.1167 25.4856 18.8383 25.182 18.4951 25.182C18.1519 25.182 17.8735 25.4856 17.8735 25.86C17.8735 26.2344 18.1519 26.538 18.4951 26.538Z" fill="#FFC49C"/>
<path d="M33.2896 26.538C33.6328 26.538 33.9112 26.2344 33.9112 25.86C33.9112 25.4856 33.6328 25.182 33.2896 25.182C32.9464 25.182 32.668 25.4856 32.668 25.86C32.668 26.2344 32.9464 26.538 33.2896 26.538Z" fill="#FFC49C"/>
<path d="M24.8129 31.7617L19.2761 32.0329C18.9809 32.0617 18.7937 32.3689 18.9089 32.6413C19.8761 34.9501 22.1549 36.5725 24.8129 36.5725C27.4709 36.5725 29.7521 34.9501 30.7169 32.6413C30.7428 32.5774 30.7534 32.5084 30.748 32.4398C30.7427 32.3711 30.7214 32.3047 30.6859 32.2456C30.6504 32.1866 30.6016 32.1367 30.5435 32.0997C30.4854 32.0628 30.4194 32.0399 30.3509 32.0329C28.5106 31.8495 26.6623 31.759 24.8129 31.7617Z" fill="url(#paint2_radial_2001_916)"/>
<path d="M33.5753 14.9556C34.6283 14.9553 35.6381 14.5369 36.3827 13.7923C37.1273 13.0477 37.5458 12.0379 37.5461 10.9848C37.5458 9.93181 37.1273 8.92201 36.3827 8.17741C35.6381 7.43281 34.6283 7.01436 33.5753 7.01404C32.5223 7.01436 31.5125 7.43281 30.7679 8.17741C30.0233 8.92201 29.6048 9.93181 29.6045 10.9848C29.6048 12.0379 30.0233 13.0477 30.7679 13.7923C31.5125 14.5369 32.5223 14.9553 33.5753 14.9556Z" fill="#FEFFFF"/>
<path d="M24.7552 17.0941C24.28 17.0941 23.896 16.8961 23.896 16.5901C23.896 13.0321 26.7916 10.1365 30.3496 10.1365C30.5771 10.1377 30.7949 10.2287 30.9558 10.3895C31.1166 10.5504 31.2075 10.7682 31.2088 10.9957C31.2075 11.2232 31.1166 11.441 30.9558 11.6018C30.7949 11.7627 30.5771 11.8536 30.3496 11.8549C29.0954 11.8571 27.8932 12.3563 27.0063 13.2432C26.1194 14.13 25.6202 15.3323 25.618 16.5865C25.618 16.8925 25.234 17.0905 24.7588 17.0905L24.7564 17.0929L24.7552 17.0941Z" fill="url(#paint3_radial_2001_916)"/>
<path d="M14.7604 27.2556C14.8468 25.3536 16.1116 24.1092 17.5804 24.1092C18.9712 24.1092 20.0476 25.53 20.0872 27.294C20.1256 25.32 18.9472 23.7408 17.4088 23.7408C15.8704 23.7408 14.488 25.0848 14.3956 27.1188C14.3032 29.1528 15.4996 30.192 17.0716 30.192H17.1868C15.7552 30.156 14.6752 29.1276 14.7628 27.258L14.7604 27.2556ZM34.8664 27.2556C34.7788 25.3536 33.5152 24.1092 32.0464 24.1092C30.6556 24.1092 29.5804 25.53 29.5396 27.294C29.5012 25.32 30.6796 23.7408 32.218 23.7408C33.7888 23.7408 35.1388 25.0848 35.2312 27.1188C35.3236 29.1528 34.1272 30.192 32.5552 30.192H32.44C33.8716 30.156 34.9516 29.1276 34.864 27.258L34.8664 27.2556Z" fill="#842123"/>
</g>
<defs>
<radialGradient id="paint0_radial_2001_916" cx="0" cy="0" r="1" gradientUnits="userSpaceOnUse" gradientTransform="translate(279.772 704.829) scale(75.8109 140.722)">
<stop stop-color="#FF6600"/>
<stop offset="0.5" stop-color="#FF4500"/>
<stop offset="0.7" stop-color="#FC4301"/>
<stop offset="0.82" stop-color="#F43F07"/>
<stop offset="0.92" stop-color="#E53812"/>
<stop offset="1" stop-color="#D4301F"/>
</radialGradient>
<radialGradient id="paint1_radial_2001_916" cx="0" cy="0" r="1" gradientUnits="userSpaceOnUse" gradientTransform="translate(-474.065 -648.156) rotate(180) scale(75.811 140.722)">
<stop stop-color="#FF6600"/>
<stop offset="0.5" stop-color="#FF4500"/>
<stop offset="0.7" stop-color="#FC4301"/>
<stop offset="0.82" stop-color="#F43F07"/>
<stop offset="0.92" stop-color="#E53812"/>
<stop offset="1" stop-color="#D4301F"/>
</radialGradient>
<radialGradient id="paint2_radial_2001_916" cx="0" cy="0" r="1" gradientUnits="userSpaceOnUse" gradientTransform="translate(1985.88 1099.73) scale(1084.57 117.467)">
<stop stop-color="#172E35"/>
<stop offset="0.29" stop-color="#0E1C21"/>
<stop offset="0.73" stop-color="#030708"/>
<stop offset="1"/>
</radialGradient>
<radialGradient id="paint3_radial_2001_916" cx="0" cy="0" r="1" gradientUnits="userSpaceOnUse" gradientTransform="translate(1221.37 575.822) scale(295.966 267.897)">
<stop offset="0.48" stop-color="#7A9299"/>
<stop offset="0.67" stop-color="#172E35"/>
<stop offset="0.75"/>
<stop offset="0.82" stop-color="#172E35"/>
</radialGradient>
<clipPath id="clip0_2001_916">
<path d="M0.799805 24C0.799805 10.7452 11.545 0 24.7998 0C38.0546 0 48.7998 10.7452 48.7998 24C48.7998 37.2548 38.0546 48 24.7998 48C11.545 48 0.799805 37.2548 0.799805 24Z" fill="white"/>
</clipPath>
</defs>
</svg>
