<svg width="49" height="48" viewBox="0 0 49 48" fill="none" xmlns="http://www.w3.org/2000/svg">
<g clip-path="url(#clip0_227_11491)">
<path d="M48.6667 24C48.6667 10.7452 37.9216 0 24.6667 0C11.4119 0 0.666748 10.7452 0.666748 24C0.666748 37.2548 11.4119 48 24.6667 48C37.9216 48 48.6667 37.2548 48.6667 24Z" fill="white"/>
<path d="M16.0777 28.9646C16.2286 28.8106 16.436 28.7208 16.656 28.7208H36.6083C36.9728 28.7208 37.1551 29.17 36.8974 29.433L32.956 33.4561C32.8051 33.6101 32.5977 33.7 32.3777 33.7H12.4254C12.0609 33.7 11.8786 33.2508 12.1363 32.9877L16.0777 28.9646Z" fill="url(#paint0_linear_227_11491)"/>
<path d="M16.0775 13.9438C16.2347 13.7898 16.4421 13.7 16.6558 13.7H36.608C36.9726 13.7 37.1549 14.1491 36.8972 14.4122L32.9558 18.4353C32.8049 18.5893 32.5975 18.6791 32.3775 18.6791H12.4252C12.0607 18.6791 11.8784 18.2299 12.1361 17.9669L16.0775 13.9438Z" fill="url(#paint1_linear_227_11491)"/>
<path d="M32.956 21.4061C32.8051 21.2521 32.5977 21.1623 32.3777 21.1623H12.4254C12.0609 21.1623 11.8786 21.6114 12.1363 21.8745L16.0777 25.8976C16.2286 26.0516 16.436 26.1414 16.656 26.1414H36.6083C36.9728 26.1414 37.1551 25.6923 36.8974 25.4292L32.956 21.4061Z" fill="url(#paint2_linear_227_11491)"/>
</g>
<defs>
<linearGradient id="paint0_linear_227_11491" x1="34.7022" y1="-56.2885" x2="-18.2173" y2="-31.5659" gradientUnits="userSpaceOnUse">
<stop stop-color="#00FFA3"/>
<stop offset="1" stop-color="#DC1FFF"/>
</linearGradient>
<linearGradient id="paint1_linear_227_11491" x1="28.6643" y1="-8.87773" x2="-24.2552" y2="15.8449" gradientUnits="userSpaceOnUse">
<stop stop-color="#00FFA3"/>
<stop offset="1" stop-color="#DC1FFF"/>
</linearGradient>
<linearGradient id="paint2_linear_227_11491" x1="31.6641" y1="9.67763" x2="17.4052" y2="36.4347" gradientUnits="userSpaceOnUse">
<stop stop-color="#00FFA3"/>
<stop offset="1" stop-color="#DC1FFF"/>
</linearGradient>
<clipPath id="clip0_227_11491">
<path d="M0.666748 24C0.666748 10.7452 11.4119 0 24.6667 0C37.9216 0 48.6667 10.7452 48.6667 24C48.6667 37.2548 37.9216 48 24.6667 48C11.4119 48 0.666748 37.2548 0.666748 24Z" fill="white"/>
</clipPath>
</defs>
</svg>
