<svg width="32" height="32" viewBox="0 0 32 32" fill="none" xmlns="http://www.w3.org/2000/svg">
<path d="M0 8C0 3.58172 3.58172 0 8 0H24C28.4183 0 32 3.58172 32 8V24C32 28.4183 28.4183 32 24 32H8C3.58172 32 0 28.4183 0 24V8Z" fill="#C90000"/>
<path d="M16 23.9657L18.2373 11.3761C20.3718 11.3761 21.044 11.6094 21.1404 12.5647C21.1404 12.5647 22.5718 12.0295 23.2937 10.9467C20.4776 9.64289 17.6461 9.58377 17.6461 9.58377L15.9938 11.5939H15.9969L14.3446 9.58377C14.3446 9.58377 11.513 9.64289 8.697 10.9467C9.4189 12.0295 10.8503 12.5647 10.8503 12.5647C10.9467 11.6094 11.6188 11.3761 13.7378 11.373L16 23.9657ZM16 9.0019C18.2777 8.98323 20.8821 9.35351 23.5519 10.5173C23.9098 9.87627 24 9.59311 24 9.59311C21.0844 8.43869 18.3524 8.04351 16 8.03418C13.6476 8.04351 10.9156 8.43869 8 9.59311C8 9.59311 8.13069 9.94161 8.44807 10.5173C11.1147 9.35662 13.7223 8.98634 16 9.0019Z" fill="white"/>
</svg>
