<svg width="105" height="146" viewBox="0 0 105 146" fill="none" xmlns="http://www.w3.org/2000/svg">
<g clip-path="url(#clip0_2001_8576)">
<path d="M90.2197 106.864L48.294 145.335L0.112793 101.724L9.16571 92.6791L9.85154 92.7794L47.9655 127.011L70.4678 106.072L1.17402 43.7109L48.0954 0L97.54 44.4312L87.8084 53.4371L87.0901 53.4085L48.2759 18.0979L21.3915 43.7145L89.4219 104.462L90.5554 106.079L90.2197 106.864Z" fill="#008CFF"/>
<path d="M48.4533 115.411L0.246826 72.5599L0.427307 71.6568L9.36472 63.2852L58.0368 106.251" fill="#008CFF"/>
<path d="M90.2882 67.8723L80.4014 76.8604L48.4455 48.0005L47.738 47.9933L43.2693 52.1146C42.1142 51.0037 33.8915 44.2698 34.0431 43.4097L48.5862 29.9492L90.2882 67.8759V67.8723Z" fill="#008CFF"/>
</g>
<defs>
<clipPath id="clip0_2001_8576">
<rect width="104.415" height="145.335" fill="white" transform="translate(0.112793)"/>
</clipPath>
</defs>
</svg>
