<svg width="398" height="150" viewBox="0 0 398 150" fill="none" xmlns="http://www.w3.org/2000/svg">
<path d="M140.448 115.22C133.941 115.22 129.021 113.39 125.686 109.73C122.351 105.989 120.684 100.661 120.684 93.748V88.868H133.372V94.724C133.372 100.255 135.69 103.02 140.326 103.02C142.603 103.02 144.311 102.369 145.45 101.068C146.67 99.6853 147.28 97.4893 147.28 94.48C147.28 90.9013 146.467 87.77 144.84 85.086C143.213 82.3207 140.204 79.0267 135.812 75.204C130.281 70.324 126.418 65.932 124.222 62.028C122.026 58.0427 120.928 53.5693 120.928 48.608C120.928 41.8573 122.636 36.652 126.052 32.992C129.468 29.2507 134.429 27.38 140.936 27.38C147.361 27.38 152.201 29.2507 155.454 32.992C158.789 36.652 160.456 41.9387 160.456 48.852V52.39H147.768V47.998C147.768 45.07 147.199 42.9553 146.06 41.654C144.921 40.2713 143.254 39.58 141.058 39.58C136.585 39.58 134.348 42.3047 134.348 47.754C134.348 50.8447 135.161 53.732 136.788 56.416C138.496 59.1 141.546 62.3533 145.938 66.176C151.55 71.056 155.413 75.4887 157.528 79.474C159.643 83.4593 160.7 88.136 160.7 93.504C160.7 100.499 158.951 105.867 155.454 109.608C152.038 113.349 147.036 115.22 140.448 115.22ZM178.782 77.644L162.556 28.6H176.83L185.98 59.954H186.224L195.374 28.6H208.428L192.202 77.644V114H178.782V77.644ZM213.253 28.6H233.017C239.687 28.6 244.689 30.3893 248.023 33.968C251.358 37.5467 253.025 42.7927 253.025 49.706V58.124C253.025 65.0373 251.358 70.2833 248.023 73.862C244.689 77.4407 239.687 79.23 233.017 79.23H226.673V114H213.253V28.6ZM233.017 67.03C235.213 67.03 236.84 66.42 237.897 65.2C239.036 63.98 239.605 61.906 239.605 58.978V48.852C239.605 45.924 239.036 43.85 237.897 42.63C236.84 41.41 235.213 40.8 233.017 40.8H226.673V67.03H233.017ZM259.094 28.6H272.514V63.37H286.91V28.6H300.33V114H286.91V75.57H272.514V114H259.094V28.6ZM309.104 28.6H345.704V40.8H322.524V63.37H340.946V75.57H322.524V101.8H345.704V114H309.104V28.6ZM364.277 70.324L349.515 28.6H363.667L372.695 56.172H372.939L382.211 28.6H394.899L380.137 70.324L395.631 114H381.479L371.719 84.232H371.475L361.471 114H348.783L364.277 70.324Z" fill="white"/>
<path d="M86.2965 102.941L46.1437 140L0 97.9903L8.6701 89.277L9.32693 89.3737L45.8292 122.349L67.38 102.178L1.01635 42.1063L45.9536 0L93.3073 42.8002L83.9873 51.4756L83.2993 51.4479L46.1265 17.4335L20.3789 42.1098L85.5325 100.628L86.618 102.185L86.2965 102.941Z" fill="url(#paint0_linear_2001_62554)"/>
<path d="M46.2959 111.174L0.12793 69.8964L0.300779 69.0265L8.86026 60.9622L55.4742 102.35" fill="url(#paint1_linear_2001_62554)"/>
<path d="M89.8648 68.9805L80.4054 77.8155L46.2889 46.2386L45.6113 46.2317L41.3316 50.2017C40.2254 49.1315 32.3504 42.6449 32.4956 41.8163L46.4237 28.8499L89.8648 68.9805Z" fill="url(#paint2_linear_2001_62554)"/>
<defs>
<linearGradient id="paint0_linear_2001_62554" x1="46.6536" y1="0" x2="46.6536" y2="140" gradientUnits="userSpaceOnUse">
<stop stop-color="#202FFF"/>
<stop offset="1" stop-color="#F6F9FF"/>
</linearGradient>
<linearGradient id="paint1_linear_2001_62554" x1="27.801" y1="60.9622" x2="27.801" y2="111.174" gradientUnits="userSpaceOnUse">
<stop stop-color="#202FFF"/>
<stop offset="1" stop-color="#F6F9FF"/>
</linearGradient>
<linearGradient id="paint2_linear_2001_62554" x1="61.1792" y1="28.8499" x2="61.1792" y2="77.8155" gradientUnits="userSpaceOnUse">
<stop stop-color="#202FFF"/>
<stop offset="1" stop-color="#F6F9FF"/>
</linearGradient>
</defs>
</svg>
