<svg width="112" height="40" viewBox="0 0 112 40" fill="none" xmlns="http://www.w3.org/2000/svg">
<path d="M102.66 20.2246L98.6435 8.87109H102.494L104.951 16.3737H105.017L107.54 8.87109H110.993L106.976 20.2246L111.192 32.1092H107.341L104.685 24.0091H104.619L101.897 32.1092H98.4443L102.66 20.2246Z" fill="black"/>
<path d="M87.6475 8.87109H97.6066V12.1908H91.2992V18.3323H96.312V21.652H91.2992V28.7895H97.6066V32.1092H87.6475V8.87109Z" fill="black"/>
<path d="M74.0391 8.87109H77.6908V18.3323H81.608V8.87109H85.2597V32.1092H81.608V21.652H77.6908V32.1092H74.0391V8.87109Z" fill="black"/>
<path d="M61.5654 8.87109H66.9434C68.7582 8.87109 70.1193 9.35799 71.0267 10.3318C71.934 11.3056 72.3877 12.733 72.3877 14.6142V16.9048C72.3877 18.786 71.934 20.2135 71.0267 21.1873C70.1193 22.1611 68.7582 22.648 66.9434 22.648H65.2171V32.1092H61.5654V8.87109ZM66.9434 19.3282C67.5409 19.3282 67.9836 19.1623 68.2713 18.8303C68.5811 18.4983 68.736 17.934 68.736 17.1372V14.3818C68.736 13.5851 68.5811 13.0208 68.2713 12.6888C67.9836 12.3568 67.5409 12.1908 66.9434 12.1908H65.2171V19.3282H66.9434Z" fill="black"/>
<path d="M52.1857 22.2164L47.7705 8.87109H51.6546L54.1444 17.4028H54.2108L56.7006 8.87109H60.2527L55.8374 22.2164V32.1092H52.1857V22.2164Z" fill="black"/>
<path d="M41.7549 32.4411C39.9844 32.4411 38.6454 31.9431 37.738 30.9472C36.8306 29.9292 36.377 28.4796 36.377 26.5984V25.2705H39.8295V26.864C39.8295 28.3689 40.4602 29.1214 41.7217 29.1214C42.3414 29.1214 42.8062 28.9443 43.116 28.5902C43.448 28.214 43.614 27.6164 43.614 26.7976C43.614 25.8238 43.3926 24.9717 42.95 24.2414C42.5074 23.4889 41.6885 22.5926 40.4934 21.5524C38.9885 20.2245 37.9372 19.0294 37.3397 17.9671C36.7421 16.8826 36.4433 15.6654 36.4433 14.3154C36.4433 12.4785 36.9081 11.0621 37.8376 10.0661C38.7672 9.04809 40.1172 8.53906 41.8877 8.53906C43.6361 8.53906 44.9529 9.04809 45.8382 10.0661C46.7456 11.0621 47.1993 12.5006 47.1993 14.3818V15.3445H43.7467V14.1494C43.7467 13.3527 43.5918 12.7772 43.282 12.4231C42.9721 12.0469 42.5184 11.8588 41.9209 11.8588C40.7037 11.8588 40.095 12.6002 40.095 14.083C40.095 14.924 40.3164 15.7097 40.759 16.44C41.2238 17.1704 42.0537 18.0556 43.2488 19.0958C44.7759 20.4237 45.8271 21.6299 46.4025 22.7143C46.978 23.7987 47.2657 25.0713 47.2657 26.532C47.2657 28.4353 46.7898 29.896 45.8382 30.914C44.9087 31.9321 43.5476 32.4411 41.7549 32.4411Z" fill="black"/>
<path d="M24.891 29.4116L13.3095 40L0 27.9972L2.50076 25.5077L2.69022 25.5353L13.2187 34.9568L19.4348 29.1937L0.293152 12.0304L13.2546 0L26.9131 12.2286L24.2249 14.7073L24.0265 14.6994L13.3045 4.98101L5.87799 12.0314L24.6706 28.7508L24.9837 29.1956L24.891 29.4116Z" fill="url(#paint0_linear_517_9189)"/>
<path d="M13.3536 31.7643L0.0371094 19.9706L0.0869651 19.7221L2.55582 17.418L16.0009 29.2432" fill="url(#paint1_linear_517_9189)"/>
<path d="M24.9097 18.6796L22.1786 21.1534L13.3511 13.2104L13.1557 13.2084L11.9213 14.3427C11.6022 14.0369 9.33076 12.1836 9.37264 11.9469L13.39 8.24219L24.9097 18.6806V18.6796Z" fill="url(#paint2_linear_517_9189)"/>
<defs>
<linearGradient id="paint0_linear_517_9189" x1="13.4566" y1="0" x2="13.4566" y2="40" gradientUnits="userSpaceOnUse">
<stop/>
<stop offset="1" stop-color="#202FFF"/>
</linearGradient>
<linearGradient id="paint1_linear_517_9189" x1="8.01901" y1="17.418" x2="8.01901" y2="31.7643" gradientUnits="userSpaceOnUse">
<stop/>
<stop offset="1" stop-color="#202FFF"/>
</linearGradient>
<linearGradient id="paint2_linear_517_9189" x1="17.1409" y1="8.24219" x2="17.1409" y2="21.1534" gradientUnits="userSpaceOnUse">
<stop/>
<stop offset="1" stop-color="#202FFF"/>
</linearGradient>
</defs>
</svg>
