<svg width="276" height="89" viewBox="0 0 276 89" fill="none" xmlns="http://www.w3.org/2000/svg">
<path d="M20.448 88.22C13.9413 88.22 9.02067 86.39 5.686 82.73C2.35133 78.9887 0.684 73.6613 0.684 66.748V61.868H13.372V67.724C13.372 73.2547 15.69 76.02 20.326 76.02C22.6033 76.02 24.3113 75.3693 25.45 74.068C26.67 72.6853 27.28 70.4893 27.28 67.48C27.28 63.9013 26.4667 60.77 24.84 58.086C23.2133 55.3207 20.204 52.0267 15.812 48.204C10.2813 43.324 6.418 38.932 4.222 35.028C2.026 31.0427 0.928 26.5693 0.928 21.608C0.928 14.8573 2.636 9.652 6.052 5.992C9.468 2.25066 14.4293 0.379995 20.936 0.379995C27.3613 0.379995 32.2007 2.25066 35.454 5.992C38.7887 9.652 40.456 14.9387 40.456 21.852V25.39H27.768V20.998C27.768 18.07 27.1987 15.9553 26.06 14.654C24.9213 13.2713 23.254 12.58 21.058 12.58C16.5847 12.58 14.348 15.3047 14.348 20.754C14.348 23.8447 15.1613 26.732 16.788 29.416C18.496 32.1 21.546 35.3533 25.938 39.176C31.55 44.056 35.4133 48.4887 37.528 52.474C39.6427 56.4593 40.7 61.136 40.7 66.504C40.7 73.4987 38.9513 78.8667 35.454 82.608C32.038 86.3493 27.036 88.22 20.448 88.22ZM58.7817 50.644L42.5557 1.59999H56.8297L65.9797 32.954H66.2237L75.3737 1.59999H88.4277L72.2017 50.644V87H58.7817V50.644ZM93.2534 1.59999H113.017C119.687 1.59999 124.689 3.38933 128.023 6.968C131.358 10.5467 133.025 15.7927 133.025 22.706V31.124C133.025 38.0373 131.358 43.2833 128.023 46.862C124.689 50.4407 119.687 52.23 113.017 52.23H106.673V87H93.2534V1.59999ZM113.017 40.03C115.213 40.03 116.84 39.42 117.897 38.2C119.036 36.98 119.605 34.906 119.605 31.978V21.852C119.605 18.924 119.036 16.85 117.897 15.63C116.84 14.41 115.213 13.8 113.017 13.8H106.673V40.03H113.017ZM139.094 1.59999H152.514V36.37H166.91V1.59999H180.33V87H166.91V48.57H152.514V87H139.094V1.59999ZM189.104 1.59999H225.704V13.8H202.524V36.37H220.946V48.57H202.524V74.8H225.704V87H189.104V1.59999ZM244.277 43.324L229.515 1.59999H243.667L252.695 29.172H252.939L262.211 1.59999H274.899L260.137 43.324L275.631 87H261.479L251.719 57.232H251.475L241.471 87H228.783L244.277 43.324Z" fill="white"/>
</svg>
