<svg width="518" height="146" viewBox="0 0 518 146" fill="none" xmlns="http://www.w3.org/2000/svg">
<path d="M473.586 71.4572L452.725 12.4941H472.724L485.482 51.458H485.827L498.93 12.4941H516.86L495.999 71.4572L517.895 133.179H497.895L484.103 91.1115H483.758L469.621 133.179H451.69L473.586 71.4572Z" fill="white"/>
<path d="M395.618 12.4941H447.34V29.7348H414.582V61.63H440.616V78.8707H414.582V115.938H447.34V133.179H395.618V12.4941Z" fill="white"/>
<path d="M324.945 12.4941H343.91V61.63H364.254V12.4941H383.218V133.179H364.254V78.8707H343.91V133.179H324.945V12.4941Z" fill="white"/>
<path d="M260.164 12.4941H288.094C297.519 12.4941 304.587 15.0228 309.3 20.08C314.012 25.1373 316.369 32.5508 316.369 42.3205V54.2165C316.369 63.9862 314.012 71.3997 309.3 76.457C304.587 81.5142 297.519 84.0428 288.094 84.0428H279.129V133.179H260.164V12.4941ZM288.094 66.8022C291.197 66.8022 293.496 65.9402 294.99 64.2161C296.599 62.492 297.404 59.5611 297.404 55.4234V41.1136C297.404 36.9759 296.599 34.045 294.99 32.3209C293.496 30.5968 291.197 29.7348 288.094 29.7348H279.129V66.8022H288.094Z" fill="white"/>
<path d="M211.45 81.8016L188.52 12.4941H208.692L221.622 56.8026H221.967L234.897 12.4941H253.345L230.415 81.8016V133.179H211.45V81.8016Z" fill="white"/>
<path d="M157.278 134.901C148.083 134.901 141.129 132.315 136.417 127.143C131.704 121.856 129.348 114.327 129.348 104.558V97.6614H147.278V105.937C147.278 113.753 150.554 117.661 157.106 117.661C160.324 117.661 162.738 116.741 164.347 114.902C166.071 112.948 166.933 109.845 166.933 105.592C166.933 100.535 165.783 96.1098 163.485 92.3168C161.186 88.4089 156.933 83.754 150.727 78.3519C142.911 71.4556 137.451 65.249 134.348 59.732C131.245 54.1001 129.693 47.7785 129.693 40.7673C129.693 31.2275 132.107 23.8715 136.934 18.6993C141.761 13.4121 148.773 10.7686 157.968 10.7686C167.048 10.7686 173.887 13.4121 178.484 18.6993C183.196 23.8715 185.553 31.3424 185.553 41.1121V46.1119H167.622V39.9053C167.622 35.7675 166.818 32.7791 165.209 30.9401C163.6 28.9862 161.243 28.0092 158.14 28.0092C151.818 28.0092 148.658 31.8596 148.658 39.5604C148.658 43.9281 149.807 48.0084 152.106 51.8013C154.52 55.5942 158.83 60.1918 165.036 65.5938C172.967 72.4901 178.427 78.7542 181.415 84.3861C184.403 90.0181 185.897 96.627 185.897 104.213C185.897 114.098 183.426 121.683 178.484 126.971C173.657 132.258 166.588 134.901 157.278 134.901Z" fill="white"/>
<g clip-path="url(#clip0_2044_9337)">
<path d="M90.2197 106.864L48.294 145.335L0.112793 101.724L9.16571 92.6791L9.85154 92.7794L47.9655 127.011L70.4678 106.072L1.17402 43.7109L48.0954 0L97.54 44.4312L87.8084 53.4371L87.0901 53.4085L48.2759 18.0979L21.3915 43.7145L89.4219 104.462L90.5554 106.079L90.2197 106.864Z" fill="#008CFF"/>
<path d="M48.4535 115.411L0.24707 72.5599L0.427551 71.6568L9.36496 63.2852L58.0371 106.251" fill="#008CFF"/>
<path d="M90.2882 67.8723L80.4014 76.8604L48.4455 48.0005L47.738 47.9933L43.2693 52.1146C42.1142 51.0037 33.8915 44.2698 34.0431 43.4097L48.5862 29.9492L90.2882 67.8759V67.8723Z" fill="#008CFF"/>
</g>
<defs>
<clipPath id="clip0_2044_9337">
<rect width="104.415" height="145.335" fill="white" transform="translate(0.112793)"/>
</clipPath>
</defs>
</svg>
